<svg width="16" height="15" viewBox="0 0 16 15" fill="none" xmlns="http://www.w3.org/2000/svg">
<path d="M14 2V10H5.40608L2 12V2H14ZM14 1.02474e-07H2C1.73733 -8.39915e-05 1.47722 0.0515908 1.23453 0.15207C0.991844 0.25255 0.771341 0.399872 0.585607 0.585606C0.399873 0.771339 0.252551 0.991842 0.152072 1.23453C0.0515922 1.47722 -8.25644e-05 1.73733 1.52953e-06 2V12C-0.000434402 12.3526 0.0923208 12.699 0.268869 13.0042C0.445417 13.3094 0.699493 13.5626 1.00535 13.738C1.31121 13.9134 1.65798 14.0048 2.01057 14.0031C2.36315 14.0013 2.70902 13.9064 3.01313 13.728L5.94943 12H14.0006C14.531 11.9998 15.0395 11.789 15.4144 11.414C15.7894 11.0389 16 10.5303 16 10V2C16.0001 1.73733 15.9484 1.47722 15.8479 1.23453C15.7474 0.991842 15.6001 0.771339 15.4144 0.585606C15.2287 0.399872 15.0082 0.25255 14.7655 0.15207C14.5228 0.0515908 14.2627 -8.39915e-05 14 1.02474e-07Z" fill="#1C92FF"/>
</svg>
