<svg xmlns="http://www.w3.org/2000/svg" viewBox="0 0 32 32">
  <path d="M7 5C5.90625 5 5 5.90625 5 7L5 25C5 26.09375 5.90625 27 7 27L25 27C26.09375 27 27 26.09375 27 25L27 7C27 5.90625 26.09375 5 25 5 Z M 7 7L25 7L25 25L19.8125 25L19.8125 18.25L22.40625 18.25L22.78125 15.25L19.8125 15.25L19.8125 13.3125C19.8125 12.4375 20.027344 11.84375 21.28125 11.84375L22.90625 11.84375L22.90625 9.125C22.628906 9.089844 21.667969 9.03125 20.5625 9.03125C18.257813 9.03125 16.6875 10.417969 16.6875 13L16.6875 15.25L14.0625 15.25L14.0625 18.25L16.6875 18.25L16.6875 25L7 25Z" fill="#FFFFFF" />
</svg>