<svg width="61" height="61" viewBox="0 0 61 61" fill="none" xmlns="http://www.w3.org/2000/svg">
<circle cx="30.5" cy="30.5" r="30.5" fill="white"/>
<path d="M31 12C25.9609 12 21.1282 14.0018 17.565 17.565C14.0018 21.1282 12 25.9609 12 31C12 36.0391 14.0018 40.8718 17.565 44.435C21.1282 47.9982 25.9609 50 31 50C36.0391 50 40.8718 47.9982 44.435 44.435C47.9982 40.8718 50 36.0391 50 31C50 25.9609 47.9982 21.1282 44.435 17.565C40.8718 14.0018 36.0391 12 31 12V12Z" fill="#039BE5"/>
<path d="M33.572 36.036H38.489L39.261 31.041H33.571V28.311C33.571 26.236 34.249 24.396 36.19 24.396H39.309V20.037C38.761 19.963 37.602 19.801 35.412 19.801C30.839 19.801 28.158 22.216 28.158 27.718V31.041H23.457V36.036H28.158V49.765C29.089 49.905 30.032 50 31 50C31.875 50 32.729 49.92 33.572 49.806V36.036Z" fill="white"/>
</svg>
