<svg xmlns="http://www.w3.org/2000/svg" viewBox="0 0 24 24">
  <path d="M8 2C6.9069372 2 6 2.9069372 6 4L6 6L4 6C2.895 6 2 6.895 2 8L2 17C2 18.105 2.895 19 4 19L6 19L6 20C6 21.093063 6.9069372 22 8 22L16 22C17.093063 22 18 21.093063 18 20L18 19L20 19C21.105 19 22 18.105 22 17L22 8C22 6.895 21.105 6 20 6L18 6L18 4C18 2.9069372 17.093063 2 16 2L8 2 z M 8 4L16 4L16 20L8 20L8 4 z M 10 6L10 8L14 8L14 6L10 6 z M 4 8L6 8L6 17L4 17L4 8 z M 18 8L20 8L20 17L18 17L18 8 z M 10 10L10 12L14 12L14 10L10 10 z M 10 13L10 15L14 15L14 13L10 13 z M 10 16L10 18L14 18L14 16L10 16 z" fill="#979797" />
</svg>