<svg width="22" height="22" viewBox="0 0 22 22" fill="none" xmlns="http://www.w3.org/2000/svg">
<path d="M9.625 22H4.125C3.50992 21.9985 2.90322 21.8572 2.3507 21.5869C1.64811 21.2536 1.05438 20.728 0.638329 20.0711C0.222278 19.4141 0.000946702 18.6526 0 17.875V6.875C0 6.51033 0.144869 6.16059 0.402731 5.90273C0.660594 5.64487 1.01033 5.5 1.375 5.5C1.73967 5.5 2.08941 5.64487 2.34727 5.90273C2.60513 6.16059 2.75 6.51033 2.75 6.875V17.875C2.75 18.2397 2.89487 18.5894 3.15273 18.8473C3.41059 19.1051 3.76033 19.25 4.125 19.25C4.48967 19.25 4.83941 19.1051 5.09727 18.8473C5.35513 18.5894 5.5 18.2397 5.5 17.875V2.75C5.50203 2.02128 5.79242 1.32298 6.3077 0.807695C6.82299 0.29241 7.52128 0.0020319 8.25 0H19.25C19.9787 0.0020319 20.677 0.29241 21.1923 0.807695C21.7076 1.32298 21.998 2.02128 22 2.75V19.25C21.9978 19.9787 21.7074 20.6769 21.1921 21.1921C20.6769 21.7074 19.9787 21.9978 19.25 22H9.625ZM8.25 19.25H19.25V2.75H8.25V19.25ZM12.375 12.375C12.0103 12.375 11.6606 12.2301 11.4027 11.9723C11.1449 11.7144 11 11.3647 11 11C11 10.6353 11.1449 10.2856 11.4027 10.0277C11.6606 9.76987 12.0103 9.625 12.375 9.625H15.125C15.4897 9.625 15.8394 9.76987 16.0973 10.0277C16.3551 10.2856 16.5 10.6353 16.5 11C16.5 11.3647 16.3551 11.7144 16.0973 11.9723C15.8394 12.2301 15.4897 12.375 15.125 12.375H12.375ZM12.375 8.25C12.0103 8.25 11.6606 8.10513 11.4027 7.84727C11.1449 7.58941 11 7.23967 11 6.875C11 6.51033 11.1449 6.16059 11.4027 5.90273C11.6606 5.64487 12.0103 5.5 12.375 5.5H15.125C15.4897 5.5 15.8394 5.64487 16.0973 5.90273C16.3551 6.16059 16.5 6.51033 16.5 6.875C16.5 7.23967 16.3551 7.58941 16.0973 7.84727C15.8394 8.10513 15.4897 8.25 15.125 8.25H12.375Z" fill="#AEAEAE"/>
</svg>
