<svg xmlns="http://www.w3.org/2000/svg" viewBox="0 0 32 32">
  <path d="M9.5 4C6.472656 4 4 6.472656 4 9.5C4 12.527344 6.472656 15 9.5 15C12.527344 15 15 12.527344 15 9.5C15 6.472656 12.527344 4 9.5 4 Z M 18 4L18 14L28 14L28 4 Z M 9.5 6C11.445313 6 13 7.554688 13 9.5C13 11.445313 11.445313 13 9.5 13C7.554688 13 6 11.445313 6 9.5C6 7.554688 7.554688 6 9.5 6 Z M 20 6L26 6L26 12L20 12 Z M 9.5 17C6.472656 17 4 19.472656 4 22.5C4 25.527344 6.472656 28 9.5 28C12.527344 28 15 25.527344 15 22.5C15 19.472656 12.527344 17 9.5 17 Z M 22.5 17C19.472656 17 17 19.472656 17 22.5C17 25.527344 19.472656 28 22.5 28C25.527344 28 28 25.527344 28 22.5C28 19.472656 25.527344 17 22.5 17 Z M 9.5 19C11.445313 19 13 20.554688 13 22.5C13 24.445313 11.445313 26 9.5 26C7.554688 26 6 24.445313 6 22.5C6 20.554688 7.554688 19 9.5 19 Z M 22.5 19C24.445313 19 26 20.554688 26 22.5C26 24.445313 24.445313 26 22.5 26C20.554688 26 19 24.445313 19 22.5C19 20.554688 20.554688 19 22.5 19Z" fill="#FFFFFF" />
</svg>