<svg width="152" height="340" viewBox="0 0 152 340" fill="none" xmlns="http://www.w3.org/2000/svg">
<path d="M90.7406 196.899H65.7495V216.203H90.7406V196.899Z" fill="black"/>
<path d="M31.3117 216.203C31.3117 216.203 5.87309 222.071 7.57166 261.56C15.1174 264.259 13.743 261.56 13.743 261.56C13.743 261.56 13.5637 234.953 31.312 234.666C42.2189 226.457 36.425 221.727 36.425 221.727L31.3117 216.203Z" fill="black"/>
<path d="M58.7515 252.03L68.2089 339.745H75.7949L93.7689 249.131L58.7515 252.03Z" fill="black"/>
<path d="M120.071 216.203C120.071 216.203 145.51 222.071 143.811 261.56C136.265 264.259 137.64 261.56 137.64 261.56C137.64 261.56 137.819 234.953 120.071 234.666C109.164 226.457 114.958 221.727 114.958 221.727L120.071 216.203Z" fill="black"/>
<path d="M30.6465 196.937C25.8264 178.595 -1.3938 69.3334 63.815 52.3715C129.024 35.4096 160.487 105.644 127.124 189.575C123.4 197.365 56.3929 207.386 30.6465 196.937Z" fill="url(#paint0_linear)"/>
<path d="M31.3125 208.485C31.3125 208.485 77.2235 220.443 125.973 208.485C123.269 235.762 118.26 248.797 118.26 248.797C118.26 248.797 56.4346 256.074 35.0937 248.797C31.4094 229.392 31.3125 208.485 31.3125 208.485Z" fill="url(#paint1_linear)"/>
<path d="M7.48998 260.6L0 272.466L10.6239 265.652L17.0598 271.319L13.2872 260.6H7.48998Z" fill="#3B98FF"/>
<path d="M143.894 260.6L151.384 272.466L140.76 265.652L134.325 271.319L138.097 260.6H143.894Z" fill="#3B98FF"/>
<path d="M77.2831 160.222C100.641 160.222 119.575 141.208 119.575 117.754C119.575 94.299 100.641 75.2852 77.2831 75.2852C53.9257 75.2852 34.9907 94.299 34.9907 117.754C34.9907 141.208 53.9257 160.222 77.2831 160.222Z" fill="white"/>
<path d="M75.361 135.127C85.9781 135.127 94.5849 126.484 94.5849 115.823C94.5849 105.162 85.9781 96.519 75.361 96.519C64.744 96.519 56.1372 105.162 56.1372 115.823C56.1372 126.484 64.744 135.127 75.361 135.127Z" fill="#B2D7FF"/>
<path d="M73.4391 127.405C78.7476 127.405 83.051 123.084 83.051 117.754C83.051 112.423 78.7476 108.102 73.4391 108.102C68.1306 108.102 63.8271 112.423 63.8271 117.754C63.8271 123.084 68.1306 127.405 73.4391 127.405Z" fill="black"/>
<path d="M88.1187 49.8246L93.5733 7.14648L88.1187 49.8246Z" fill="#3B98FF"/>
<path d="M88.1187 49.8246L93.5733 7.14648" stroke="black" stroke-width="4"/>
<path d="M94.5844 7.72144C96.7078 7.72144 98.4291 5.99294 98.4291 3.86072C98.4291 1.7285 96.7078 0 94.5844 0C92.4611 0 90.7397 1.7285 90.7397 3.86072C90.7397 5.99294 92.4611 7.72144 94.5844 7.72144Z" fill="#3B98FF"/>
<path d="M85.9331 180.491C85.9331 174.716 81.1994 170.034 75.3601 170.034C69.5208 170.034 64.7871 174.716 64.7871 180.491C64.7871 186.266 69.5208 190.947 75.3601 190.947C81.1994 190.947 85.9331 186.266 85.9331 180.491Z" fill="white"/>
<path d="M85.3143 180.491C85.3143 175.059 80.858 170.656 75.3608 170.656C69.8636 170.656 65.4072 175.059 65.4072 180.491C65.4072 185.922 69.8636 190.325 75.3608 190.325C80.858 190.325 85.3143 185.922 85.3143 180.491Z" stroke="black" stroke-width="4"/>
<defs>
<linearGradient id="paint0_linear" x1="102.24" y1="65.684" x2="41.5646" y2="185.608" gradientUnits="userSpaceOnUse">
<stop stop-color="#3B98FF"/>
<stop offset="1" stop-color="#7CBAFF"/>
</linearGradient>
<linearGradient id="paint1_linear" x1="59.8757" y1="248.58" x2="96.6711" y2="215.827" gradientUnits="userSpaceOnUse">
<stop stop-color="#7CBAFF"/>
<stop offset="1" stop-color="#3B98FF"/>
</linearGradient>
</defs>
</svg>
