<svg width="28" height="28" viewBox="0 0 28 28" fill="none" xmlns="http://www.w3.org/2000/svg">
<path d="M14.0002 2.3335C7.57066 2.3335 2.3335 7.57066 2.3335 14.0002C2.3335 20.4297 7.57066 25.6668 14.0002 25.6668C20.4297 25.6668 25.6668 20.4297 25.6668 14.0002C25.6668 7.57066 20.4297 2.3335 14.0002 2.3335ZM14.0002 4.66683C19.1686 4.66683 23.3335 8.83169 23.3335 14.0002C23.3335 19.1686 19.1686 23.3335 14.0002 23.3335C8.83169 23.3335 4.66683 19.1686 4.66683 14.0002C4.66683 8.83169 8.83169 4.66683 14.0002 4.66683ZM14.0002 7.00016C11.4218 7.00016 9.3335 9.0885 9.3335 11.6668H11.6668C11.6668 10.3835 12.7168 9.3335 14.0002 9.3335C15.2835 9.3335 16.3335 10.3835 16.3335 11.6668C16.3335 14.0002 12.8335 14.4283 12.8335 17.5002H15.1668C15.1668 15.574 18.6668 14.5835 18.6668 11.6668C18.6668 9.0885 16.5785 7.00016 14.0002 7.00016ZM12.8335 18.6668V21.0002H15.1668V18.6668H12.8335Z" fill="#AEAEAE"/>
</svg>
