<svg width="30" height="30" viewBox="0 0 30 30" fill="none" xmlns="http://www.w3.org/2000/svg">
<path d="M15 1.25C10.8575 1.25 7.5 4.6075 7.5 8.75C7.5 14.1075 15 22.5 15 22.5C15 22.5 22.5 14.1075 22.5 8.75C22.5 4.6075 19.1425 1.25 15 1.25ZM15 3.75C17.7575 3.75 20 5.9925 20 8.75C20 11.2625 17.3988 15.4505 14.9976 18.5742C12.5963 15.4555 10 11.27 10 8.75C10 5.9925 12.2425 3.75 15 3.75ZM15 6.25C14.337 6.25 13.7011 6.51339 13.2322 6.98223C12.7634 7.45107 12.5 8.08696 12.5 8.75C12.5 9.41304 12.7634 10.0489 13.2322 10.5178C13.7011 10.9866 14.337 11.25 15 11.25C15.663 11.25 16.2989 10.9866 16.7678 10.5178C17.2366 10.0489 17.5 9.41304 17.5 8.75C17.5 8.08696 17.2366 7.45107 16.7678 6.98223C16.2989 6.51339 15.663 6.25 15 6.25ZM9.35059 19.2944C5.28934 20.1194 2.5 21.8025 2.5 23.75C2.5 26.5112 8.09625 28.75 15 28.75C21.9037 28.75 27.5 26.5112 27.5 23.75C27.5 21.8025 24.7107 20.1207 20.6494 19.2944C20.0844 20.1207 19.531 20.878 19.021 21.5405C22.436 22.058 24.4578 23.1401 24.9365 23.7476C24.2928 24.5651 20.8699 26.2476 15.0024 26.2476L15 26.2524L14.9976 26.25C9.13006 26.25 5.70848 24.5688 5.06348 23.75C5.54223 23.1413 7.56275 22.0568 10.979 21.5405C10.469 20.8768 9.91559 20.1194 9.35059 19.2944Z" fill="#1C92FF"/>
</svg>
