<svg width="300" height="300" viewBox="0 0 300 300" fill="none" xmlns="http://www.w3.org/2000/svg">
<path d="M300 229.44H0V229.59H300V229.44Z" fill="#E0E0E0"/>
<path d="M235.908 234H225.792V234.15H235.908V234Z" fill="#E0E0E0"/>
<path d="M269.136 233.928H242.4V234.078H269.136V233.928Z" fill="#E0E0E0"/>
<path d="M192.438 234.936H159.156V235.086H192.438V234.936Z" fill="#E0E0E0"/>
<path d="M155.7 234.936H143.268V235.086H155.7V234.936Z" fill="#E0E0E0"/>
<path d="M90.9361 233.778H85.4761V233.928H90.9361V233.778Z" fill="#E0E0E0"/>
<path d="M103.29 233.778H94.2661V233.928H103.29V233.778Z" fill="#E0E0E0"/>
<path d="M80.0698 236.484H40.1338V236.634H80.0698V236.484Z" fill="#E0E0E0"/>
<path d="M142.2 202.68H26.3458C25.4382 202.678 24.5683 202.317 23.9271 201.674C23.2859 201.032 22.9258 200.162 22.9258 199.254V36.396C22.9337 35.4936 23.2973 34.6308 23.9376 33.9949C24.578 33.3591 25.4434 33.0015 26.3458 33H142.2C143.108 33 143.98 33.361 144.622 34.0035C145.265 34.646 145.626 35.5174 145.626 36.426V199.254C145.626 200.163 145.265 201.034 144.622 201.677C143.98 202.319 143.108 202.68 142.2 202.68ZM26.3458 33.12C25.478 33.1216 24.6463 33.4674 24.0332 34.0816C23.4201 34.6958 23.0758 35.5282 23.0758 36.396V199.254C23.0758 200.122 23.4201 200.954 24.0332 201.568C24.6463 202.183 25.478 202.528 26.3458 202.53H142.2C143.068 202.528 143.901 202.183 144.515 201.569C145.129 200.955 145.474 200.122 145.476 199.254V36.396C145.474 35.5276 145.129 34.6953 144.515 34.0813C143.901 33.4672 143.068 33.1216 142.2 33.12H26.3458Z" fill="#E0E0E0"/>
<path d="M271.986 202.68H156.126C155.218 202.678 154.348 202.317 153.705 201.675C153.063 201.033 152.702 200.162 152.7 199.254V36.396C152.71 35.4931 153.075 34.6302 153.716 33.9946C154.357 33.3589 155.223 33.0015 156.126 33H271.986C272.888 33.0031 273.751 33.3613 274.39 33.997C275.03 34.6327 275.392 35.4947 275.4 36.396V199.254C275.4 200.161 275.041 201.03 274.401 201.672C273.761 202.314 272.893 202.677 271.986 202.68ZM156.126 33.12C155.258 33.1216 154.425 33.4672 153.811 34.0813C153.197 34.6953 152.852 35.5276 152.85 36.396V199.254C152.852 200.122 153.197 200.955 153.811 201.569C154.425 202.183 155.258 202.528 156.126 202.53H271.986C272.855 202.528 273.687 202.183 274.301 201.569C274.915 200.955 275.261 200.122 275.262 199.254V36.396C275.261 35.5276 274.915 34.6953 274.301 34.0813C273.687 33.4672 272.855 33.1216 271.986 33.12H156.126Z" fill="#E0E0E0"/>
<path d="M190.674 156.324H162.258V229.44H190.674V156.324Z" fill="#E0E0E0"/>
<path d="M185.274 229.44H190.674V214.086H179.616L185.274 229.44Z" fill="#F0F0F0"/>
<path d="M84.4741 156.324H56.0581V229.44H84.4741V156.324Z" fill="#E0E0E0"/>
<path d="M190.668 156.324H79.7642V220.02H190.668V156.324Z" fill="#F0F0F0"/>
<path d="M137.028 160.95V200.826H186.486V160.95H137.028Z" fill="#E0E0E0"/>
<path d="M83.9521 160.956V200.832H133.41V160.956H83.9521Z" fill="#E0E0E0"/>
<path d="M186.486 214.086V211.152H137.028V214.086H186.486Z" fill="#E0E0E0"/>
<path d="M133.41 214.086V211.152H83.9522V214.086H133.41Z" fill="#E0E0E0"/>
<path d="M186.48 208.416V205.482H137.022V208.416H186.48Z" fill="#E0E0E0"/>
<path d="M133.404 208.422V205.488H83.9458V208.422H133.404Z" fill="#E0E0E0"/>
<path d="M113.574 165.246H103.8C101.697 165.246 99.616 164.818 97.6839 163.988C95.7518 163.157 94.0091 161.942 92.562 160.416H124.8C123.355 161.941 121.614 163.156 119.684 163.986C117.754 164.817 115.675 165.245 113.574 165.246Z" fill="#F0F0F0"/>
<path d="M167.148 165.246H157.368C155.265 165.247 153.184 164.819 151.251 163.989C149.319 163.158 147.577 161.943 146.13 160.416H178.386C176.939 161.943 175.197 163.158 173.264 163.989C171.332 164.819 169.251 165.247 167.148 165.246Z" fill="#F0F0F0"/>
<path d="M85.1642 229.44H79.7642V214.086H90.8222L85.1642 229.44Z" fill="#F0F0F0"/>
<path d="M190.062 44.394H41.0098V129.534H190.062V44.394Z" fill="#E0E0E0"/>
<path d="M198.306 41.766H35.9998C35.7977 41.766 35.6039 41.8463 35.461 41.9892C35.3181 42.1321 35.2378 42.3259 35.2378 42.528C35.237 42.6286 35.2562 42.7283 35.2941 42.8214C35.332 42.9146 35.388 42.9993 35.4589 43.0707C35.5297 43.1421 35.614 43.1987 35.7068 43.2374C35.7997 43.2761 35.8992 43.296 35.9998 43.296H198.306C198.406 43.296 198.506 43.2761 198.599 43.2374C198.692 43.1987 198.776 43.1421 198.847 43.0707C198.918 42.9993 198.974 42.9146 199.012 42.8214C199.049 42.7283 199.069 42.6286 199.068 42.528C199.068 42.3259 198.988 42.1321 198.845 41.9892C198.702 41.8463 198.508 41.766 198.306 41.766Z" fill="#E0E0E0"/>
<path d="M193.326 44.394H42.5342V129.534H193.326V44.394Z" fill="#E6E6E6"/>
<path d="M190.062 129.534H41.0098V135.6H190.062V129.534Z" fill="#E0E0E0"/>
<path d="M198.762 129.534H47.9702V135.6H198.762V129.534Z" fill="#E6E6E6"/>
<path d="M188.748 124.962V48.966L47.1 48.966V124.962L188.748 124.962Z" fill="#F5F5F5"/>
<path d="M117.204 124.962L144.03 48.966H156.69L129.864 124.962H117.204Z" fill="#FAFAFA"/>
<path d="M132.588 124.962L159.414 48.966H164.346L137.526 124.962H132.588Z" fill="#FAFAFA"/>
<path d="M188.748 124.962V48.966H188.166V124.962H188.748Z" fill="#E0E0E0"/>
<path d="M47.1541 40.398H39.2881V113.73H47.1541V40.398Z" fill="#EBEBEB"/>
<path d="M50.2202 40.398H44.0942V113.73H50.2202V40.398Z" fill="#E0E0E0"/>
<path d="M55.0198 40.398H47.1538V113.73H55.0198V40.398Z" fill="#EBEBEB"/>
<path d="M58.086 40.398H51.96V113.73H58.086V40.398Z" fill="#E0E0E0"/>
<path d="M62.886 40.398H55.02V113.73H62.886V40.398Z" fill="#EBEBEB"/>
<path d="M185.82 40.398H181.29V113.73H185.82V40.398Z" fill="#EBEBEB"/>
<path d="M187.596 40.398H184.062V113.73H187.596V40.398Z" fill="#E0E0E0"/>
<path d="M190.356 40.398H185.826V113.73H190.356V40.398Z" fill="#EBEBEB"/>
<path d="M192.126 40.398H188.592V113.73H192.126V40.398Z" fill="#E0E0E0"/>
<path d="M194.886 40.398H190.356V113.73H194.886V40.398Z" fill="#EBEBEB"/>
<path d="M236.118 72.21H226.062V99.648H236.118V72.21Z" fill="#E6E6E6"/>
<path d="M222.24 104.226L219.912 110.568H222.24L236.478 104.226H222.24Z" fill="#F0F0F0"/>
<path d="M219.912 104.226V110.568L234.156 104.226H219.912Z" fill="#E0E0E0"/>
<path d="M246.594 104.226L244.266 110.568H246.594L260.832 104.226H246.594Z" fill="#F0F0F0"/>
<path d="M244.266 104.226V110.568L258.51 104.226H244.266Z" fill="#E0E0E0"/>
<path d="M209.466 104.52H224.952V99.69H209.466V104.52Z" fill="#E0E0E0"/>
<path d="M269.136 99.69H224.946V104.52H269.136V99.69Z" fill="#F0F0F0"/>
<path d="M252.87 99.648H228.396L225.366 66.402H249.84L252.87 99.648Z" fill="#E0E0E0"/>
<path d="M254.136 99.648H229.662L226.638 66.402H251.112L254.136 99.648Z" fill="#F0F0F0"/>
<path d="M233.01 95.97L230.652 70.08H247.764L250.122 95.97H233.01Z" fill="#FAFAFA"/>
<path d="M94.4458 145.65C94.4458 145.65 83.8918 127.464 98.5318 112.986C98.5318 112.986 102.354 115.476 102.294 118.824C102.234 122.172 98.2018 123.024 99.0718 125.808C99.9418 128.592 103.746 131.346 101.244 133.656C98.7418 135.966 101.646 138.018 101.478 140.856C101.31 143.694 94.4458 145.65 94.4458 145.65Z" fill="#E0E0E0"/>
<path d="M95.2441 147.312C95.2441 147.312 99.5221 126.726 81.0661 117.6C81.0661 117.6 78.2281 121.17 79.3381 124.326C80.4481 127.482 84.5401 127.02 84.6001 129.942C84.6601 132.864 81.9121 136.668 85.0081 138.072C88.1041 139.476 86.0041 142.344 87.0601 144.972C88.1161 147.6 95.2441 147.312 95.2441 147.312Z" fill="#E0E0E0"/>
<path d="M79.0801 142.752C79.0801 142.752 79.4281 156.324 92.8801 156.324C106.332 156.324 106.68 142.752 106.68 142.752H79.0801Z" fill="#F0F0F0"/>
<path d="M237.81 229.44H239.184L243.096 210.144L243.786 206.766L248.052 185.766H264.426L273.3 229.44H274.674L265.632 184.932C265.6 184.781 265.517 184.645 265.397 184.548C265.277 184.45 265.127 184.397 264.972 184.398H247.506C247.352 184.397 247.202 184.449 247.083 184.547C246.963 184.644 246.882 184.781 246.852 184.932L243.102 203.4L242.4 206.778L237.81 229.44Z" fill="#EBEBEB"/>
<path d="M211.524 229.44H212.898L221.772 185.742H238.146L242.4 206.778L243.084 210.144L247.002 229.44H248.4L243.798 206.766L243.102 203.4L239.352 184.932C239.32 184.781 239.237 184.645 239.117 184.548C238.997 184.45 238.847 184.397 238.692 184.398H221.226C221.071 184.397 220.921 184.45 220.801 184.548C220.681 184.645 220.598 184.781 220.566 184.932L211.524 229.44Z" fill="#EBEBEB"/>
<path d="M251.886 185.07H221.802C219.041 185.069 216.39 183.986 214.419 182.053C212.447 180.121 211.311 177.492 211.254 174.732L210.132 129C210.117 127.983 210.304 126.972 210.683 126.028C211.061 125.083 211.623 124.223 212.336 123.498C213.05 122.772 213.9 122.195 214.838 121.801C215.776 121.407 216.783 121.202 217.8 121.2H236.658C238.546 121.2 240.368 121.894 241.777 123.151C243.186 124.408 244.082 126.14 244.296 128.016L251.886 185.07Z" fill="#E6E6E6"/>
<path d="M235.476 179.304H264.918C266.011 179.304 267.06 179.738 267.833 180.511C268.606 181.284 269.04 182.333 269.04 183.426V183.57C269.04 183.968 268.882 184.349 268.601 184.631C268.319 184.912 267.938 185.07 267.54 185.07H235.476V179.304Z" fill="#E6E6E6"/>
<path d="M150 256.536C214.25 256.536 266.334 253.495 266.334 249.744C266.334 245.993 214.25 242.952 150 242.952C85.7505 242.952 33.666 245.993 33.666 249.744C33.666 253.495 85.7505 256.536 150 256.536Z" fill="#F5F5F5"/>
<path d="M111.93 76.968C111.933 75.8505 111.842 74.7347 111.66 73.632C110.856 68.7585 108.36 64.3244 104.61 61.1091C100.86 57.8939 96.0974 56.1033 91.1583 56.052H90.9783C87.6646 56.054 84.399 56.844 81.4508 58.3567C78.5026 59.8694 75.9564 62.0615 74.0223 64.752C73.7043 65.19 73.4223 65.64 73.1343 66.09C73.1108 66.1197 73.0907 66.1519 73.0743 66.186C71.1046 69.4436 70.0669 73.1793 70.0743 76.986V77.028C70.0866 81.4523 71.5008 85.7589 74.1137 89.3293C76.7267 92.8996 80.4039 95.55 84.6173 96.8998C88.8307 98.2496 93.3635 98.2294 97.5647 96.842C101.766 95.4547 105.419 92.7715 108 89.178C108.312 88.74 108.6 88.296 108.882 87.84C108.906 87.8103 108.926 87.7781 108.942 87.744C110.909 84.4948 111.943 80.7663 111.93 76.968ZM70.9683 76.494C71.0376 73.0682 71.9948 69.7191 73.7463 66.774H80.2923C79.2919 69.9183 78.7681 73.1946 78.7383 76.494H70.9683ZM81.2103 66.774H90.5463V76.494H79.6383C79.6581 73.1924 80.1884 69.9136 81.2103 66.774ZM91.4463 65.874V56.922C92.744 57.0397 93.9867 57.5016 95.0463 58.26C97.2723 59.784 99.1383 62.46 100.446 65.874H91.4463ZM100.77 66.774C101.513 69.0217 101.996 71.3467 102.21 73.704C102.3 74.64 102.342 75.57 102.354 76.494H91.4463V66.774H100.77ZM89.2263 57.174C89.657 57.0516 90.0994 56.9752 90.5463 56.946V65.892H81.5463C83.2263 61.368 85.9503 58.08 89.2263 57.156V57.174ZM90.5463 77.412V87.132H81.2283C80.4858 84.8789 80.0066 82.5474 79.8003 80.184C79.7163 79.248 79.6683 78.318 79.6563 77.394L90.5463 77.412ZM90.5463 88.032V96.984C89.2488 96.8655 88.0062 96.4037 86.9463 95.646C84.7263 94.122 82.8603 91.446 81.5463 88.032H90.5463ZM92.7663 96.75C92.3357 96.8729 91.8931 96.9494 91.4463 96.978V88.014H100.446C98.7663 92.52 96.0423 95.814 92.7663 96.732V96.75ZM91.4463 87.15V77.4H102.354C102.337 80.7019 101.807 83.9811 100.782 87.12L91.4463 87.15ZM103.254 77.4H111.054C110.982 80.8253 110.025 84.1737 108.276 87.12H101.7C102.701 83.9758 103.224 80.6994 103.254 77.4ZM111.054 76.5H103.254C103.254 75.552 103.194 74.592 103.104 73.626C102.899 71.3004 102.439 69.0045 101.73 66.78H108.264C109.527 68.9239 110.379 71.2841 110.778 73.74C110.921 74.6517 111.005 75.5716 111.03 76.494L111.054 76.5ZM102.732 60.702C104.693 62.1146 106.384 63.8686 107.724 65.88H101.4C100.056 62.166 98.0343 59.226 95.5563 57.522L95.3643 57.396C98.0101 57.9885 100.508 59.1111 102.708 60.696L102.732 60.702ZM86.6103 57.408C84.0843 59.07 82.0083 62.094 80.6103 65.88H74.3103L74.7483 65.238C77.5976 61.2604 81.8116 58.471 86.5863 57.402L86.6103 57.408ZM71.0103 77.4H78.7803C78.7803 78.348 78.8403 79.308 78.9303 80.274C79.138 82.5992 79.5987 84.8948 80.3043 87.12H73.7343C72.469 84.9773 71.6163 82.6167 71.2203 80.16C71.0709 79.2472 70.9867 78.3248 70.9683 77.4H71.0103ZM74.3343 88.02H80.6103C81.9543 91.734 83.9763 94.674 86.4543 96.378L86.6523 96.504C81.6108 95.359 77.2014 92.322 74.3343 88.02ZM95.4003 96.486C97.9203 94.83 99.9963 91.8 101.4 88.014H107.688C107.544 88.23 107.4 88.446 107.25 88.656C104.399 92.6355 100.179 95.4234 95.4003 96.486Z" fill="#407BFF"/>
<path opacity="0.8" d="M111.93 76.968C111.933 75.8505 111.842 74.7347 111.66 73.632C110.856 68.7585 108.36 64.3244 104.61 61.1091C100.86 57.8939 96.0974 56.1033 91.1583 56.052H90.9783C87.6646 56.054 84.399 56.844 81.4508 58.3567C78.5026 59.8694 75.9564 62.0615 74.0223 64.752C73.7043 65.19 73.4223 65.64 73.1343 66.09C73.1108 66.1197 73.0907 66.1519 73.0743 66.186C71.1046 69.4436 70.0669 73.1793 70.0743 76.986V77.028C70.0866 81.4523 71.5008 85.7589 74.1137 89.3293C76.7267 92.8996 80.4039 95.55 84.6173 96.8998C88.8307 98.2496 93.3635 98.2294 97.5647 96.842C101.766 95.4547 105.419 92.7715 108 89.178C108.312 88.74 108.6 88.296 108.882 87.84C108.906 87.8103 108.926 87.7781 108.942 87.744C110.909 84.4948 111.943 80.7663 111.93 76.968ZM70.9683 76.494C71.0376 73.0682 71.9948 69.7191 73.7463 66.774H80.2923C79.2919 69.9183 78.7681 73.1946 78.7383 76.494H70.9683ZM81.2103 66.774H90.5463V76.494H79.6383C79.6581 73.1924 80.1884 69.9136 81.2103 66.774ZM91.4463 65.874V56.922C92.744 57.0397 93.9867 57.5016 95.0463 58.26C97.2723 59.784 99.1383 62.46 100.446 65.874H91.4463ZM100.77 66.774C101.513 69.0217 101.996 71.3467 102.21 73.704C102.3 74.64 102.342 75.57 102.354 76.494H91.4463V66.774H100.77ZM89.2263 57.174C89.657 57.0516 90.0994 56.9752 90.5463 56.946V65.892H81.5463C83.2263 61.368 85.9503 58.08 89.2263 57.156V57.174ZM90.5463 77.412V87.132H81.2283C80.4858 84.8789 80.0066 82.5474 79.8003 80.184C79.7163 79.248 79.6683 78.318 79.6563 77.394L90.5463 77.412ZM90.5463 88.032V96.984C89.2488 96.8655 88.0062 96.4037 86.9463 95.646C84.7263 94.122 82.8603 91.446 81.5463 88.032H90.5463ZM92.7663 96.75C92.3357 96.8729 91.8931 96.9494 91.4463 96.978V88.014H100.446C98.7663 92.52 96.0423 95.814 92.7663 96.732V96.75ZM91.4463 87.15V77.4H102.354C102.337 80.7019 101.807 83.9811 100.782 87.12L91.4463 87.15ZM103.254 77.4H111.054C110.982 80.8253 110.025 84.1737 108.276 87.12H101.7C102.701 83.9758 103.224 80.6994 103.254 77.4ZM111.054 76.5H103.254C103.254 75.552 103.194 74.592 103.104 73.626C102.899 71.3004 102.439 69.0045 101.73 66.78H108.264C109.527 68.9239 110.379 71.2841 110.778 73.74C110.921 74.6517 111.005 75.5716 111.03 76.494L111.054 76.5ZM102.732 60.702C104.693 62.1146 106.384 63.8686 107.724 65.88H101.4C100.056 62.166 98.0343 59.226 95.5563 57.522L95.3643 57.396C98.0101 57.9885 100.508 59.1111 102.708 60.696L102.732 60.702ZM86.6103 57.408C84.0843 59.07 82.0083 62.094 80.6103 65.88H74.3103L74.7483 65.238C77.5976 61.2604 81.8116 58.471 86.5863 57.402L86.6103 57.408ZM71.0103 77.4H78.7803C78.7803 78.348 78.8403 79.308 78.9303 80.274C79.138 82.5992 79.5987 84.8948 80.3043 87.12H73.7343C72.469 84.9773 71.6163 82.6167 71.2203 80.16C71.0709 79.2472 70.9867 78.3248 70.9683 77.4H71.0103ZM74.3343 88.02H80.6103C81.9543 91.734 83.9763 94.674 86.4543 96.378L86.6523 96.504C81.6108 95.359 77.2014 92.322 74.3343 88.02ZM95.4003 96.486C97.9203 94.83 99.9963 91.8 101.4 88.014H107.688C107.544 88.23 107.4 88.446 107.25 88.656C104.399 92.6355 100.179 95.4234 95.4003 96.486Z" fill="#FAFAFA"/>
<path d="M248.574 86.94H59.9341V132.648H248.574V86.94Z" fill="#407BFF"/>
<path opacity="0.6" d="M248.574 86.94H59.9341V132.648H248.574V86.94Z" fill="#FAFAFA"/>
<path d="M244.32 91.194H55.6802V136.902H244.32V91.194Z" fill="#407BFF"/>
<path opacity="0.3" d="M244.32 91.194H55.6802V136.902H244.32V91.194Z" fill="black"/>
<path d="M240.066 95.448H51.4263V141.156H240.066V95.448Z" fill="#407BFF"/>
<path opacity="0.1" d="M240.066 95.448H51.4263V141.156H240.066V95.448Z" fill="#FAFAFA"/>
<path d="M231.066 132.156V104.448L60.4264 104.448V132.156H231.066Z" fill="#407BFF"/>
<path opacity="0.9" d="M231.066 132.156V104.448L60.4264 104.448V132.156H231.066Z" fill="#FAFAFA"/>
<path d="M202.362 104.448V132.156H203.364V104.448H202.362Z" fill="#407BFF"/>
<path opacity="0.6" d="M202.362 104.448V132.156H203.364V104.448H202.362Z" fill="#FAFAFA"/>
<path d="M64.6802 108.27V128.334H65.6822V108.27H64.6802Z" fill="#407BFF"/>
<path opacity="0.6" d="M64.6802 108.27V128.334H65.6822V108.27H64.6802Z" fill="#FAFAFA"/>
<path d="M216.258 121.8C215.53 121.8 214.813 121.62 214.171 121.276C213.529 120.933 212.982 120.437 212.578 119.831C212.173 119.226 211.925 118.53 211.853 117.805C211.782 117.081 211.891 116.35 212.169 115.677C212.448 115.005 212.888 114.411 213.451 113.949C214.014 113.487 214.682 113.171 215.396 113.029C216.11 112.887 216.848 112.923 217.545 113.134C218.241 113.346 218.875 113.725 219.39 114.24C220.01 114.859 220.432 115.648 220.603 116.508C220.774 117.367 220.686 118.257 220.351 119.067C220.016 119.876 219.448 120.568 218.719 121.054C217.991 121.541 217.134 121.8 216.258 121.8ZM216.258 114.15C215.511 114.15 214.787 114.409 214.21 114.884C213.633 115.358 213.238 116.017 213.093 116.75C212.947 117.483 213.061 118.243 213.413 118.902C213.766 119.56 214.336 120.076 215.026 120.361C215.717 120.647 216.485 120.684 217.199 120.466C217.914 120.248 218.531 119.79 218.945 119.168C219.359 118.547 219.545 117.801 219.471 117.057C219.397 116.314 219.067 115.619 218.538 115.092C218.242 114.786 217.888 114.543 217.496 114.376C217.105 114.209 216.684 114.122 216.258 114.12V114.15Z" fill="#407BFF"/>
<path d="M222 123.684C221.921 123.684 221.842 123.668 221.769 123.637C221.696 123.606 221.63 123.561 221.574 123.504L218.544 120.474C218.481 120.42 218.43 120.354 218.394 120.28C218.358 120.205 218.338 120.124 218.335 120.041C218.332 119.959 218.346 119.876 218.376 119.799C218.406 119.722 218.452 119.652 218.51 119.594C218.569 119.536 218.639 119.49 218.716 119.46C218.793 119.429 218.875 119.416 218.958 119.419C219.04 119.422 219.121 119.442 219.196 119.478C219.27 119.514 219.336 119.565 219.39 119.628L222.42 122.658C222.532 122.77 222.595 122.922 222.595 123.081C222.595 123.239 222.532 123.392 222.42 123.504C222.309 123.617 222.158 123.682 222 123.684Z" fill="#407BFF"/>
<g opacity="0.6">
<path opacity="0.6" d="M216.258 121.8C215.53 121.8 214.813 121.62 214.171 121.276C213.529 120.933 212.982 120.437 212.578 119.831C212.173 119.226 211.925 118.53 211.853 117.805C211.782 117.081 211.891 116.35 212.169 115.677C212.448 115.005 212.888 114.411 213.451 113.949C214.014 113.487 214.682 113.171 215.396 113.029C216.11 112.887 216.848 112.923 217.545 113.134C218.241 113.346 218.875 113.725 219.39 114.24C220.01 114.859 220.432 115.648 220.603 116.508C220.774 117.367 220.686 118.257 220.351 119.067C220.016 119.876 219.448 120.568 218.719 121.054C217.991 121.541 217.134 121.8 216.258 121.8ZM216.258 114.15C215.511 114.15 214.787 114.409 214.21 114.884C213.633 115.358 213.238 116.017 213.093 116.75C212.947 117.483 213.061 118.243 213.413 118.902C213.766 119.56 214.336 120.076 215.026 120.361C215.717 120.647 216.485 120.684 217.199 120.466C217.914 120.248 218.531 119.79 218.945 119.168C219.359 118.547 219.545 117.801 219.471 117.057C219.397 116.314 219.067 115.619 218.538 115.092C218.242 114.786 217.888 114.543 217.496 114.376C217.105 114.209 216.684 114.122 216.258 114.12V114.15Z" fill="#FAFAFA"/>
<path opacity="0.6" d="M222 123.684C221.921 123.684 221.842 123.668 221.769 123.637C221.696 123.606 221.63 123.561 221.574 123.504L218.544 120.474C218.481 120.42 218.43 120.354 218.394 120.28C218.358 120.205 218.338 120.124 218.335 120.041C218.332 119.959 218.346 119.876 218.376 119.799C218.406 119.722 218.452 119.653 218.51 119.594C218.569 119.536 218.639 119.49 218.716 119.46C218.793 119.429 218.875 119.416 218.958 119.419C219.04 119.422 219.121 119.442 219.196 119.478C219.27 119.514 219.336 119.565 219.39 119.628L222.42 122.658C222.532 122.77 222.595 122.923 222.595 123.081C222.595 123.24 222.532 123.392 222.42 123.504C222.309 123.617 222.158 123.682 222 123.684Z" fill="#FAFAFA"/>
</g>
<path d="M175.554 59.31H156.69V59.778H175.554V59.31Z" fill="#407BFF"/>
<path d="M175.554 61.296H156.69V61.764H175.554V61.296Z" fill="#407BFF"/>
<path d="M175.554 63.288H156.69V63.756H175.554V63.288Z" fill="#407BFF"/>
<path d="M175.554 65.274H156.69V65.742H175.554V65.274Z" fill="#407BFF"/>
<path d="M175.554 67.26H156.69V67.728H175.554V67.26Z" fill="#407BFF"/>
<path d="M168.99 69.252H156.69V69.72H168.99V69.252Z" fill="#407BFF"/>
<g opacity="0.5">
<path opacity="0.5" d="M175.554 59.31H156.69V59.778H175.554V59.31Z" fill="#FAFAFA"/>
<path opacity="0.5" d="M175.554 61.296H156.69V61.764H175.554V61.296Z" fill="#FAFAFA"/>
<path opacity="0.5" d="M175.554 63.288H156.69V63.756H175.554V63.288Z" fill="#FAFAFA"/>
<path opacity="0.5" d="M175.554 65.274H156.69V65.742H175.554V65.274Z" fill="#FAFAFA"/>
<path opacity="0.5" d="M175.554 67.26H156.69V67.728H175.554V67.26Z" fill="#FAFAFA"/>
<path opacity="0.5" d="M168.99 69.252H156.69V69.72H168.99V69.252Z" fill="#FAFAFA"/>
</g>
<path d="M62.0102 145.104H41.9102V145.404H62.0102V145.104Z" fill="#407BFF"/>
<path d="M62.0102 146.376H41.9102V146.676H62.0102V146.376Z" fill="#407BFF"/>
<path d="M62.0102 147.648H41.9102V147.948H62.0102V147.648Z" fill="#407BFF"/>
<path d="M62.0102 148.92H41.9102V149.22H62.0102V148.92Z" fill="#407BFF"/>
<path d="M62.0102 150.192H41.9102V150.492H62.0102V150.192Z" fill="#407BFF"/>
<path d="M54.5462 151.47H41.9102V151.77H54.5462V151.47Z" fill="#407BFF"/>
<g opacity="0.4">
<path opacity="0.4" d="M62.0102 145.104H41.9102V145.404H62.0102V145.104Z" fill="#FAFAFA"/>
<path opacity="0.4" d="M62.0102 146.376H41.9102V146.676H62.0102V146.376Z" fill="#FAFAFA"/>
<path opacity="0.4" d="M62.0102 147.648H41.9102V147.948H62.0102V147.648Z" fill="#FAFAFA"/>
<path opacity="0.4" d="M62.0102 148.92H41.9102V149.22H62.0102V148.92Z" fill="#FAFAFA"/>
<path opacity="0.4" d="M62.0102 150.192H41.9102V150.492H62.0102V150.192Z" fill="#FAFAFA"/>
<path opacity="0.4" d="M54.5462 151.47H41.9102V151.77H54.5462V151.47Z" fill="#FAFAFA"/>
</g>
<path d="M128.07 62.256C127.065 62.256 126.1 62.6555 125.389 63.3666C124.678 64.0778 124.278 65.0423 124.278 66.048V78.558C124.278 79.5637 124.678 80.5282 125.389 81.2393C126.1 81.9505 127.065 82.35 128.07 82.35C129.076 82.35 130.041 81.9505 130.752 81.2393C131.463 80.5282 131.862 79.5637 131.862 78.558V66.048C131.862 65.0423 131.463 64.0778 130.752 63.3666C130.041 62.6555 129.076 62.256 128.07 62.256Z" fill="#407BFF"/>
<path opacity="0.2" d="M128.07 62.256C127.065 62.256 126.1 62.6555 125.389 63.3666C124.678 64.0778 124.278 65.0423 124.278 66.048V78.558C124.278 79.5637 124.678 80.5282 125.389 81.2393C126.1 81.9505 127.065 82.35 128.07 82.35C129.076 82.35 130.041 81.9505 130.752 81.2393C131.463 80.5282 131.862 79.5637 131.862 78.558V66.048C131.862 65.0423 131.463 64.0778 130.752 63.3666C130.041 62.6555 129.076 62.256 128.07 62.256Z" fill="#FAFAFA"/>
<path d="M137.574 54.798C136.572 54.8027 135.612 55.2044 134.905 55.915C134.197 56.6256 133.8 57.5874 133.8 58.59V78.558C133.8 79.5637 134.2 80.5282 134.911 81.2393C135.622 81.9505 136.587 82.35 137.592 82.35C138.598 82.35 139.563 81.9505 140.274 81.2393C140.985 80.5282 141.384 79.5637 141.384 78.558V58.59C141.384 58.0905 141.286 57.5959 141.094 57.1347C140.902 56.6734 140.621 56.2546 140.267 55.9023C139.913 55.5499 139.493 55.271 139.031 55.0815C138.569 54.8919 138.074 54.7956 137.574 54.798Z" fill="#407BFF"/>
<path opacity="0.3" d="M137.574 54.798C136.572 54.8027 135.612 55.2044 134.905 55.915C134.197 56.6256 133.8 57.5874 133.8 58.59V78.558C133.8 79.5637 134.2 80.5282 134.911 81.2393C135.622 81.9505 136.587 82.35 137.592 82.35C138.598 82.35 139.563 81.9505 140.274 81.2393C140.985 80.5282 141.384 79.5637 141.384 78.558V58.59C141.384 58.0905 141.286 57.5959 141.094 57.1347C140.902 56.6734 140.621 56.2546 140.267 55.9023C139.913 55.5499 139.493 55.271 139.031 55.0815C138.569 54.8919 138.074 54.7956 137.574 54.798Z" fill="black"/>
<path d="M147.072 69.714C146.067 69.714 145.102 70.1135 144.391 70.8247C143.68 71.5358 143.28 72.5003 143.28 73.506V78.558C143.28 79.5637 143.68 80.5282 144.391 81.2394C145.102 81.9505 146.067 82.35 147.072 82.35C147.571 82.3508 148.064 82.2533 148.525 82.0631C148.986 81.8729 149.405 81.5937 149.758 81.2415C150.11 80.8893 150.39 80.471 150.581 80.0105C150.772 79.5501 150.87 79.0565 150.87 78.558V73.506C150.87 73.0075 150.772 72.514 150.581 72.0535C150.39 71.593 150.11 71.1747 149.758 70.8225C149.405 70.4704 148.986 70.1912 148.525 70.0009C148.064 69.8107 147.571 69.7132 147.072 69.714Z" fill="#407BFF"/>
<path opacity="0.6" d="M147.072 69.714C146.067 69.714 145.102 70.1135 144.391 70.8247C143.68 71.5358 143.28 72.5003 143.28 73.506V78.558C143.28 79.5637 143.68 80.5282 144.391 81.2394C145.102 81.9505 146.067 82.35 147.072 82.35C147.571 82.3508 148.064 82.2533 148.525 82.0631C148.986 81.8729 149.405 81.5937 149.758 81.2415C150.11 80.8893 150.39 80.471 150.581 80.0105C150.772 79.5501 150.87 79.0565 150.87 78.558V73.506C150.87 73.0075 150.772 72.514 150.581 72.0535C150.39 71.593 150.11 71.1747 149.758 70.8225C149.405 70.4704 148.986 70.1912 148.525 70.0009C148.064 69.8107 147.571 69.7132 147.072 69.714Z" fill="#FAFAFA"/>
<path d="M227.166 155.478H242.496L216.324 128.334L227.166 155.478Z" fill="#407BFF"/>
<g opacity="0.1">
<path opacity="0.1" d="M227.166 155.478H242.496L216.324 128.334L227.166 155.478Z" fill="black"/>
</g>
<g style="mix-blend-mode:multiply">
<path d="M212.43 141.15L216.324 128.334L218.532 141.15H212.43Z" fill="#407BFF"/>
</g>
<path d="M216.324 128.334V166.314L219.036 163.608L227.166 155.478L216.324 128.334Z" fill="#407BFF"/>
<path opacity="0.3" d="M216.324 128.334V166.314L219.036 163.608L227.166 155.478L216.324 128.334Z" fill="#FAFAFA"/>
<path d="M243.432 46.866H209.832C208.129 46.8723 206.498 47.5512 205.293 48.7547C204.089 49.9583 203.408 51.5891 203.4 53.292V70.644C203.408 72.3458 204.088 73.9757 205.291 75.1791C206.495 76.3825 208.125 77.0621 209.826 77.07H234.48L234.3 83.136L240.522 77.07H243.42C245.123 77.0637 246.755 76.3848 247.959 75.1812C249.164 73.9777 249.844 72.3469 249.852 70.644V53.292C249.845 51.5912 249.166 49.9622 247.964 48.7589C246.762 47.5557 245.133 46.8755 243.432 46.866ZM209.076 54.258C209.076 53.7806 209.266 53.3228 209.604 52.9852C209.941 52.6476 210.399 52.458 210.876 52.458H218.61C219.088 52.458 219.546 52.6476 219.883 52.9852C220.221 53.3228 220.41 53.7806 220.41 54.258C220.41 54.7354 220.221 55.1932 219.883 55.5308C219.546 55.8684 219.088 56.058 218.61 56.058H210.87C210.394 56.0564 209.938 55.8661 209.601 55.5287C209.265 55.1913 209.076 54.7343 209.076 54.258ZM241.524 71.058H228.156C227.898 71.1033 227.632 71.0915 227.378 71.0233C227.125 70.9551 226.889 70.8322 226.688 70.6632C226.487 70.4943 226.325 70.2833 226.214 70.0453C226.103 69.8072 226.046 69.5477 226.046 69.285C226.046 69.0223 226.103 68.7628 226.214 68.5247C226.325 68.2866 226.487 68.0757 226.688 67.9068C226.889 67.7378 227.125 67.6149 227.378 67.5467C227.632 67.4785 227.898 67.4667 228.156 67.512H241.524C241.783 67.4667 242.049 67.4785 242.302 67.5467C242.556 67.6149 242.792 67.7378 242.993 67.9068C243.194 68.0757 243.356 68.2866 243.467 68.5247C243.577 68.7628 243.635 69.0223 243.635 69.285C243.635 69.5477 243.577 69.8072 243.467 70.0453C243.356 70.2833 243.194 70.4943 242.993 70.6632C242.792 70.8322 242.556 70.9551 242.302 71.0233C242.049 71.0915 241.783 71.1033 241.524 71.058ZM241.524 63.552H212.67C212.412 63.5973 212.146 63.5855 211.892 63.5173C211.639 63.4491 211.403 63.3262 211.202 63.1572C211.001 62.9883 210.839 62.7773 210.728 62.5393C210.617 62.3012 210.56 62.0417 210.56 61.779C210.56 61.5163 210.617 61.2568 210.728 61.0187C210.839 60.7806 211.001 60.5697 211.202 60.4008C211.403 60.2318 211.639 60.1089 211.892 60.0407C212.146 59.9725 212.412 59.9607 212.67 60.006H241.524C241.783 59.9607 242.049 59.9725 242.302 60.0407C242.556 60.1089 242.792 60.2318 242.993 60.4008C243.194 60.5697 243.356 60.7806 243.467 61.0187C243.577 61.2568 243.635 61.5163 243.635 61.779C243.635 62.0417 243.577 62.3012 243.467 62.5393C243.356 62.7773 243.194 62.9883 242.993 63.1572C242.792 63.3262 242.556 63.4491 242.302 63.5173C242.049 63.5855 241.783 63.5973 241.524 63.552ZM241.524 56.046H224.442C223.965 56.046 223.507 55.8564 223.17 55.5188C222.832 55.1812 222.642 54.7234 222.642 54.246C222.642 53.7686 222.832 53.3108 223.17 52.9732C223.507 52.6356 223.965 52.446 224.442 52.446H241.524C242.002 52.446 242.46 52.6356 242.797 52.9732C243.135 53.3108 243.324 53.7686 243.324 54.246C243.324 54.7234 243.135 55.1812 242.797 55.5188C242.46 55.8564 242.002 56.046 241.524 56.046Z" fill="#407BFF"/>
<path d="M190.884 101.868C189.449 97.926 187.258 94.3022 184.434 91.2H136.728C133.904 94.3022 131.713 97.926 130.278 101.868L136.878 134.724C141.927 140.197 148.715 143.754 156.089 144.79C163.464 145.826 170.969 144.277 177.331 140.406C183.692 136.535 188.518 130.582 190.987 123.557C193.457 116.531 193.418 108.868 190.878 101.868H190.884Z" fill="#407BFF"/>
<path opacity="0.1" d="M190.884 101.868C189.449 97.926 187.258 94.3022 184.434 91.2H136.728C133.904 94.3022 131.713 97.926 130.278 101.868L136.878 134.724C141.927 140.197 148.715 143.754 156.089 144.79C163.464 145.826 170.969 144.277 177.331 140.406C183.692 136.535 188.518 130.582 190.987 123.557C193.457 116.531 193.418 108.868 190.878 101.868H190.884Z" fill="#FAFAFA"/>
<path d="M192.786 114.366C192.445 121.942 189.436 129.153 184.29 134.724H136.89C132.888 130.376 130.157 125.013 128.993 119.219C127.829 113.426 128.278 107.424 130.29 101.868H190.89C192.345 105.867 192.99 110.115 192.786 114.366Z" fill="#407BFF"/>
<path opacity="0.9" d="M192.786 114.366C192.445 121.942 189.436 129.153 184.29 134.724H136.89C132.888 130.376 130.157 125.013 128.993 119.219C127.829 113.426 128.278 107.424 130.29 101.868H190.89C192.345 105.867 192.99 110.115 192.786 114.366Z" fill="#FAFAFA"/>
<path opacity="0.3" d="M192.786 114.366C192.413 122.338 189.089 129.887 183.461 135.546C177.833 141.204 170.302 144.569 162.331 144.984C154.361 145.4 146.521 142.838 140.334 137.796C134.147 132.754 130.056 125.592 128.855 117.702C127.655 109.811 129.43 101.756 133.837 95.1021C138.243 88.4478 144.967 83.6694 152.7 81.6955C160.433 79.7215 168.624 80.6929 175.681 84.421C182.737 88.1491 188.156 94.3676 190.884 101.868C192.34 105.867 192.986 110.115 192.786 114.366Z" fill="white"/>
<path opacity="0.4" d="M178.752 86.256L132.396 128.532C132.164 128.104 131.936 127.672 131.712 127.236C130.295 124.399 129.31 121.365 128.79 118.236L168.828 81.72C172.371 82.6537 175.728 84.1879 178.752 86.256Z" fill="white"/>
<path opacity="0.4" d="M191.154 102.642L147.6 142.386C143.082 140.393 139.083 137.387 135.912 133.602L183.504 90.198C186.972 93.7063 189.589 97.9635 191.154 102.642Z" fill="white"/>
<path d="M192.774 94.29C189.097 87.9146 183.612 82.7731 177.012 79.516C170.413 76.2589 162.995 75.0326 155.698 75.9923C148.402 76.9519 141.553 80.0544 136.02 84.9072C130.487 89.76 126.518 96.1449 124.615 103.254C122.711 110.363 122.96 117.878 125.328 124.846C127.696 131.814 132.078 137.923 137.92 142.4C143.761 146.877 150.799 149.521 158.143 149.997C165.487 150.473 172.808 148.76 179.178 145.074C187.71 140.138 193.934 132.017 196.484 122.495C199.033 112.973 197.699 102.829 192.774 94.29ZM135.174 127.554C132.273 122.53 130.927 116.758 131.306 110.969C131.685 105.18 133.773 99.6331 137.304 95.0301C140.836 90.4272 145.653 86.9748 151.146 85.1096C156.64 83.2443 162.563 83.0499 168.167 84.5509C173.771 86.052 178.804 89.1811 182.63 93.5426C186.456 97.9041 188.902 103.302 189.66 109.054C190.418 114.806 189.453 120.653 186.888 125.857C184.323 131.06 180.272 135.387 175.248 138.288C171.913 140.215 168.23 141.465 164.411 141.968C160.592 142.472 156.711 142.218 152.991 141.221C149.27 140.224 145.782 138.504 142.726 136.159C139.67 133.814 137.106 130.89 135.18 127.554H135.174Z" fill="#407BFF"/>
<path opacity="0.1" d="M192.774 94.29C189.097 87.9146 183.612 82.7731 177.012 79.516C170.413 76.2589 162.995 75.0326 155.698 75.9923C148.402 76.9519 141.553 80.0544 136.02 84.9072C130.487 89.76 126.518 96.1449 124.615 103.254C122.711 110.363 122.96 117.878 125.328 124.846C127.696 131.814 132.078 137.923 137.92 142.4C143.761 146.877 150.799 149.521 158.143 149.997C165.487 150.473 172.808 148.76 179.178 145.074C187.71 140.138 193.934 132.017 196.484 122.495C199.033 112.973 197.699 102.829 192.774 94.29ZM135.174 127.554C132.273 122.53 130.927 116.758 131.306 110.969C131.685 105.18 133.773 99.6331 137.304 95.0301C140.836 90.4272 145.653 86.9748 151.146 85.1096C156.64 83.2443 162.563 83.0499 168.167 84.5509C173.771 86.052 178.804 89.1811 182.63 93.5426C186.456 97.9041 188.902 103.302 189.66 109.054C190.418 114.806 189.453 120.653 186.888 125.857C184.323 131.06 180.272 135.387 175.248 138.288C171.913 140.215 168.23 141.465 164.411 141.968C160.592 142.472 156.711 142.218 152.991 141.221C149.27 140.224 145.782 138.504 142.726 136.159C139.67 133.814 137.106 130.89 135.18 127.554H135.174Z" fill="black"/>
<path d="M75.0358 151.134L79.6318 152.202L75.8218 155.046C75.8218 155.046 73.0918 153.81 72.9658 151.872L75.0358 151.134Z" fill="#E4897B"/>
<path d="M82.0918 155.262L78.7798 157.47L75.8218 155.046L79.6318 152.208L82.0918 155.262Z" fill="#E4897B"/>
<path d="M134.082 132.468C129.198 136.068 124.188 139.488 119.154 142.83C114.12 146.172 109.02 149.43 103.896 152.628C98.772 155.826 93.6 158.958 88.41 162C85.818 163.548 83.202 165.048 80.61 166.572C79.3224 167.392 77.9186 168.013 76.446 168.414C75.6603 168.622 74.8568 168.757 74.046 168.816C73.1458 168.889 72.2399 168.843 71.352 168.678C70.7174 168.552 70.1138 168.303 69.5758 167.944C69.0377 167.585 68.5758 167.123 68.2163 166.585C67.8568 166.048 67.607 165.444 67.481 164.81C67.355 164.175 67.3553 163.522 67.482 162.888C67.5231 162.684 67.5792 162.484 67.65 162.288C67.9396 161.437 68.3433 160.63 68.85 159.888C69.302 159.221 69.8163 158.598 70.386 158.028C71.4711 156.954 72.7108 156.048 74.064 155.34C76.686 153.846 79.29 152.34 81.93 150.858C87.186 147.888 92.49 144.996 97.806 142.14C103.122 139.284 108.504 136.518 113.916 133.818C119.328 131.118 124.782 128.49 130.35 126.066C131.19 125.694 132.138 125.646 133.012 125.931C133.885 126.216 134.623 126.814 135.082 127.609C135.542 128.404 135.692 129.342 135.503 130.241C135.314 131.14 134.799 131.937 134.058 132.48L134.082 132.468Z" fill="#407BFF"/>
<path opacity="0.1" d="M134.082 132.468C129.198 136.068 124.188 139.488 119.154 142.83C114.12 146.172 109.02 149.43 103.896 152.628C98.772 155.826 93.6 158.958 88.41 162C85.818 163.548 83.202 165.048 80.61 166.572C79.3224 167.392 77.9186 168.013 76.446 168.414C75.6603 168.622 74.8568 168.757 74.046 168.816C73.1458 168.889 72.2399 168.843 71.352 168.678C70.7174 168.552 70.1138 168.303 69.5758 167.944C69.0377 167.585 68.5758 167.123 68.2163 166.585C67.8568 166.048 67.607 165.444 67.481 164.81C67.355 164.175 67.3553 163.522 67.482 162.888C67.5231 162.684 67.5792 162.484 67.65 162.288C67.9396 161.437 68.3433 160.63 68.85 159.888C69.302 159.221 69.8163 158.598 70.386 158.028C71.4711 156.954 72.7108 156.048 74.064 155.34C76.686 153.846 79.29 152.34 81.93 150.858C87.186 147.888 92.49 144.996 97.806 142.14C103.122 139.284 108.504 136.518 113.916 133.818C119.328 131.118 124.782 128.49 130.35 126.066C131.19 125.694 132.138 125.646 133.012 125.931C133.885 126.216 134.623 126.814 135.082 127.609C135.542 128.404 135.692 129.342 135.503 130.241C135.314 131.14 134.799 131.937 134.058 132.48L134.082 132.468Z" fill="black"/>
<path d="M81.6961 122.712C81.3961 123.198 81.0541 123.786 80.7301 124.338C80.4061 124.89 80.0881 125.466 79.7881 126.048C79.1881 127.194 78.5881 128.358 77.9881 129.54C77.3881 130.722 76.9021 131.94 76.4101 133.14C76.1701 133.74 75.9181 134.34 75.6961 134.94L75.3601 135.858C75.2941 136.032 75.2821 136.104 75.2401 136.23C75.1981 136.356 75.1801 136.476 75.1441 136.596C74.9099 137.782 74.7913 138.987 74.7901 140.196C74.7601 141.486 74.7901 142.8 74.8621 144.126C74.9341 145.452 75.0061 146.784 75.1261 148.116C75.2461 149.448 75.3661 150.804 75.4921 152.124L73.1761 152.598C72.7681 151.26 72.4501 149.928 72.1321 148.578C71.8141 147.228 71.5741 145.872 71.3401 144.492C71.1061 143.112 70.9501 141.726 70.8481 140.292C70.7233 138.79 70.7615 137.28 70.9621 135.786C70.9981 135.576 71.0281 135.378 71.0821 135.186C71.1361 134.994 71.1901 134.724 71.2381 134.586L71.5321 133.566C71.7241 132.888 71.9461 132.216 72.1741 131.55C72.6361 130.212 73.1401 128.898 73.7041 127.602C74.2681 126.306 74.8681 125.04 75.5041 123.792C75.8341 123.192 76.1821 122.55 76.5361 121.932C76.8901 121.314 77.2441 120.732 77.6881 120.078L81.6961 122.712Z" fill="#E4897B"/>
<path d="M79.1339 246.6C78.729 246.587 78.3267 246.531 77.9339 246.432C77.9129 246.429 77.8935 246.419 77.8784 246.404C77.8633 246.388 77.8534 246.369 77.8499 246.348C77.8461 246.326 77.8486 246.304 77.8571 246.284C77.8656 246.264 77.8798 246.246 77.8979 246.234C78.0599 246.126 79.4759 245.214 80.0219 245.46C80.0826 245.488 80.1346 245.532 80.1727 245.586C80.2107 245.641 80.2332 245.705 80.2379 245.772C80.2661 245.879 80.2642 245.992 80.2324 246.097C80.2006 246.203 80.1402 246.298 80.0579 246.372C79.7875 246.557 79.4593 246.638 79.1339 246.6ZM78.2159 246.276C79.0319 246.438 79.6439 246.408 79.8779 246.192C79.9293 246.143 79.9669 246.081 79.9869 246.012C80.0069 245.944 80.0086 245.871 79.9919 245.802C79.9911 245.771 79.9817 245.742 79.9647 245.716C79.9477 245.691 79.9239 245.67 79.8959 245.658C79.6139 245.532 78.7919 245.928 78.2159 246.276Z" fill="#407BFF"/>
<path d="M77.928 246.438C77.9104 246.443 77.8916 246.443 77.874 246.438C77.8567 246.429 77.8425 246.415 77.8329 246.398C77.8234 246.381 77.8189 246.362 77.82 246.342C77.82 246.288 77.82 244.944 78.33 244.494C78.393 244.437 78.4673 244.395 78.5479 244.369C78.6286 244.343 78.7138 244.335 78.798 244.344C78.8865 244.345 78.9718 244.377 79.0396 244.434C79.1073 244.491 79.1534 244.569 79.17 244.656C79.278 245.178 78.426 246.186 77.97 246.456C77.9548 246.453 77.9403 246.447 77.928 246.438ZM78.726 244.542C78.635 244.543 78.5475 244.577 78.48 244.638C78.185 245.073 78.0339 245.589 78.048 246.114C78.492 245.754 79.02 244.998 78.954 244.68C78.954 244.626 78.912 244.566 78.774 244.548L78.726 244.542Z" fill="#407BFF"/>
<path d="M100.386 246.6C99.8916 246.593 99.3992 246.536 98.916 246.432C98.893 246.429 98.8715 246.419 98.8552 246.403C98.8388 246.386 98.8285 246.365 98.826 246.342C98.8233 246.319 98.8276 246.296 98.8383 246.276C98.849 246.255 98.8656 246.239 98.886 246.228C99.096 246.12 100.956 245.172 101.526 245.484C101.581 245.512 101.627 245.554 101.661 245.606C101.695 245.657 101.714 245.717 101.718 245.778C101.731 245.877 101.719 245.978 101.684 246.071C101.648 246.164 101.59 246.247 101.514 246.312C101.182 246.535 100.784 246.636 100.386 246.6ZM99.282 246.276C100.32 246.45 101.082 246.402 101.37 246.15C101.418 246.105 101.454 246.05 101.476 245.988C101.498 245.927 101.505 245.861 101.496 245.796C101.496 245.771 101.489 245.747 101.476 245.726C101.464 245.705 101.446 245.688 101.424 245.676C101.112 245.508 100.044 245.91 99.282 246.276Z" fill="#407BFF"/>
<path d="M98.9341 246.438C98.9246 246.442 98.9144 246.444 98.9041 246.444C98.8938 246.444 98.8836 246.442 98.8741 246.438C98.8568 246.429 98.8429 246.415 98.8342 246.398C98.8256 246.381 98.8227 246.361 98.8261 246.342C98.8261 246.288 98.9401 245.028 99.5221 244.542C99.6893 244.402 99.9047 244.333 100.122 244.35C100.428 244.38 100.512 244.536 100.536 244.662C100.62 245.19 99.5221 246.198 98.9641 246.462L98.9341 246.438ZM100.05 244.542C99.9091 244.543 99.7732 244.594 99.6661 244.686C99.3219 245.092 99.1123 245.596 99.0661 246.126C99.6301 245.784 100.38 244.992 100.326 244.674C100.326 244.674 100.326 244.566 100.11 244.548L100.05 244.542Z" fill="#407BFF"/>
<path d="M88.8002 104.694C89.1662 107.496 90.0002 113.178 87.9722 114.894C87.9722 114.894 88.5722 117.75 93.6842 118.08C99.3362 118.446 96.5642 115.452 96.5642 115.452C93.5282 114.516 93.7562 112.23 94.4342 110.118L88.8002 104.694Z" fill="#E4897B"/>
<path d="M99.282 99C99.246 98.9992 99.2108 98.9888 99.18 98.97C99.1539 98.9568 99.1307 98.9384 99.1119 98.9159C99.0931 98.8934 99.079 98.8674 99.0706 98.8393C99.0622 98.8113 99.0596 98.7818 99.0629 98.7527C99.0663 98.7236 99.0755 98.6954 99.09 98.67C99.2459 98.3526 99.4763 98.0777 99.7615 97.8687C100.047 97.6597 100.378 97.5229 100.728 97.47C100.782 97.4721 100.833 97.4936 100.872 97.5305C100.911 97.5674 100.935 97.6172 100.94 97.6706C100.946 97.7241 100.931 97.7777 100.9 97.8213C100.868 97.865 100.822 97.8958 100.77 97.908C100.496 97.9558 100.238 98.0662 100.014 98.2307C99.79 98.3952 99.6073 98.6092 99.48 98.856C99.463 98.8956 99.4356 98.9298 99.4008 98.9551C99.3659 98.9805 99.3249 98.996 99.282 99Z" fill="#263238"/>
<path d="M100.896 101.46C101.309 102.284 101.834 103.047 102.456 103.728C102.278 103.883 102.068 103.997 101.841 104.062C101.614 104.128 101.375 104.143 101.142 104.106L100.896 101.46Z" fill="#DE5753"/>
<path d="M100.5 100.848C100.536 101.226 100.764 101.508 101.004 101.484C101.244 101.46 101.424 101.142 101.388 100.764C101.352 100.386 101.124 100.104 100.878 100.128C100.632 100.152 100.464 100.476 100.5 100.848Z" fill="#263238"/>
<path d="M100.8 100.158L101.676 99.816C101.676 99.816 101.256 100.56 100.8 100.158Z" fill="#263238"/>
<path d="M93.7979 246.324H98.4718L98.7838 235.512H94.1099L93.7979 246.324Z" fill="#E4897B"/>
<path d="M72.5762 246.324H77.2502L78.7502 235.512H74.0822L72.5762 246.324Z" fill="#E4897B"/>
<path d="M77.5378 245.784H72.2878C72.1978 245.783 72.1105 245.815 72.0421 245.873C71.9737 245.932 71.9288 246.013 71.9158 246.102L71.3158 250.254C71.3039 250.359 71.3144 250.465 71.3464 250.566C71.3783 250.666 71.4312 250.759 71.5014 250.837C71.5716 250.916 71.6576 250.979 71.7538 251.022C71.85 251.065 71.9543 251.088 72.0598 251.088C73.8598 251.058 74.7718 250.95 77.0818 250.95C78.4978 250.95 80.5738 251.094 82.5358 251.094C84.4978 251.094 84.5998 249.156 83.7838 248.982C80.1238 248.196 79.5478 247.11 78.3118 246.072C78.096 245.888 77.8217 245.785 77.5378 245.784Z" fill="#263238"/>
<path d="M98.6282 245.784H93.3842C93.2939 245.782 93.2059 245.813 93.1373 245.872C93.0686 245.93 93.0241 246.012 93.0122 246.102L92.4122 250.254C92.4013 250.359 92.4126 250.465 92.4453 250.566C92.478 250.666 92.5314 250.759 92.6021 250.838C92.6727 250.916 92.7591 250.979 92.8556 251.022C92.9521 251.065 93.0565 251.088 93.1622 251.088C94.9622 251.058 95.8742 250.95 98.1782 250.95C99.6002 250.95 102.534 251.094 104.496 251.094C106.458 251.094 106.56 249.156 105.744 248.982C102.084 248.196 100.644 247.11 99.4082 246.072C99.1909 245.886 98.9143 245.784 98.6282 245.784Z" fill="#263238"/>
<path d="M98.7778 235.512L98.6218 241.086H93.9478L94.1098 235.512H98.7778Z" fill="#CE6F64"/>
<path d="M74.0758 235.512H78.7498L77.9758 241.086H73.3018L74.0758 235.512Z" fill="#CE6F64"/>
<path d="M83.6879 123.432C82.8008 124.818 81.7734 126.109 80.6219 127.284L80.0879 126.93L74.1719 123C74.1719 123 77.3999 115.8 79.8299 115.434C82.1519 115.062 83.8439 117.462 84.6299 120.03C84.9299 120.96 84.4319 122.22 83.6879 123.432Z" fill="#407BFF"/>
<path opacity="0.6" d="M83.6879 123.432C82.8008 124.818 81.7734 126.109 80.6219 127.284L80.0879 126.93L74.1719 123C74.1719 123 77.3999 115.8 79.8299 115.434C82.1519 115.062 83.8439 117.462 84.6299 120.03C84.9299 120.96 84.4319 122.22 83.6879 123.432Z" fill="#FAFAFA"/>
<path d="M83.6879 123.432C82.8008 124.818 81.7734 126.109 80.6219 127.284L80.0879 126.93C80.3519 124.77 81.1919 122.628 82.1519 121.95C82.7399 122.01 83.2619 122.634 83.6879 123.432Z" fill="#407BFF"/>
<path opacity="0.4" d="M83.6879 123.432C82.8008 124.818 81.7734 126.109 80.6219 127.284L80.0879 126.93C80.3519 124.77 81.1919 122.628 82.1519 121.95C82.7399 122.01 83.2619 122.634 83.6879 123.432Z" fill="#FAFAFA"/>
<path d="M103.926 127.026C103.644 128.826 103.278 130.944 102.786 133.458C102.186 136.674 101.346 140.532 100.284 145.146L81.3541 143.946C82.1701 136.26 82.4881 131.508 79.8301 115.458C82.5175 115.083 85.2287 114.904 87.9421 114.924C90.8157 114.905 93.687 115.092 96.5341 115.482C100.206 116.082 104.334 117.186 104.334 117.186C104.334 117.186 105.39 117.6 103.926 127.026Z" fill="#407BFF"/>
<path opacity="0.6" d="M103.926 127.026C103.644 128.826 103.278 130.944 102.786 133.458C102.186 136.674 101.346 140.532 100.284 145.146L81.3541 143.946C82.1701 136.26 82.4881 131.508 79.8301 115.458C82.5175 115.083 85.2287 114.904 87.9421 114.924C90.8157 114.905 93.687 115.092 96.5341 115.482C100.206 116.082 104.334 117.186 104.334 117.186C104.334 117.186 105.39 117.6 103.926 127.026Z" fill="#FAFAFA"/>
<path d="M103.926 127.026C103.644 128.826 103.278 130.944 102.786 133.458C101.745 131.244 100.88 128.95 100.2 126.6H103.716L103.926 127.026Z" fill="#407BFF"/>
<path opacity="0.4" d="M103.926 127.026C103.644 128.826 103.278 130.944 102.786 133.458C101.745 131.244 100.88 128.95 100.2 126.6H103.716L103.926 127.026Z" fill="#FAFAFA"/>
<path d="M87.7679 100.752C88.4819 105.33 88.6919 107.286 91.2419 109.428C95.0759 112.656 100.542 110.772 101.208 106.068C101.808 101.838 100.536 95.0581 95.8499 93.6541C94.8192 93.3378 93.7246 93.2906 92.6705 93.5169C91.6163 93.7432 90.6377 94.2356 89.8276 94.947C89.0175 95.6585 88.4029 96.5654 88.0424 97.5815C87.6819 98.5977 87.5874 99.6891 87.7679 100.752Z" fill="#E4897B"/>
<path d="M95.2799 144.822C95.2799 144.822 94.9799 153.156 94.2599 163.668C93.6599 172.488 92.7539 182.832 91.4879 191.076L91.4519 191.304C89.1779 205.896 79.1039 240 79.1039 240H72.7319C72.7319 240 77.9819 207.06 79.1339 192.6C82.0559 156.078 74.7359 151.944 81.3539 143.892L95.2799 144.822Z" fill="#407BFF"/>
<path opacity="0.3" d="M95.2799 144.822C95.2799 144.822 94.9799 153.156 94.2599 163.668C93.6599 172.488 92.7539 182.832 91.4879 191.076L91.4519 191.304C89.1779 205.896 79.1039 240 79.1039 240H72.7319C72.7319 240 77.9819 207.06 79.1339 192.6C82.0559 156.078 74.7359 151.944 81.3539 143.892L95.2799 144.822Z" fill="black"/>
<path d="M94.26 163.668C93.66 172.488 92.754 182.832 91.488 191.076C89.334 180.366 85.794 164.724 90.546 154.476C91.68 157.386 93 160.674 94.26 163.668Z" fill="#407BFF"/>
<path opacity="0.4" d="M94.26 163.668C93.66 172.488 92.754 182.832 91.488 191.076C89.334 180.366 85.794 164.724 90.546 154.476C91.68 157.386 93 160.674 94.26 163.668Z" fill="black"/>
<path d="M100.284 145.152C100.284 145.152 105.684 177.156 105.36 191.4C105.042 206.22 99.612 240 99.612 240H93.3C93.3 240 94.296 207.078 93.738 192.528C93.138 176.664 86.418 144.246 86.418 144.246L100.284 145.152Z" fill="#407BFF"/>
<path opacity="0.3" d="M100.284 145.152C100.284 145.152 105.684 177.156 105.36 191.4C105.042 206.22 99.612 240 99.612 240H93.3C93.3 240 94.296 207.078 93.738 192.528C93.138 176.664 86.418 144.246 86.418 144.246L100.284 145.152Z" fill="black"/>
<path d="M92.2199 240.3H100.686L101.346 237.462L91.9199 237.528L92.2199 240.3Z" fill="#263238"/>
<path d="M71.8081 240.3H80.2741L80.9341 237.462L71.8681 237.528L71.8081 240.3Z" fill="#263238"/>
<path d="M81.1381 142.8L80.1781 144.444C80.1001 144.57 80.2501 144.714 80.4661 144.726L100.32 146.016C100.488 146.016 100.638 145.956 100.656 145.848L100.938 144.162C100.938 144.048 100.812 143.94 100.626 143.928L81.4261 142.68C81.3723 142.678 81.3185 142.687 81.2687 142.708C81.2189 142.729 81.1743 142.76 81.1381 142.8Z" fill="#263238"/>
<path d="M83.5737 145.104L83.0637 145.068C82.9618 145.068 82.8838 145.002 82.8958 144.942L83.2797 142.752C83.2797 142.692 83.3817 142.644 83.4837 142.65L83.9997 142.68C84.1017 142.68 84.1737 142.746 84.1677 142.812L83.7837 144.996C83.7717 145.062 83.6757 145.11 83.5737 145.104Z" fill="#407BFF"/>
<path opacity="0.3" d="M83.5737 145.104L83.0637 145.068C82.9618 145.068 82.8838 145.002 82.8958 144.942L83.2797 142.752C83.2797 142.692 83.3817 142.644 83.4837 142.65L83.9997 142.68C84.1017 142.68 84.1737 142.746 84.1677 142.812L83.7837 144.996C83.7717 145.062 83.6757 145.11 83.5737 145.104Z" fill="black"/>
<path d="M96 145.908L95.49 145.878C95.388 145.878 95.31 145.812 95.322 145.746L95.706 143.562C95.706 143.496 95.808 143.454 95.916 143.46L96.426 143.49C96.528 143.49 96.606 143.556 96.594 143.622L96.21 145.806C96.216 145.872 96.12 145.914 96 145.908Z" fill="#407BFF"/>
<path opacity="0.3" d="M96 145.908L95.49 145.878C95.388 145.878 95.31 145.812 95.322 145.746L95.706 143.562C95.706 143.496 95.808 143.454 95.916 143.46L96.426 143.49C96.528 143.49 96.606 143.556 96.594 143.622L96.21 145.806C96.216 145.872 96.12 145.914 96 145.908Z" fill="black"/>
<path d="M105.408 121.986C106.128 124.386 106.812 126.816 107.478 129.24L109.488 136.494L109.74 137.394L109.806 137.616L109.836 137.73V137.79C109.857 137.869 109.883 137.948 109.914 138.024C110.061 138.389 110.264 138.729 110.514 139.032C111.23 139.788 112.06 140.428 112.974 140.928C115.067 142.061 117.281 142.954 119.574 143.592L119.226 145.932C116.535 145.793 113.885 145.22 111.378 144.234C109.991 143.69 108.712 142.902 107.604 141.906C106.969 141.317 106.441 140.623 106.044 139.854C105.937 139.646 105.842 139.432 105.762 139.212L105.696 139.05L105.654 138.936L105.576 138.714L105.258 137.808C104.418 135.408 103.638 133.008 102.9 130.572C102.162 128.136 101.436 125.736 100.776 123.288L105.408 121.986Z" fill="#E4897B"/>
<path d="M104.334 117.162C106.734 117.948 109.254 125.796 109.254 125.796L100.59 129.528C100.59 129.528 96.9898 120.72 98.5858 118.728C100.182 116.736 101.58 116.262 104.334 117.162Z" fill="#407BFF"/>
<path opacity="0.6" d="M104.334 117.162C106.734 117.948 109.254 125.796 109.254 125.796L100.59 129.528C100.59 129.528 96.9898 120.72 98.5858 118.728C100.182 116.736 101.58 116.262 104.334 117.162Z" fill="#FAFAFA"/>
<path d="M99.7021 93.39C98.1721 91.5 86.3521 90.15 85.7221 95.298C81.5221 98.238 85.5061 105.834 86.1061 107.766C83.2081 108.57 73.8721 111.762 80.7061 117.966C87.5401 124.17 97.7881 123.114 99.7921 116.694C101.196 112.206 96.7381 104.694 96.8341 102.066C96.9301 99.438 102.324 96.6 99.7021 93.39Z" fill="#263238"/>
<path d="M86.934 108.714C86.9121 108.715 86.8903 108.71 86.8705 108.701C86.8507 108.691 86.8334 108.677 86.82 108.66C85.734 107.34 81.954 100.404 83.28 97.104C83.4856 96.592 83.8343 96.15 84.2844 95.8308C84.7344 95.5117 85.2668 95.3288 85.818 95.304C85.8374 95.3015 85.8571 95.303 85.8759 95.3083C85.8947 95.3137 85.9122 95.3228 85.9274 95.3352C85.9425 95.3475 85.955 95.3629 85.9641 95.3802C85.9731 95.3975 85.9785 95.4165 85.98 95.436C85.9852 95.4749 85.9749 95.5143 85.9513 95.5457C85.9278 95.5771 85.8928 95.5981 85.854 95.604C85.3584 95.6223 84.8785 95.7824 84.4712 96.0653C84.0639 96.3482 83.7462 96.742 83.556 97.2C82.278 100.392 85.986 107.166 87.048 108.462C87.067 108.483 87.0793 108.509 87.0833 108.538C87.0874 108.566 87.0831 108.594 87.0709 108.62C87.0587 108.646 87.0392 108.667 87.0149 108.682C86.9905 108.696 86.9624 108.703 86.934 108.702V108.714Z" fill="#263238"/>
<path d="M95.898 101.784C96.0319 102.66 96.4542 103.467 97.098 104.076C97.95 104.892 98.754 104.334 98.832 103.296C98.904 102.366 98.544 100.824 97.536 100.392C96.528 99.96 95.772 100.746 95.898 101.784Z" fill="#E4897B"/>
<path d="M116.634 142.944L120.042 141.786L119.508 145.884C119.508 145.884 118.164 146.484 116.424 144.972L114.762 143.91L116.07 143.196C116.25 143.094 116.438 143.009 116.634 142.944Z" fill="#E4897B"/>
<path d="M122.424 141.774L121.38 145.356L119.508 145.878L120.042 141.786L122.424 141.774Z" fill="#E4897B"/>
</svg>
