<svg width="300" height="300" viewBox="0 0 300 300" fill="none" xmlns="http://www.w3.org/2000/svg">
<path d="M300 229.44H0V229.59H300V229.44Z" fill="#EBEBEB"/>
<path d="M266.334 235.152H246.462V235.302H266.334V235.152Z" fill="#EBEBEB"/>
<path d="M108.798 237.186H78.8818V237.336H108.798V237.186Z" fill="#EBEBEB"/>
<path d="M245.862 240.726H228.144V240.876H245.862V240.726Z" fill="#EBEBEB"/>
<path d="M44.4361 239.718H31.4761V239.868H44.4361V239.718Z" fill="#EBEBEB"/>
<path d="M72.7979 239.718H49.7759V239.868H72.7979V239.718Z" fill="#EBEBEB"/>
<path d="M198.732 233.526H142.524V233.676H198.732V233.526Z" fill="#EBEBEB"/>
<path d="M142.2 202.68H26.3458C25.4382 202.678 24.5683 202.317 23.9271 201.674C23.2859 201.032 22.9258 200.162 22.9258 199.254V36.396C22.9337 35.4936 23.2973 34.6308 23.9376 33.9949C24.578 33.3591 25.4434 33.0015 26.3458 33H142.2C143.108 33 143.98 33.361 144.622 34.0035C145.265 34.646 145.626 35.5174 145.626 36.426V199.254C145.626 200.163 145.265 201.034 144.622 201.677C143.98 202.319 143.108 202.68 142.2 202.68ZM26.3458 33.12C25.478 33.1216 24.6463 33.4674 24.0332 34.0816C23.4201 34.6958 23.0758 35.5282 23.0758 36.396V199.254C23.0758 200.122 23.4201 200.954 24.0332 201.568C24.6463 202.183 25.478 202.528 26.3458 202.53H142.2C143.068 202.528 143.901 202.183 144.515 201.569C145.129 200.955 145.474 200.122 145.476 199.254V36.396C145.474 35.5276 145.129 34.6953 144.515 34.0813C143.901 33.4672 143.068 33.1216 142.2 33.12H26.3458Z" fill="#EBEBEB"/>
<path d="M271.986 202.68H156.126C155.218 202.678 154.348 202.317 153.705 201.675C153.063 201.033 152.702 200.162 152.7 199.254V36.396C152.71 35.4931 153.075 34.6302 153.716 33.9946C154.357 33.3589 155.223 33.0015 156.126 33H271.986C272.888 33.0031 273.751 33.3613 274.39 33.997C275.03 34.6327 275.392 35.4947 275.4 36.396V199.254C275.4 200.161 275.041 201.03 274.401 201.672C273.761 202.314 272.893 202.677 271.986 202.68ZM156.126 33.12C155.258 33.1216 154.425 33.4672 153.811 34.0813C153.197 34.6953 152.852 35.5276 152.85 36.396V199.254C152.852 200.122 153.197 200.955 153.811 201.569C154.425 202.183 155.258 202.528 156.126 202.53H271.986C272.855 202.528 273.687 202.183 274.301 201.569C274.915 200.955 275.261 200.122 275.262 199.254V36.396C275.261 35.5276 274.915 34.6953 274.301 34.0813C273.687 33.4672 272.855 33.1216 271.986 33.12H156.126Z" fill="#EBEBEB"/>
<path d="M65.2261 128.79L227.952 128.79V49.314L65.2261 49.314V128.79Z" fill="#E6E6E6"/>
<path d="M62.1778 128.79L226.53 128.79V49.314L62.1778 49.314V128.79Z" fill="#F0F0F0"/>
<path d="M65.2261 134.454L227.952 134.454V128.79L65.2261 128.79V134.454Z" fill="#E6E6E6"/>
<path d="M57.0958 134.454L221.448 134.454V128.79L57.0958 128.79V134.454Z" fill="#F0F0F0"/>
<path d="M222.264 124.53V53.586L66.4442 53.586V124.53L222.264 124.53Z" fill="#FAFAFA"/>
<path d="M109.302 124.53L102.474 53.586H90.6538L97.4818 124.53H109.302Z" fill="white"/>
<path d="M200.292 124.53L193.458 53.586H181.638L188.472 124.53H200.292Z" fill="white"/>
<path d="M220.29 100.482C220.377 100.48 220.459 100.445 220.52 100.383C220.58 100.322 220.614 100.238 220.614 100.152V56.352C220.62 56.3053 220.617 56.2579 220.603 56.2128C220.59 56.1677 220.567 56.126 220.536 56.0905C220.505 56.0551 220.466 56.0266 220.424 56.0072C220.381 55.9877 220.334 55.9776 220.287 55.9776C220.24 55.9776 220.193 55.9877 220.151 56.0072C220.108 56.0266 220.069 56.0551 220.038 56.0905C220.008 56.126 219.984 56.1677 219.971 56.2128C219.957 56.2579 219.954 56.3053 219.96 56.352V100.152C219.96 100.195 219.969 100.238 219.985 100.278C220.002 100.318 220.026 100.355 220.057 100.385C220.087 100.416 220.124 100.44 220.164 100.457C220.204 100.473 220.247 100.482 220.29 100.482Z" fill="#F0F0F0"/>
<path d="M94.944 124.53L88.11 53.586H83.502L90.336 124.53H94.944Z" fill="white"/>
<path d="M66.9839 124.53V53.586H66.4439V124.53H66.9839Z" fill="#E6E6E6"/>
<path opacity="0.5" d="M61.1699 61.32H223.896L224.286 55.242H61.5599L61.1699 61.32Z" fill="#E0E0E0"/>
<path opacity="0.5" d="M61.1699 71.31H223.896L224.286 65.232H61.5599L61.1699 71.31Z" fill="#E0E0E0"/>
<path opacity="0.5" d="M61.1699 81.3H223.896L224.286 75.222H61.5599L61.1699 81.3Z" fill="#E0E0E0"/>
<path opacity="0.5" d="M61.1699 91.29H223.896L224.286 85.212H61.5599L61.1699 91.29Z" fill="#E0E0E0"/>
<path opacity="0.5" d="M61.1699 101.28H223.896L224.286 95.202H61.5599L61.1699 101.28Z" fill="#E0E0E0"/>
<path opacity="0.5" d="M61.1699 111.27H223.896L224.286 105.192H61.5599L61.1699 111.27Z" fill="#E0E0E0"/>
<path d="M158.784 229.44H169.02V161.016H158.784V229.44Z" fill="#E6E6E6"/>
<path d="M161.472 229.44H158.784V220.122H164.298L161.472 229.44Z" fill="#F0F0F0"/>
<path d="M253.182 229.44H263.418V161.016H253.182V229.44Z" fill="#E6E6E6"/>
<path d="M158.778 223.722H255.522V161.016H158.778V223.722Z" fill="#F0F0F0"/>
<path d="M160.866 180.984H253.434V163.788H160.866V180.984Z" fill="#E6E6E6"/>
<path d="M177 169.134H235.5C238.128 169.134 240.636 167.016 242.442 163.266H170.058C171.864 167.016 174.372 169.134 177 169.134Z" fill="#F0F0F0"/>
<path d="M252.834 229.44H255.528V220.122H250.014L252.834 229.44Z" fill="#F0F0F0"/>
<path d="M160.866 200.964H253.434V183.768H160.866V200.964Z" fill="#E6E6E6"/>
<path d="M177 189.114H235.5C238.128 189.114 240.636 186.99 242.442 183.246H170.058C171.864 186.99 174.372 189.114 177 189.114Z" fill="#F0F0F0"/>
<path d="M160.866 220.944H253.434V203.748H160.866V220.944Z" fill="#E6E6E6"/>
<path d="M177 209.088H235.5C238.128 209.088 240.636 206.964 242.442 203.22H170.058C171.864 206.964 174.372 209.088 177 209.088Z" fill="#F0F0F0"/>
<path d="M91.3859 139.902H79.5179C78.0135 139.902 76.7939 141.122 76.7939 142.626V147.186C76.7939 148.69 78.0135 149.91 79.5179 149.91H91.3859C92.8904 149.91 94.11 148.69 94.11 147.186V142.626C94.11 141.122 92.8904 139.902 91.3859 139.902Z" fill="#F5F5F5"/>
<path d="M113.052 139.902H101.184C99.6795 139.902 98.46 141.122 98.46 142.626V147.186C98.46 148.69 99.6795 149.91 101.184 149.91H113.052C114.556 149.91 115.776 148.69 115.776 147.186V142.626C115.776 141.122 114.556 139.902 113.052 139.902Z" fill="#F5F5F5"/>
<path d="M49.4878 137.898C49.4878 137.898 49.9018 149.898 65.7298 149.898C81.5578 149.898 81.9658 137.898 81.9658 137.898H49.4878Z" fill="#F0F0F0"/>
<path d="M117.558 225.528H134.982V153.69H117.558V225.528Z" fill="#F0F0F0"/>
<path d="M45.7201 229.44H131.64V225.528H45.7201V229.44Z" fill="#F0F0F0"/>
<path d="M117.558 153.684H42.3721V225.522H117.558V153.684Z" fill="#F5F5F5"/>
<path d="M110.712 181.326H49.2241V197.886H110.712V181.326Z" fill="#F0F0F0"/>
<path d="M110.712 201.582H49.2241V218.142H110.712V201.582Z" fill="#F0F0F0"/>
<path d="M72.7503 183.546H87.1803C87.5474 183.544 87.899 183.398 88.1586 183.138C88.4181 182.879 88.5647 182.527 88.5663 182.16C88.5663 181.792 88.4204 181.439 88.1607 181.178C87.9009 180.917 87.5484 180.77 87.1803 180.768H72.7503C72.3821 180.77 72.0296 180.917 71.7698 181.178C71.5101 181.439 71.3643 181.792 71.3643 182.16C71.3658 182.527 71.5124 182.879 71.772 183.138C72.0315 183.398 72.3832 183.544 72.7503 183.546Z" fill="#F5F5F5"/>
<path d="M110.712 161.076H49.2241V177.636H110.712V161.076Z" fill="#F0F0F0"/>
<path d="M72.7503 163.296H87.1803C87.5484 163.294 87.9009 163.147 88.1607 162.886C88.4204 162.625 88.5663 162.272 88.5663 161.904C88.5647 161.537 88.4181 161.185 88.1586 160.926C87.899 160.666 87.5474 160.52 87.1803 160.518H72.7503C72.3832 160.52 72.0315 160.666 71.772 160.926C71.5124 161.185 71.3658 161.537 71.3643 161.904C71.3643 162.272 71.5101 162.625 71.7698 162.886C72.0296 163.147 72.3821 163.294 72.7503 163.296Z" fill="#F5F5F5"/>
<path d="M72.7499 203.796H87.1799C87.9454 203.796 88.5659 203.175 88.5659 202.41V202.404C88.5659 201.639 87.9454 201.018 87.1799 201.018H72.7499C71.9844 201.018 71.3639 201.639 71.3639 202.404V202.41C71.3639 203.175 71.9844 203.796 72.7499 203.796Z" fill="#F5F5F5"/>
<path d="M40.0501 153.684H117.558V149.904H40.0501V153.684Z" fill="#F0F0F0"/>
<path d="M137.418 149.91H117.558V153.69H137.418V149.91Z" fill="#E6E6E6"/>
<path d="M233.856 109.914L229.554 103.398C229.704 141.114 230.34 143.286 230.322 149.778H233.772C234.252 118.2 235.584 118.014 233.856 109.914Z" fill="#E0E0E0"/>
<path d="M232.2 161.01C242.094 161.01 250.44 156.996 252.468 151.566C252.987 150.08 253.697 148.668 254.58 147.366L254.736 147.144H209.652L209.808 147.366C210.695 148.667 211.407 150.079 211.926 151.566C213.954 156.996 222.3 161.01 232.2 161.01Z" fill="#FAFAFA"/>
<path d="M209.562 148.488H254.826C255.437 148.486 256.031 148.282 256.514 147.908C256.997 147.533 257.342 147.01 257.496 146.418C257.6 146.011 257.61 145.585 257.525 145.173C257.439 144.762 257.261 144.375 257.003 144.043C256.746 143.711 256.416 143.442 256.038 143.256C255.661 143.071 255.246 142.975 254.826 142.974H209.562C209.141 142.973 208.726 143.069 208.348 143.254C207.97 143.439 207.639 143.708 207.382 144.041C207.124 144.373 206.946 144.76 206.861 145.172C206.776 145.585 206.787 146.011 206.892 146.418C207.044 147.011 207.389 147.536 207.872 147.911C208.356 148.285 208.95 148.489 209.562 148.488Z" fill="#F0F0F0"/>
<path d="M232.554 104.664C231.696 94.464 221.202 93.456 201.57 88.65C211.2 116.4 235.8 143.082 232.554 104.664Z" fill="#E0E0E0"/>
<path d="M229.71 99.306C228.258 91.206 229.776 82.62 252.51 83.46C246.816 105.762 236.466 136.914 229.71 99.306Z" fill="#E0E0E0"/>
<path d="M230.742 119.082C231.432 109.752 238.62 98.682 262.152 106.644C251.688 124.752 229.074 141.6 230.742 119.082Z" fill="#E0E0E0"/>
<path d="M150 256.536C214.25 256.536 266.334 253.495 266.334 249.744C266.334 245.993 214.25 242.952 150 242.952C85.7505 242.952 33.666 245.993 33.666 249.744C33.666 253.495 85.7505 256.536 150 256.536Z" fill="#F5F5F5"/>
<path d="M80.8496 165.744H154.476V161.772H80.8496V165.744Z" fill="#407BFF"/>
<path opacity="0.5" d="M80.8496 165.744H154.476V161.772H80.8496V165.744Z" fill="white"/>
<path d="M80.8498 161.772H47.1357V165.744H80.8498V161.772Z" fill="#407BFF"/>
<path opacity="0.5" d="M80.8498 161.772H47.1357V165.744H80.8498V161.772Z" fill="white"/>
<path opacity="0.2" d="M80.8498 161.772H47.1357V165.744H80.8498V161.772Z" fill="black"/>
<path d="M49.4158 169.98H152.208L153.09 165.744H48.5278L49.4158 169.98Z" fill="#407BFF"/>
<path opacity="0.6" d="M49.4158 169.98H152.208L153.09 165.744H48.5278L49.4158 169.98Z" fill="black"/>
<path d="M141.534 169.98V247.518H139.212L136.284 169.98H141.534Z" fill="#407BFF"/>
<path opacity="0.5" d="M141.534 169.98V247.518H139.212L136.284 169.98H141.534Z" fill="white"/>
<path d="M114.09 169.98V247.518H111.768L108.84 169.98H114.09Z" fill="#407BFF"/>
<path opacity="0.5" d="M114.09 169.98V247.518H111.768L108.84 169.98H114.09Z" fill="white"/>
<path d="M54.5938 169.98V247.518H56.9158L59.8438 169.98H54.5938Z" fill="#407BFF"/>
<path opacity="0.5" d="M54.5938 169.98V247.518H56.9158L59.8438 169.98H54.5938Z" fill="white"/>
<path d="M82.0376 169.98V247.518H84.3596L87.2876 169.98H82.0376Z" fill="#407BFF"/>
<path opacity="0.5" d="M82.0376 169.98V247.518H84.3596L87.2876 169.98H82.0376Z" fill="white"/>
<path d="M238.386 111.924C239.7 114.486 240.906 117.042 242.064 119.658C243.222 122.274 244.296 124.92 245.286 127.644C245.52 128.34 245.772 129.012 245.988 129.726L246.156 130.254L246.246 130.518C246.246 130.608 246.336 130.83 246.372 130.98C246.503 131.57 246.547 132.177 246.504 132.78C246.417 133.748 246.176 134.696 245.79 135.588C245.474 136.35 245.095 137.085 244.656 137.784C243.029 140.32 241.028 142.595 238.722 144.534L236.508 142.506C237.995 140.313 239.301 138.004 240.414 135.6C240.649 135.059 240.85 134.504 241.014 133.938C241.142 133.514 241.196 133.072 241.176 132.63C241.177 132.536 241.154 132.443 241.11 132.36C241.11 132.36 241.11 132.39 241.08 132.318L240.99 132.084L240.804 131.616C240.564 131.016 240.282 130.368 240.018 129.738C238.938 127.224 237.768 124.71 236.574 122.196L232.974 114.666L238.386 111.924Z" fill="#FF8B7B"/>
<path d="M237.168 141.78L234.45 142.944L237.156 146.694C237.156 146.694 239.124 145.59 239.37 143.664L237.168 141.78Z" fill="#FF8B7B"/>
<path d="M230.772 144.816L233.766 147.624L237.156 146.694L234.45 142.944L230.772 144.816Z" fill="#FF8B7B"/>
<path d="M219.642 93.114C219.576 93.432 219.36 93.654 219.15 93.612C218.94 93.57 218.832 93.276 218.892 92.964C218.952 92.652 219.18 92.424 219.384 92.466C219.588 92.508 219.708 92.796 219.642 93.114Z" fill="#263238"/>
<path d="M219.39 93.66C218.815 94.5506 218.12 95.3581 217.326 96.06C217.509 96.2602 217.734 96.4177 217.985 96.5214C218.236 96.6251 218.506 96.6724 218.778 96.66L219.39 93.66Z" fill="#ED847E"/>
<path d="M221.16 91.596C221.133 91.5951 221.106 91.5888 221.081 91.5775C221.056 91.5662 221.034 91.55 221.016 91.53C220.859 91.352 220.663 91.2132 220.443 91.1247C220.223 91.0361 219.986 91.0002 219.75 91.02C219.725 91.0243 219.7 91.0238 219.676 91.0184C219.652 91.0131 219.629 91.003 219.609 90.9888C219.588 90.9746 219.571 90.9566 219.558 90.9356C219.544 90.9147 219.535 90.8914 219.531 90.867C219.526 90.8426 219.527 90.8175 219.532 90.7933C219.538 90.7691 219.548 90.7461 219.562 90.7258C219.576 90.7055 219.594 90.6881 219.615 90.6748C219.636 90.6614 219.659 90.6523 219.684 90.648C219.981 90.612 220.283 90.6477 220.564 90.7521C220.844 90.8565 221.096 91.0265 221.298 91.248C221.322 91.2753 221.337 91.3089 221.343 91.3447C221.348 91.3806 221.344 91.4172 221.329 91.4505C221.315 91.4838 221.291 91.5123 221.261 91.5327C221.231 91.5532 221.196 91.5647 221.16 91.566V91.596Z" fill="#263238"/>
<path d="M228.648 97.56C228.048 100.488 227.502 105.846 229.548 107.802C229.548 107.802 228.75 110.766 223.314 110.766C217.314 110.766 220.458 107.802 220.458 107.802C223.716 107.022 223.632 104.598 223.068 102.324L228.648 97.56Z" fill="#FF8B7B"/>
<path d="M230.952 108.732C231.39 107.796 231.882 106.722 230.784 106.434C229.584 106.116 223.014 105.978 220.782 106.746C218.55 107.514 219.264 109.35 219.264 109.35L230.952 108.732Z" fill="#407BFF"/>
<path d="M218.91 245.4C218.4 245.4 217.902 245.328 217.71 245.094C217.668 245.033 217.646 244.961 217.646 244.887C217.646 244.813 217.668 244.741 217.71 244.68C217.743 244.625 217.786 244.577 217.838 244.539C217.889 244.501 217.948 244.473 218.01 244.458C218.676 244.278 220.074 245.058 220.128 245.112C220.145 245.121 220.159 245.135 220.168 245.152C220.176 245.169 220.179 245.189 220.176 245.208C220.173 245.227 220.164 245.244 220.151 245.258C220.139 245.272 220.122 245.281 220.104 245.286C219.709 245.356 219.31 245.395 218.91 245.4ZM218.28 244.62C218.218 244.61 218.155 244.61 218.094 244.62C218.055 244.627 218.018 244.643 217.986 244.666C217.954 244.689 217.927 244.718 217.908 244.752C217.842 244.872 217.866 244.926 217.908 244.962C218.094 245.22 219.108 245.226 219.846 245.118C219.358 244.862 218.827 244.701 218.28 244.644V244.62Z" fill="#407BFF"/>
<path d="M220.122 245.31H220.08C219.6 245.094 218.64 244.224 218.712 243.774C218.712 243.666 218.808 243.534 219.066 243.51C219.16 243.5 219.256 243.51 219.346 243.537C219.437 243.565 219.521 243.611 219.594 243.672C219.953 244.109 220.163 244.649 220.194 245.214C220.196 245.23 220.194 245.246 220.187 245.261C220.181 245.276 220.171 245.288 220.158 245.298L220.122 245.31ZM219.144 243.69H219.084C218.916 243.69 218.904 243.774 218.904 243.798C218.856 244.068 219.504 244.752 220.002 245.046C219.953 244.59 219.769 244.16 219.474 243.81C219.381 243.734 219.264 243.692 219.144 243.69Z" fill="#407BFF"/>
<path d="M224.52 245.214H220.518L220.122 235.956H224.118L224.52 245.214Z" fill="#FF8B7B"/>
<path d="M253.344 240.804L249.366 241.236L246.366 232.242L250.344 231.81L253.344 240.804Z" fill="#FF8B7B"/>
<path d="M247.548 242.142C247.05 242.274 246.552 242.328 246.348 242.142C246.292 242.093 246.252 242.029 246.235 241.956C246.218 241.884 246.224 241.809 246.252 241.74C246.27 241.678 246.301 241.62 246.342 241.571C246.383 241.521 246.434 241.481 246.492 241.452C247.092 241.11 248.64 241.536 248.706 241.554C248.725 241.56 248.742 241.57 248.754 241.585C248.767 241.6 248.775 241.619 248.778 241.638C248.779 241.657 248.775 241.677 248.765 241.694C248.756 241.711 248.741 241.725 248.724 241.734C248.346 241.907 247.952 242.043 247.548 242.142ZM246.744 241.542C246.684 241.558 246.626 241.58 246.57 241.608C246.536 241.626 246.505 241.65 246.48 241.68C246.456 241.71 246.437 241.745 246.426 241.782C246.39 241.914 246.426 241.962 246.456 241.992C246.702 242.196 247.686 241.95 248.376 241.668C247.845 241.522 247.291 241.481 246.744 241.548V241.542Z" fill="#407BFF"/>
<path d="M248.694 241.74C248.694 241.74 248.664 241.74 248.652 241.74C248.13 241.65 246.99 241.05 246.954 240.594C246.954 240.486 246.984 240.336 247.23 240.246C247.316 240.209 247.409 240.19 247.503 240.19C247.597 240.19 247.69 240.209 247.776 240.246C248.376 240.528 248.742 241.542 248.76 241.584C248.769 241.598 248.774 241.615 248.774 241.632C248.774 241.649 248.769 241.666 248.76 241.68L248.694 241.74ZM247.35 240.408H247.29C247.134 240.468 247.14 240.534 247.14 240.558C247.14 240.828 247.962 241.326 248.514 241.494C248.359 241.064 248.074 240.692 247.698 240.432C247.589 240.381 247.465 240.372 247.35 240.408Z" fill="#407BFF"/>
<path d="M249.138 240.864L253.452 239.61C253.528 239.587 253.61 239.591 253.683 239.622C253.757 239.652 253.817 239.708 253.854 239.778L255.6 243C255.64 243.079 255.662 243.165 255.664 243.253C255.667 243.341 255.65 243.428 255.615 243.509C255.58 243.589 255.528 243.661 255.462 243.72C255.396 243.778 255.318 243.821 255.234 243.846C253.722 244.26 252.966 244.386 251.07 244.932C249.9 245.274 247.53 246.096 245.916 246.564C244.302 247.032 243.63 245.496 244.248 245.16C247.02 243.654 247.878 242.436 248.574 241.314C248.698 241.098 248.9 240.937 249.138 240.864Z" fill="#263238"/>
<path d="M220.542 244.752H224.91C224.99 244.752 225.068 244.779 225.13 244.829C225.192 244.879 225.235 244.95 225.252 245.028L226.044 248.58C226.061 248.668 226.058 248.758 226.036 248.845C226.013 248.931 225.972 249.012 225.914 249.08C225.857 249.149 225.785 249.203 225.703 249.24C225.622 249.277 225.533 249.296 225.444 249.294C223.866 249.264 221.592 249.174 219.612 249.174C217.296 249.174 216.012 249.3 213.318 249.3C211.674 249.3 211.224 247.638 211.908 247.5C215.04 246.816 216.852 246.744 219.558 245.1C219.846 244.892 220.187 244.772 220.542 244.752Z" fill="#263238"/>
<path d="M217.662 115.05C217.134 116.454 216.564 117.684 215.952 118.968C215.34 120.252 214.686 121.482 213.984 122.718C212.562 125.253 210.87 127.627 208.938 129.798C208.68 130.074 208.416 130.35 208.14 130.62C208.008 130.752 207.87 130.89 207.726 131.022L207.258 131.448C206.81 131.85 206.273 132.142 205.692 132.3C205.267 132.412 204.825 132.438 204.39 132.378C204.173 132.35 203.96 132.3 203.754 132.228C203.572 132.163 203.396 132.085 203.226 131.994C202.768 131.741 202.369 131.394 202.056 130.974C201.857 130.718 201.684 130.443 201.54 130.152C201.163 129.36 200.881 128.526 200.7 127.668C200.538 126.912 200.43 126.192 200.334 125.478C200.006 122.691 199.925 119.88 200.094 117.078L203.094 116.862C203.694 119.448 204.294 122.088 204.966 124.536C205.134 125.136 205.332 125.736 205.53 126.288C205.676 126.743 205.877 127.178 206.13 127.584C206.166 127.632 206.202 127.656 206.178 127.584C206.07 127.433 205.926 127.311 205.758 127.23C205.664 127.178 205.566 127.134 205.464 127.098C205.338 127.053 205.207 127.021 205.074 127.002C204.808 126.966 204.537 126.981 204.276 127.044C204.018 127.107 203.777 127.223 203.568 127.386L203.826 127.098C203.928 126.996 204.024 126.888 204.12 126.774C204.312 126.558 204.498 126.324 204.684 126.096C206.205 124.106 207.549 121.986 208.698 119.76C209.298 118.632 209.898 117.468 210.444 116.304C210.99 115.14 211.542 113.904 212.022 112.812L217.662 115.05Z" fill="#FF8B7B"/>
<path d="M236.712 108.702C240.462 109.566 244.248 120.522 244.248 120.522L236.532 126.06C236.532 126.06 234.378 120.954 232.254 116.49C230.034 111.81 232.878 107.826 236.712 108.702Z" fill="#263238"/>
<path d="M214.302 108.912C214.302 108.912 210.048 113.712 214.068 143.478H235.458C235.608 140.196 233.544 124.176 236.712 108.678C234.346 108.224 231.953 107.924 229.548 107.778C226.52 107.601 223.485 107.601 220.458 107.778C218.379 107.995 216.321 108.374 214.302 108.912Z" fill="#263238"/>
<path d="M219.6 112.962C220.944 116.562 214.8 126.09 214.8 126.09L205.668 120.6C207.993 117.95 209.99 115.029 211.614 111.9C214.572 105.744 218.52 110.064 219.6 112.962Z" fill="#263238"/>
<path d="M201.12 118.854L197.286 117.24L199.284 114.114C199.284 114.114 202.002 114.402 203.004 116.19C203.147 116.451 203.188 116.755 203.12 117.045C203.051 117.334 202.877 117.587 202.632 117.756L201.12 118.854Z" fill="#FF8B7B"/>
<path d="M194.172 114.9L197.52 112.686L199.284 114.114L197.286 117.24L194.172 114.9Z" fill="#FF8B7B"/>
<path opacity="0.2" d="M220.122 235.956L220.326 240.732H224.328L224.124 235.956H220.122Z" fill="black"/>
<path opacity="0.2" d="M250.344 231.816L246.366 232.248L248.034 237.234L251.892 236.448L250.344 231.816Z" fill="black"/>
<path d="M230.322 94.5839C229.296 98.4179 228.888 100.716 226.524 102.312C222.966 104.712 218.532 101.958 218.394 97.896C218.268 94.236 219.972 88.578 224.088 87.81C224.994 87.6322 225.931 87.6898 226.808 87.9774C227.686 88.2649 228.475 88.7727 229.101 89.4523C229.726 90.1318 230.167 90.9604 230.38 91.8588C230.594 92.7573 230.574 93.6955 230.322 94.5839Z" fill="#FF8B7B"/>
<path d="M232.83 92.328C233.358 92.454 234.432 92.376 235.398 90.192C236.736 87.192 230.862 88.032 230.862 88.032C230.862 88.032 236.262 85.584 231.654 83.232C228.654 81.702 227.526 83.118 227.118 84.282C227.238 83.082 226.944 81.486 224.19 82.332C219.99 83.616 223.02 86.94 223.02 86.94C222.578 86.6246 222.039 86.474 221.498 86.5146C220.956 86.5552 220.446 86.7842 220.056 87.162C218.712 88.362 219.768 90.06 221.064 91.572C220.29 92.664 219.954 93.972 222.03 94.458C222.401 94.5259 222.737 94.7202 222.981 95.0079C223.225 95.2956 223.361 95.6589 223.368 96.036C223.368 98.082 223.446 99.75 224.868 101.058C226.29 102.366 231.246 100.5 230.994 97.578C232.201 97.4495 233.349 96.9907 234.312 96.252C236.868 94.254 233.868 92.754 232.83 92.328Z" fill="#263238"/>
<path d="M224.856 94.65C224.446 95.5478 223.752 96.2857 222.882 96.75C221.73 97.35 221.082 96.474 221.346 95.322C221.58 94.284 222.462 92.724 223.644 92.598C224.826 92.472 225.33 93.564 224.856 94.65Z" fill="#FF8B7B"/>
<path d="M221.658 143.478C221.658 143.478 226.194 174.048 228.684 185.478C231.414 198.018 245.766 236.412 245.766 236.412L252.966 235.086C252.966 235.086 242.238 199.032 240.678 186.618C238.992 173.142 235.452 143.46 235.452 143.46L221.658 143.478Z" fill="#407BFF"/>
<path opacity="0.2" d="M224.526 154.368C229.8 155.4 229.2 174.972 228.6 185.04C227.082 177.924 224.868 164.232 223.356 154.512C223.719 154.334 224.131 154.283 224.526 154.368Z" fill="black"/>
<path d="M214.068 143.478C214.068 143.478 213.516 173.382 213.954 185.58C214.404 198.264 218.832 239.808 218.832 239.808H225.6C225.6 239.808 225.846 199.008 226.146 186.546C226.476 172.968 228.12 143.478 228.12 143.478H214.068Z" fill="#407BFF"/>
<path d="M244.128 234C244.098 234 245.382 236.628 245.382 236.628L253.488 235.14L252.888 232.698L244.128 234Z" fill="#263238"/>
<path d="M217.53 237.108C217.5 237.108 217.914 239.922 217.914 239.922H226.158L226.38 237.408L217.53 237.108Z" fill="#263238"/>
<path d="M149.64 245.04H153.936L153.906 235.104H149.616L149.64 245.04Z" fill="#7F3E3B"/>
<path d="M126.84 245.04H131.13L132.552 235.104H128.256L126.84 245.04Z" fill="#7F3E3B"/>
<path d="M131.4 244.548H126.6C126.517 244.546 126.435 244.575 126.372 244.629C126.309 244.683 126.268 244.759 126.258 244.842L125.694 248.652C125.683 248.748 125.692 248.846 125.722 248.939C125.751 249.031 125.8 249.116 125.864 249.189C125.929 249.261 126.008 249.319 126.096 249.359C126.185 249.399 126.281 249.42 126.378 249.42C128.064 249.39 128.874 249.288 130.992 249.288C132.3 249.288 134.994 249.426 136.794 249.426C138.594 249.426 138.702 247.626 137.952 247.482C134.592 246.762 133.272 245.76 132.138 244.812C131.933 244.635 131.67 244.541 131.4 244.548Z" fill="#263238"/>
<path d="M153.882 244.548H149.196C149.111 244.547 149.029 244.576 148.964 244.63C148.899 244.683 148.856 244.759 148.842 244.842L148.2 248.652C148.184 248.742 148.188 248.835 148.211 248.924C148.233 249.013 148.274 249.096 148.33 249.168C148.387 249.24 148.458 249.3 148.538 249.344C148.619 249.387 148.708 249.413 148.8 249.42C150.486 249.39 152.928 249.288 155.052 249.288C157.536 249.288 159.69 249.426 162.6 249.426C164.364 249.426 164.772 247.626 164.028 247.482C160.638 246.75 157.89 246.672 154.908 244.878C154.601 244.68 154.247 244.566 153.882 244.548Z" fill="#263238"/>
<path d="M150.6 109.284L156.462 107.406C156.462 107.406 161.862 122.214 163.422 123.78C165.534 125.91 168.558 131.58 170.226 134.724C170.034 135.426 169.026 137.058 168.426 137.364C164.292 134.4 158.796 128.748 157.626 126.258C154.962 120.6 150.6 109.284 150.6 109.284Z" fill="#7F3E3B"/>
<path d="M149.244 106.056C147.276 109.656 154.212 121.74 154.212 121.74L162.966 117.684C162.966 117.684 160.962 112.038 158.628 107.202C156.408 102.6 151.428 102.072 149.244 106.056Z" fill="#407BFF"/>
<path d="M169.854 134.124L174.27 136.806L171 141.294C169.636 139.912 168.49 138.33 167.604 136.602L169.854 134.124Z" fill="#7F3E3B"/>
<path d="M177.504 140.586L174.654 142.638L171.006 141.294L174.27 136.806L177.504 140.586Z" fill="#7F3E3B"/>
<path opacity="0.2" d="M153.906 235.104L153.918 240.228H149.628L149.61 235.104H153.906Z" fill="black"/>
<path opacity="0.2" d="M128.256 235.104H132.552L131.82 240.228H127.524L128.256 235.104Z" fill="black"/>
<path d="M154.854 103.62C154.854 103.62 160.254 118.374 156.018 142.512H133.062C132.816 138.984 134.61 120.006 130.8 103.404C133.33 102.913 135.889 102.588 138.462 102.432C141.713 102.243 144.973 102.243 148.224 102.432C150.461 102.658 152.677 103.056 154.854 103.62Z" fill="#407BFF"/>
<path d="M142.758 103.704C142.758 103.704 146.634 108.756 145.818 142.512H150.078C150.078 142.512 151.692 113.616 146.934 103.41C145.536 103.391 144.139 103.489 142.758 103.704Z" fill="white"/>
<path opacity="0.2" d="M135.888 107.502C136.338 110.232 135.636 116.772 133.218 124.302C133.1 117.83 132.411 111.381 131.16 105.03V105C132.666 104.868 135.462 104.94 135.888 107.502Z" fill="black"/>
<path d="M139.512 93.306C140.208 96.444 140.61 100.338 138.462 102.432C138.462 102.432 139.8 105.618 145.662 105.618C150.996 105.618 148.248 102.432 148.248 102.432C144.726 101.598 144.798 97.266 145.35 94.824L139.512 93.306Z" fill="#7F3E3B"/>
<path d="M138.462 102.162C140.372 103.873 142.694 105.058 145.2 105.6C144.174 106.296 142.854 108.792 142.854 108.792C142.854 108.792 137.898 106.902 136.926 102.39C137.4 102.288 138.462 102.162 138.462 102.162Z" fill="#407BFF"/>
<path opacity="0.3" d="M138.462 102.162C140.372 103.873 142.694 105.058 145.2 105.6C144.174 106.296 142.854 108.792 142.854 108.792C142.854 108.792 137.898 106.902 136.926 102.39C137.4 102.288 138.462 102.162 138.462 102.162Z" fill="black"/>
<path d="M147.774 102.042C147.774 102.042 149.136 104.904 146.64 105.57C147.88 106.194 148.919 107.155 149.64 108.342C149.64 108.342 151.404 104.82 149.286 102.282C148.83 102.168 147.774 102.042 147.774 102.042Z" fill="#407BFF"/>
<path opacity="0.3" d="M147.774 102.042C147.774 102.042 149.136 104.904 146.64 105.57C147.88 106.194 148.919 107.155 149.64 108.342C149.64 108.342 151.404 104.82 149.286 102.282C148.83 102.168 147.774 102.042 147.774 102.042Z" fill="black"/>
<path opacity="0.2" d="M145.332 94.83C144.898 96.5281 144.95 98.3139 145.482 99.9839C144.983 100.221 144.426 100.304 143.88 100.224C142.596 99.9659 141.822 99.3779 140.754 97.2239C140.664 96.6719 139.632 93.858 139.518 93.33L145.332 94.83Z" fill="black"/>
<path d="M150.03 90.0899C150.086 90.6126 150.036 91.1412 149.883 91.6442C149.731 92.1472 149.479 92.6144 149.142 93.0179C148.236 94.0859 146.964 93.4559 146.538 92.178C146.148 91.032 146.154 89.088 147.396 88.488C147.672 88.361 147.976 88.3038 148.28 88.3214C148.583 88.3391 148.878 88.431 149.138 88.5891C149.398 88.7473 149.616 88.9668 149.771 89.2285C149.926 89.4901 150.015 89.786 150.03 90.0899Z" fill="#7F3E3B"/>
<path opacity="0.2" d="M150.03 90.0899C150.086 90.6126 150.036 91.1412 149.883 91.6442C149.731 92.1472 149.479 92.6144 149.142 93.0179C148.236 94.0859 146.964 93.4559 146.538 92.178C146.148 91.032 146.154 89.088 147.396 88.488C147.672 88.361 147.976 88.3038 148.28 88.3214C148.583 88.3391 148.878 88.431 149.138 88.5891C149.398 88.7473 149.616 88.9668 149.771 89.2285C149.926 89.4901 150.015 89.786 150.03 90.0899Z" fill="black"/>
<path d="M136.626 89.934C138.378 93.858 138.636 96.06 141.222 97.734C145.116 100.272 149.754 97.254 149.748 92.874C149.748 88.938 147.708 82.938 143.292 82.074C138.462 81.168 134.4 84.924 136.626 89.934Z" fill="#7F3E3B"/>
<path d="M135.96 93.6C136.612 94.3882 137.503 94.9423 138.498 95.178C139.698 95.43 139.908 94.26 139.212 93.108C138.582 92.07 137.472 90.054 136.134 90.966C135.246 91.596 135.102 92.616 135.96 93.6Z" fill="#7F3E3B"/>
<path d="M150.132 92.898C150.264 95.55 152.916 98.898 148.158 99.66C145.674 100.051 143.134 99.506 141.03 98.13C138.948 96.84 138.33 93.204 136.716 90.768C136.644 90.678 136.68 90.57 136.764 90.462C136.861 90.3514 136.983 90.2659 137.12 90.2129C137.258 90.1598 137.406 90.1407 137.552 90.1572C137.698 90.1737 137.838 90.2253 137.96 90.3076C138.082 90.39 138.182 90.5006 138.252 90.63C138.792 91.572 139.8 92.946 141.156 93.03C143.232 93.192 150 90.186 150.132 92.898Z" fill="#263238"/>
<path d="M140.928 142.512C140.928 142.512 141.528 147.912 142.23 155.226C143.07 163.512 144.108 174.276 144.768 182.478C144.764 182.514 144.764 182.55 144.768 182.586C144.894 184.146 145.002 185.586 145.098 186.942C146.028 200.316 148.194 239.238 148.194 239.238H155.466C155.466 239.238 158.286 199.518 158.154 185.904C158.034 172.8 156 142.512 156 142.512H140.928Z" fill="#263238"/>
<path d="M147.6 236.682C147.564 236.682 147.708 239.388 147.708 239.388H156.108L156.336 236.346L147.6 236.682Z" fill="#407BFF"/>
<path opacity="0.2" d="M142.23 155.226C143.07 163.512 144.108 174.276 144.768 182.478C144.765 182.514 144.765 182.55 144.768 182.586C146.382 174.816 147.858 167.736 146.274 156.186L142.23 155.226Z" fill="black"/>
<path d="M147.87 142.512C147.87 142.512 145.368 173.526 143.61 185.814C141.684 199.272 133.746 239.214 133.746 239.214H125.88C125.88 239.214 130.146 200.334 130.824 187.014C131.562 172.554 133.056 142.494 133.056 142.494L147.87 142.512Z" fill="#263238"/>
<path d="M125.658 236.598C125.628 236.598 125.502 239.388 125.502 239.388H134.142L134.742 236.514L125.658 236.598Z" fill="#407BFF"/>
<path d="M143.4 89.2859C143.484 89.6219 143.724 89.8859 143.946 89.8139C144.168 89.7419 144.276 89.4479 144.198 89.1119C144.12 88.7759 143.874 88.5119 143.652 88.5839C143.43 88.6559 143.322 88.9439 143.4 89.2859Z" fill="#263238"/>
<path d="M147.192 88.4579C147.276 88.7999 147.516 89.0579 147.738 88.9859C147.96 88.9139 148.068 88.626 147.99 88.284C147.912 87.942 147.666 87.684 147.444 87.756C147.222 87.828 147.114 88.116 147.192 88.4579Z" fill="#263238"/>
<path d="M146.028 88.89C146.675 89.8402 147.445 90.6998 148.32 91.446C148.129 91.6617 147.893 91.8324 147.629 91.9455C147.364 92.0586 147.077 92.1114 146.79 92.1L146.028 88.89Z" fill="#630F0F"/>
<path d="M146.04 94.4219C146.053 94.4185 146.065 94.4124 146.076 94.4042C146.087 94.396 146.096 94.3857 146.102 94.374C146.109 94.3623 146.113 94.3493 146.115 94.3359C146.117 94.3225 146.116 94.309 146.112 94.296C146.104 94.2704 146.086 94.2489 146.063 94.2356C146.039 94.2223 146.012 94.2182 145.986 94.2239C145.568 94.3357 145.13 94.3477 144.707 94.2591C144.284 94.1705 143.888 93.9838 143.55 93.714C143.541 93.7047 143.53 93.6973 143.518 93.6923C143.507 93.6873 143.494 93.6847 143.481 93.6847C143.468 93.6847 143.455 93.6873 143.443 93.6923C143.432 93.6973 143.421 93.7047 143.412 93.714C143.402 93.723 143.393 93.734 143.388 93.7465C143.382 93.7589 143.379 93.7723 143.379 93.7859C143.379 93.7996 143.382 93.813 143.388 93.8254C143.393 93.8379 143.402 93.8489 143.412 93.8579C143.773 94.155 144.2 94.3612 144.657 94.4593C145.115 94.5574 145.589 94.5446 146.04 94.4219Z" fill="#7F3E3B"/>
<path d="M141.966 88.296C141.996 88.2887 142.024 88.2747 142.048 88.2549C142.072 88.2352 142.091 88.2102 142.104 88.182C142.197 87.947 142.346 87.7384 142.539 87.5742C142.731 87.41 142.961 87.2953 143.208 87.24C143.237 87.2387 143.265 87.2313 143.291 87.2181C143.317 87.2049 143.34 87.1864 143.358 87.1636C143.376 87.1409 143.389 87.1145 143.397 87.0863C143.404 87.0581 143.405 87.0287 143.4 87C143.391 86.9463 143.361 86.8982 143.318 86.8658C143.274 86.8333 143.219 86.8191 143.166 86.826C142.848 86.8904 142.552 87.0343 142.306 87.2442C142.059 87.454 141.87 87.723 141.756 88.026C141.735 88.0755 141.734 88.1311 141.753 88.1813C141.772 88.2315 141.809 88.2726 141.858 88.296C141.893 88.3038 141.93 88.3038 141.966 88.296Z" fill="#263238"/>
<path d="M148.578 86.7299C148.606 86.7184 148.633 86.7022 148.656 86.6819C148.694 86.6437 148.715 86.5919 148.715 86.5379C148.715 86.484 148.694 86.4322 148.656 86.3939C148.445 86.1481 148.179 85.9558 147.88 85.8327C147.581 85.7096 147.256 85.6593 146.934 85.6859C146.881 85.6948 146.833 85.7244 146.801 85.7682C146.77 85.8121 146.757 85.8666 146.766 85.9199C146.776 85.9729 146.806 86.0202 146.849 86.0524C146.892 86.0846 146.946 86.0994 147 86.0939C147.256 86.0742 147.513 86.1157 147.75 86.2148C147.986 86.3139 148.196 86.4678 148.362 86.6639C148.388 86.6938 148.422 86.7158 148.461 86.7274C148.499 86.7391 148.539 86.7399 148.578 86.7299Z" fill="#263238"/>
<path d="M128.316 109.02L134.01 111.654C134.01 111.654 128.52 125.646 129.456 127.62C130.734 130.314 131.736 136.296 133.818 139.188C133.71 139.89 132.87 141.588 132.312 141.942C127.758 139.488 123.264 130.542 123.018 127.854C122.454 121.728 128.316 109.02 128.316 109.02Z" fill="#7F3E3B"/>
<path d="M130.8 103.404C126.756 104.004 122.448 118.062 122.448 118.062L132.294 122.4C132.294 122.4 134.694 116.19 136.422 111.216C138.234 106.014 135.144 102.768 130.8 103.404Z" fill="#407BFF"/>
<path d="M132.876 245.298C133.164 245.321 133.45 245.242 133.686 245.076C133.758 245.01 133.812 244.925 133.842 244.832C133.871 244.738 133.875 244.638 133.854 244.542C133.852 244.481 133.833 244.422 133.799 244.371C133.765 244.32 133.717 244.279 133.662 244.254C133.17 244.008 131.862 244.854 131.7 244.956C131.684 244.967 131.671 244.983 131.664 245.001C131.656 245.019 131.654 245.039 131.658 245.058C131.663 245.078 131.674 245.096 131.689 245.111C131.704 245.126 131.722 245.136 131.742 245.142C132.113 245.236 132.493 245.288 132.876 245.298ZM133.446 244.41C133.491 244.4 133.538 244.4 133.584 244.41C133.605 244.422 133.623 244.44 133.635 244.461C133.648 244.482 133.655 244.505 133.656 244.53C133.669 244.596 133.666 244.664 133.646 244.728C133.626 244.792 133.59 244.85 133.542 244.896C133.066 245.12 132.521 245.148 132.024 244.974C132.455 244.691 132.938 244.499 133.446 244.41Z" fill="#407BFF"/>
<path d="M131.766 245.142C131.781 245.147 131.798 245.147 131.814 245.142C132.24 244.902 133.014 243.942 132.9 243.486C132.88 243.41 132.836 243.342 132.774 243.293C132.712 243.245 132.636 243.217 132.558 243.216C132.481 243.205 132.404 243.212 132.33 243.235C132.256 243.258 132.189 243.296 132.132 243.348C131.664 243.756 131.658 244.992 131.658 245.046C131.658 245.065 131.663 245.084 131.672 245.101C131.682 245.118 131.695 245.132 131.712 245.142H131.766ZM132.504 243.402H132.546C132.684 243.402 132.696 243.48 132.702 243.504C132.78 243.786 132.288 244.5 131.868 244.83C131.861 244.35 132.003 243.881 132.276 243.486C132.338 243.43 132.42 243.4 132.504 243.402Z" fill="#407BFF"/>
<path d="M155.7 245.298C156.064 245.332 156.429 245.239 156.732 245.034C156.799 244.972 156.85 244.893 156.879 244.806C156.908 244.719 156.915 244.626 156.9 244.536C156.895 244.48 156.875 244.425 156.844 244.378C156.813 244.331 156.77 244.293 156.72 244.266C156.186 243.972 154.5 244.866 154.32 244.95C154.302 244.961 154.288 244.978 154.28 244.997C154.271 245.016 154.269 245.037 154.272 245.058C154.275 245.079 154.285 245.098 154.3 245.114C154.315 245.129 154.335 245.139 154.356 245.142C154.798 245.235 155.248 245.287 155.7 245.298ZM156.438 244.41C156.504 244.407 156.569 244.42 156.63 244.446C156.649 244.457 156.666 244.472 156.677 244.491C156.689 244.51 156.695 244.532 156.696 244.554C156.708 244.613 156.704 244.674 156.685 244.73C156.666 244.787 156.633 244.838 156.588 244.878C156.336 245.118 155.634 245.154 154.68 244.998C155.227 244.701 155.822 244.502 156.438 244.41Z" fill="#407BFF"/>
<path d="M154.368 245.142H154.404C154.914 244.908 155.898 243.984 155.796 243.498C155.796 243.384 155.688 243.24 155.406 243.21C155.306 243.199 155.205 243.209 155.109 243.239C155.013 243.269 154.924 243.319 154.848 243.384C154.326 243.834 154.248 244.992 154.248 245.04C154.248 245.058 154.252 245.075 154.26 245.091C154.269 245.107 154.281 245.12 154.296 245.13C154.317 245.143 154.343 245.147 154.368 245.142ZM155.334 243.402H155.394C155.58 243.402 155.592 243.492 155.598 243.516C155.658 243.81 154.998 244.536 154.482 244.854C154.503 244.371 154.68 243.908 154.986 243.534C155.081 243.448 155.205 243.401 155.334 243.402Z" fill="#407BFF"/>
<path d="M133.308 139.11L137.358 139.71L134.358 143.664C134.358 143.664 130.836 143.028 130.788 140.214L133.308 139.11Z" fill="#7F3E3B"/>
<path d="M140.19 142.458L137.31 145.896L134.37 143.658L137.358 139.704L140.19 142.458Z" fill="#7F3E3B"/>
<path d="M94.9082 106.668C94.9082 106.668 91.0082 105 87.8822 106.998C84.7562 108.996 87.3242 109.35 83.8922 110.916C80.4602 112.482 84.2942 114.618 83.8922 116.634C83.4122 119.034 79.3862 120.066 81.6602 122.868C83.9342 125.67 101.058 127.104 102.924 123.618C104.79 120.132 100.524 120.156 101.562 117.192C102.6 114.228 103.134 112.32 100.26 110.466C97.3862 108.612 98.1602 105.3 94.9082 106.668Z" fill="#263238"/>
<path d="M106.902 132C107.07 132.972 107.28 134.076 107.502 135.108C107.724 136.14 107.982 137.208 108.276 138.24C108.845 140.302 109.545 142.326 110.37 144.3C110.568 144.798 110.802 145.266 111.018 145.746L111.078 145.878V145.92C111.078 145.92 111.078 145.92 111.048 145.92C110.94 145.842 110.809 145.802 110.676 145.806C110.574 145.806 110.604 145.854 110.706 145.806C110.855 145.76 110.998 145.698 111.132 145.62C111.524 145.391 111.894 145.126 112.236 144.828C113.817 143.396 115.277 141.835 116.598 140.16L118.398 141.258C117.394 143.4 116.104 145.396 114.564 147.192C114.119 147.693 113.625 148.147 113.088 148.548C112.76 148.784 112.408 148.985 112.038 149.148C111.533 149.374 110.983 149.481 110.43 149.46C109.737 149.423 109.075 149.155 108.552 148.698C108.329 148.507 108.128 148.291 107.952 148.056C107.874 147.948 107.808 147.846 107.748 147.744C107.688 147.642 107.646 147.564 107.61 147.498C107.334 146.976 107.01 146.46 106.788 145.932C105.757 143.828 104.902 141.643 104.232 139.398C103.89 138.288 103.578 137.166 103.326 136.032C103.074 134.898 102.84 133.788 102.678 132.552L106.902 132Z" fill="#FFB573"/>
<path d="M105.264 127.32C106.998 127.644 108.63 134.58 108.63 134.58L104.136 138.066C104.136 138.066 99.1922 131.28 100.386 129.324C101.58 127.368 102.738 126.846 105.264 127.32Z" fill="#263238"/>
<path opacity="0.2" d="M105.21 128.892L106.962 135.876L104.436 137.832L105.21 128.892Z" fill="black"/>
<path d="M118.302 139.134L121.68 138.564L119.706 142.278C119.706 142.278 117.048 142.32 116.214 140.814L116.412 140.46C116.61 140.113 116.882 139.815 117.208 139.585C117.535 139.356 117.909 139.202 118.302 139.134Z" fill="#FFB573"/>
<path d="M124.596 139.56L123.426 142.896L119.706 142.278L121.68 138.564L124.596 139.56Z" fill="#FFB573"/>
<path d="M113.526 245.334L117.522 244.236L115.254 234.918L111.258 236.016L113.526 245.334Z" fill="#FFB573"/>
<path d="M117.522 243.534L113.058 244.83C112.98 244.851 112.913 244.9 112.868 244.967C112.824 245.035 112.806 245.116 112.818 245.196L113.334 248.874C113.35 248.966 113.386 249.054 113.439 249.132C113.492 249.21 113.56 249.275 113.64 249.324C113.72 249.374 113.809 249.406 113.902 249.418C113.995 249.43 114.09 249.423 114.18 249.396C115.728 248.916 116.454 248.61 118.416 248.04C119.616 247.686 123.132 246.804 124.8 246.318C126.468 245.832 126.078 244.158 125.34 244.212C122.028 244.446 119.562 244.164 118.26 243.612C118.031 243.5 117.769 243.472 117.522 243.534Z" fill="#263238"/>
<g opacity="0.2">
<path opacity="0.2" d="M115.254 234.924L116.418 239.724L112.428 240.822L111.258 236.016L115.254 234.924Z" fill="black"/>
</g>
<path d="M105.264 127.32C105.264 127.32 107.28 127.92 104.862 152.382L88.0622 153.438C87.9182 146.592 87.6602 142.38 83.5142 128.568C85.8399 127.941 88.2081 127.484 90.6002 127.2C93.1255 126.859 95.672 126.698 98.2202 126.72C101.508 126.792 105.264 127.32 105.264 127.32Z" fill="#407BFF"/>
<g opacity="0.4">
<path opacity="0.4" d="M105.264 127.32C105.264 127.32 107.28 127.92 104.862 152.382L88.0622 153.438C87.9182 146.592 87.6602 142.38 83.5142 128.568C85.8399 127.941 88.2081 127.484 90.6002 127.2C93.1255 126.859 95.672 126.698 98.2202 126.72C101.508 126.792 105.264 127.32 105.264 127.32Z" fill="#263238"/>
</g>
<path d="M90.8102 118.554C91.4462 120.954 92.2082 125.436 90.5942 127.182C90.5942 127.182 91.4222 129.624 95.9942 129.342C101.004 129.024 98.2322 126.702 98.2322 126.702C95.4602 126.222 95.4002 124.188 95.7542 122.256L90.8102 118.554Z" fill="#FFB573"/>
<path d="M90.6001 127.2C93.1235 126.859 95.668 126.698 98.2142 126.72H98.7182C99.3962 127.836 99.6662 129.6 98.3701 132.288C98.3701 132.288 91.5181 130.02 89.5981 127.314L90.6001 127.2Z" fill="#FFB573"/>
<path opacity="0.2" d="M92.8203 120.066L95.7363 122.25C95.6488 122.701 95.5986 123.159 95.5863 123.618C94.5363 123.534 92.8743 122.538 92.6943 121.452C92.5916 120.988 92.6356 120.504 92.8203 120.066Z" fill="black"/>
<path d="M87.9001 114.474C89.1001 118.404 89.5021 120.096 92.0041 121.674C95.7601 124.044 100.332 121.728 100.344 117.516C100.344 113.73 98.4121 107.916 94.1341 107.268C93.1914 107.116 92.2254 107.207 91.3279 107.533C90.4304 107.859 89.6313 108.409 89.0065 109.132C88.3817 109.854 87.9521 110.724 87.7584 111.659C87.5648 112.594 87.6135 113.563 87.9001 114.474Z" fill="#FFB573"/>
<path d="M94.8962 107.034C95.3942 108.936 90.8582 115.632 88.3262 117.468C85.9262 114.834 86.0582 111.432 87.0962 109.698C88.1342 107.964 90.6002 106.098 94.8962 107.034Z" fill="#263238"/>
<path d="M95.2198 107.094C97.2298 107.664 99.3358 110.046 98.2198 109.95C97.1038 109.854 92.2558 107.706 95.2198 107.094Z" fill="#263238"/>
<path d="M104.862 152.4C104.862 152.4 109.578 182.55 111.18 195.072C112.842 208.104 116.934 238.392 116.934 238.392L111.534 239.952C111.534 239.952 103.512 210.27 101.112 197.586C98.5018 183.786 92.5498 153.186 92.5498 153.186L104.862 152.4Z" fill="#407BFF"/>
<g opacity="0.2">
<path opacity="0.2" d="M104.862 152.4C104.862 152.4 109.578 182.55 111.18 195.072C112.842 208.104 116.934 238.392 116.934 238.392L111.534 239.952C111.534 239.952 103.512 210.27 101.112 197.586C98.5018 183.786 92.5498 153.186 92.5498 153.186L104.862 152.4Z" fill="black"/>
</g>
<path d="M111.144 240.264L117.45 238.428L117.33 236.286L110.196 238.092L111.144 240.264Z" fill="#263238"/>
<path d="M101.31 243.552L105.294 244.662L106.362 235.962H102.222L101.31 243.552Z" fill="#FFB573"/>
<path opacity="0.2" d="M101.7 240.288L105.726 241.164L106.362 235.962H102.222L101.7 240.288Z" fill="black"/>
<path d="M105.474 244.26L100.914 243.006C100.835 242.984 100.751 242.99 100.675 243.021C100.599 243.053 100.535 243.109 100.494 243.18L99.0902 246.51C99.0475 246.592 99.0244 246.683 99.0226 246.775C99.0208 246.868 99.0404 246.96 99.0799 247.043C99.1194 247.127 99.1777 247.2 99.2503 247.258C99.3229 247.315 99.4077 247.355 99.4982 247.374C101.1 247.782 101.55 247.848 103.56 248.4C104.79 248.736 107.724 250.164 110.904 250.164C112.602 250.164 112.422 248.364 111.708 248.214C108.51 247.518 106.836 245.814 106.068 244.68C105.926 244.474 105.716 244.326 105.474 244.26Z" fill="#263238"/>
<path d="M101.046 152.61C101.046 152.61 117.198 187.11 115.776 197.928C114.042 211.098 106.632 238.842 106.632 238.842L100.986 237.726C100.986 237.726 103.986 209.874 105.15 196.974C106.434 182.916 89.034 172.008 87.936 153.45L101.046 152.61Z" fill="#407BFF"/>
<path d="M100.446 239.028L107.04 240.48L107.67 238.23L100.554 236.646L100.446 239.028Z" fill="#263238"/>
<path d="M106.83 245.346C107.173 245.474 107.548 245.486 107.898 245.382C107.985 245.348 108.062 245.295 108.125 245.226C108.187 245.158 108.233 245.075 108.258 244.986C108.278 244.937 108.283 244.884 108.272 244.833C108.261 244.782 108.236 244.735 108.198 244.698C107.82 244.302 105.9 244.644 105.684 244.698C105.663 244.703 105.644 244.714 105.628 244.728C105.612 244.743 105.601 244.762 105.594 244.782C105.589 244.8 105.591 244.82 105.598 244.837C105.606 244.855 105.619 244.869 105.636 244.878C106.017 245.074 106.418 245.23 106.83 245.346ZM107.88 244.746C107.94 244.758 107.995 244.785 108.042 244.824C108.053 244.842 108.058 244.863 108.058 244.884C108.058 244.905 108.053 244.926 108.042 244.944C108.025 245.002 107.995 245.055 107.955 245.1C107.914 245.144 107.864 245.179 107.808 245.202C107.478 245.346 106.806 245.202 105.978 244.812C106.605 244.688 107.247 244.668 107.88 244.752V244.746Z" fill="#407BFF"/>
<path d="M105.654 244.866H105.696C106.26 244.788 107.55 244.224 107.664 243.768C107.664 243.66 107.664 243.51 107.418 243.408C107.225 243.332 107.011 243.332 106.818 243.408C106.301 243.723 105.885 244.179 105.618 244.722C105.609 244.736 105.604 244.753 105.604 244.77C105.604 244.787 105.609 244.804 105.618 244.818L105.654 244.866ZM107.262 243.576H107.322C107.484 243.642 107.466 243.708 107.46 243.732C107.394 244.008 106.482 244.482 105.876 244.626C106.109 244.19 106.46 243.828 106.89 243.582C107.013 243.548 107.143 243.555 107.262 243.6V243.576Z" fill="#407BFF"/>
<path d="M94.5121 114.03C94.5901 114.36 94.8241 114.582 95.0341 114.528C95.2441 114.474 95.3581 114.174 95.2801 113.85C95.2021 113.526 94.9741 113.304 94.7581 113.352C94.5421 113.4 94.4341 113.706 94.5121 114.03Z" fill="#263238"/>
<path d="M98.184 113.166C98.262 113.49 98.496 113.712 98.712 113.664C98.928 113.616 99.03 113.31 98.958 112.986C98.886 112.662 98.646 112.434 98.43 112.488C98.214 112.542 98.112 112.842 98.184 113.166Z" fill="#263238"/>
<path d="M98.3462 112.53L99.0722 112.116C99.0722 112.116 98.8142 112.8 98.3462 112.53Z" fill="#263238"/>
<path d="M97.2002 114C97.663 114.673 98.2162 115.278 98.8442 115.8C98.7076 115.958 98.5379 116.084 98.3471 116.169C98.1563 116.254 97.9491 116.296 97.7402 116.292L97.2002 114Z" fill="#ED893E"/>
<path d="M96.2579 118.002C96.4238 117.989 96.5883 117.963 96.75 117.924C96.775 117.917 96.7964 117.901 96.8098 117.878C96.8232 117.856 96.8275 117.829 96.8219 117.804C96.8149 117.779 96.7986 117.758 96.7762 117.744C96.7539 117.731 96.7274 117.726 96.702 117.732C96.3002 117.836 95.8795 117.845 95.474 117.756C95.0684 117.668 94.6895 117.485 94.3679 117.222C94.3491 117.205 94.3245 117.195 94.2989 117.195C94.2734 117.195 94.2488 117.205 94.23 117.222C94.2109 117.241 94.2002 117.267 94.2002 117.294C94.2002 117.321 94.2109 117.347 94.23 117.366C94.7952 117.838 95.5244 118.067 96.2579 118.002Z" fill="#263238"/>
<path d="M87.6779 118.386C88.1204 119.046 88.8065 119.503 89.5859 119.658C90.6239 119.856 91.0499 118.914 90.6899 117.984C90.3659 117.144 89.4359 116.034 88.4339 116.256C88.2159 116.309 88.0144 116.415 87.8478 116.565C87.6812 116.716 87.5547 116.905 87.4796 117.116C87.4046 117.328 87.3834 117.555 87.418 117.776C87.4526 117.998 87.542 118.208 87.6779 118.386Z" fill="#FFB573"/>
<path d="M92.8622 113.634C92.9035 113.631 92.9427 113.615 92.9741 113.588C93.0054 113.561 93.0272 113.524 93.0362 113.484C93.1515 113.185 93.3271 112.913 93.5522 112.685C93.7772 112.457 94.0468 112.277 94.3442 112.158C94.3927 112.138 94.4313 112.1 94.4515 112.051C94.4718 112.003 94.472 111.949 94.4522 111.9C94.4429 111.876 94.429 111.855 94.4113 111.836C94.3935 111.818 94.3723 111.803 94.3488 111.793C94.3254 111.783 94.3001 111.778 94.2746 111.778C94.2491 111.777 94.2238 111.782 94.2002 111.792C93.8437 111.932 93.5216 112.147 93.2555 112.422C92.9894 112.698 92.7857 113.027 92.6582 113.388C92.651 113.413 92.6491 113.44 92.6526 113.466C92.656 113.492 92.6647 113.517 92.6782 113.539C92.6917 113.562 92.7097 113.581 92.731 113.596C92.7523 113.612 92.7765 113.622 92.8022 113.628L92.8622 113.634Z" fill="#263238"/>
<path d="M98.8919 111.21C98.9255 111.206 98.9576 111.194 98.9857 111.175C99.0139 111.157 99.0372 111.131 99.0539 111.102C99.0752 111.055 99.0778 111.001 99.0611 110.952C99.0443 110.903 99.0096 110.862 98.9639 110.838C98.6862 110.692 98.3774 110.616 98.0639 110.616C97.7504 110.616 97.4415 110.692 97.1639 110.838C97.1422 110.851 97.1233 110.868 97.1082 110.888C97.0931 110.909 97.0822 110.932 97.076 110.956C97.0699 110.981 97.0687 111.006 97.0724 111.031C97.0762 111.056 97.0848 111.08 97.0979 111.102C97.1242 111.147 97.1674 111.18 97.218 111.194C97.2686 111.207 97.3225 111.2 97.3679 111.174C97.5872 111.062 97.8298 111.004 98.0759 111.004C98.322 111.004 98.5646 111.062 98.7839 111.174C98.8171 111.193 98.8538 111.205 98.8919 111.21Z" fill="#263238"/>
<path d="M86.0819 134.166C85.7159 136.362 85.3559 138.612 85.0199 140.838C84.6839 143.064 84.3839 145.296 84.2099 147.504L84.1499 148.296C84.1333 148.47 84.1333 148.644 84.1499 148.818C84.2137 149.303 84.3059 149.784 84.4259 150.258C84.6899 151.272 85.0259 152.328 85.3919 153.378C86.1059 155.49 86.9519 157.608 87.7919 159.72L85.9439 160.704C84.649 158.753 83.4768 156.723 82.4339 154.626C81.8966 153.548 81.4218 152.44 81.0119 151.308C80.7867 150.69 80.6082 150.057 80.4779 149.412C80.399 149.017 80.3588 148.615 80.3579 148.212V147.294C80.4179 144.926 80.5879 142.588 80.8679 140.28C81.1319 137.964 81.4679 135.684 81.9179 133.374L86.0819 134.166Z" fill="#FFB573"/>
<path d="M83.5321 128.568C81.8821 129.168 80.2261 135.102 80.2261 135.102L87.0421 139.356C87.0421 139.356 89.1181 134.37 88.2721 132.246C87.3961 130.026 85.4101 127.866 83.5321 128.568Z" fill="#263238"/>
<path d="M119.22 243.792C119.566 243.723 119.879 243.539 120.108 243.27C120.155 243.194 120.183 243.109 120.19 243.02C120.197 242.931 120.184 242.842 120.15 242.76C120.131 242.709 120.099 242.664 120.059 242.629C120.018 242.593 119.969 242.568 119.916 242.556C119.352 242.43 118.002 243.702 117.846 243.846C117.835 243.863 117.829 243.883 117.829 243.903C117.829 243.923 117.835 243.943 117.846 243.96C117.854 243.978 117.867 243.994 117.885 244.003C117.902 244.013 117.922 244.017 117.942 244.014C118.374 243.982 118.802 243.908 119.22 243.792ZM119.688 242.766C119.749 242.752 119.813 242.752 119.874 242.766C119.895 242.771 119.914 242.782 119.93 242.796C119.946 242.811 119.957 242.829 119.964 242.85C119.991 242.902 120.005 242.96 120.005 243.018C120.005 243.076 119.991 243.134 119.964 243.186C119.784 243.474 119.142 243.702 118.218 243.786C118.646 243.365 119.144 243.02 119.688 242.766Z" fill="#407BFF"/>
<path d="M117.942 244.014C117.942 244.014 117.972 244.014 117.978 244.014C118.392 243.666 119.082 242.538 118.878 242.106C118.83 242.004 118.716 241.896 118.446 241.944C118.35 241.961 118.258 241.997 118.177 242.051C118.095 242.105 118.026 242.174 117.972 242.256C117.742 242.794 117.689 243.391 117.822 243.96C117.825 243.977 117.832 243.993 117.842 244.007C117.853 244.02 117.866 244.031 117.882 244.038L117.942 244.014ZM118.422 242.124H118.482C118.656 242.124 118.686 242.16 118.698 242.178C118.824 242.436 118.38 243.294 117.984 243.726C117.887 243.264 117.94 242.783 118.134 242.352C118.199 242.243 118.301 242.162 118.422 242.124Z" fill="#407BFF"/>
<path d="M94.668 113.4L95.4 112.992C95.4 112.992 95.142 113.688 94.668 113.4Z" fill="#263238"/>
<path d="M87.7682 152.466L87.4382 153.996C87.3842 154.116 87.5282 154.23 87.7262 154.218L105 153.126C105.15 153.126 105.27 153.036 105.276 152.94L105.33 151.428C105.33 151.326 105.198 151.242 105.03 151.254L88.0382 152.328C87.9853 152.327 87.9328 152.339 87.8857 152.363C87.8385 152.387 87.7982 152.422 87.7682 152.466Z" fill="#263238"/>
<path d="M90.1741 154.2H89.7182C89.6282 154.2 89.5562 154.164 89.5562 154.104L89.6462 152.142C89.6462 152.082 89.7242 152.034 89.8142 152.028L90.2702 151.998C90.3601 151.998 90.4322 152.034 90.4322 152.094L90.3422 154.056C90.3362 154.2 90.2641 154.2 90.1741 154.2Z" fill="#407BFF"/>
<path d="M103.722 153.372H103.272C103.176 153.372 103.104 153.33 103.11 153.276L103.2 151.308C103.2 151.254 103.278 151.2 103.368 151.194H103.824C103.914 151.194 103.986 151.23 103.986 151.284L103.896 153.252C103.89 153.312 103.8 153.366 103.722 153.372Z" fill="#407BFF"/>
<path d="M96.9481 153.798L96.4921 153.828C96.4021 153.828 96.3301 153.792 96.3301 153.732L96.4261 151.77C96.4261 151.71 96.5041 151.656 96.5941 151.65H97.0501C97.1401 151.65 97.2121 151.686 97.2061 151.74L97.1161 153.708C97.1161 153.738 97.0381 153.792 96.9481 153.798Z" fill="#407BFF"/>
<path d="M87.6842 159.318L91.0862 162.222L86.9282 162.906C86.9282 162.906 85.2902 160.818 85.9802 159.24L87.6842 159.318Z" fill="#FFB573"/>
<path d="M91.7762 165.636L88.2662 166.02L86.9282 162.906L91.0862 162.222L91.7762 165.636Z" fill="#FFB573"/>
<path d="M182.634 99.462C199.136 99.462 212.514 86.0842 212.514 69.582C212.514 53.0797 199.136 39.702 182.634 39.702C166.132 39.702 152.754 53.0797 152.754 69.582C152.754 86.0842 166.132 99.462 182.634 99.462Z" fill="#407BFF"/>
<path d="M122.214 57.7079L121.818 57.2579C124.234 55.1032 127.358 53.9117 130.596 53.9099V54.5099C127.504 54.5114 124.521 55.6496 122.214 57.7079Z" fill="#407BFF"/>
<path d="M118.8 62.694L118.236 62.484C118.59 61.5422 119.051 60.6443 119.61 59.808L120.108 60.144C119.578 60.9423 119.139 61.7977 118.8 62.694Z" fill="#407BFF"/>
<path d="M138.455 74.9764C142.795 70.6369 142.795 63.6012 138.455 59.2617C134.116 54.9222 127.08 54.9222 122.741 59.2617C118.401 63.6012 118.401 70.6369 122.741 74.9765C127.08 79.316 134.116 79.316 138.455 74.9764Z" fill="#407BFF"/>
<path d="M108.252 96.1979C112.016 96.1979 115.068 93.1463 115.068 89.3819C115.068 85.6175 112.016 82.5659 108.252 82.5659C104.488 82.5659 101.436 85.6175 101.436 89.3819C101.436 93.1463 104.488 96.1979 108.252 96.1979Z" fill="#407BFF"/>
<path d="M228.384 75.1379C231.37 75.1379 233.79 72.7176 233.79 69.7319C233.79 66.7463 231.37 64.3259 228.384 64.3259C225.398 64.3259 222.978 66.7463 222.978 69.7319C222.978 72.7176 225.398 75.1379 228.384 75.1379Z" fill="#407BFF"/>
<path d="M198.534 64.398C198.536 61.539 197.767 58.7323 196.308 56.2735C194.849 53.8147 192.755 51.7947 190.244 50.4262C187.734 49.0578 184.901 48.3915 182.044 48.4975C179.187 48.6035 176.412 49.478 174.01 51.0287C171.608 52.5794 169.668 54.7491 168.396 57.3093C167.123 59.8695 166.565 62.7254 166.778 65.5764C166.992 68.4274 167.971 71.168 169.612 73.5096C171.252 75.8511 173.493 77.7071 176.1 78.882V81.696H189.168V78.882C191.958 77.626 194.326 75.591 195.988 73.0216C197.649 70.4522 198.533 67.4578 198.534 64.398Z" fill="white"/>
<path opacity="0.2" d="M188.04 89.382H177.228L176.1 81.696H189.168L188.04 89.382Z" fill="black"/>
<path opacity="0.4" d="M185.304 90.66H179.964L179.412 89.382H185.856L185.304 90.66Z" fill="black"/>
<path d="M180.936 68.022C180.568 66.9561 179.951 65.9934 179.136 65.214C177.258 63.342 174.936 62.712 173.886 63.78C173.346 64.32 173.22 65.19 173.538 66.222C173.906 67.2861 174.523 68.2468 175.338 69.024C176.592 70.284 178.044 70.98 179.19 70.98C179.456 70.983 179.72 70.9383 179.97 70.848L181.032 81.732C181.041 81.8306 181.087 81.9223 181.16 81.989C181.233 82.0556 181.329 82.0924 181.428 82.092H181.464C181.517 82.0875 181.568 82.0725 181.615 82.0479C181.661 82.0233 181.703 81.9896 181.736 81.9488C181.77 81.908 181.795 81.8609 181.81 81.8102C181.825 81.7596 181.83 81.7065 181.824 81.6539L180.714 70.308C180.935 69.9739 181.07 69.591 181.109 69.1925C181.148 68.7941 181.088 68.3922 180.936 68.022ZM175.902 68.46C175.186 67.7717 174.641 66.925 174.312 65.988C174.191 65.7233 174.142 65.4317 174.17 65.1421C174.197 64.8526 174.3 64.5753 174.468 64.338C174.583 64.2366 174.717 64.159 174.862 64.1095C175.007 64.0601 175.161 64.0399 175.314 64.05C176.172 64.05 177.42 64.608 178.59 65.778C179.309 66.464 179.854 67.3114 180.18 68.25C180.302 68.5143 180.352 68.8062 180.324 69.096C180.297 69.3857 180.193 69.6631 180.024 69.9C179.4 70.548 177.6 70.122 175.902 68.46Z" fill="#407BFF"/>
<path d="M191.364 63.78C190.818 63.234 189.954 63.108 188.922 63.426C187.868 63.8109 186.911 64.4217 186.118 65.2157C185.325 66.0097 184.715 66.9675 184.332 68.022C184.18 68.3919 184.12 68.7934 184.158 69.1916C184.195 69.5899 184.329 69.973 184.548 70.308L183.438 81.654C183.428 81.7597 183.46 81.8652 183.527 81.9472C183.595 82.0293 183.692 82.0813 183.798 82.092H183.834C183.933 82.0924 184.029 82.0556 184.102 81.989C184.175 81.9223 184.221 81.8306 184.23 81.732L185.292 70.848C185.544 70.9389 185.81 70.9836 186.078 70.98C187.218 70.98 188.67 70.284 189.924 69.024C190.739 68.2468 191.356 67.2861 191.724 66.222C192.03 65.19 191.904 64.32 191.364 63.78ZM190.956 65.988C190.629 66.9261 190.084 67.7733 189.366 68.46C187.704 70.122 185.892 70.548 185.244 69.9C185.075 69.6631 184.971 69.3858 184.944 69.096C184.916 68.8062 184.966 68.5143 185.088 68.25C185.416 67.3125 185.961 66.4657 186.678 65.778C187.366 65.059 188.215 64.514 189.156 64.188C189.418 64.1023 189.691 64.0558 189.966 64.05C190.27 64.0366 190.568 64.1395 190.8 64.338C190.971 64.5761 191.076 64.8556 191.104 65.1478C191.131 65.4399 191.08 65.7341 190.956 66V65.988Z" fill="#407BFF"/>
</svg>
