<svg width="376" height="513" viewBox="0 0 376 513" fill="none" xmlns="http://www.w3.org/2000/svg">
<ellipse cx="272" cy="488.5" rx="104" ry="24.5" fill="url(#paint0_radial)"/>
<path d="M289.74 344.899H264.749V364.203H289.74V344.899Z" fill="black"/>
<path d="M230.312 364.203C230.312 364.203 204.873 370.071 206.572 409.56C214.117 412.259 212.743 409.56 212.743 409.56C212.743 409.56 212.564 382.953 230.312 382.666C241.219 374.457 235.425 369.727 235.425 369.727L230.312 364.203Z" fill="black"/>
<path d="M257.751 400.03L267.208 487.745H274.794L292.768 397.131L257.751 400.03Z" fill="black"/>
<path d="M319.07 364.203C319.07 364.203 344.509 370.071 342.811 409.56C335.265 412.259 336.639 409.56 336.639 409.56C336.639 409.56 336.818 382.953 319.07 382.666C308.164 374.457 313.957 369.727 313.957 369.727L319.07 364.203Z" fill="black"/>
<path d="M229.646 344.937C224.826 326.595 197.606 217.333 262.815 200.372C328.023 183.41 359.486 253.644 326.124 337.575C322.399 345.365 255.392 355.386 229.646 344.937Z" fill="url(#paint1_linear)"/>
<path d="M230.312 356.485C230.312 356.485 276.224 368.443 324.973 356.485C322.269 383.762 317.26 396.797 317.26 396.797C317.26 396.797 255.435 404.074 234.094 396.797C230.409 377.392 230.312 356.485 230.312 356.485Z" fill="url(#paint2_linear)"/>
<path d="M206.49 408.6L199 420.466L209.624 413.652L216.06 419.319L212.287 408.6H206.49Z" fill="#3B98FF"/>
<path d="M342.894 408.6L350.384 420.466L339.76 413.652L333.325 419.319L337.098 408.6H342.894Z" fill="#3B98FF"/>
<path d="M276.283 308.222C299.64 308.222 318.575 289.208 318.575 265.754C318.575 242.299 299.64 223.285 276.283 223.285C252.925 223.285 233.99 242.299 233.99 265.754C233.99 289.208 252.925 308.222 276.283 308.222Z" fill="white"/>
<path d="M274.361 283.127C284.978 283.127 293.584 274.484 293.584 263.823C293.584 253.162 284.978 244.519 274.361 244.519C263.744 244.519 255.137 253.162 255.137 263.823C255.137 274.484 263.744 283.127 274.361 283.127Z" fill="#B2D7FF"/>
<path d="M272.439 275.405C277.748 275.405 282.051 271.084 282.051 265.754C282.051 260.423 277.748 256.102 272.439 256.102C267.131 256.102 262.827 260.423 262.827 265.754C262.827 271.084 267.131 275.405 272.439 275.405Z" fill="black"/>
<path d="M287.118 197.825L292.573 155.146L287.118 197.825Z" fill="#3B98FF"/>
<path d="M287.118 197.825L292.573 155.146" stroke="black" stroke-width="4"/>
<path d="M293.584 155.721C295.707 155.721 297.429 153.993 297.429 151.861C297.429 149.729 295.707 148 293.584 148C291.461 148 289.739 149.729 289.739 151.861C289.739 153.993 291.461 155.721 293.584 155.721Z" fill="#3B98FF"/>
<path d="M284.933 328.491C284.933 322.716 280.199 318.034 274.36 318.034C268.521 318.034 263.787 322.716 263.787 328.491C263.787 334.266 268.521 338.947 274.36 338.947C280.199 338.947 284.933 334.266 284.933 328.491Z" fill="white"/>
<path d="M284.314 328.491C284.314 323.059 279.858 318.656 274.361 318.656C268.864 318.656 264.407 323.059 264.407 328.491C264.407 333.922 268.864 338.325 274.361 338.325C279.858 338.325 284.314 333.922 284.314 328.491Z" stroke="black" stroke-width="4"/>
<path d="M147.312 195.598L147.312 195.598L152.301 194.436L155.608 198.291L147.312 195.598ZM147.312 195.598C137.955 197.777 128.852 198.848 119.5 198.848C58.5462 198.848 8.39131 156.418 8.39131 103.616C8.39131 50.7946 58.5459 8.36364 119.5 8.36364C180.454 8.36364 230.609 50.7946 230.609 103.616C230.609 132.737 214.889 159.916 187.756 178.224L187.755 178.225L183.873 180.839L184.069 185.489L184.07 185.507L184.07 185.525C184.127 187.818 184.364 190.471 185.786 195.673L185.789 195.684C187.589 202.412 190.365 209.141 194.067 215.771L196.112 219.435M147.312 195.598L196.112 219.435M196.112 219.435L191.978 218.716M196.112 219.435L191.978 218.716M191.978 218.716C171.642 215.183 159.307 202.611 155.61 198.293L191.978 218.716ZM190.443 185.222L190.403 184.111L191.325 183.49C219.092 164.782 237 136.249 237 103.616C237 47.3777 184.518 2 119.5 2C54.4814 2 2 47.3779 2 103.596C2 159.814 54.5015 205.192 119.5 205.192C129.65 205.192 139.34 203.996 148.776 201.783L149.96 201.506L150.751 202.428C153.531 205.669 171.632 226 202.874 226H208.326L205.214 221.557L205.213 221.555C197.601 210.663 193.814 200.975 191.932 194.032L191.932 194.029C190.544 188.878 190.487 186.784 190.453 185.54C190.45 185.427 190.447 185.322 190.443 185.222Z" fill="#71B4FF" stroke="white" stroke-width="4"/>
<path d="M48.7045 87.8C48.9392 87.8 49.1312 87.8747 49.2805 88.024C49.4298 88.1627 49.5045 88.344 49.5045 88.568V98.216C49.4938 98.44 49.4138 98.6267 49.2645 98.776C49.1152 98.9253 48.9232 99 48.6885 99C48.4752 99 48.2885 98.9253 48.1285 98.776C47.9792 98.6267 47.9045 98.44 47.9045 98.216V94.072H42.2245V98.216C42.2245 98.44 42.1445 98.6267 41.9845 98.776C41.8245 98.9253 41.6378 99 41.4245 99C41.1898 99 40.9978 98.9253 40.8485 98.776C40.7098 98.6267 40.6405 98.44 40.6405 98.216V88.568C40.6405 88.3547 40.7152 88.1733 40.8645 88.024C41.0138 87.8747 41.2058 87.8 41.4405 87.8C41.6538 87.8 41.8352 87.8747 41.9845 88.024C42.1445 88.1733 42.2245 88.3547 42.2245 88.568V92.6H47.9045V88.568C47.9045 88.3547 47.9845 88.1733 48.1445 88.024C48.3045 87.8747 48.4912 87.8 48.7045 87.8ZM59.3085 94.488C59.2978 94.68 59.2178 94.8453 59.0685 94.984C58.9192 95.112 58.7432 95.176 58.5405 95.176H52.9085C52.9832 95.9547 53.2765 96.5787 53.7885 97.048C54.3112 97.5173 54.9458 97.752 55.6925 97.752C56.2045 97.752 56.6205 97.6773 56.9405 97.528C57.2605 97.3787 57.5432 97.1867 57.7885 96.952C57.9485 96.856 58.1032 96.808 58.2525 96.808C58.4338 96.808 58.5832 96.872 58.7005 97C58.8285 97.128 58.8925 97.2773 58.8925 97.448C58.8925 97.672 58.7858 97.8747 58.5725 98.056C58.2632 98.3653 57.8525 98.6267 57.3405 98.84C56.8285 99.0533 56.3058 99.16 55.7725 99.16C54.9085 99.16 54.1458 98.9787 53.4845 98.616C52.8338 98.2533 52.3272 97.7467 51.9645 97.096C51.6125 96.4453 51.4365 95.7093 51.4365 94.888C51.4365 93.992 51.6178 93.208 51.9805 92.536C52.3538 91.8533 52.8392 91.3307 53.4365 90.968C54.0445 90.6053 54.6952 90.424 55.3885 90.424C56.0712 90.424 56.7112 90.6 57.3085 90.952C57.9058 91.304 58.3858 91.7893 58.7485 92.408C59.1112 93.0267 59.2978 93.72 59.3085 94.488ZM55.3885 91.832C54.7912 91.832 54.2738 92.0027 53.8365 92.344C53.3992 92.6747 53.1112 93.192 52.9725 93.896H57.6925V93.768C57.6392 93.2027 57.3832 92.7387 56.9245 92.376C56.4765 92.0133 55.9645 91.832 55.3885 91.832ZM65.2495 90.424C65.5268 90.424 65.7668 90.4987 65.9695 90.648C66.1722 90.7867 66.2735 90.9627 66.2735 91.176C66.2735 91.432 66.2042 91.6293 66.0655 91.768C65.9375 91.896 65.7775 91.96 65.5855 91.96C65.4895 91.96 65.3455 91.928 65.1535 91.864C64.9295 91.7893 64.7535 91.752 64.6255 91.752C64.2948 91.752 63.9695 91.8693 63.6495 92.104C63.3402 92.328 63.0842 92.6427 62.8815 93.048C62.6895 93.4427 62.5935 93.8853 62.5935 94.376V98.232C62.5935 98.4453 62.5188 98.6267 62.3695 98.776C62.2308 98.9253 62.0495 99 61.8255 99C61.6015 99 61.4202 98.9307 61.2815 98.792C61.1428 98.6427 61.0735 98.456 61.0735 98.232V91.384C61.0735 91.1707 61.1428 90.9893 61.2815 90.84C61.4308 90.6907 61.6122 90.616 61.8255 90.616C62.0495 90.616 62.2308 90.6907 62.3695 90.84C62.5188 90.9893 62.5935 91.1707 62.5935 91.384V92.2C62.8282 91.6773 63.1802 91.256 63.6495 90.936C64.1188 90.6053 64.6522 90.4347 65.2495 90.424ZM74.6835 94.488C74.6728 94.68 74.5928 94.8453 74.4435 94.984C74.2942 95.112 74.1182 95.176 73.9155 95.176H68.2835C68.3582 95.9547 68.6515 96.5787 69.1635 97.048C69.6862 97.5173 70.3208 97.752 71.0675 97.752C71.5795 97.752 71.9955 97.6773 72.3155 97.528C72.6355 97.3787 72.9182 97.1867 73.1635 96.952C73.3235 96.856 73.4782 96.808 73.6275 96.808C73.8088 96.808 73.9582 96.872 74.0755 97C74.2035 97.128 74.2675 97.2773 74.2675 97.448C74.2675 97.672 74.1608 97.8747 73.9475 98.056C73.6382 98.3653 73.2275 98.6267 72.7155 98.84C72.2035 99.0533 71.6808 99.16 71.1475 99.16C70.2835 99.16 69.5208 98.9787 68.8595 98.616C68.2088 98.2533 67.7022 97.7467 67.3395 97.096C66.9875 96.4453 66.8115 95.7093 66.8115 94.888C66.8115 93.992 66.9928 93.208 67.3555 92.536C67.7288 91.8533 68.2142 91.3307 68.8115 90.968C69.4195 90.6053 70.0702 90.424 70.7635 90.424C71.4462 90.424 72.0862 90.6 72.6835 90.952C73.2808 91.304 73.7608 91.7893 74.1235 92.408C74.4862 93.0267 74.6728 93.72 74.6835 94.488ZM70.7635 91.832C70.1662 91.832 69.6488 92.0027 69.2115 92.344C68.7742 92.6747 68.4862 93.192 68.3475 93.896H73.0675V93.768C73.0142 93.2027 72.7582 92.7387 72.2995 92.376C71.8515 92.0133 71.3395 91.832 70.7635 91.832ZM78.3685 89.112C78.3685 89.3787 78.2832 89.688 78.1125 90.04C77.9418 90.3813 77.7232 90.6747 77.4565 90.92C77.2005 91.1547 76.9338 91.272 76.6565 91.272C76.4752 91.272 76.3258 91.2293 76.2085 91.144C76.0912 91.0587 76.0325 90.9253 76.0325 90.744C76.0325 90.6053 76.0645 90.5093 76.1285 90.456C76.2032 90.392 76.2885 90.344 76.3845 90.312C76.4912 90.28 76.5765 90.248 76.6405 90.216C76.9498 90.056 77.1045 89.8213 77.1045 89.512C77.1045 89.3947 77.0565 89.2987 76.9605 89.224C76.8645 89.1387 76.7418 89.096 76.5925 89.096C76.4112 89.096 76.2672 89.1333 76.1605 89.208C76.0538 89.1547 75.9738 89.0907 75.9205 89.016C75.8672 88.9413 75.8405 88.8347 75.8405 88.696C75.8512 88.4293 75.9898 88.2 76.2565 88.008C76.5232 87.8053 76.8058 87.704 77.1045 87.704C77.4992 87.704 77.8085 87.8267 78.0325 88.072C78.2565 88.3173 78.3685 88.664 78.3685 89.112ZM79.8279 97.688C79.7319 97.5387 79.6839 97.3947 79.6839 97.256C79.6839 97.0427 79.7959 96.8613 80.0199 96.712C80.1265 96.6373 80.2492 96.6 80.3879 96.6C80.5799 96.6 80.7559 96.68 80.9159 96.84C81.2359 97.2027 81.5772 97.4747 81.9399 97.656C82.3132 97.8373 82.7559 97.928 83.2679 97.928C83.6732 97.9173 84.0305 97.8267 84.3399 97.656C84.6492 97.4747 84.8039 97.1867 84.8039 96.792C84.8039 96.4293 84.6439 96.152 84.3239 95.96C84.0145 95.768 83.5559 95.592 82.9479 95.432C82.3505 95.272 81.8545 95.1067 81.4599 94.936C81.0652 94.7547 80.7292 94.4987 80.4519 94.168C80.1852 93.8267 80.0519 93.384 80.0519 92.84C80.0519 92.36 80.1852 91.9387 80.4519 91.576C80.7292 91.2133 81.0919 90.9307 81.5399 90.728C81.9985 90.5253 82.4945 90.424 83.0279 90.424C83.5399 90.424 84.0465 90.52 84.5479 90.712C85.0599 90.904 85.4759 91.1973 85.7959 91.592C85.9239 91.7413 85.9879 91.896 85.9879 92.056C85.9879 92.2267 85.9025 92.392 85.7319 92.552C85.6252 92.648 85.4919 92.696 85.3319 92.696C85.1399 92.696 84.9852 92.632 84.8679 92.504C84.6439 92.248 84.3665 92.0507 84.0359 91.912C83.7159 91.7733 83.3585 91.704 82.9639 91.704C82.5585 91.704 82.2119 91.7893 81.9239 91.96C81.6465 92.12 81.5079 92.3973 81.5079 92.792C81.5185 93.1653 81.6785 93.4427 81.9879 93.624C82.3079 93.8053 82.7932 93.9813 83.4439 94.152C84.0092 94.3013 84.4785 94.4613 84.8519 94.632C85.2252 94.8027 85.5399 95.0587 85.7959 95.4C86.0519 95.7307 86.1799 96.168 86.1799 96.712C86.1799 97.2133 86.0359 97.6507 85.7479 98.024C85.4599 98.3867 85.0812 98.6693 84.6119 98.872C84.1532 99.064 83.6625 99.16 83.1399 99.16C82.4679 99.16 81.8439 99.0427 81.2679 98.808C80.7025 98.5733 80.2225 98.2 79.8279 97.688ZM96.5464 90.472C98.4237 90.472 99.3624 91.6347 99.3624 93.96V98.232C99.3624 98.4453 99.2877 98.6267 99.1384 98.776C98.9997 98.9253 98.8184 99 98.5944 99C98.381 99 98.1997 98.9253 98.0504 98.776C97.9117 98.6267 97.8424 98.4453 97.8424 98.232V93.96C97.8424 92.5733 97.2557 91.88 96.0824 91.88C95.453 91.88 94.9304 92.0827 94.5144 92.488C94.0984 92.8827 93.8904 93.3733 93.8904 93.96V98.232C93.8904 98.4453 93.8157 98.6267 93.6664 98.776C93.5277 98.9253 93.3464 99 93.1224 99C92.8984 99 92.717 98.9307 92.5784 98.792C92.4397 98.6427 92.3704 98.456 92.3704 98.232V87.928C92.3704 87.7147 92.4397 87.5333 92.5784 87.384C92.7277 87.2347 92.909 87.16 93.1224 87.16C93.3464 87.16 93.5277 87.2347 93.6664 87.384C93.8157 87.5333 93.8904 87.7147 93.8904 87.928V91.976C94.157 91.56 94.5304 91.208 95.0104 90.92C95.4904 90.6213 96.0024 90.472 96.5464 90.472ZM109.572 94.808C109.572 95.64 109.385 96.3867 109.012 97.048C108.639 97.7093 108.127 98.2267 107.476 98.6C106.836 98.9733 106.127 99.16 105.348 99.16C104.569 99.16 103.855 98.9733 103.204 98.6C102.564 98.2267 102.057 97.7093 101.684 97.048C101.311 96.3867 101.124 95.64 101.124 94.808C101.124 93.976 101.311 93.224 101.684 92.552C102.057 91.88 102.564 91.3573 103.204 90.984C103.855 90.6107 104.569 90.424 105.348 90.424C106.127 90.424 106.836 90.6107 107.476 90.984C108.127 91.3573 108.639 91.88 109.012 92.552C109.385 93.224 109.572 93.976 109.572 94.808ZM108.052 94.808C108.052 94.232 107.929 93.72 107.684 93.272C107.449 92.8133 107.124 92.4613 106.708 92.216C106.303 91.96 105.849 91.832 105.348 91.832C104.847 91.832 104.388 91.96 103.972 92.216C103.567 92.4613 103.241 92.8133 102.996 93.272C102.761 93.72 102.644 94.232 102.644 94.808C102.644 95.3733 102.761 95.88 102.996 96.328C103.241 96.776 103.567 97.128 103.972 97.384C104.388 97.6293 104.847 97.752 105.348 97.752C105.849 97.752 106.303 97.6293 106.708 97.384C107.124 97.128 107.449 96.776 107.684 96.328C107.929 95.88 108.052 95.3733 108.052 94.808ZM121.131 90.536C121.334 90.536 121.504 90.6107 121.643 90.76C121.792 90.8987 121.867 91.08 121.867 91.304C121.867 91.3787 121.846 91.48 121.803 91.608L119.355 98.52C119.291 98.6907 119.184 98.8187 119.035 98.904C118.886 98.9893 118.726 99.0213 118.555 99C118.267 98.9787 118.048 98.8187 117.899 98.52L116.235 94.168L114.699 98.52C114.635 98.6693 114.544 98.7867 114.427 98.872C114.31 98.9467 114.182 98.9893 114.043 99C113.883 99.0213 113.723 98.9893 113.563 98.904C113.414 98.808 113.312 98.68 113.259 98.52L110.779 91.608C110.747 91.512 110.731 91.4107 110.731 91.304C110.731 91.0907 110.8 90.9093 110.939 90.76C111.078 90.6107 111.259 90.536 111.483 90.536C111.846 90.536 112.08 90.696 112.187 91.016L114.091 96.408L115.611 92.424C115.739 92.104 115.974 91.944 116.315 91.944C116.635 91.944 116.854 92.104 116.971 92.424L118.523 96.344L120.395 91.016C120.512 90.696 120.758 90.536 121.131 90.536ZM134.189 90.536C134.413 90.536 134.594 90.6107 134.733 90.76C134.882 90.9093 134.957 91.0907 134.957 91.304V98.216C134.957 99.5493 134.589 100.547 133.853 101.208C133.117 101.869 132.146 102.2 130.941 102.2C130.546 102.2 130.157 102.163 129.773 102.088C129.389 102.013 129.074 101.912 128.829 101.784C128.434 101.603 128.237 101.357 128.237 101.048C128.237 100.995 128.247 100.925 128.269 100.84C128.333 100.659 128.423 100.52 128.541 100.424C128.658 100.328 128.791 100.28 128.941 100.28C129.026 100.28 129.106 100.296 129.181 100.328C129.511 100.477 129.805 100.595 130.061 100.68C130.317 100.765 130.615 100.808 130.957 100.808C132.61 100.808 133.437 99.96 133.437 98.264V97.944C133.149 98.328 132.775 98.6267 132.317 98.84C131.869 99.0533 131.351 99.16 130.765 99.16C129.879 99.16 129.186 98.8773 128.685 98.312C128.194 97.7467 127.949 97.0053 127.949 96.088V91.304C127.949 91.08 128.018 90.8987 128.157 90.76C128.295 90.6107 128.477 90.536 128.701 90.536C128.925 90.536 129.106 90.6107 129.245 90.76C129.394 90.9093 129.469 91.0907 129.469 91.304V95.688C129.469 96.392 129.623 96.9147 129.933 97.256C130.242 97.5867 130.711 97.752 131.341 97.752C131.949 97.752 132.45 97.56 132.845 97.176C133.239 96.792 133.437 96.296 133.437 95.688V91.304C133.437 91.08 133.506 90.8987 133.645 90.76C133.783 90.6107 133.965 90.536 134.189 90.536ZM145.072 94.808C145.072 95.64 144.885 96.3867 144.512 97.048C144.139 97.7093 143.627 98.2267 142.976 98.6C142.336 98.9733 141.627 99.16 140.848 99.16C140.069 99.16 139.355 98.9733 138.704 98.6C138.064 98.2267 137.557 97.7093 137.184 97.048C136.811 96.3867 136.624 95.64 136.624 94.808C136.624 93.976 136.811 93.224 137.184 92.552C137.557 91.88 138.064 91.3573 138.704 90.984C139.355 90.6107 140.069 90.424 140.848 90.424C141.627 90.424 142.336 90.6107 142.976 90.984C143.627 91.3573 144.139 91.88 144.512 92.552C144.885 93.224 145.072 93.976 145.072 94.808ZM143.552 94.808C143.552 94.232 143.429 93.72 143.184 93.272C142.949 92.8133 142.624 92.4613 142.208 92.216C141.803 91.96 141.349 91.832 140.848 91.832C140.347 91.832 139.888 91.96 139.472 92.216C139.067 92.4613 138.741 92.8133 138.496 93.272C138.261 93.72 138.144 94.232 138.144 94.808C138.144 95.3733 138.261 95.88 138.496 96.328C138.741 96.776 139.067 97.128 139.472 97.384C139.888 97.6293 140.347 97.752 140.848 97.752C141.349 97.752 141.803 97.6293 142.208 97.384C142.624 97.128 142.949 96.776 143.184 96.328C143.429 95.88 143.552 95.3733 143.552 94.808ZM153.079 90.616C153.303 90.616 153.484 90.6907 153.623 90.84C153.772 90.9893 153.847 91.1707 153.847 91.384V95.64C153.847 96.7493 153.538 97.6133 152.919 98.232C152.311 98.84 151.447 99.144 150.327 99.144C149.218 99.144 148.359 98.84 147.751 98.232C147.143 97.6133 146.839 96.7493 146.839 95.64V91.384C146.839 91.1707 146.908 90.9893 147.047 90.84C147.196 90.6907 147.378 90.616 147.591 90.616C147.815 90.616 147.996 90.6907 148.135 90.84C148.284 90.9893 148.359 91.1707 148.359 91.384V95.64C148.359 97.0373 149.015 97.736 150.327 97.736C150.978 97.736 151.474 97.56 151.815 97.208C152.156 96.856 152.327 96.3333 152.327 95.64V91.384C152.327 91.1707 152.396 90.9893 152.535 90.84C152.684 90.6907 152.866 90.616 153.079 90.616ZM164.142 88.536C163.79 88.536 163.529 88.6427 163.358 88.856C163.198 89.0693 163.118 89.3307 163.118 89.64V90.76H164.702C164.915 90.76 165.086 90.8293 165.214 90.968C165.353 91.096 165.422 91.2613 165.422 91.464C165.422 91.6667 165.353 91.832 165.214 91.96C165.086 92.088 164.915 92.152 164.702 92.152H163.118V98.232C163.118 98.4453 163.043 98.6267 162.894 98.776C162.755 98.9253 162.574 99 162.35 99C162.137 99 161.955 98.9253 161.806 98.776C161.667 98.6267 161.598 98.4453 161.598 98.232V92.152H160.606C160.403 92.152 160.233 92.088 160.094 91.96C159.955 91.832 159.886 91.6667 159.886 91.464C159.886 91.2613 159.955 91.096 160.094 90.968C160.233 90.8293 160.403 90.76 160.606 90.76H161.598V89.64C161.598 88.8933 161.838 88.3013 162.318 87.864C162.798 87.416 163.475 87.192 164.35 87.192C164.713 87.192 165.033 87.2613 165.31 87.4C165.587 87.528 165.726 87.7253 165.726 87.992C165.726 88.1947 165.662 88.3653 165.534 88.504C165.417 88.632 165.273 88.696 165.102 88.696C165.059 88.696 164.942 88.6747 164.75 88.632C164.515 88.568 164.313 88.536 164.142 88.536ZM173.592 90.504C173.816 90.504 173.998 90.5787 174.136 90.728C174.286 90.8667 174.36 91.0533 174.36 91.288V98.232C174.36 98.4453 174.286 98.6267 174.136 98.776C173.998 98.9253 173.816 99 173.592 99C173.368 99 173.187 98.9307 173.048 98.792C172.91 98.6427 172.84 98.456 172.84 98.232V97.816C172.563 98.1893 172.184 98.5093 171.704 98.776C171.224 99.032 170.707 99.16 170.152 99.16C169.427 99.16 168.766 98.9733 168.168 98.6C167.582 98.2267 167.118 97.7093 166.776 97.048C166.446 96.376 166.28 95.624 166.28 94.792C166.28 93.96 166.446 93.2133 166.776 92.552C167.118 91.88 167.582 91.3573 168.168 90.984C168.755 90.6107 169.4 90.424 170.104 90.424C170.67 90.424 171.192 90.5413 171.672 90.776C172.163 91.0107 172.552 91.3093 172.84 91.672V91.288C172.84 91.064 172.91 90.8773 173.048 90.728C173.187 90.5787 173.368 90.504 173.592 90.504ZM170.328 97.752C170.83 97.752 171.272 97.624 171.656 97.368C172.051 97.112 172.355 96.76 172.568 96.312C172.792 95.864 172.904 95.3573 172.904 94.792C172.904 94.2373 172.792 93.736 172.568 93.288C172.355 92.84 172.051 92.488 171.656 92.232C171.272 91.9653 170.83 91.832 170.328 91.832C169.827 91.832 169.379 91.96 168.984 92.216C168.6 92.472 168.296 92.824 168.072 93.272C167.859 93.72 167.752 94.2267 167.752 94.792C167.752 95.3573 167.859 95.864 168.072 96.312C168.296 96.76 168.6 97.112 168.984 97.368C169.379 97.624 169.827 97.752 170.328 97.752ZM180.796 90.424C181.074 90.424 181.314 90.4987 181.516 90.648C181.719 90.7867 181.82 90.9627 181.82 91.176C181.82 91.432 181.751 91.6293 181.612 91.768C181.484 91.896 181.324 91.96 181.132 91.96C181.036 91.96 180.892 91.928 180.7 91.864C180.476 91.7893 180.3 91.752 180.172 91.752C179.842 91.752 179.516 91.8693 179.196 92.104C178.887 92.328 178.631 92.6427 178.428 93.048C178.236 93.4427 178.14 93.8853 178.14 94.376V98.232C178.14 98.4453 178.066 98.6267 177.916 98.776C177.778 98.9253 177.596 99 177.372 99C177.148 99 176.967 98.9307 176.828 98.792C176.69 98.6427 176.62 98.456 176.62 98.232V91.384C176.62 91.1707 176.69 90.9893 176.828 90.84C176.978 90.6907 177.159 90.616 177.372 90.616C177.596 90.616 177.778 90.6907 177.916 90.84C178.066 90.9893 178.14 91.1707 178.14 91.384V92.2C178.375 91.6773 178.727 91.256 179.196 90.936C179.666 90.6053 180.199 90.4347 180.796 90.424ZM190.23 94.488C190.22 94.68 190.14 94.8453 189.99 94.984C189.841 95.112 189.665 95.176 189.462 95.176H183.83C183.905 95.9547 184.198 96.5787 184.71 97.048C185.233 97.5173 185.868 97.752 186.614 97.752C187.126 97.752 187.542 97.6773 187.862 97.528C188.182 97.3787 188.465 97.1867 188.71 96.952C188.87 96.856 189.025 96.808 189.174 96.808C189.356 96.808 189.505 96.872 189.622 97C189.75 97.128 189.814 97.2773 189.814 97.448C189.814 97.672 189.708 97.8747 189.494 98.056C189.185 98.3653 188.774 98.6267 188.262 98.84C187.75 99.0533 187.228 99.16 186.694 99.16C185.83 99.16 185.068 98.9787 184.406 98.616C183.756 98.2533 183.249 97.7467 182.886 97.096C182.534 96.4453 182.358 95.7093 182.358 94.888C182.358 93.992 182.54 93.208 182.902 92.536C183.276 91.8533 183.761 91.3307 184.358 90.968C184.966 90.6053 185.617 90.424 186.31 90.424C186.993 90.424 187.633 90.6 188.23 90.952C188.828 91.304 189.308 91.7893 189.67 92.408C190.033 93.0267 190.22 93.72 190.23 94.488ZM186.31 91.832C185.713 91.832 185.196 92.0027 184.758 92.344C184.321 92.6747 184.033 93.192 183.894 93.896H188.614V93.768C188.561 93.2027 188.305 92.7387 187.846 92.376C187.398 92.0133 186.886 91.832 186.31 91.832ZM198.795 87.16C199.019 87.16 199.201 87.2347 199.339 87.384C199.489 87.5227 199.563 87.704 199.563 87.928V98.232C199.563 98.4453 199.489 98.6267 199.339 98.776C199.201 98.9253 199.019 99 198.795 99C198.571 99 198.39 98.9307 198.251 98.792C198.113 98.6427 198.043 98.456 198.043 98.232V97.784C197.777 98.168 197.398 98.4933 196.907 98.76C196.427 99.0267 195.91 99.16 195.355 99.16C194.63 99.16 193.974 98.9733 193.387 98.6C192.801 98.2267 192.337 97.7093 191.995 97.048C191.654 96.376 191.483 95.624 191.483 94.792C191.483 93.96 191.649 93.2133 191.979 92.552C192.321 91.88 192.785 91.3573 193.371 90.984C193.958 90.6107 194.603 90.424 195.307 90.424C195.873 90.424 196.395 90.5413 196.875 90.776C197.355 91.0107 197.745 91.3147 198.043 91.688V87.928C198.043 87.704 198.113 87.5227 198.251 87.384C198.39 87.2347 198.571 87.16 198.795 87.16ZM195.531 97.752C196.033 97.752 196.475 97.624 196.859 97.368C197.254 97.112 197.558 96.76 197.771 96.312C197.995 95.864 198.107 95.3573 198.107 94.792C198.107 94.2373 197.995 93.736 197.771 93.288C197.558 92.8293 197.254 92.472 196.859 92.216C196.475 91.96 196.033 91.832 195.531 91.832C195.03 91.832 194.582 91.96 194.187 92.216C193.803 92.472 193.499 92.8293 193.275 93.288C193.062 93.736 192.955 94.2373 192.955 94.792C192.955 95.3573 193.062 95.864 193.275 96.312C193.499 96.76 193.803 97.112 194.187 97.368C194.582 97.624 195.03 97.752 195.531 97.752ZM53.0298 110.504C53.2538 110.504 53.4351 110.579 53.5738 110.728C53.7231 110.867 53.7978 111.053 53.7978 111.288V118.232C53.7978 118.445 53.7231 118.627 53.5738 118.776C53.4351 118.925 53.2538 119 53.0298 119C52.8058 119 52.6244 118.931 52.4858 118.792C52.3471 118.643 52.2778 118.456 52.2778 118.232V117.816C52.0004 118.189 51.6218 118.509 51.1418 118.776C50.6618 119.032 50.1444 119.16 49.5898 119.16C48.8644 119.16 48.2031 118.973 47.6058 118.6C47.0191 118.227 46.5551 117.709 46.2138 117.048C45.8831 116.376 45.7178 115.624 45.7178 114.792C45.7178 113.96 45.8831 113.213 46.2138 112.552C46.5551 111.88 47.0191 111.357 47.6058 110.984C48.1924 110.611 48.8378 110.424 49.5418 110.424C50.1071 110.424 50.6298 110.541 51.1098 110.776C51.6004 111.011 51.9898 111.309 52.2778 111.672V111.288C52.2778 111.064 52.3471 110.877 52.4858 110.728C52.6244 110.579 52.8058 110.504 53.0298 110.504ZM49.7658 117.752C50.2671 117.752 50.7098 117.624 51.0938 117.368C51.4884 117.112 51.7924 116.76 52.0058 116.312C52.2298 115.864 52.3418 115.357 52.3418 114.792C52.3418 114.237 52.2298 113.736 52.0058 113.288C51.7924 112.84 51.4884 112.488 51.0938 112.232C50.7098 111.965 50.2671 111.832 49.7658 111.832C49.2644 111.832 48.8164 111.96 48.4218 112.216C48.0378 112.472 47.7338 112.824 47.5098 113.272C47.2964 113.72 47.1898 114.227 47.1898 114.792C47.1898 115.357 47.2964 115.864 47.5098 116.312C47.7338 116.76 48.0378 117.112 48.4218 117.368C48.8164 117.624 49.2644 117.752 49.7658 117.752ZM63.0659 110.504C63.2899 110.504 63.4712 110.579 63.6099 110.728C63.7592 110.867 63.8339 111.053 63.8339 111.288V118.328C63.8339 119.192 63.6472 119.912 63.2739 120.488C62.9112 121.075 62.4152 121.507 61.7859 121.784C61.1565 122.061 60.4472 122.2 59.6579 122.2C59.2312 122.2 58.7299 122.125 58.1539 121.976C57.5885 121.827 57.2259 121.672 57.0659 121.512C56.7352 121.341 56.5699 121.128 56.5699 120.872C56.5699 120.808 56.5912 120.723 56.6339 120.616C56.7512 120.349 56.9485 120.216 57.2259 120.216C57.3645 120.216 57.5139 120.248 57.6739 120.312C58.5272 120.643 59.1939 120.808 59.6739 120.808C60.5272 120.808 61.1779 120.6 61.6259 120.184C62.0845 119.779 62.3139 119.219 62.3139 118.504V117.64C62.0899 118.056 61.7112 118.413 61.1779 118.712C60.6552 119.011 60.1005 119.16 59.5139 119.16C58.7779 119.16 58.1059 118.973 57.4979 118.6C56.8899 118.227 56.4099 117.709 56.0579 117.048C55.7165 116.376 55.5459 115.624 55.5459 114.792C55.5459 113.96 55.7165 113.213 56.0579 112.552C56.4099 111.88 56.8845 111.357 57.4819 110.984C58.0899 110.611 58.7565 110.424 59.4819 110.424C60.0685 110.424 60.6125 110.557 61.1139 110.824C61.6259 111.091 62.0259 111.416 62.3139 111.8V111.288C62.3139 111.064 62.3832 110.877 62.5219 110.728C62.6605 110.579 62.8419 110.504 63.0659 110.504ZM59.6899 117.752C60.2125 117.752 60.6765 117.629 61.0819 117.384C61.4872 117.128 61.8019 116.776 62.0259 116.328C62.2605 115.869 62.3779 115.357 62.3779 114.792C62.3779 114.227 62.2605 113.72 62.0259 113.272C61.8019 112.824 61.4872 112.472 61.0819 112.216C60.6765 111.96 60.2125 111.832 59.6899 111.832C59.1779 111.832 58.7192 111.96 58.3139 112.216C57.9085 112.472 57.5885 112.829 57.3539 113.288C57.1299 113.736 57.0179 114.237 57.0179 114.792C57.0179 115.347 57.1299 115.853 57.3539 116.312C57.5885 116.76 57.9085 117.112 58.3139 117.368C58.7192 117.624 59.1779 117.752 59.6899 117.752ZM72.811 110.504C73.035 110.504 73.2163 110.579 73.355 110.728C73.5043 110.867 73.579 111.053 73.579 111.288V118.232C73.579 118.445 73.5043 118.627 73.355 118.776C73.2163 118.925 73.035 119 72.811 119C72.587 119 72.4057 118.931 72.267 118.792C72.1283 118.643 72.059 118.456 72.059 118.232V117.816C71.7817 118.189 71.403 118.509 70.923 118.776C70.443 119.032 69.9257 119.16 69.371 119.16C68.6457 119.16 67.9843 118.973 67.387 118.6C66.8003 118.227 66.3363 117.709 65.995 117.048C65.6643 116.376 65.499 115.624 65.499 114.792C65.499 113.96 65.6643 113.213 65.995 112.552C66.3363 111.88 66.8003 111.357 67.387 110.984C67.9737 110.611 68.619 110.424 69.323 110.424C69.8883 110.424 70.411 110.541 70.891 110.776C71.3817 111.011 71.771 111.309 72.059 111.672V111.288C72.059 111.064 72.1283 110.877 72.267 110.728C72.4057 110.579 72.587 110.504 72.811 110.504ZM69.547 117.752C70.0483 117.752 70.491 117.624 70.875 117.368C71.2697 117.112 71.5737 116.76 71.787 116.312C72.011 115.864 72.123 115.357 72.123 114.792C72.123 114.237 72.011 113.736 71.787 113.288C71.5737 112.84 71.2697 112.488 70.875 112.232C70.491 111.965 70.0483 111.832 69.547 111.832C69.0457 111.832 68.5977 111.96 68.203 112.216C67.819 112.472 67.515 112.824 67.291 113.272C67.0777 113.72 66.971 114.227 66.971 114.792C66.971 115.357 67.0777 115.864 67.291 116.312C67.515 116.76 67.819 117.112 68.203 117.368C68.5977 117.624 69.0457 117.752 69.547 117.752ZM77.2791 118.232C77.2791 118.445 77.2045 118.627 77.0551 118.776C76.9165 118.925 76.7351 119 76.5111 119C76.2978 119 76.1165 118.925 75.9671 118.776C75.8285 118.627 75.7591 118.445 75.7591 118.232V111.304C75.7591 111.091 75.8285 110.909 75.9671 110.76C76.1165 110.611 76.2978 110.536 76.5111 110.536C76.7351 110.536 76.9165 110.611 77.0551 110.76C77.2045 110.909 77.2791 111.091 77.2791 111.304V118.232ZM76.5111 109.48C76.2018 109.48 75.9778 109.427 75.8391 109.32C75.7111 109.203 75.6471 109.021 75.6471 108.776V108.52C75.6471 108.264 75.7165 108.083 75.8551 107.976C76.0045 107.869 76.2285 107.816 76.5271 107.816C76.8258 107.816 77.0391 107.875 77.1671 107.992C77.3058 108.099 77.3751 108.275 77.3751 108.52V108.776C77.3751 109.032 77.3058 109.213 77.1671 109.32C77.0285 109.427 76.8098 109.48 76.5111 109.48ZM83.7361 110.424C85.6561 110.424 86.6161 111.576 86.6161 113.88V118.232C86.6161 118.445 86.5415 118.627 86.3921 118.776C86.2535 118.925 86.0721 119 85.8481 119C85.6348 119 85.4535 118.925 85.3041 118.776C85.1655 118.627 85.0961 118.445 85.0961 118.232V113.896C85.0961 113.267 84.9521 112.765 84.6641 112.392C84.3761 112.019 83.9068 111.832 83.2561 111.832C82.8295 111.832 82.4401 111.928 82.0881 112.12C81.7468 112.301 81.4748 112.552 81.2721 112.872C81.0801 113.181 80.9841 113.523 80.9841 113.896V118.232C80.9841 118.445 80.9095 118.627 80.7601 118.776C80.6215 118.925 80.4401 119 80.2161 119C79.9921 119 79.8108 118.931 79.6721 118.792C79.5335 118.643 79.4641 118.456 79.4641 118.232V111.384C79.4641 111.171 79.5335 110.989 79.6721 110.84C79.8215 110.691 80.0028 110.616 80.2161 110.616C80.4401 110.616 80.6215 110.691 80.7601 110.84C80.9095 110.989 80.9841 111.171 80.9841 111.384V111.944C81.2615 111.517 81.6455 111.16 82.1361 110.872C82.6375 110.573 83.1708 110.424 83.7361 110.424ZM88.406 117.688C88.31 117.539 88.262 117.395 88.262 117.256C88.262 117.043 88.374 116.861 88.598 116.712C88.7047 116.637 88.8273 116.6 88.966 116.6C89.158 116.6 89.334 116.68 89.494 116.84C89.814 117.203 90.1553 117.475 90.518 117.656C90.8913 117.837 91.334 117.928 91.846 117.928C92.2513 117.917 92.6087 117.827 92.918 117.656C93.2273 117.475 93.382 117.187 93.382 116.792C93.382 116.429 93.222 116.152 92.902 115.96C92.5927 115.768 92.134 115.592 91.526 115.432C90.9287 115.272 90.4327 115.107 90.038 114.936C89.6433 114.755 89.3073 114.499 89.03 114.168C88.7633 113.827 88.63 113.384 88.63 112.84C88.63 112.36 88.7633 111.939 89.03 111.576C89.3073 111.213 89.67 110.931 90.118 110.728C90.5767 110.525 91.0727 110.424 91.606 110.424C92.118 110.424 92.6247 110.52 93.126 110.712C93.638 110.904 94.054 111.197 94.374 111.592C94.502 111.741 94.566 111.896 94.566 112.056C94.566 112.227 94.4807 112.392 94.31 112.552C94.2033 112.648 94.07 112.696 93.91 112.696C93.718 112.696 93.5633 112.632 93.446 112.504C93.222 112.248 92.9447 112.051 92.614 111.912C92.294 111.773 91.9367 111.704 91.542 111.704C91.1367 111.704 90.79 111.789 90.502 111.96C90.2247 112.12 90.086 112.397 90.086 112.792C90.0967 113.165 90.2567 113.443 90.566 113.624C90.886 113.805 91.3713 113.981 92.022 114.152C92.5873 114.301 93.0567 114.461 93.43 114.632C93.8033 114.803 94.118 115.059 94.374 115.4C94.63 115.731 94.758 116.168 94.758 116.712C94.758 117.213 94.614 117.651 94.326 118.024C94.038 118.387 93.6593 118.669 93.19 118.872C92.7313 119.064 92.2407 119.16 91.718 119.16C91.046 119.16 90.422 119.043 89.846 118.808C89.2807 118.573 88.8007 118.2 88.406 117.688ZM98.783 112.104V116.872C98.783 117.405 99.023 117.672 99.503 117.672C99.5777 117.672 99.679 117.656 99.807 117.624C99.935 117.581 100.036 117.56 100.111 117.56C100.25 117.56 100.367 117.619 100.463 117.736C100.559 117.853 100.607 118.003 100.607 118.184C100.607 118.408 100.479 118.6 100.223 118.76C99.967 118.92 99.679 119 99.359 119C99.007 119 98.6817 118.963 98.383 118.888C98.095 118.813 97.8337 118.627 97.599 118.328C97.375 118.019 97.263 117.555 97.263 116.936V112.104H96.335C96.1323 112.104 95.9617 112.04 95.823 111.912C95.695 111.773 95.631 111.603 95.631 111.4C95.631 111.197 95.695 111.032 95.823 110.904C95.9617 110.776 96.1323 110.712 96.335 110.712H97.263V109.368C97.263 109.155 97.3323 108.973 97.471 108.824C97.6203 108.675 97.807 108.6 98.031 108.6C98.2443 108.6 98.4203 108.675 98.559 108.824C98.7083 108.973 98.783 109.155 98.783 109.368V110.712H100.111C100.314 110.712 100.479 110.781 100.607 110.92C100.746 111.048 100.815 111.213 100.815 111.416C100.815 111.619 100.746 111.784 100.607 111.912C100.479 112.04 100.314 112.104 100.111 112.104H98.783ZM114.963 114.808C114.963 115.64 114.776 116.387 114.403 117.048C114.029 117.709 113.517 118.227 112.867 118.6C112.227 118.973 111.517 119.16 110.739 119.16C109.96 119.16 109.245 118.973 108.595 118.6C107.955 118.227 107.448 117.709 107.075 117.048C106.701 116.387 106.515 115.64 106.515 114.808C106.515 113.976 106.701 113.224 107.075 112.552C107.448 111.88 107.955 111.357 108.595 110.984C109.245 110.611 109.96 110.424 110.739 110.424C111.517 110.424 112.227 110.611 112.867 110.984C113.517 111.357 114.029 111.88 114.403 112.552C114.776 113.224 114.963 113.976 114.963 114.808ZM113.443 114.808C113.443 114.232 113.32 113.72 113.075 113.272C112.84 112.813 112.515 112.461 112.099 112.216C111.693 111.96 111.24 111.832 110.739 111.832C110.237 111.832 109.779 111.96 109.363 112.216C108.957 112.461 108.632 112.813 108.387 113.272C108.152 113.72 108.035 114.232 108.035 114.808C108.035 115.373 108.152 115.88 108.387 116.328C108.632 116.776 108.957 117.128 109.363 117.384C109.779 117.629 110.237 117.752 110.739 117.752C111.24 117.752 111.693 117.629 112.099 117.384C112.515 117.128 112.84 116.776 113.075 116.328C113.32 115.88 113.443 115.373 113.443 114.808ZM119.002 112.104V116.872C119.002 117.405 119.242 117.672 119.722 117.672C119.796 117.672 119.898 117.656 120.026 117.624C120.154 117.581 120.255 117.56 120.33 117.56C120.468 117.56 120.586 117.619 120.682 117.736C120.778 117.853 120.826 118.003 120.826 118.184C120.826 118.408 120.698 118.6 120.442 118.76C120.186 118.92 119.898 119 119.578 119C119.226 119 118.9 118.963 118.602 118.888C118.314 118.813 118.052 118.627 117.818 118.328C117.594 118.019 117.482 117.555 117.482 116.936V112.104H116.554C116.351 112.104 116.18 112.04 116.042 111.912C115.914 111.773 115.85 111.603 115.85 111.4C115.85 111.197 115.914 111.032 116.042 110.904C116.18 110.776 116.351 110.712 116.554 110.712H117.482V109.368C117.482 109.155 117.551 108.973 117.69 108.824C117.839 108.675 118.026 108.6 118.25 108.6C118.463 108.6 118.639 108.675 118.778 108.824C118.927 108.973 119.002 109.155 119.002 109.368V110.712H120.33C120.532 110.712 120.698 110.781 120.826 110.92C120.964 111.048 121.034 111.213 121.034 111.416C121.034 111.619 120.964 111.784 120.826 111.912C120.698 112.04 120.532 112.104 120.33 112.104H119.002ZM126.984 110.472C128.861 110.472 129.8 111.635 129.8 113.96V118.232C129.8 118.445 129.725 118.627 129.576 118.776C129.437 118.925 129.256 119 129.032 119C128.819 119 128.637 118.925 128.488 118.776C128.349 118.627 128.28 118.445 128.28 118.232V113.96C128.28 112.573 127.693 111.88 126.52 111.88C125.891 111.88 125.368 112.083 124.952 112.488C124.536 112.883 124.328 113.373 124.328 113.96V118.232C124.328 118.445 124.253 118.627 124.104 118.776C123.965 118.925 123.784 119 123.56 119C123.336 119 123.155 118.931 123.016 118.792C122.877 118.643 122.808 118.456 122.808 118.232V107.928C122.808 107.715 122.877 107.533 123.016 107.384C123.165 107.235 123.347 107.16 123.56 107.16C123.784 107.16 123.965 107.235 124.104 107.384C124.253 107.533 124.328 107.715 124.328 107.928V111.976C124.595 111.56 124.968 111.208 125.448 110.92C125.928 110.621 126.44 110.472 126.984 110.472ZM139.434 114.488C139.423 114.68 139.343 114.845 139.194 114.984C139.044 115.112 138.868 115.176 138.666 115.176H133.034C133.108 115.955 133.402 116.579 133.914 117.048C134.436 117.517 135.071 117.752 135.818 117.752C136.33 117.752 136.746 117.677 137.066 117.528C137.386 117.379 137.668 117.187 137.914 116.952C138.074 116.856 138.228 116.808 138.378 116.808C138.559 116.808 138.708 116.872 138.826 117C138.954 117.128 139.017 117.277 139.017 117.448C139.017 117.672 138.911 117.875 138.698 118.056C138.388 118.365 137.978 118.627 137.466 118.84C136.954 119.053 136.431 119.16 135.898 119.16C135.034 119.16 134.271 118.979 133.61 118.616C132.959 118.253 132.452 117.747 132.09 117.096C131.738 116.445 131.562 115.709 131.562 114.888C131.562 113.992 131.743 113.208 132.106 112.536C132.479 111.853 132.964 111.331 133.562 110.968C134.17 110.605 134.82 110.424 135.514 110.424C136.196 110.424 136.836 110.6 137.434 110.952C138.031 111.304 138.511 111.789 138.874 112.408C139.236 113.027 139.423 113.72 139.434 114.488ZM135.514 111.832C134.916 111.832 134.399 112.003 133.962 112.344C133.524 112.675 133.236 113.192 133.098 113.896H137.818V113.768C137.764 113.203 137.508 112.739 137.05 112.376C136.602 112.013 136.09 111.832 135.514 111.832ZM145.375 110.424C145.652 110.424 145.892 110.499 146.095 110.648C146.297 110.787 146.399 110.963 146.399 111.176C146.399 111.432 146.329 111.629 146.191 111.768C146.063 111.896 145.903 111.96 145.711 111.96C145.615 111.96 145.471 111.928 145.279 111.864C145.055 111.789 144.879 111.752 144.751 111.752C144.42 111.752 144.095 111.869 143.775 112.104C143.465 112.328 143.209 112.643 143.007 113.048C142.815 113.443 142.719 113.885 142.719 114.376V118.232C142.719 118.445 142.644 118.627 142.495 118.776C142.356 118.925 142.175 119 141.951 119C141.727 119 141.545 118.931 141.407 118.792C141.268 118.643 141.199 118.456 141.199 118.232V111.384C141.199 111.171 141.268 110.989 141.407 110.84C141.556 110.691 141.737 110.616 141.951 110.616C142.175 110.616 142.356 110.691 142.495 110.84C142.644 110.989 142.719 111.171 142.719 111.384V112.2C142.953 111.677 143.305 111.256 143.775 110.936C144.244 110.605 144.777 110.435 145.375 110.424ZM158.485 110.616C158.709 110.616 158.891 110.691 159.029 110.84C159.179 110.989 159.253 111.171 159.253 111.384V115.64C159.253 116.749 158.944 117.613 158.325 118.232C157.717 118.84 156.853 119.144 155.733 119.144C154.624 119.144 153.765 118.84 153.157 118.232C152.549 117.613 152.245 116.749 152.245 115.64V111.384C152.245 111.171 152.315 110.989 152.453 110.84C152.603 110.691 152.784 110.616 152.997 110.616C153.221 110.616 153.403 110.691 153.541 110.84C153.691 110.989 153.765 111.171 153.765 111.384V115.64C153.765 117.037 154.421 117.736 155.733 117.736C156.384 117.736 156.88 117.56 157.221 117.208C157.563 116.856 157.733 116.333 157.733 115.64V111.384C157.733 111.171 157.803 110.989 157.941 110.84C158.091 110.691 158.272 110.616 158.485 110.616ZM161.047 117.688C160.951 117.539 160.903 117.395 160.903 117.256C160.903 117.043 161.015 116.861 161.239 116.712C161.345 116.637 161.468 116.6 161.607 116.6C161.799 116.6 161.975 116.68 162.135 116.84C162.455 117.203 162.796 117.475 163.159 117.656C163.532 117.837 163.975 117.928 164.487 117.928C164.892 117.917 165.249 117.827 165.559 117.656C165.868 117.475 166.023 117.187 166.023 116.792C166.023 116.429 165.863 116.152 165.543 115.96C165.233 115.768 164.775 115.592 164.167 115.432C163.569 115.272 163.073 115.107 162.679 114.936C162.284 114.755 161.948 114.499 161.671 114.168C161.404 113.827 161.271 113.384 161.271 112.84C161.271 112.36 161.404 111.939 161.671 111.576C161.948 111.213 162.311 110.931 162.759 110.728C163.217 110.525 163.713 110.424 164.247 110.424C164.759 110.424 165.265 110.52 165.767 110.712C166.279 110.904 166.695 111.197 167.015 111.592C167.143 111.741 167.207 111.896 167.207 112.056C167.207 112.227 167.121 112.392 166.951 112.552C166.844 112.648 166.711 112.696 166.551 112.696C166.359 112.696 166.204 112.632 166.087 112.504C165.863 112.248 165.585 112.051 165.255 111.912C164.935 111.773 164.577 111.704 164.183 111.704C163.777 111.704 163.431 111.789 163.143 111.96C162.865 112.12 162.727 112.397 162.727 112.792C162.737 113.165 162.897 113.443 163.207 113.624C163.527 113.805 164.012 113.981 164.663 114.152C165.228 114.301 165.697 114.461 166.071 114.632C166.444 114.803 166.759 115.059 167.015 115.4C167.271 115.731 167.399 116.168 167.399 116.712C167.399 117.213 167.255 117.651 166.967 118.024C166.679 118.387 166.3 118.669 165.831 118.872C165.372 119.064 164.881 119.16 164.359 119.16C163.687 119.16 163.063 119.043 162.487 118.808C161.921 118.573 161.441 118.2 161.047 117.688ZM176.512 114.488C176.501 114.68 176.421 114.845 176.272 114.984C176.122 115.112 175.946 115.176 175.744 115.176H170.112C170.186 115.955 170.48 116.579 170.992 117.048C171.514 117.517 172.149 117.752 172.896 117.752C173.408 117.752 173.824 117.677 174.144 117.528C174.464 117.379 174.746 117.187 174.992 116.952C175.152 116.856 175.306 116.808 175.456 116.808C175.637 116.808 175.786 116.872 175.904 117C176.032 117.128 176.096 117.277 176.096 117.448C176.096 117.672 175.989 117.875 175.776 118.056C175.466 118.365 175.056 118.627 174.544 118.84C174.032 119.053 173.509 119.16 172.976 119.16C172.112 119.16 171.349 118.979 170.688 118.616C170.037 118.253 169.53 117.747 169.168 117.096C168.816 116.445 168.64 115.709 168.64 114.888C168.64 113.992 168.821 113.208 169.184 112.536C169.557 111.853 170.042 111.331 170.64 110.968C171.248 110.605 171.898 110.424 172.592 110.424C173.274 110.424 173.914 110.6 174.512 110.952C175.109 111.304 175.589 111.789 175.952 112.408C176.314 113.027 176.501 113.72 176.512 114.488ZM172.592 111.832C171.994 111.832 171.477 112.003 171.04 112.344C170.602 112.675 170.314 113.192 170.176 113.896H174.896V113.768C174.842 113.203 174.586 112.739 174.128 112.376C173.68 112.013 173.168 111.832 172.592 111.832ZM182.453 110.424C182.73 110.424 182.97 110.499 183.173 110.648C183.375 110.787 183.477 110.963 183.477 111.176C183.477 111.432 183.407 111.629 183.269 111.768C183.141 111.896 182.981 111.96 182.789 111.96C182.693 111.96 182.549 111.928 182.357 111.864C182.133 111.789 181.957 111.752 181.829 111.752C181.498 111.752 181.173 111.869 180.853 112.104C180.543 112.328 180.287 112.643 180.085 113.048C179.893 113.443 179.797 113.885 179.797 114.376V118.232C179.797 118.445 179.722 118.627 179.573 118.776C179.434 118.925 179.253 119 179.029 119C178.805 119 178.623 118.931 178.485 118.792C178.346 118.643 178.277 118.456 178.277 118.232V111.384C178.277 111.171 178.346 110.989 178.485 110.84C178.634 110.691 178.815 110.616 179.029 110.616C179.253 110.616 179.434 110.691 179.573 110.84C179.722 110.989 179.797 111.171 179.797 111.384V112.2C180.031 111.677 180.383 111.256 180.853 110.936C181.322 110.605 181.855 110.435 182.453 110.424ZM184.406 117.688C184.31 117.539 184.262 117.395 184.262 117.256C184.262 117.043 184.374 116.861 184.598 116.712C184.705 116.637 184.827 116.6 184.966 116.6C185.158 116.6 185.334 116.68 185.494 116.84C185.814 117.203 186.155 117.475 186.518 117.656C186.891 117.837 187.334 117.928 187.846 117.928C188.251 117.917 188.609 117.827 188.918 117.656C189.227 117.475 189.382 117.187 189.382 116.792C189.382 116.429 189.222 116.152 188.902 115.96C188.593 115.768 188.134 115.592 187.526 115.432C186.929 115.272 186.433 115.107 186.038 114.936C185.643 114.755 185.307 114.499 185.03 114.168C184.763 113.827 184.63 113.384 184.63 112.84C184.63 112.36 184.763 111.939 185.03 111.576C185.307 111.213 185.67 110.931 186.118 110.728C186.577 110.525 187.073 110.424 187.606 110.424C188.118 110.424 188.625 110.52 189.126 110.712C189.638 110.904 190.054 111.197 190.374 111.592C190.502 111.741 190.566 111.896 190.566 112.056C190.566 112.227 190.481 112.392 190.31 112.552C190.203 112.648 190.07 112.696 189.91 112.696C189.718 112.696 189.563 112.632 189.446 112.504C189.222 112.248 188.945 112.051 188.614 111.912C188.294 111.773 187.937 111.704 187.542 111.704C187.137 111.704 186.79 111.789 186.502 111.96C186.225 112.12 186.086 112.397 186.086 112.792C186.097 113.165 186.257 113.443 186.566 113.624C186.886 113.805 187.371 113.981 188.022 114.152C188.587 114.301 189.057 114.461 189.43 114.632C189.803 114.803 190.118 115.059 190.374 115.4C190.63 115.731 190.758 116.168 190.758 116.712C190.758 117.213 190.614 117.651 190.326 118.024C190.038 118.387 189.659 118.669 189.19 118.872C188.731 119.064 188.241 119.16 187.718 119.16C187.046 119.16 186.422 119.043 185.846 118.808C185.281 118.573 184.801 118.2 184.406 117.688ZM193.055 118.984C192.799 118.984 192.602 118.915 192.463 118.776C192.335 118.637 192.271 118.435 192.271 118.168V117.864C192.271 117.608 192.335 117.411 192.463 117.272C192.602 117.133 192.799 117.064 193.055 117.064H193.215C193.482 117.064 193.679 117.133 193.807 117.272C193.946 117.411 194.015 117.608 194.015 117.864V118.168C194.015 118.712 193.748 118.984 193.215 118.984H193.055Z" fill="#49A0FF"/>
<defs>
<radialGradient id="paint0_radial" cx="0" cy="0" r="1" gradientUnits="userSpaceOnUse" gradientTransform="translate(272 488.5) rotate(90) scale(24.5 104)">
<stop stop-color="#B0D6FF"/>
<stop offset="1" stop-color="white"/>
</radialGradient>
<linearGradient id="paint1_linear" x1="301.24" y1="213.684" x2="240.564" y2="333.608" gradientUnits="userSpaceOnUse">
<stop stop-color="#3B98FF"/>
<stop offset="1" stop-color="#7CBAFF"/>
</linearGradient>
<linearGradient id="paint2_linear" x1="258.876" y1="396.58" x2="295.671" y2="363.827" gradientUnits="userSpaceOnUse">
<stop stop-color="#7CBAFF"/>
<stop offset="1" stop-color="#3B98FF"/>
</linearGradient>
</defs>
</svg>
