<svg width="376" height="513" viewBox="0 0 376 513" fill="none" xmlns="http://www.w3.org/2000/svg">
<ellipse cx="272" cy="488.5" rx="104" ry="24.5" fill="url(#paint0_radial)"/>
<path d="M289.741 345.899H264.75V365.203H289.741V345.899Z" fill="black"/>
<path d="M230.312 365.203C230.312 365.203 204.873 371.071 206.572 410.56C214.117 413.259 212.743 410.56 212.743 410.56C212.743 410.56 212.564 383.953 230.312 383.666C241.219 375.457 235.425 370.727 235.425 370.727L230.312 365.203Z" fill="black"/>
<path d="M257.751 401.03L267.209 488.745H274.795L292.769 398.131L257.751 401.03Z" fill="black"/>
<path d="M319.071 365.203C319.071 365.203 344.51 371.071 342.811 410.56C335.265 413.259 336.64 410.56 336.64 410.56C336.64 410.56 336.819 383.953 319.071 383.666C308.164 375.457 313.958 370.727 313.958 370.727L319.071 365.203Z" fill="black"/>
<path d="M229.646 345.937C224.826 327.595 197.606 218.333 262.815 201.372C328.024 184.41 359.487 254.644 326.124 338.575C322.4 346.365 255.393 356.386 229.646 345.937Z" fill="url(#paint1_linear)"/>
<path d="M230.312 357.485C230.312 357.485 276.224 369.443 324.973 357.485C322.269 384.762 317.26 397.797 317.26 397.797C317.26 397.797 255.435 405.074 234.094 397.797C230.409 378.392 230.312 357.485 230.312 357.485Z" fill="url(#paint2_linear)"/>
<path d="M206.49 409.6L199 421.466L209.624 414.652L216.06 420.319L212.287 409.6H206.49Z" fill="#3B98FF"/>
<path d="M342.894 409.6L350.384 421.466L339.76 414.652L333.325 420.319L337.097 409.6H342.894Z" fill="#3B98FF"/>
<path d="M276.283 309.222C299.641 309.222 318.575 290.208 318.575 266.754C318.575 243.299 299.641 224.285 276.283 224.285C252.926 224.285 233.991 243.299 233.991 266.754C233.991 290.208 252.926 309.222 276.283 309.222Z" fill="white"/>
<path d="M274.361 284.127C284.978 284.127 293.585 275.484 293.585 264.823C293.585 254.162 284.978 245.519 274.361 245.519C263.744 245.519 255.137 254.162 255.137 264.823C255.137 275.484 263.744 284.127 274.361 284.127Z" fill="#B2D7FF"/>
<path d="M272.439 276.405C277.748 276.405 282.051 272.084 282.051 266.754C282.051 261.423 277.748 257.102 272.439 257.102C267.131 257.102 262.827 261.423 262.827 266.754C262.827 272.084 267.131 276.405 272.439 276.405Z" fill="black"/>
<path d="M287.119 198.825L292.573 156.146Z" fill="#3B98FF"/>
<path d="M287.119 198.825L292.573 156.146" stroke="black" stroke-width="4"/>
<path d="M293.584 156.721C295.708 156.721 297.429 154.993 297.429 152.861C297.429 150.729 295.708 149 293.584 149C291.461 149 289.74 150.729 289.74 152.861C289.74 154.993 291.461 156.721 293.584 156.721Z" fill="#3B98FF"/>
<path d="M284.933 329.491C284.933 323.716 280.199 319.034 274.36 319.034C268.521 319.034 263.787 323.716 263.787 329.491C263.787 335.266 268.521 339.947 274.36 339.947C280.199 339.947 284.933 335.266 284.933 329.491Z" fill="white"/>
<path d="M284.314 329.491C284.314 324.059 279.858 319.656 274.361 319.656C268.864 319.656 264.407 324.059 264.407 329.491C264.407 334.922 268.864 339.325 274.361 339.325C279.858 339.325 284.314 334.922 284.314 329.491Z" stroke="black" stroke-width="4"/>
<path d="M147.312 195.598L147.312 195.598L152.3 194.436L155.608 198.291L147.312 195.598ZM147.312 195.598C137.955 197.777 128.852 198.848 119.5 198.848C58.5462 198.848 8.39131 156.418 8.39131 103.616C8.39131 50.7946 58.5459 8.36364 119.5 8.36364C180.454 8.36364 230.609 50.7946 230.609 103.616C230.609 132.737 214.889 159.916 187.756 178.224L187.755 178.225L183.873 180.839L184.069 185.49L184.07 185.507L184.07 185.525C184.127 187.818 184.364 190.471 185.786 195.673L185.789 195.684C187.589 202.412 190.365 209.141 194.067 215.771L196.112 219.435M147.312 195.598L196.112 219.435M196.112 219.435L191.978 218.716M196.112 219.435L191.978 218.716M191.978 218.716C171.642 215.183 159.307 202.611 155.61 198.293L191.978 218.716ZM190.443 185.222L190.403 184.111L191.325 183.49C219.092 164.782 237 136.249 237 103.616C237 47.3777 184.518 2 119.5 2C54.4814 2 2 47.3779 2 103.596C2 159.814 54.5015 205.192 119.5 205.192C129.65 205.192 139.34 203.996 148.776 201.783L149.96 201.506L150.751 202.428C153.531 205.669 171.632 226 202.874 226H208.326L205.214 221.557L205.213 221.555C197.601 210.663 193.814 200.975 191.932 194.032L191.932 194.029C190.544 188.878 190.487 186.784 190.453 185.54C190.45 185.427 190.447 185.322 190.443 185.222Z" fill="#71B4FF" stroke="white" stroke-width="4"/>
<path d="M51.6607 77.72C51.7674 77.7947 51.8527 77.8907 51.9167 78.008C51.9807 78.1147 52.0127 78.2267 52.0127 78.344C52.0127 78.568 51.938 78.7333 51.7887 78.84C51.65 78.9467 51.4794 79 51.2767 79C51.074 79 50.9034 78.9573 50.7647 78.872C50.4447 78.6907 50.1834 78.3973 49.9807 77.992C49.778 77.5867 49.6767 76.9893 49.6767 76.2C49.6767 75.6667 49.5167 75.272 49.1967 75.016C48.8767 74.76 48.4607 74.632 47.9487 74.632H44.7167V78.232C44.7167 78.456 44.6527 78.6427 44.5247 78.792C44.3967 78.9307 44.2314 79 44.0287 79C43.7834 79 43.57 78.9253 43.3887 78.776C43.218 78.6267 43.1327 78.4453 43.1327 78.232V68.568C43.1327 68.3547 43.2074 68.1733 43.3567 68.024C43.506 67.8747 43.6874 67.8 43.9007 67.8H48.3967C48.9727 67.8 49.5007 67.944 49.9807 68.232C50.4607 68.5093 50.8447 68.8987 51.1327 69.4C51.4207 69.8907 51.5647 70.4453 51.5647 71.064C51.5647 71.6613 51.4047 72.2213 51.0847 72.744C50.7647 73.256 50.354 73.64 49.8527 73.896C50.2474 74.0987 50.5567 74.3813 50.7807 74.744C51.0154 75.1067 51.1434 75.528 51.1647 76.008C51.2074 76.616 51.2554 77.032 51.3087 77.256C51.362 77.4693 51.4794 77.624 51.6607 77.72ZM48.3647 73.304C48.6314 73.2827 48.882 73.176 49.1167 72.984C49.362 72.792 49.5594 72.536 49.7087 72.216C49.858 71.8853 49.9327 71.5173 49.9327 71.112C49.9327 70.6 49.7727 70.168 49.4527 69.816C49.1434 69.4533 48.7647 69.272 48.3167 69.272H44.7167V73.304H48.3647ZM61.0976 74.488C61.0869 74.68 61.0069 74.8453 60.8576 74.984C60.7082 75.112 60.5322 75.176 60.3296 75.176H54.6976C54.7722 75.9547 55.0656 76.5787 55.5776 77.048C56.1002 77.5173 56.7349 77.752 57.4816 77.752C57.9936 77.752 58.4096 77.6773 58.7296 77.528C59.0496 77.3787 59.3322 77.1867 59.5776 76.952C59.7376 76.856 59.8922 76.808 60.0416 76.808C60.2229 76.808 60.3722 76.872 60.4896 77C60.6176 77.128 60.6816 77.2773 60.6816 77.448C60.6816 77.672 60.5749 77.8747 60.3616 78.056C60.0522 78.3653 59.6416 78.6267 59.1296 78.84C58.6176 79.0533 58.0949 79.16 57.5616 79.16C56.6976 79.16 55.9349 78.9787 55.2736 78.616C54.6229 78.2533 54.1162 77.7467 53.7536 77.096C53.4016 76.4453 53.2256 75.7093 53.2256 74.888C53.2256 73.992 53.4069 73.208 53.7696 72.536C54.1429 71.8533 54.6282 71.3307 55.2256 70.968C55.8336 70.6053 56.4842 70.424 57.1776 70.424C57.8602 70.424 58.5002 70.6 59.0976 70.952C59.6949 71.304 60.1749 71.7893 60.5376 72.408C60.9002 73.0267 61.0869 73.72 61.0976 74.488ZM57.1776 71.832C56.5802 71.832 56.0629 72.0027 55.6256 72.344C55.1882 72.6747 54.9002 73.192 54.7616 73.896H59.4816V73.768C59.4282 73.2027 59.1722 72.7387 58.7136 72.376C58.2656 72.0133 57.7536 71.832 57.1776 71.832ZM69.7251 70.504C69.9491 70.504 70.1304 70.5787 70.2691 70.728C70.4184 70.8667 70.4931 71.0533 70.4931 71.288V78.232C70.4931 78.4453 70.4184 78.6267 70.2691 78.776C70.1304 78.9253 69.9491 79 69.7251 79C69.5011 79 69.3197 78.9307 69.1811 78.792C69.0424 78.6427 68.9731 78.456 68.9731 78.232V77.816C68.6957 78.1893 68.3171 78.5093 67.8371 78.776C67.3571 79.032 66.8397 79.16 66.2851 79.16C65.5597 79.16 64.8984 78.9733 64.3011 78.6C63.7144 78.2267 63.2504 77.7093 62.9091 77.048C62.5784 76.376 62.4131 75.624 62.4131 74.792C62.4131 73.96 62.5784 73.2133 62.9091 72.552C63.2504 71.88 63.7144 71.3573 64.3011 70.984C64.8877 70.6107 65.5331 70.424 66.2371 70.424C66.8024 70.424 67.3251 70.5413 67.8051 70.776C68.2957 71.0107 68.6851 71.3093 68.9731 71.672V71.288C68.9731 71.064 69.0424 70.8773 69.1811 70.728C69.3197 70.5787 69.5011 70.504 69.7251 70.504ZM66.4611 77.752C66.9624 77.752 67.4051 77.624 67.7891 77.368C68.1837 77.112 68.4877 76.76 68.7011 76.312C68.9251 75.864 69.0371 75.3573 69.0371 74.792C69.0371 74.2373 68.9251 73.736 68.7011 73.288C68.4877 72.84 68.1837 72.488 67.7891 72.232C67.4051 71.9653 66.9624 71.832 66.4611 71.832C65.9597 71.832 65.5117 71.96 65.1171 72.216C64.7331 72.472 64.4291 72.824 64.2051 73.272C63.9917 73.72 63.8851 74.2267 63.8851 74.792C63.8851 75.3573 63.9917 75.864 64.2051 76.312C64.4291 76.76 64.7331 77.112 65.1171 77.368C65.5117 77.624 65.9597 77.752 66.4611 77.752ZM79.5532 67.16C79.7772 67.16 79.9585 67.2347 80.0972 67.384C80.2465 67.5227 80.3212 67.704 80.3212 67.928V78.232C80.3212 78.4453 80.2465 78.6267 80.0972 78.776C79.9585 78.9253 79.7772 79 79.5532 79C79.3292 79 79.1479 78.9307 79.0092 78.792C78.8705 78.6427 78.8012 78.456 78.8012 78.232V77.784C78.5345 78.168 78.1559 78.4933 77.6652 78.76C77.1852 79.0267 76.6679 79.16 76.1132 79.16C75.3879 79.16 74.7319 78.9733 74.1452 78.6C73.5585 78.2267 73.0945 77.7093 72.7532 77.048C72.4119 76.376 72.2412 75.624 72.2412 74.792C72.2412 73.96 72.4065 73.2133 72.7372 72.552C73.0785 71.88 73.5425 71.3573 74.1292 70.984C74.7159 70.6107 75.3612 70.424 76.0652 70.424C76.6305 70.424 77.1532 70.5413 77.6332 70.776C78.1132 71.0107 78.5025 71.3147 78.8012 71.688V67.928C78.8012 67.704 78.8705 67.5227 79.0092 67.384C79.1479 67.2347 79.3292 67.16 79.5532 67.16ZM76.2892 77.752C76.7905 77.752 77.2332 77.624 77.6172 77.368C78.0119 77.112 78.3159 76.76 78.5292 76.312C78.7532 75.864 78.8652 75.3573 78.8652 74.792C78.8652 74.2373 78.7532 73.736 78.5292 73.288C78.3159 72.8293 78.0119 72.472 77.6172 72.216C77.2332 71.96 76.7905 71.832 76.2892 71.832C75.7879 71.832 75.3399 71.96 74.9452 72.216C74.5612 72.472 74.2572 72.8293 74.0332 73.288C73.8199 73.736 73.7132 74.2373 73.7132 74.792C73.7132 75.3573 73.8199 75.864 74.0332 76.312C74.2572 76.76 74.5612 77.112 74.9452 77.368C75.3399 77.624 75.7879 77.752 76.2892 77.752ZM89.2908 72.104V76.872C89.2908 77.4053 89.5308 77.672 90.0108 77.672C90.0855 77.672 90.1868 77.656 90.3148 77.624C90.4428 77.5813 90.5441 77.56 90.6188 77.56C90.7575 77.56 90.8748 77.6187 90.9708 77.736C91.0668 77.8533 91.1148 78.0027 91.1148 78.184C91.1148 78.408 90.9868 78.6 90.7308 78.76C90.4748 78.92 90.1868 79 89.8668 79C89.5148 79 89.1895 78.9627 88.8908 78.888C88.6028 78.8133 88.3415 78.6267 88.1068 78.328C87.8828 78.0187 87.7708 77.5547 87.7708 76.936V72.104H86.8428C86.6401 72.104 86.4695 72.04 86.3308 71.912C86.2028 71.7733 86.1388 71.6027 86.1388 71.4C86.1388 71.1973 86.2028 71.032 86.3308 70.904C86.4695 70.776 86.6401 70.712 86.8428 70.712H87.7708V69.368C87.7708 69.1547 87.8401 68.9733 87.9788 68.824C88.1281 68.6747 88.3148 68.6 88.5388 68.6C88.7521 68.6 88.9281 68.6747 89.0668 68.824C89.2161 68.9733 89.2908 69.1547 89.2908 69.368V70.712H90.6188C90.8215 70.712 90.9868 70.7813 91.1148 70.92C91.2535 71.048 91.3228 71.2133 91.3228 71.416C91.3228 71.6187 91.2535 71.784 91.1148 71.912C90.9868 72.04 90.8215 72.104 90.6188 72.104H89.2908ZM97.2729 70.472C99.1503 70.472 100.089 71.6347 100.089 73.96V78.232C100.089 78.4453 100.014 78.6267 99.8649 78.776C99.7263 78.9253 99.5449 79 99.3209 79C99.1076 79 98.9263 78.9253 98.7769 78.776C98.6383 78.6267 98.5689 78.4453 98.5689 78.232V73.96C98.5689 72.5733 97.9823 71.88 96.8089 71.88C96.1796 71.88 95.6569 72.0827 95.2409 72.488C94.8249 72.8827 94.6169 73.3733 94.6169 73.96V78.232C94.6169 78.4453 94.5423 78.6267 94.3929 78.776C94.2543 78.9253 94.0729 79 93.8489 79C93.6249 79 93.4436 78.9307 93.3049 78.792C93.1663 78.6427 93.0969 78.456 93.0969 78.232V67.928C93.0969 67.7147 93.1663 67.5333 93.3049 67.384C93.4543 67.2347 93.6356 67.16 93.8489 67.16C94.0729 67.16 94.2543 67.2347 94.3929 67.384C94.5423 67.5333 94.6169 67.7147 94.6169 67.928V71.976C94.8836 71.56 95.2569 71.208 95.7369 70.92C96.2169 70.6213 96.7289 70.472 97.2729 70.472ZM103.803 78.232C103.803 78.4453 103.728 78.6267 103.579 78.776C103.44 78.9253 103.259 79 103.035 79C102.821 79 102.64 78.9253 102.491 78.776C102.352 78.6267 102.283 78.4453 102.283 78.232V71.304C102.283 71.0907 102.352 70.9093 102.491 70.76C102.64 70.6107 102.821 70.536 103.035 70.536C103.259 70.536 103.44 70.6107 103.579 70.76C103.728 70.9093 103.803 71.0907 103.803 71.304V78.232ZM103.035 69.48C102.725 69.48 102.501 69.4267 102.363 69.32C102.235 69.2027 102.171 69.0213 102.171 68.776V68.52C102.171 68.264 102.24 68.0827 102.379 67.976C102.528 67.8693 102.752 67.816 103.051 67.816C103.349 67.816 103.563 67.8747 103.691 67.992C103.829 68.0987 103.899 68.2747 103.899 68.52V68.776C103.899 69.032 103.829 69.2133 103.691 69.32C103.552 69.4267 103.333 69.48 103.035 69.48ZM105.508 77.688C105.412 77.5387 105.364 77.3947 105.364 77.256C105.364 77.0427 105.476 76.8613 105.7 76.712C105.806 76.6373 105.929 76.6 106.068 76.6C106.26 76.6 106.436 76.68 106.596 76.84C106.916 77.2027 107.257 77.4747 107.62 77.656C107.993 77.8373 108.436 77.928 108.948 77.928C109.353 77.9173 109.71 77.8267 110.02 77.656C110.329 77.4747 110.484 77.1867 110.484 76.792C110.484 76.4293 110.324 76.152 110.004 75.96C109.694 75.768 109.236 75.592 108.628 75.432C108.03 75.272 107.534 75.1067 107.14 74.936C106.745 74.7547 106.409 74.4987 106.132 74.168C105.865 73.8267 105.732 73.384 105.732 72.84C105.732 72.36 105.865 71.9387 106.132 71.576C106.409 71.2133 106.772 70.9307 107.22 70.728C107.678 70.5253 108.174 70.424 108.708 70.424C109.22 70.424 109.726 70.52 110.228 70.712C110.74 70.904 111.156 71.1973 111.476 71.592C111.604 71.7413 111.668 71.896 111.668 72.056C111.668 72.2267 111.582 72.392 111.412 72.552C111.305 72.648 111.172 72.696 111.012 72.696C110.82 72.696 110.665 72.632 110.548 72.504C110.324 72.248 110.046 72.0507 109.716 71.912C109.396 71.7733 109.038 71.704 108.644 71.704C108.238 71.704 107.892 71.7893 107.604 71.96C107.326 72.12 107.188 72.3973 107.188 72.792C107.198 73.1653 107.358 73.4427 107.668 73.624C107.988 73.8053 108.473 73.9813 109.124 74.152C109.689 74.3013 110.158 74.4613 110.532 74.632C110.905 74.8027 111.22 75.0587 111.476 75.4C111.732 75.7307 111.86 76.168 111.86 76.712C111.86 77.2133 111.716 77.6507 111.428 78.024C111.14 78.3867 110.761 78.6693 110.292 78.872C109.833 79.064 109.342 79.16 108.82 79.16C108.148 79.16 107.524 79.0427 106.948 78.808C106.382 78.5733 105.902 78.2 105.508 77.688ZM122.258 70.472C122.983 70.472 123.639 70.6587 124.226 71.032C124.813 71.3947 125.271 71.9067 125.602 72.568C125.943 73.2293 126.114 73.976 126.114 74.808C126.114 75.64 125.943 76.3867 125.602 77.048C125.271 77.6987 124.813 78.2107 124.226 78.584C123.639 78.9573 122.994 79.144 122.29 79.144C121.735 79.144 121.218 79.0213 120.738 78.776C120.258 78.5307 119.869 78.232 119.57 77.88V81.432C119.57 81.6453 119.495 81.8267 119.346 81.976C119.207 82.1253 119.026 82.2 118.802 82.2C118.589 82.2 118.407 82.1253 118.258 81.976C118.119 81.8373 118.05 81.656 118.05 81.432V71.368C118.05 71.144 118.119 70.9573 118.258 70.808C118.397 70.6587 118.578 70.584 118.802 70.584C119.026 70.584 119.207 70.6587 119.346 70.808C119.495 70.9573 119.57 71.144 119.57 71.368V71.832C119.826 71.4587 120.199 71.1387 120.69 70.872C121.181 70.6053 121.703 70.472 122.258 70.472ZM122.082 77.736C122.573 77.736 123.015 77.608 123.41 77.352C123.805 77.096 124.109 76.7493 124.322 76.312C124.546 75.864 124.658 75.3627 124.658 74.808C124.658 74.2533 124.546 73.7573 124.322 73.32C124.109 72.872 123.805 72.52 123.41 72.264C123.015 72.008 122.573 71.88 122.082 71.88C121.581 71.88 121.133 72.008 120.738 72.264C120.343 72.5093 120.034 72.856 119.81 73.304C119.597 73.752 119.49 74.2533 119.49 74.808C119.49 75.3627 119.597 75.864 119.81 76.312C120.034 76.76 120.343 77.112 120.738 77.368C121.133 77.6133 121.581 77.736 122.082 77.736ZM134.678 70.504C134.902 70.504 135.084 70.5787 135.222 70.728C135.372 70.8667 135.446 71.0533 135.446 71.288V78.232C135.446 78.4453 135.372 78.6267 135.222 78.776C135.084 78.9253 134.902 79 134.678 79C134.454 79 134.273 78.9307 134.134 78.792C133.996 78.6427 133.926 78.456 133.926 78.232V77.816C133.649 78.1893 133.27 78.5093 132.79 78.776C132.31 79.032 131.793 79.16 131.238 79.16C130.513 79.16 129.852 78.9733 129.254 78.6C128.668 78.2267 128.204 77.7093 127.862 77.048C127.532 76.376 127.366 75.624 127.366 74.792C127.366 73.96 127.532 73.2133 127.862 72.552C128.204 71.88 128.668 71.3573 129.254 70.984C129.841 70.6107 130.486 70.424 131.19 70.424C131.756 70.424 132.278 70.5413 132.758 70.776C133.249 71.0107 133.638 71.3093 133.926 71.672V71.288C133.926 71.064 133.996 70.8773 134.134 70.728C134.273 70.5787 134.454 70.504 134.678 70.504ZM131.414 77.752C131.916 77.752 132.358 77.624 132.742 77.368C133.137 77.112 133.441 76.76 133.654 76.312C133.878 75.864 133.99 75.3573 133.99 74.792C133.99 74.2373 133.878 73.736 133.654 73.288C133.441 72.84 133.137 72.488 132.742 72.232C132.358 71.9653 131.916 71.832 131.414 71.832C130.913 71.832 130.465 71.96 130.07 72.216C129.686 72.472 129.382 72.824 129.158 73.272C128.945 73.72 128.838 74.2267 128.838 74.792C128.838 75.3573 128.945 75.864 129.158 76.312C129.382 76.76 129.686 77.112 130.07 77.368C130.465 77.624 130.913 77.752 131.414 77.752ZM141.882 70.424C142.16 70.424 142.4 70.4987 142.602 70.648C142.805 70.7867 142.906 70.9627 142.906 71.176C142.906 71.432 142.837 71.6293 142.698 71.768C142.57 71.896 142.41 71.96 142.218 71.96C142.122 71.96 141.978 71.928 141.786 71.864C141.562 71.7893 141.386 71.752 141.258 71.752C140.928 71.752 140.602 71.8693 140.282 72.104C139.973 72.328 139.717 72.6427 139.514 73.048C139.322 73.4427 139.226 73.8853 139.226 74.376V78.232C139.226 78.4453 139.152 78.6267 139.002 78.776C138.864 78.9253 138.682 79 138.458 79C138.234 79 138.053 78.9307 137.914 78.792C137.776 78.6427 137.706 78.456 137.706 78.232V71.384C137.706 71.1707 137.776 70.9893 137.914 70.84C138.064 70.6907 138.245 70.616 138.458 70.616C138.682 70.616 138.864 70.6907 139.002 70.84C139.152 70.9893 139.226 71.1707 139.226 71.384V72.2C139.461 71.6773 139.813 71.256 140.282 70.936C140.752 70.6053 141.285 70.4347 141.882 70.424ZM150.928 70.504C151.152 70.504 151.334 70.5787 151.472 70.728C151.622 70.8667 151.696 71.0533 151.696 71.288V78.232C151.696 78.4453 151.622 78.6267 151.472 78.776C151.334 78.9253 151.152 79 150.928 79C150.704 79 150.523 78.9307 150.384 78.792C150.246 78.6427 150.176 78.456 150.176 78.232V77.816C149.899 78.1893 149.52 78.5093 149.04 78.776C148.56 79.032 148.043 79.16 147.488 79.16C146.763 79.16 146.102 78.9733 145.504 78.6C144.918 78.2267 144.454 77.7093 144.112 77.048C143.782 76.376 143.616 75.624 143.616 74.792C143.616 73.96 143.782 73.2133 144.112 72.552C144.454 71.88 144.918 71.3573 145.504 70.984C146.091 70.6107 146.736 70.424 147.44 70.424C148.006 70.424 148.528 70.5413 149.008 70.776C149.499 71.0107 149.888 71.3093 150.176 71.672V71.288C150.176 71.064 150.246 70.8773 150.384 70.728C150.523 70.5787 150.704 70.504 150.928 70.504ZM147.664 77.752C148.166 77.752 148.608 77.624 148.992 77.368C149.387 77.112 149.691 76.76 149.904 76.312C150.128 75.864 150.24 75.3573 150.24 74.792C150.24 74.2373 150.128 73.736 149.904 73.288C149.691 72.84 149.387 72.488 148.992 72.232C148.608 71.9653 148.166 71.832 147.664 71.832C147.163 71.832 146.715 71.96 146.32 72.216C145.936 72.472 145.632 72.824 145.408 73.272C145.195 73.72 145.088 74.2267 145.088 74.792C145.088 75.3573 145.195 75.864 145.408 76.312C145.632 76.76 145.936 77.112 146.32 77.368C146.715 77.624 147.163 77.752 147.664 77.752ZM160.964 70.504C161.188 70.504 161.37 70.5787 161.508 70.728C161.658 70.8667 161.732 71.0533 161.732 71.288V78.328C161.732 79.192 161.546 79.912 161.172 80.488C160.81 81.0747 160.314 81.5067 159.684 81.784C159.055 82.0613 158.346 82.2 157.556 82.2C157.13 82.2 156.628 82.1253 156.052 81.976C155.487 81.8267 155.124 81.672 154.964 81.512C154.634 81.3413 154.468 81.128 154.468 80.872C154.468 80.808 154.49 80.7227 154.532 80.616C154.65 80.3493 154.847 80.216 155.124 80.216C155.263 80.216 155.412 80.248 155.572 80.312C156.426 80.6427 157.092 80.808 157.572 80.808C158.426 80.808 159.076 80.6 159.524 80.184C159.983 79.7787 160.212 79.2187 160.212 78.504V77.64C159.988 78.056 159.61 78.4133 159.076 78.712C158.554 79.0107 157.999 79.16 157.412 79.16C156.676 79.16 156.004 78.9733 155.396 78.6C154.788 78.2267 154.308 77.7093 153.956 77.048C153.615 76.376 153.444 75.624 153.444 74.792C153.444 73.96 153.615 73.2133 153.956 72.552C154.308 71.88 154.783 71.3573 155.38 70.984C155.988 70.6107 156.655 70.424 157.38 70.424C157.967 70.424 158.511 70.5573 159.012 70.824C159.524 71.0907 159.924 71.416 160.212 71.8V71.288C160.212 71.064 160.282 70.8773 160.42 70.728C160.559 70.5787 160.74 70.504 160.964 70.504ZM157.588 77.752C158.111 77.752 158.575 77.6293 158.98 77.384C159.386 77.128 159.7 76.776 159.924 76.328C160.159 75.8693 160.276 75.3573 160.276 74.792C160.276 74.2267 160.159 73.72 159.924 73.272C159.7 72.824 159.386 72.472 158.98 72.216C158.575 71.96 158.111 71.832 157.588 71.832C157.076 71.832 156.618 71.96 156.212 72.216C155.807 72.472 155.487 72.8293 155.252 73.288C155.028 73.736 154.916 74.2373 154.916 74.792C154.916 75.3467 155.028 75.8533 155.252 76.312C155.487 76.76 155.807 77.112 156.212 77.368C156.618 77.624 157.076 77.752 157.588 77.752ZM168.164 70.424C168.441 70.424 168.681 70.4987 168.884 70.648C169.086 70.7867 169.188 70.9627 169.188 71.176C169.188 71.432 169.118 71.6293 168.98 71.768C168.852 71.896 168.692 71.96 168.5 71.96C168.404 71.96 168.26 71.928 168.068 71.864C167.844 71.7893 167.668 71.752 167.54 71.752C167.209 71.752 166.884 71.8693 166.564 72.104C166.254 72.328 165.998 72.6427 165.796 73.048C165.604 73.4427 165.508 73.8853 165.508 74.376V78.232C165.508 78.4453 165.433 78.6267 165.284 78.776C165.145 78.9253 164.964 79 164.74 79C164.516 79 164.334 78.9307 164.196 78.792C164.057 78.6427 163.988 78.456 163.988 78.232V71.384C163.988 71.1707 164.057 70.9893 164.196 70.84C164.345 70.6907 164.526 70.616 164.74 70.616C164.964 70.616 165.145 70.6907 165.284 70.84C165.433 70.9893 165.508 71.1707 165.508 71.384V72.2C165.742 71.6773 166.094 71.256 166.564 70.936C167.033 70.6053 167.566 70.4347 168.164 70.424ZM177.209 70.504C177.433 70.504 177.615 70.5787 177.753 70.728C177.903 70.8667 177.977 71.0533 177.977 71.288V78.232C177.977 78.4453 177.903 78.6267 177.753 78.776C177.615 78.9253 177.433 79 177.209 79C176.985 79 176.804 78.9307 176.665 78.792C176.527 78.6427 176.457 78.456 176.457 78.232V77.816C176.18 78.1893 175.801 78.5093 175.321 78.776C174.841 79.032 174.324 79.16 173.769 79.16C173.044 79.16 172.383 78.9733 171.785 78.6C171.199 78.2267 170.735 77.7093 170.393 77.048C170.063 76.376 169.897 75.624 169.897 74.792C169.897 73.96 170.063 73.2133 170.393 72.552C170.735 71.88 171.199 71.3573 171.785 70.984C172.372 70.6107 173.017 70.424 173.721 70.424C174.287 70.424 174.809 70.5413 175.289 70.776C175.78 71.0107 176.169 71.3093 176.457 71.672V71.288C176.457 71.064 176.527 70.8773 176.665 70.728C176.804 70.5787 176.985 70.504 177.209 70.504ZM173.945 77.752C174.447 77.752 174.889 77.624 175.273 77.368C175.668 77.112 175.972 76.76 176.185 76.312C176.409 75.864 176.521 75.3573 176.521 74.792C176.521 74.2373 176.409 73.736 176.185 73.288C175.972 72.84 175.668 72.488 175.273 72.232C174.889 71.9653 174.447 71.832 173.945 71.832C173.444 71.832 172.996 71.96 172.601 72.216C172.217 72.472 171.913 72.824 171.689 73.272C171.476 73.72 171.369 74.2267 171.369 74.792C171.369 75.3573 171.476 75.864 171.689 76.312C171.913 76.76 172.217 77.112 172.601 77.368C172.996 77.624 173.444 77.752 173.945 77.752ZM184.446 70.472C185.171 70.472 185.827 70.6587 186.414 71.032C187 71.3947 187.459 71.9067 187.79 72.568C188.131 73.2293 188.302 73.976 188.302 74.808C188.302 75.64 188.131 76.3867 187.79 77.048C187.459 77.6987 187 78.2107 186.414 78.584C185.827 78.9573 185.182 79.144 184.478 79.144C183.923 79.144 183.406 79.0213 182.926 78.776C182.446 78.5307 182.056 78.232 181.758 77.88V81.432C181.758 81.6453 181.683 81.8267 181.534 81.976C181.395 82.1253 181.214 82.2 180.99 82.2C180.776 82.2 180.595 82.1253 180.446 81.976C180.307 81.8373 180.238 81.656 180.238 81.432V71.368C180.238 71.144 180.307 70.9573 180.446 70.808C180.584 70.6587 180.766 70.584 180.99 70.584C181.214 70.584 181.395 70.6587 181.534 70.808C181.683 70.9573 181.758 71.144 181.758 71.368V71.832C182.014 71.4587 182.387 71.1387 182.878 70.872C183.368 70.6053 183.891 70.472 184.446 70.472ZM184.27 77.736C184.76 77.736 185.203 77.608 185.598 77.352C185.992 77.096 186.296 76.7493 186.51 76.312C186.734 75.864 186.846 75.3627 186.846 74.808C186.846 74.2533 186.734 73.7573 186.51 73.32C186.296 72.872 185.992 72.52 185.598 72.264C185.203 72.008 184.76 71.88 184.27 71.88C183.768 71.88 183.32 72.008 182.926 72.264C182.531 72.5093 182.222 72.856 181.998 73.304C181.784 73.752 181.678 74.2533 181.678 74.808C181.678 75.3627 181.784 75.864 181.998 76.312C182.222 76.76 182.531 77.112 182.926 77.368C183.32 77.6133 183.768 77.736 184.27 77.736ZM194.242 70.472C196.119 70.472 197.058 71.6347 197.058 73.96V78.232C197.058 78.4453 196.983 78.6267 196.834 78.776C196.695 78.9253 196.514 79 196.29 79C196.076 79 195.895 78.9253 195.746 78.776C195.607 78.6267 195.538 78.4453 195.538 78.232V73.96C195.538 72.5733 194.951 71.88 193.778 71.88C193.148 71.88 192.626 72.0827 192.21 72.488C191.794 72.8827 191.586 73.3733 191.586 73.96V78.232C191.586 78.4453 191.511 78.6267 191.362 78.776C191.223 78.9253 191.042 79 190.818 79C190.594 79 190.412 78.9307 190.274 78.792C190.135 78.6427 190.066 78.456 190.066 78.232V67.928C190.066 67.7147 190.135 67.5333 190.274 67.384C190.423 67.2347 190.604 67.16 190.818 67.16C191.042 67.16 191.223 67.2347 191.362 67.384C191.511 67.5333 191.586 67.7147 191.586 67.928V71.976C191.852 71.56 192.226 71.208 192.706 70.92C193.186 70.6213 193.698 70.472 194.242 70.472ZM31.1043 90.424C31.947 90.424 32.6456 90.5573 33.2003 90.824C33.7656 91.0907 34.0483 91.432 34.0483 91.848C34.0483 92.0293 33.9896 92.1947 33.8723 92.344C33.755 92.4827 33.6056 92.552 33.4243 92.552C33.2856 92.552 33.1736 92.5307 33.0883 92.488C33.0136 92.4453 32.907 92.376 32.7683 92.28C32.7043 92.216 32.603 92.1413 32.4643 92.056C32.3363 91.992 32.155 91.9387 31.9203 91.896C31.6856 91.8533 31.4723 91.832 31.2803 91.832C30.7256 91.832 30.235 91.96 29.8083 92.216C29.3816 92.472 29.051 92.8293 28.8163 93.288C28.5816 93.736 28.4643 94.2373 28.4643 94.792C28.4643 95.3573 28.5763 95.864 28.8003 96.312C29.035 96.76 29.3603 97.112 29.7763 97.368C30.1923 97.624 30.667 97.752 31.2003 97.752C31.755 97.752 32.203 97.6667 32.5443 97.496C32.619 97.4533 32.7203 97.384 32.8483 97.288C32.955 97.2027 33.0456 97.1387 33.1203 97.096C33.2056 97.0533 33.307 97.032 33.4243 97.032C33.6376 97.032 33.803 97.1013 33.9203 97.24C34.0483 97.368 34.1123 97.5387 34.1123 97.752C34.1123 97.976 33.9683 98.2 33.6803 98.424C33.403 98.6373 33.0243 98.8133 32.5443 98.952C32.075 99.0907 31.5683 99.16 31.0243 99.16C30.2136 99.16 29.499 98.9733 28.8803 98.6C28.2616 98.216 27.7816 97.6933 27.4403 97.032C27.1096 96.36 26.9443 95.6133 26.9443 94.792C26.9443 93.9707 27.1203 93.2293 27.4723 92.568C27.8243 91.896 28.315 91.3733 28.9443 91C29.5736 90.616 30.2936 90.424 31.1043 90.424ZM42.4751 90.504C42.6991 90.504 42.8804 90.5787 43.0191 90.728C43.1684 90.8667 43.2431 91.0533 43.2431 91.288V98.232C43.2431 98.4453 43.1684 98.6267 43.0191 98.776C42.8804 98.9253 42.6991 99 42.4751 99C42.2511 99 42.0697 98.9307 41.9311 98.792C41.7924 98.6427 41.7231 98.456 41.7231 98.232V97.816C41.4457 98.1893 41.0671 98.5093 40.5871 98.776C40.1071 99.032 39.5897 99.16 39.0351 99.16C38.3097 99.16 37.6484 98.9733 37.0511 98.6C36.4644 98.2267 36.0004 97.7093 35.6591 97.048C35.3284 96.376 35.1631 95.624 35.1631 94.792C35.1631 93.96 35.3284 93.2133 35.6591 92.552C36.0004 91.88 36.4644 91.3573 37.0511 90.984C37.6377 90.6107 38.2831 90.424 38.9871 90.424C39.5524 90.424 40.0751 90.5413 40.5551 90.776C41.0457 91.0107 41.4351 91.3093 41.7231 91.672V91.288C41.7231 91.064 41.7924 90.8773 41.9311 90.728C42.0697 90.5787 42.2511 90.504 42.4751 90.504ZM39.2111 97.752C39.7124 97.752 40.1551 97.624 40.5391 97.368C40.9337 97.112 41.2377 96.76 41.4511 96.312C41.6751 95.864 41.7871 95.3573 41.7871 94.792C41.7871 94.2373 41.6751 93.736 41.4511 93.288C41.2377 92.84 40.9337 92.488 40.5391 92.232C40.1551 91.9653 39.7124 91.832 39.2111 91.832C38.7097 91.832 38.2617 91.96 37.8671 92.216C37.4831 92.472 37.1791 92.824 36.9551 93.272C36.7417 93.72 36.6351 94.2267 36.6351 94.792C36.6351 95.3573 36.7417 95.864 36.9551 96.312C37.1791 96.76 37.4831 97.112 37.8671 97.368C38.2617 97.624 38.7097 97.752 39.2111 97.752ZM49.6792 90.424C49.9565 90.424 50.1965 90.4987 50.3992 90.648C50.6019 90.7867 50.7032 90.9627 50.7032 91.176C50.7032 91.432 50.6339 91.6293 50.4952 91.768C50.3672 91.896 50.2072 91.96 50.0152 91.96C49.9192 91.96 49.7752 91.928 49.5832 91.864C49.3592 91.7893 49.1832 91.752 49.0552 91.752C48.7245 91.752 48.3992 91.8693 48.0792 92.104C47.7699 92.328 47.5139 92.6427 47.3112 93.048C47.1192 93.4427 47.0232 93.8853 47.0232 94.376V98.232C47.0232 98.4453 46.9485 98.6267 46.7992 98.776C46.6605 98.9253 46.4792 99 46.2552 99C46.0312 99 45.8499 98.9307 45.7112 98.792C45.5725 98.6427 45.5032 98.456 45.5032 98.232V91.384C45.5032 91.1707 45.5725 90.9893 45.7112 90.84C45.8605 90.6907 46.0419 90.616 46.2552 90.616C46.4792 90.616 46.6605 90.6907 46.7992 90.84C46.9485 90.9893 47.0232 91.1707 47.0232 91.384V92.2C47.2579 91.6773 47.6099 91.256 48.0792 90.936C48.5485 90.6053 49.0819 90.4347 49.6792 90.424ZM59.1132 94.488C59.1025 94.68 59.0225 94.8453 58.8732 94.984C58.7239 95.112 58.5479 95.176 58.3452 95.176H52.7132C52.7879 95.9547 53.0812 96.5787 53.5932 97.048C54.1159 97.5173 54.7505 97.752 55.4972 97.752C56.0092 97.752 56.4252 97.6773 56.7452 97.528C57.0652 97.3787 57.3479 97.1867 57.5932 96.952C57.7532 96.856 57.9079 96.808 58.0572 96.808C58.2385 96.808 58.3879 96.872 58.5052 97C58.6332 97.128 58.6972 97.2773 58.6972 97.448C58.6972 97.672 58.5905 97.8747 58.3772 98.056C58.0679 98.3653 57.6572 98.6267 57.1452 98.84C56.6332 99.0533 56.1105 99.16 55.5772 99.16C54.7132 99.16 53.9505 98.9787 53.2892 98.616C52.6385 98.2533 52.1319 97.7467 51.7692 97.096C51.4172 96.4453 51.2412 95.7093 51.2412 94.888C51.2412 93.992 51.4225 93.208 51.7852 92.536C52.1585 91.8533 52.6439 91.3307 53.2412 90.968C53.8492 90.6053 54.4999 90.424 55.1932 90.424C55.8759 90.424 56.5159 90.6 57.1132 90.952C57.7105 91.304 58.1905 91.7893 58.5532 92.408C58.9159 93.0267 59.1025 93.72 59.1132 94.488ZM55.1932 91.832C54.5959 91.832 54.0785 92.0027 53.6412 92.344C53.2039 92.6747 52.9159 93.192 52.7772 93.896H57.4972V93.768C57.4439 93.2027 57.1879 92.7387 56.7292 92.376C56.2812 92.0133 55.7692 91.832 55.1932 91.832ZM64.4622 88.536C64.1102 88.536 63.8489 88.6427 63.6782 88.856C63.5182 89.0693 63.4382 89.3307 63.4382 89.64V90.76H65.0222C65.2355 90.76 65.4062 90.8293 65.5342 90.968C65.6729 91.096 65.7422 91.2613 65.7422 91.464C65.7422 91.6667 65.6729 91.832 65.5342 91.96C65.4062 92.088 65.2355 92.152 65.0222 92.152H63.4382V98.232C63.4382 98.4453 63.3635 98.6267 63.2142 98.776C63.0755 98.9253 62.8942 99 62.6702 99C62.4569 99 62.2755 98.9253 62.1262 98.776C61.9875 98.6267 61.9182 98.4453 61.9182 98.232V92.152H60.9262C60.7235 92.152 60.5529 92.088 60.4142 91.96C60.2755 91.832 60.2062 91.6667 60.2062 91.464C60.2062 91.2613 60.2755 91.096 60.4142 90.968C60.5529 90.8293 60.7235 90.76 60.9262 90.76H61.9182V89.64C61.9182 88.8933 62.1582 88.3013 62.6382 87.864C63.1182 87.416 63.7955 87.192 64.6702 87.192C65.0329 87.192 65.3529 87.2613 65.6302 87.4C65.9075 87.528 66.0462 87.7253 66.0462 87.992C66.0462 88.1947 65.9822 88.3653 65.8542 88.504C65.7369 88.632 65.5929 88.696 65.4222 88.696C65.3795 88.696 65.2622 88.6747 65.0702 88.632C64.8355 88.568 64.6329 88.536 64.4622 88.536ZM73.3526 90.616C73.5766 90.616 73.7579 90.6907 73.8966 90.84C74.0459 90.9893 74.1206 91.1707 74.1206 91.384V95.64C74.1206 96.7493 73.8112 97.6133 73.1926 98.232C72.5846 98.84 71.7206 99.144 70.6006 99.144C69.4912 99.144 68.6326 98.84 68.0246 98.232C67.4166 97.6133 67.1126 96.7493 67.1126 95.64V91.384C67.1126 91.1707 67.1819 90.9893 67.3206 90.84C67.4699 90.6907 67.6512 90.616 67.8646 90.616C68.0886 90.616 68.2699 90.6907 68.4086 90.84C68.5579 90.9893 68.6326 91.1707 68.6326 91.384V95.64C68.6326 97.0373 69.2886 97.736 70.6006 97.736C71.2512 97.736 71.7472 97.56 72.0886 97.208C72.4299 96.856 72.6006 96.3333 72.6006 95.64V91.384C72.6006 91.1707 72.6699 90.9893 72.8086 90.84C72.9579 90.6907 73.1392 90.616 73.3526 90.616ZM78.0418 98.232C78.0418 98.4453 77.9671 98.6267 77.8178 98.776C77.6685 98.9253 77.4871 99 77.2738 99C77.0605 99 76.8791 98.9253 76.7298 98.776C76.5911 98.6267 76.5218 98.4453 76.5218 98.232V87.928C76.5218 87.7147 76.5965 87.5333 76.7458 87.384C76.8951 87.2347 77.0765 87.16 77.2898 87.16C77.5031 87.16 77.6791 87.2347 77.8178 87.384C77.9671 87.5333 78.0418 87.7147 78.0418 87.928V98.232ZM82.0887 98.232C82.0887 98.4453 82.014 98.6267 81.8647 98.776C81.7154 98.9253 81.534 99 81.3207 99C81.1074 99 80.926 98.9253 80.7767 98.776C80.638 98.6267 80.5687 98.4453 80.5687 98.232V87.928C80.5687 87.7147 80.6434 87.5333 80.7927 87.384C80.942 87.2347 81.1234 87.16 81.3367 87.16C81.55 87.16 81.726 87.2347 81.8647 87.384C82.014 87.5333 82.0887 87.7147 82.0887 87.928V98.232ZM90.4932 90.536C90.7172 90.536 90.8985 90.6107 91.0372 90.76C91.1865 90.9093 91.2612 91.0907 91.2612 91.304V98.216C91.2612 99.5493 90.8932 100.547 90.1572 101.208C89.4212 101.869 88.4505 102.2 87.2452 102.2C86.8505 102.2 86.4612 102.163 86.0772 102.088C85.6932 102.013 85.3785 101.912 85.1332 101.784C84.7385 101.603 84.5412 101.357 84.5412 101.048C84.5412 100.995 84.5519 100.925 84.5732 100.84C84.6372 100.659 84.7279 100.52 84.8452 100.424C84.9625 100.328 85.0959 100.28 85.2452 100.28C85.3305 100.28 85.4105 100.296 85.4852 100.328C85.8159 100.477 86.1092 100.595 86.3652 100.68C86.6212 100.765 86.9199 100.808 87.2612 100.808C88.9145 100.808 89.7412 99.96 89.7412 98.264V97.944C89.4532 98.328 89.0799 98.6267 88.6212 98.84C88.1732 99.0533 87.6559 99.16 87.0692 99.16C86.1839 99.16 85.4905 98.8773 84.9892 98.312C84.4985 97.7467 84.2532 97.0053 84.2532 96.088V91.304C84.2532 91.08 84.3225 90.8987 84.4612 90.76C84.5999 90.6107 84.7812 90.536 85.0052 90.536C85.2292 90.536 85.4105 90.6107 85.5492 90.76C85.6985 90.9093 85.7732 91.0907 85.7732 91.304V95.688C85.7732 96.392 85.9279 96.9147 86.2372 97.256C86.5465 97.5867 87.0159 97.752 87.6452 97.752C88.2532 97.752 88.7545 97.56 89.1492 97.176C89.5439 96.792 89.7412 96.296 89.7412 95.688V91.304C89.7412 91.08 89.8105 90.8987 89.9492 90.76C90.0879 90.6107 90.2692 90.536 90.4932 90.536ZM95.4388 98.904C95.4388 99.1707 95.3535 99.4747 95.1828 99.816C95.0121 100.168 94.7935 100.467 94.5268 100.712C94.2708 100.957 94.0041 101.08 93.7268 101.08C93.5455 101.08 93.3961 101.032 93.2788 100.936C93.1615 100.851 93.1028 100.723 93.1028 100.552C93.1028 100.403 93.1401 100.296 93.2148 100.232C93.2895 100.179 93.3748 100.136 93.4708 100.104C93.5775 100.072 93.6575 100.045 93.7108 100.024C93.8601 99.9493 93.9721 99.848 94.0468 99.72C94.1321 99.6027 94.1748 99.4693 94.1748 99.32C94.1748 99.2027 94.1268 99.1013 94.0308 99.016C93.9348 98.9307 93.8121 98.888 93.6628 98.888C93.4921 98.888 93.3481 98.9307 93.2308 99.016C93.1241 98.9627 93.0441 98.8987 92.9908 98.824C92.9375 98.7387 92.9108 98.6267 92.9108 98.488C92.9215 98.232 93.0601 98.008 93.3268 97.816C93.5935 97.6133 93.8761 97.512 94.1748 97.512C94.5695 97.512 94.8788 97.6347 95.1028 97.88C95.3268 98.1253 95.4388 98.4667 95.4388 98.904ZM111.608 90.536C111.81 90.536 111.981 90.6107 112.12 90.76C112.269 90.8987 112.344 91.08 112.344 91.304C112.344 91.3787 112.322 91.48 112.28 91.608L109.832 98.52C109.768 98.6907 109.661 98.8187 109.512 98.904C109.362 98.9893 109.202 99.0213 109.032 99C108.744 98.9787 108.525 98.8187 108.376 98.52L106.712 94.168L105.176 98.52C105.112 98.6693 105.021 98.7867 104.904 98.872C104.786 98.9467 104.658 98.9893 104.52 99C104.36 99.0213 104.2 98.9893 104.04 98.904C103.89 98.808 103.789 98.68 103.736 98.52L101.256 91.608C101.224 91.512 101.208 91.4107 101.208 91.304C101.208 91.0907 101.277 90.9093 101.416 90.76C101.554 90.6107 101.736 90.536 101.96 90.536C102.322 90.536 102.557 90.696 102.664 91.016L104.568 96.408L106.088 92.424C106.216 92.104 106.45 91.944 106.792 91.944C107.112 91.944 107.33 92.104 107.448 92.424L109 96.344L110.872 91.016C110.989 90.696 111.234 90.536 111.608 90.536ZM121.348 94.488C121.337 94.68 121.257 94.8453 121.108 94.984C120.958 95.112 120.782 95.176 120.58 95.176H114.948C115.022 95.9547 115.316 96.5787 115.828 97.048C116.35 97.5173 116.985 97.752 117.732 97.752C118.244 97.752 118.66 97.6773 118.98 97.528C119.3 97.3787 119.582 97.1867 119.828 96.952C119.988 96.856 120.142 96.808 120.292 96.808C120.473 96.808 120.622 96.872 120.74 97C120.868 97.128 120.932 97.2773 120.932 97.448C120.932 97.672 120.825 97.8747 120.612 98.056C120.302 98.3653 119.892 98.6267 119.38 98.84C118.868 99.0533 118.345 99.16 117.812 99.16C116.948 99.16 116.185 98.9787 115.524 98.616C114.873 98.2533 114.366 97.7467 114.004 97.096C113.652 96.4453 113.476 95.7093 113.476 94.888C113.476 93.992 113.657 93.208 114.02 92.536C114.393 91.8533 114.878 91.3307 115.476 90.968C116.084 90.6053 116.734 90.424 117.428 90.424C118.11 90.424 118.75 90.6 119.348 90.952C119.945 91.304 120.425 91.7893 120.788 92.408C121.15 93.0267 121.337 93.72 121.348 94.488ZM117.428 91.832C116.83 91.832 116.313 92.0027 115.876 92.344C115.438 92.6747 115.15 93.192 115.012 93.896H119.732V93.768C119.678 93.2027 119.422 92.7387 118.964 92.376C118.516 92.0133 118.004 91.832 117.428 91.832ZM137.342 90.536C137.545 90.536 137.715 90.6107 137.854 90.76C138.003 90.8987 138.078 91.08 138.078 91.304C138.078 91.3787 138.057 91.48 138.014 91.608L135.566 98.52C135.502 98.6907 135.395 98.8187 135.246 98.904C135.097 98.9893 134.937 99.0213 134.766 99C134.478 98.9787 134.259 98.8187 134.11 98.52L132.446 94.168L130.91 98.52C130.846 98.6693 130.755 98.7867 130.638 98.872C130.521 98.9467 130.393 98.9893 130.254 99C130.094 99.0213 129.934 98.9893 129.774 98.904C129.625 98.808 129.523 98.68 129.47 98.52L126.99 91.608C126.958 91.512 126.942 91.4107 126.942 91.304C126.942 91.0907 127.011 90.9093 127.15 90.76C127.289 90.6107 127.47 90.536 127.694 90.536C128.057 90.536 128.291 90.696 128.398 91.016L130.302 96.408L131.822 92.424C131.95 92.104 132.185 91.944 132.526 91.944C132.846 91.944 133.065 92.104 133.182 92.424L134.734 96.344L136.606 91.016C136.723 90.696 136.969 90.536 137.342 90.536ZM141.162 98.232C141.162 98.4453 141.087 98.6267 140.938 98.776C140.799 98.9253 140.618 99 140.394 99C140.181 99 139.999 98.9253 139.85 98.776C139.711 98.6267 139.642 98.4453 139.642 98.232V91.304C139.642 91.0907 139.711 90.9093 139.85 90.76C139.999 90.6107 140.181 90.536 140.394 90.536C140.618 90.536 140.799 90.6107 140.938 90.76C141.087 90.9093 141.162 91.0907 141.162 91.304V98.232ZM140.394 89.48C140.085 89.48 139.861 89.4267 139.722 89.32C139.594 89.2027 139.53 89.0213 139.53 88.776V88.52C139.53 88.264 139.599 88.0827 139.738 87.976C139.887 87.8693 140.111 87.816 140.41 87.816C140.709 87.816 140.922 87.8747 141.05 87.992C141.189 88.0987 141.258 88.2747 141.258 88.52V88.776C141.258 89.032 141.189 89.2133 141.05 89.32C140.911 89.4267 140.693 89.48 140.394 89.48ZM144.995 98.232C144.995 98.4453 144.92 98.6267 144.771 98.776C144.622 98.9253 144.44 99 144.227 99C144.014 99 143.832 98.9253 143.683 98.776C143.544 98.6267 143.475 98.4453 143.475 98.232V87.928C143.475 87.7147 143.55 87.5333 143.699 87.384C143.848 87.2347 144.03 87.16 144.243 87.16C144.456 87.16 144.632 87.2347 144.771 87.384C144.92 87.5333 144.995 87.7147 144.995 87.928V98.232ZM149.042 98.232C149.042 98.4453 148.967 98.6267 148.818 98.776C148.668 98.9253 148.487 99 148.274 99C148.06 99 147.879 98.9253 147.73 98.776C147.591 98.6267 147.522 98.4453 147.522 98.232V87.928C147.522 87.7147 147.596 87.5333 147.746 87.384C147.895 87.2347 148.076 87.16 148.29 87.16C148.503 87.16 148.679 87.2347 148.818 87.384C148.967 87.5333 149.042 87.7147 149.042 87.928V98.232ZM162.678 90.504C162.902 90.504 163.084 90.5787 163.222 90.728C163.372 90.8667 163.446 91.0533 163.446 91.288V98.232C163.446 98.4453 163.372 98.6267 163.222 98.776C163.084 98.9253 162.902 99 162.678 99C162.454 99 162.273 98.9307 162.134 98.792C161.996 98.6427 161.926 98.456 161.926 98.232V97.816C161.649 98.1893 161.27 98.5093 160.79 98.776C160.31 99.032 159.793 99.16 159.238 99.16C158.513 99.16 157.852 98.9733 157.254 98.6C156.668 98.2267 156.204 97.7093 155.862 97.048C155.532 96.376 155.366 95.624 155.366 94.792C155.366 93.96 155.532 93.2133 155.862 92.552C156.204 91.88 156.668 91.3573 157.254 90.984C157.841 90.6107 158.486 90.424 159.19 90.424C159.756 90.424 160.278 90.5413 160.758 90.776C161.249 91.0107 161.638 91.3093 161.926 91.672V91.288C161.926 91.064 161.996 90.8773 162.134 90.728C162.273 90.5787 162.454 90.504 162.678 90.504ZM159.414 97.752C159.916 97.752 160.358 97.624 160.742 97.368C161.137 97.112 161.441 96.76 161.654 96.312C161.878 95.864 161.99 95.3573 161.99 94.792C161.99 94.2373 161.878 93.736 161.654 93.288C161.441 92.84 161.137 92.488 160.742 92.232C160.358 91.9653 159.916 91.832 159.414 91.832C158.913 91.832 158.465 91.96 158.07 92.216C157.686 92.472 157.382 92.824 157.158 93.272C156.945 93.72 156.838 94.2267 156.838 94.792C156.838 95.3573 156.945 95.864 157.158 96.312C157.382 96.76 157.686 97.112 158.07 97.368C158.465 97.624 158.913 97.752 159.414 97.752ZM165.226 97.688C165.13 97.5387 165.082 97.3947 165.082 97.256C165.082 97.0427 165.194 96.8613 165.418 96.712C165.525 96.6373 165.648 96.6 165.786 96.6C165.978 96.6 166.154 96.68 166.314 96.84C166.634 97.2027 166.976 97.4747 167.338 97.656C167.712 97.8373 168.154 97.928 168.666 97.928C169.072 97.9173 169.429 97.8267 169.738 97.656C170.048 97.4747 170.202 97.1867 170.202 96.792C170.202 96.4293 170.042 96.152 169.722 95.96C169.413 95.768 168.954 95.592 168.346 95.432C167.749 95.272 167.253 95.1067 166.858 94.936C166.464 94.7547 166.128 94.4987 165.85 94.168C165.584 93.8267 165.45 93.384 165.45 92.84C165.45 92.36 165.584 91.9387 165.85 91.576C166.128 91.2133 166.49 90.9307 166.938 90.728C167.397 90.5253 167.893 90.424 168.426 90.424C168.938 90.424 169.445 90.52 169.946 90.712C170.458 90.904 170.874 91.1973 171.194 91.592C171.322 91.7413 171.386 91.896 171.386 92.056C171.386 92.2267 171.301 92.392 171.13 92.552C171.024 92.648 170.89 92.696 170.73 92.696C170.538 92.696 170.384 92.632 170.266 92.504C170.042 92.248 169.765 92.0507 169.434 91.912C169.114 91.7733 168.757 91.704 168.362 91.704C167.957 91.704 167.61 91.7893 167.322 91.96C167.045 92.12 166.906 92.3973 166.906 92.792C166.917 93.1653 167.077 93.4427 167.386 93.624C167.706 93.8053 168.192 93.9813 168.842 94.152C169.408 94.3013 169.877 94.4613 170.25 94.632C170.624 94.8027 170.938 95.0587 171.194 95.4C171.45 95.7307 171.578 96.168 171.578 96.712C171.578 97.2133 171.434 97.6507 171.146 98.024C170.858 98.3867 170.48 98.6693 170.01 98.872C169.552 99.064 169.061 99.16 168.538 99.16C167.866 99.16 167.242 99.0427 166.666 98.808C166.101 98.5733 165.621 98.2 165.226 97.688ZM180.179 97.672C180.339 97.8427 180.419 98.0293 180.419 98.232C180.419 98.4453 180.334 98.6267 180.163 98.776C180.003 98.9147 179.833 98.984 179.651 98.984C179.417 98.984 179.23 98.8987 179.091 98.728L175.939 95.384L174.979 96.248V98.232C174.979 98.4453 174.905 98.6267 174.755 98.776C174.617 98.9253 174.441 99 174.227 99C174.003 99 173.817 98.9253 173.667 98.776C173.529 98.6267 173.459 98.4453 173.459 98.232V87.928C173.459 87.7147 173.529 87.5333 173.667 87.384C173.817 87.2347 174.003 87.16 174.227 87.16C174.441 87.16 174.617 87.2347 174.755 87.384C174.905 87.5333 174.979 87.7147 174.979 87.928V94.424L178.899 90.824C179.081 90.664 179.267 90.584 179.459 90.584C179.641 90.584 179.806 90.664 179.955 90.824C180.105 90.9733 180.179 91.1333 180.179 91.304C180.179 91.5173 180.078 91.7093 179.875 91.88L177.107 94.344L180.179 97.672ZM192.884 90.536C193.108 90.536 193.289 90.6107 193.428 90.76C193.577 90.9093 193.652 91.0907 193.652 91.304V98.216C193.652 99.5493 193.284 100.547 192.548 101.208C191.812 101.869 190.841 102.2 189.636 102.2C189.241 102.2 188.852 102.163 188.468 102.088C188.084 102.013 187.769 101.912 187.524 101.784C187.129 101.603 186.932 101.357 186.932 101.048C186.932 100.995 186.942 100.925 186.964 100.84C187.028 100.659 187.118 100.52 187.236 100.424C187.353 100.328 187.486 100.28 187.636 100.28C187.721 100.28 187.801 100.296 187.876 100.328C188.206 100.477 188.5 100.595 188.756 100.68C189.012 100.765 189.31 100.808 189.652 100.808C191.305 100.808 192.132 99.96 192.132 98.264V97.944C191.844 98.328 191.47 98.6267 191.012 98.84C190.564 99.0533 190.046 99.16 189.46 99.16C188.574 99.16 187.881 98.8773 187.38 98.312C186.889 97.7467 186.644 97.0053 186.644 96.088V91.304C186.644 91.08 186.713 90.8987 186.852 90.76C186.99 90.6107 187.172 90.536 187.396 90.536C187.62 90.536 187.801 90.6107 187.94 90.76C188.089 90.9093 188.164 91.0907 188.164 91.304V95.688C188.164 96.392 188.318 96.9147 188.628 97.256C188.937 97.5867 189.406 97.752 190.036 97.752C190.644 97.752 191.145 97.56 191.54 97.176C191.934 96.792 192.132 96.296 192.132 95.688V91.304C192.132 91.08 192.201 90.8987 192.34 90.76C192.478 90.6107 192.66 90.536 192.884 90.536ZM203.767 94.808C203.767 95.64 203.581 96.3867 203.207 97.048C202.834 97.7093 202.322 98.2267 201.671 98.6C201.031 98.9733 200.322 99.16 199.543 99.16C198.765 99.16 198.05 98.9733 197.399 98.6C196.759 98.2267 196.253 97.7093 195.879 97.048C195.506 96.3867 195.319 95.64 195.319 94.808C195.319 93.976 195.506 93.224 195.879 92.552C196.253 91.88 196.759 91.3573 197.399 90.984C198.05 90.6107 198.765 90.424 199.543 90.424C200.322 90.424 201.031 90.6107 201.671 90.984C202.322 91.3573 202.834 91.88 203.207 92.552C203.581 93.224 203.767 93.976 203.767 94.808ZM202.247 94.808C202.247 94.232 202.125 93.72 201.879 93.272C201.645 92.8133 201.319 92.4613 200.903 92.216C200.498 91.96 200.045 91.832 199.543 91.832C199.042 91.832 198.583 91.96 198.167 92.216C197.762 92.4613 197.437 92.8133 197.191 93.272C196.957 93.72 196.839 94.232 196.839 94.808C196.839 95.3733 196.957 95.88 197.191 96.328C197.437 96.776 197.762 97.128 198.167 97.384C198.583 97.6293 199.042 97.752 199.543 97.752C200.045 97.752 200.498 97.6293 200.903 97.384C201.319 97.128 201.645 96.776 201.879 96.328C202.125 95.88 202.247 95.3733 202.247 94.808ZM211.774 90.616C211.998 90.616 212.18 90.6907 212.318 90.84C212.468 90.9893 212.542 91.1707 212.542 91.384V95.64C212.542 96.7493 212.233 97.6133 211.614 98.232C211.006 98.84 210.142 99.144 209.022 99.144C207.913 99.144 207.054 98.84 206.446 98.232C205.838 97.6133 205.534 96.7493 205.534 95.64V91.384C205.534 91.1707 205.604 90.9893 205.742 90.84C205.892 90.6907 206.073 90.616 206.286 90.616C206.51 90.616 206.692 90.6907 206.83 90.84C206.98 90.9893 207.054 91.1707 207.054 91.384V95.64C207.054 97.0373 207.71 97.736 209.022 97.736C209.673 97.736 210.169 97.56 210.51 97.208C210.852 96.856 211.022 96.3333 211.022 95.64V91.384C211.022 91.1707 211.092 90.9893 211.23 90.84C211.38 90.6907 211.561 90.616 211.774 90.616ZM35.4763 117.688C35.3803 117.539 35.3323 117.395 35.3323 117.256C35.3323 117.043 35.4443 116.861 35.6683 116.712C35.775 116.637 35.8976 116.6 36.0363 116.6C36.2283 116.6 36.4043 116.68 36.5643 116.84C36.8843 117.203 37.2256 117.475 37.5883 117.656C37.9616 117.837 38.4043 117.928 38.9163 117.928C39.3216 117.917 39.679 117.827 39.9883 117.656C40.2976 117.475 40.4523 117.187 40.4523 116.792C40.4523 116.429 40.2923 116.152 39.9723 115.96C39.663 115.768 39.2043 115.592 38.5963 115.432C37.999 115.272 37.503 115.107 37.1083 114.936C36.7136 114.755 36.3776 114.499 36.1003 114.168C35.8336 113.827 35.7003 113.384 35.7003 112.84C35.7003 112.36 35.8336 111.939 36.1003 111.576C36.3776 111.213 36.7403 110.931 37.1883 110.728C37.647 110.525 38.143 110.424 38.6763 110.424C39.1883 110.424 39.695 110.52 40.1963 110.712C40.7083 110.904 41.1243 111.197 41.4443 111.592C41.5723 111.741 41.6363 111.896 41.6363 112.056C41.6363 112.227 41.551 112.392 41.3803 112.552C41.2736 112.648 41.1403 112.696 40.9803 112.696C40.7883 112.696 40.6336 112.632 40.5163 112.504C40.2923 112.248 40.015 112.051 39.6843 111.912C39.3643 111.773 39.007 111.704 38.6123 111.704C38.207 111.704 37.8603 111.789 37.5723 111.96C37.295 112.12 37.1563 112.397 37.1563 112.792C37.167 113.165 37.327 113.443 37.6363 113.624C37.9563 113.805 38.4416 113.981 39.0923 114.152C39.6576 114.301 40.127 114.461 40.5003 114.632C40.8736 114.803 41.1883 115.059 41.4443 115.4C41.7003 115.731 41.8283 116.168 41.8283 116.712C41.8283 117.213 41.6843 117.651 41.3963 118.024C41.1083 118.387 40.7296 118.669 40.2603 118.872C39.8016 119.064 39.311 119.16 38.7883 119.16C38.1163 119.16 37.4923 119.043 36.9163 118.808C36.351 118.573 35.871 118.2 35.4763 117.688ZM51.5173 114.808C51.5173 115.64 51.3306 116.387 50.9573 117.048C50.584 117.709 50.072 118.227 49.4213 118.6C48.7813 118.973 48.072 119.16 47.2933 119.16C46.5146 119.16 45.8 118.973 45.1493 118.6C44.5093 118.227 44.0026 117.709 43.6293 117.048C43.256 116.387 43.0693 115.64 43.0693 114.808C43.0693 113.976 43.256 113.224 43.6293 112.552C44.0026 111.88 44.5093 111.357 45.1493 110.984C45.8 110.611 46.5146 110.424 47.2933 110.424C48.072 110.424 48.7813 110.611 49.4213 110.984C50.072 111.357 50.584 111.88 50.9573 112.552C51.3306 113.224 51.5173 113.976 51.5173 114.808ZM49.9973 114.808C49.9973 114.232 49.8746 113.72 49.6293 113.272C49.3946 112.813 49.0693 112.461 48.6533 112.216C48.248 111.96 47.7946 111.832 47.2933 111.832C46.792 111.832 46.3333 111.96 45.9173 112.216C45.512 112.461 45.1866 112.813 44.9413 113.272C44.7066 113.72 44.5893 114.232 44.5893 114.808C44.5893 115.373 44.7066 115.88 44.9413 116.328C45.1866 116.776 45.512 117.128 45.9173 117.384C46.3333 117.629 46.792 117.752 47.2933 117.752C47.7946 117.752 48.248 117.629 48.6533 117.384C49.0693 117.128 49.3946 116.776 49.6293 116.328C49.8746 115.88 49.9973 115.373 49.9973 114.808ZM62.9004 110.472C64.7671 110.472 65.7004 111.635 65.7004 113.96V118.232C65.7004 118.456 65.6311 118.643 65.4924 118.792C65.3538 118.931 65.1724 119 64.9484 119C64.7244 119 64.5378 118.925 64.3884 118.776C64.2498 118.627 64.1804 118.445 64.1804 118.232V113.976C64.1804 112.579 63.5938 111.88 62.4204 111.88C62.0044 111.88 61.6258 111.976 61.2844 112.168C60.9538 112.349 60.6924 112.6 60.5004 112.92C60.3191 113.24 60.2284 113.592 60.2284 113.976V118.232C60.2284 118.445 60.1538 118.627 60.0044 118.776C59.8658 118.925 59.6844 119 59.4604 119C59.2364 119 59.0551 118.931 58.9164 118.792C58.7778 118.643 58.7084 118.456 58.7084 118.232V113.96C58.7084 113.331 58.5751 112.829 58.3084 112.456C58.0418 112.072 57.5991 111.88 56.9804 111.88C56.3511 111.88 55.8284 112.083 55.4124 112.488C55.0071 112.883 54.8044 113.373 54.8044 113.96V118.232C54.8044 118.445 54.7298 118.627 54.5804 118.776C54.4418 118.925 54.2604 119 54.0364 119C53.8124 119 53.6311 118.931 53.4924 118.792C53.3538 118.643 53.2844 118.456 53.2844 118.232V111.384C53.2844 111.171 53.3538 110.989 53.4924 110.84C53.6418 110.691 53.8231 110.616 54.0364 110.616C54.2604 110.616 54.4418 110.691 54.5804 110.84C54.7298 110.989 54.8044 111.171 54.8044 111.384V111.944C55.0818 111.528 55.4498 111.181 55.9084 110.904C56.3778 110.616 56.8844 110.472 57.4284 110.472C58.7511 110.472 59.6098 111.059 60.0044 112.232C60.2391 111.784 60.6284 111.379 61.1724 111.016C61.7164 110.653 62.2924 110.472 62.9004 110.472ZM75.3319 114.488C75.3213 114.68 75.2413 114.845 75.0919 114.984C74.9426 115.112 74.7666 115.176 74.5639 115.176H68.9319C69.0066 115.955 69.2999 116.579 69.8119 117.048C70.3346 117.517 70.9693 117.752 71.7159 117.752C72.2279 117.752 72.6439 117.677 72.9639 117.528C73.2839 117.379 73.5666 117.187 73.8119 116.952C73.9719 116.856 74.1266 116.808 74.2759 116.808C74.4573 116.808 74.6066 116.872 74.7239 117C74.8519 117.128 74.9159 117.277 74.9159 117.448C74.9159 117.672 74.8093 117.875 74.5959 118.056C74.2866 118.365 73.8759 118.627 73.3639 118.84C72.8519 119.053 72.3293 119.16 71.7959 119.16C70.9319 119.16 70.1693 118.979 69.5079 118.616C68.8573 118.253 68.3506 117.747 67.9879 117.096C67.6359 116.445 67.4599 115.709 67.4599 114.888C67.4599 113.992 67.6413 113.208 68.0039 112.536C68.3773 111.853 68.8626 111.331 69.4599 110.968C70.0679 110.605 70.7186 110.424 71.4119 110.424C72.0946 110.424 72.7346 110.6 73.3319 110.952C73.9293 111.304 74.4093 111.789 74.7719 112.408C75.1346 113.027 75.3213 113.72 75.3319 114.488ZM71.4119 111.832C70.8146 111.832 70.2973 112.003 69.8599 112.344C69.4226 112.675 69.1346 113.192 68.9959 113.896H73.7159V113.768C73.6626 113.203 73.4066 112.739 72.9479 112.376C72.4999 112.013 71.9879 111.832 71.4119 111.832ZM88.3344 110.584C88.5584 110.584 88.7398 110.659 88.8784 110.808C89.0278 110.947 89.1024 111.133 89.1024 111.368V121.432C89.1024 121.645 89.0278 121.827 88.8784 121.976C88.7398 122.125 88.5584 122.2 88.3344 122.2C88.1104 122.2 87.9291 122.125 87.7904 121.976C87.6518 121.837 87.5824 121.656 87.5824 121.432V117.784C87.3158 118.168 86.9371 118.493 86.4464 118.76C85.9664 119.027 85.4491 119.16 84.8944 119.16C84.1691 119.16 83.5131 118.973 82.9264 118.6C82.3398 118.227 81.8758 117.709 81.5344 117.048C81.1931 116.376 81.0224 115.624 81.0224 114.792C81.0224 113.96 81.1878 113.213 81.5184 112.552C81.8598 111.88 82.3238 111.357 82.9104 110.984C83.4971 110.611 84.1424 110.424 84.8464 110.424C85.4118 110.424 85.9344 110.541 86.4144 110.776C86.8944 111.011 87.2838 111.315 87.5824 111.688V111.368C87.5824 111.144 87.6518 110.957 87.7904 110.808C87.9291 110.659 88.1104 110.584 88.3344 110.584ZM85.0704 117.752C85.5718 117.752 86.0144 117.624 86.3984 117.368C86.7931 117.112 87.0971 116.76 87.3104 116.312C87.5344 115.864 87.6464 115.357 87.6464 114.792C87.6464 114.237 87.5344 113.736 87.3104 113.288C87.0971 112.829 86.7931 112.472 86.3984 112.216C86.0144 111.96 85.5718 111.832 85.0704 111.832C84.5691 111.832 84.1211 111.96 83.7264 112.216C83.3424 112.472 83.0384 112.829 82.8144 113.288C82.6011 113.736 82.4944 114.237 82.4944 114.792C82.4944 115.357 82.6011 115.864 82.8144 116.312C83.0384 116.76 83.3424 117.112 83.7264 117.368C84.1211 117.624 84.5691 117.752 85.0704 117.752ZM97.6026 110.616C97.8266 110.616 98.0079 110.691 98.1466 110.84C98.2959 110.989 98.3706 111.171 98.3706 111.384V115.64C98.3706 116.749 98.0612 117.613 97.4426 118.232C96.8346 118.84 95.9706 119.144 94.8506 119.144C93.7412 119.144 92.8826 118.84 92.2746 118.232C91.6666 117.613 91.3626 116.749 91.3626 115.64V111.384C91.3626 111.171 91.4319 110.989 91.5706 110.84C91.7199 110.691 91.9012 110.616 92.1146 110.616C92.3386 110.616 92.5199 110.691 92.6586 110.84C92.8079 110.989 92.8826 111.171 92.8826 111.384V115.64C92.8826 117.037 93.5386 117.736 94.8506 117.736C95.5012 117.736 95.9972 117.56 96.3386 117.208C96.6799 116.856 96.8506 116.333 96.8506 115.64V111.384C96.8506 111.171 96.9199 110.989 97.0586 110.84C97.2079 110.691 97.3892 110.616 97.6026 110.616ZM108.004 114.488C107.993 114.68 107.913 114.845 107.764 114.984C107.614 115.112 107.438 115.176 107.236 115.176H101.604C101.678 115.955 101.972 116.579 102.484 117.048C103.006 117.517 103.641 117.752 104.388 117.752C104.9 117.752 105.316 117.677 105.636 117.528C105.956 117.379 106.238 117.187 106.484 116.952C106.644 116.856 106.798 116.808 106.948 116.808C107.129 116.808 107.278 116.872 107.396 117C107.524 117.128 107.588 117.277 107.588 117.448C107.588 117.672 107.481 117.875 107.268 118.056C106.958 118.365 106.548 118.627 106.036 118.84C105.524 119.053 105.001 119.16 104.468 119.16C103.604 119.16 102.841 118.979 102.18 118.616C101.529 118.253 101.022 117.747 100.66 117.096C100.308 116.445 100.132 115.709 100.132 114.888C100.132 113.992 100.313 113.208 100.676 112.536C101.049 111.853 101.534 111.331 102.132 110.968C102.74 110.605 103.39 110.424 104.084 110.424C104.766 110.424 105.406 110.6 106.004 110.952C106.601 111.304 107.081 111.789 107.444 112.408C107.806 113.027 107.993 113.72 108.004 114.488ZM104.084 111.832C103.486 111.832 102.969 112.003 102.532 112.344C102.094 112.675 101.806 113.192 101.668 113.896H106.388V113.768C106.334 113.203 106.078 112.739 105.62 112.376C105.172 112.013 104.66 111.832 104.084 111.832ZM109.289 117.688C109.193 117.539 109.145 117.395 109.145 117.256C109.145 117.043 109.257 116.861 109.481 116.712C109.587 116.637 109.71 116.6 109.849 116.6C110.041 116.6 110.217 116.68 110.377 116.84C110.697 117.203 111.038 117.475 111.401 117.656C111.774 117.837 112.217 117.928 112.729 117.928C113.134 117.917 113.491 117.827 113.801 117.656C114.11 117.475 114.265 117.187 114.265 116.792C114.265 116.429 114.105 116.152 113.785 115.96C113.475 115.768 113.017 115.592 112.409 115.432C111.811 115.272 111.315 115.107 110.921 114.936C110.526 114.755 110.19 114.499 109.913 114.168C109.646 113.827 109.513 113.384 109.513 112.84C109.513 112.36 109.646 111.939 109.913 111.576C110.19 111.213 110.553 110.931 111.001 110.728C111.459 110.525 111.955 110.424 112.489 110.424C113.001 110.424 113.507 110.52 114.009 110.712C114.521 110.904 114.937 111.197 115.257 111.592C115.385 111.741 115.449 111.896 115.449 112.056C115.449 112.227 115.363 112.392 115.193 112.552C115.086 112.648 114.953 112.696 114.793 112.696C114.601 112.696 114.446 112.632 114.329 112.504C114.105 112.248 113.827 112.051 113.497 111.912C113.177 111.773 112.819 111.704 112.425 111.704C112.019 111.704 111.673 111.789 111.385 111.96C111.107 112.12 110.969 112.397 110.969 112.792C110.979 113.165 111.139 113.443 111.449 113.624C111.769 113.805 112.254 113.981 112.905 114.152C113.47 114.301 113.939 114.461 114.313 114.632C114.686 114.803 115.001 115.059 115.257 115.4C115.513 115.731 115.641 116.168 115.641 116.712C115.641 117.213 115.497 117.651 115.209 118.024C114.921 118.387 114.542 118.669 114.073 118.872C113.614 119.064 113.123 119.16 112.601 119.16C111.929 119.16 111.305 119.043 110.729 118.808C110.163 118.573 109.683 118.2 109.289 117.688ZM119.666 112.104V116.872C119.666 117.405 119.906 117.672 120.386 117.672C120.46 117.672 120.562 117.656 120.69 117.624C120.818 117.581 120.919 117.56 120.994 117.56C121.132 117.56 121.25 117.619 121.346 117.736C121.442 117.853 121.49 118.003 121.49 118.184C121.49 118.408 121.362 118.6 121.106 118.76C120.85 118.92 120.562 119 120.242 119C119.89 119 119.564 118.963 119.266 118.888C118.978 118.813 118.716 118.627 118.482 118.328C118.258 118.019 118.146 117.555 118.146 116.936V112.104H117.218C117.015 112.104 116.844 112.04 116.706 111.912C116.578 111.773 116.514 111.603 116.514 111.4C116.514 111.197 116.578 111.032 116.706 110.904C116.844 110.776 117.015 110.712 117.218 110.712H118.146V109.368C118.146 109.155 118.215 108.973 118.354 108.824C118.503 108.675 118.69 108.6 118.914 108.6C119.127 108.6 119.303 108.675 119.442 108.824C119.591 108.973 119.666 109.155 119.666 109.368V110.712H120.994C121.196 110.712 121.362 110.781 121.49 110.92C121.628 111.048 121.698 111.213 121.698 111.416C121.698 111.619 121.628 111.784 121.49 111.912C121.362 112.04 121.196 112.104 120.994 112.104H119.666ZM124.912 118.232C124.912 118.445 124.837 118.627 124.688 118.776C124.549 118.925 124.368 119 124.144 119C123.931 119 123.749 118.925 123.6 118.776C123.461 118.627 123.392 118.445 123.392 118.232V111.304C123.392 111.091 123.461 110.909 123.6 110.76C123.749 110.611 123.931 110.536 124.144 110.536C124.368 110.536 124.549 110.611 124.688 110.76C124.837 110.909 124.912 111.091 124.912 111.304V118.232ZM124.144 109.48C123.835 109.48 123.611 109.427 123.472 109.32C123.344 109.203 123.28 109.021 123.28 108.776V108.52C123.28 108.264 123.349 108.083 123.488 107.976C123.637 107.869 123.861 107.816 124.16 107.816C124.459 107.816 124.672 107.875 124.8 107.992C124.939 108.099 125.008 108.275 125.008 108.52V108.776C125.008 109.032 124.939 109.213 124.8 109.32C124.661 109.427 124.443 109.48 124.144 109.48ZM135.033 114.808C135.033 115.64 134.846 116.387 134.473 117.048C134.1 117.709 133.588 118.227 132.937 118.6C132.297 118.973 131.588 119.16 130.809 119.16C130.03 119.16 129.316 118.973 128.665 118.6C128.025 118.227 127.518 117.709 127.145 117.048C126.772 116.387 126.585 115.64 126.585 114.808C126.585 113.976 126.772 113.224 127.145 112.552C127.518 111.88 128.025 111.357 128.665 110.984C129.316 110.611 130.03 110.424 130.809 110.424C131.588 110.424 132.297 110.611 132.937 110.984C133.588 111.357 134.1 111.88 134.473 112.552C134.846 113.224 135.033 113.976 135.033 114.808ZM133.513 114.808C133.513 114.232 133.39 113.72 133.145 113.272C132.91 112.813 132.585 112.461 132.169 112.216C131.764 111.96 131.31 111.832 130.809 111.832C130.308 111.832 129.849 111.96 129.433 112.216C129.028 112.461 128.702 112.813 128.457 113.272C128.222 113.72 128.105 114.232 128.105 114.808C128.105 115.373 128.222 115.88 128.457 116.328C128.702 116.776 129.028 117.128 129.433 117.384C129.849 117.629 130.308 117.752 130.809 117.752C131.31 117.752 131.764 117.629 132.169 117.384C132.585 117.128 132.91 116.776 133.145 116.328C133.39 115.88 133.513 115.373 133.513 114.808ZM141.072 110.424C142.992 110.424 143.952 111.576 143.952 113.88V118.232C143.952 118.445 143.877 118.627 143.728 118.776C143.589 118.925 143.408 119 143.184 119C142.971 119 142.789 118.925 142.64 118.776C142.501 118.627 142.432 118.445 142.432 118.232V113.896C142.432 113.267 142.288 112.765 142 112.392C141.712 112.019 141.243 111.832 140.592 111.832C140.165 111.832 139.776 111.928 139.424 112.12C139.083 112.301 138.811 112.552 138.608 112.872C138.416 113.181 138.32 113.523 138.32 113.896V118.232C138.32 118.445 138.245 118.627 138.096 118.776C137.957 118.925 137.776 119 137.552 119C137.328 119 137.147 118.931 137.008 118.792C136.869 118.643 136.8 118.456 136.8 118.232V111.384C136.8 111.171 136.869 110.989 137.008 110.84C137.157 110.691 137.339 110.616 137.552 110.616C137.776 110.616 137.957 110.691 138.096 110.84C138.245 110.989 138.32 111.171 138.32 111.384V111.944C138.597 111.517 138.981 111.16 139.472 110.872C139.973 110.573 140.507 110.424 141.072 110.424ZM145.742 117.688C145.646 117.539 145.598 117.395 145.598 117.256C145.598 117.043 145.71 116.861 145.934 116.712C146.041 116.637 146.163 116.6 146.302 116.6C146.494 116.6 146.67 116.68 146.83 116.84C147.15 117.203 147.491 117.475 147.854 117.656C148.227 117.837 148.67 117.928 149.182 117.928C149.587 117.917 149.945 117.827 150.254 117.656C150.563 117.475 150.718 117.187 150.718 116.792C150.718 116.429 150.558 116.152 150.238 115.96C149.929 115.768 149.47 115.592 148.862 115.432C148.265 115.272 147.769 115.107 147.374 114.936C146.979 114.755 146.643 114.499 146.366 114.168C146.099 113.827 145.966 113.384 145.966 112.84C145.966 112.36 146.099 111.939 146.366 111.576C146.643 111.213 147.006 110.931 147.454 110.728C147.913 110.525 148.409 110.424 148.942 110.424C149.454 110.424 149.961 110.52 150.462 110.712C150.974 110.904 151.39 111.197 151.71 111.592C151.838 111.741 151.902 111.896 151.902 112.056C151.902 112.227 151.817 112.392 151.646 112.552C151.539 112.648 151.406 112.696 151.246 112.696C151.054 112.696 150.899 112.632 150.782 112.504C150.558 112.248 150.281 112.051 149.95 111.912C149.63 111.773 149.273 111.704 148.878 111.704C148.473 111.704 148.126 111.789 147.838 111.96C147.561 112.12 147.422 112.397 147.422 112.792C147.433 113.165 147.593 113.443 147.902 113.624C148.222 113.805 148.707 113.981 149.358 114.152C149.923 114.301 150.393 114.461 150.766 114.632C151.139 114.803 151.454 115.059 151.71 115.4C151.966 115.731 152.094 116.168 152.094 116.712C152.094 117.213 151.95 117.651 151.662 118.024C151.374 118.387 150.995 118.669 150.526 118.872C150.067 119.064 149.577 119.16 149.054 119.16C148.382 119.16 147.758 119.043 147.182 118.808C146.617 118.573 146.137 118.2 145.742 117.688ZM166.22 114.808C166.22 115.64 166.034 116.387 165.66 117.048C165.287 117.709 164.775 118.227 164.124 118.6C163.484 118.973 162.775 119.16 161.996 119.16C161.218 119.16 160.503 118.973 159.852 118.6C159.212 118.227 158.706 117.709 158.332 117.048C157.959 116.387 157.772 115.64 157.772 114.808C157.772 113.976 157.959 113.224 158.332 112.552C158.706 111.88 159.212 111.357 159.852 110.984C160.503 110.611 161.218 110.424 161.996 110.424C162.775 110.424 163.484 110.611 164.124 110.984C164.775 111.357 165.287 111.88 165.66 112.552C166.034 113.224 166.22 113.976 166.22 114.808ZM164.7 114.808C164.7 114.232 164.578 113.72 164.332 113.272C164.098 112.813 163.772 112.461 163.356 112.216C162.951 111.96 162.498 111.832 161.996 111.832C161.495 111.832 161.036 111.96 160.62 112.216C160.215 112.461 159.89 112.813 159.644 113.272C159.41 113.72 159.292 114.232 159.292 114.808C159.292 115.373 159.41 115.88 159.644 116.328C159.89 116.776 160.215 117.128 160.62 117.384C161.036 117.629 161.495 117.752 161.996 117.752C162.498 117.752 162.951 117.629 163.356 117.384C163.772 117.128 164.098 116.776 164.332 116.328C164.578 115.88 164.7 115.373 164.7 114.808ZM172.26 110.424C174.18 110.424 175.14 111.576 175.14 113.88V118.232C175.14 118.445 175.065 118.627 174.916 118.776C174.777 118.925 174.596 119 174.372 119C174.158 119 173.977 118.925 173.828 118.776C173.689 118.627 173.62 118.445 173.62 118.232V113.896C173.62 113.267 173.476 112.765 173.188 112.392C172.9 112.019 172.43 111.832 171.78 111.832C171.353 111.832 170.964 111.928 170.612 112.12C170.27 112.301 169.998 112.552 169.796 112.872C169.604 113.181 169.508 113.523 169.508 113.896V118.232C169.508 118.445 169.433 118.627 169.284 118.776C169.145 118.925 168.964 119 168.74 119C168.516 119 168.334 118.931 168.196 118.792C168.057 118.643 167.988 118.456 167.988 118.232V111.384C167.988 111.171 168.057 110.989 168.196 110.84C168.345 110.691 168.526 110.616 168.74 110.616C168.964 110.616 169.145 110.691 169.284 110.84C169.433 110.989 169.508 111.171 169.508 111.384V111.944C169.785 111.517 170.169 111.16 170.66 110.872C171.161 110.573 171.694 110.424 172.26 110.424ZM184.119 112.104V116.872C184.119 117.405 184.359 117.672 184.839 117.672C184.914 117.672 185.015 117.656 185.143 117.624C185.271 117.581 185.372 117.56 185.447 117.56C185.586 117.56 185.703 117.619 185.799 117.736C185.895 117.853 185.943 118.003 185.943 118.184C185.943 118.408 185.815 118.6 185.559 118.76C185.303 118.92 185.015 119 184.695 119C184.343 119 184.018 118.963 183.719 118.888C183.431 118.813 183.17 118.627 182.935 118.328C182.711 118.019 182.599 117.555 182.599 116.936V112.104H181.671C181.468 112.104 181.298 112.04 181.159 111.912C181.031 111.773 180.967 111.603 180.967 111.4C180.967 111.197 181.031 111.032 181.159 110.904C181.298 110.776 181.468 110.712 181.671 110.712H182.599V109.368C182.599 109.155 182.668 108.973 182.807 108.824C182.956 108.675 183.143 108.6 183.367 108.6C183.58 108.6 183.756 108.675 183.895 108.824C184.044 108.973 184.119 109.155 184.119 109.368V110.712H185.447C185.65 110.712 185.815 110.781 185.943 110.92C186.082 111.048 186.151 111.213 186.151 111.416C186.151 111.619 186.082 111.784 185.943 111.912C185.815 112.04 185.65 112.104 185.447 112.104H184.119ZM192.101 110.472C193.978 110.472 194.917 111.635 194.917 113.96V118.232C194.917 118.445 194.842 118.627 194.693 118.776C194.554 118.925 194.373 119 194.149 119C193.936 119 193.754 118.925 193.605 118.776C193.466 118.627 193.397 118.445 193.397 118.232V113.96C193.397 112.573 192.81 111.88 191.637 111.88C191.008 111.88 190.485 112.083 190.069 112.488C189.653 112.883 189.445 113.373 189.445 113.96V118.232C189.445 118.445 189.37 118.627 189.221 118.776C189.082 118.925 188.901 119 188.677 119C188.453 119 188.272 118.931 188.133 118.792C187.994 118.643 187.925 118.456 187.925 118.232V107.928C187.925 107.715 187.994 107.533 188.133 107.384C188.282 107.235 188.464 107.16 188.677 107.16C188.901 107.16 189.082 107.235 189.221 107.384C189.37 107.533 189.445 107.715 189.445 107.928V111.976C189.712 111.56 190.085 111.208 190.565 110.92C191.045 110.621 191.557 110.472 192.101 110.472ZM204.551 114.488C204.54 114.68 204.46 114.845 204.311 114.984C204.161 115.112 203.985 115.176 203.783 115.176H198.151C198.225 115.955 198.519 116.579 199.031 117.048C199.553 117.517 200.188 117.752 200.935 117.752C201.447 117.752 201.863 117.677 202.183 117.528C202.503 117.379 202.785 117.187 203.031 116.952C203.191 116.856 203.345 116.808 203.495 116.808C203.676 116.808 203.825 116.872 203.943 117C204.071 117.128 204.135 117.277 204.135 117.448C204.135 117.672 204.028 117.875 203.815 118.056C203.505 118.365 203.095 118.627 202.583 118.84C202.071 119.053 201.548 119.16 201.015 119.16C200.151 119.16 199.388 118.979 198.727 118.616C198.076 118.253 197.569 117.747 197.207 117.096C196.855 116.445 196.679 115.709 196.679 114.888C196.679 113.992 196.86 113.208 197.223 112.536C197.596 111.853 198.081 111.331 198.679 110.968C199.287 110.605 199.937 110.424 200.631 110.424C201.313 110.424 201.953 110.6 202.551 110.952C203.148 111.304 203.628 111.789 203.991 112.408C204.353 113.027 204.54 113.72 204.551 114.488ZM200.631 111.832C200.033 111.832 199.516 112.003 199.079 112.344C198.641 112.675 198.353 113.192 198.215 113.896H202.935V113.768C202.881 113.203 202.625 112.739 202.167 112.376C201.719 112.013 201.207 111.832 200.631 111.832ZM35.7503 130.424C36.4756 130.424 37.1316 130.611 37.7183 130.984C38.3049 131.357 38.7636 131.875 39.0943 132.536C39.4356 133.197 39.6063 133.944 39.6063 134.776C39.6063 135.608 39.4356 136.36 39.0943 137.032C38.7636 137.704 38.3049 138.227 37.7183 138.6C37.1316 138.973 36.4863 139.16 35.7823 139.16C35.2276 139.16 34.7103 139.037 34.2303 138.792C33.7503 138.547 33.3609 138.243 33.0623 137.88V138.344C33.0623 138.557 32.9876 138.739 32.8383 138.888C32.6996 139.037 32.5183 139.112 32.2943 139.112C32.0809 139.112 31.8996 139.043 31.7503 138.904C31.6116 138.755 31.5423 138.568 31.5423 138.344V127.928C31.5423 127.704 31.6116 127.523 31.7503 127.384C31.8889 127.235 32.0703 127.16 32.2943 127.16C32.5183 127.16 32.6996 127.235 32.8383 127.384C32.9876 127.533 33.0623 127.715 33.0623 127.928V131.832C33.3183 131.448 33.6916 131.117 34.1823 130.84C34.6729 130.563 35.1956 130.424 35.7503 130.424ZM35.5743 137.752C36.0649 137.752 36.5076 137.624 36.9023 137.368C37.2969 137.101 37.6009 136.744 37.8143 136.296C38.0383 135.837 38.1503 135.331 38.1503 134.776C38.1503 134.221 38.0383 133.72 37.8143 133.272C37.6009 132.824 37.2969 132.472 36.9023 132.216C36.5076 131.96 36.0649 131.832 35.5743 131.832C35.0729 131.832 34.6249 131.96 34.2303 132.216C33.8356 132.472 33.5263 132.824 33.3023 133.272C33.0889 133.709 32.9823 134.211 32.9823 134.776C32.9823 135.341 33.0889 135.848 33.3023 136.296C33.5263 136.744 33.8356 137.101 34.2303 137.368C34.6249 137.624 35.0729 137.752 35.5743 137.752ZM48.1704 130.504C48.3944 130.504 48.5757 130.579 48.7144 130.728C48.8637 130.867 48.9384 131.053 48.9384 131.288V138.232C48.9384 138.445 48.8637 138.627 48.7144 138.776C48.5757 138.925 48.3944 139 48.1704 139C47.9464 139 47.765 138.931 47.6264 138.792C47.4877 138.643 47.4184 138.456 47.4184 138.232V137.816C47.141 138.189 46.7624 138.509 46.2824 138.776C45.8024 139.032 45.285 139.16 44.7304 139.16C44.005 139.16 43.3437 138.973 42.7464 138.6C42.1597 138.227 41.6957 137.709 41.3544 137.048C41.0237 136.376 40.8584 135.624 40.8584 134.792C40.8584 133.96 41.0237 133.213 41.3544 132.552C41.6957 131.88 42.1597 131.357 42.7464 130.984C43.333 130.611 43.9784 130.424 44.6824 130.424C45.2477 130.424 45.7704 130.541 46.2504 130.776C46.741 131.011 47.1304 131.309 47.4184 131.672V131.288C47.4184 131.064 47.4877 130.877 47.6264 130.728C47.765 130.579 47.9464 130.504 48.1704 130.504ZM44.9064 137.752C45.4077 137.752 45.8504 137.624 46.2344 137.368C46.629 137.112 46.933 136.76 47.1464 136.312C47.3704 135.864 47.4824 135.357 47.4824 134.792C47.4824 134.237 47.3704 133.736 47.1464 133.288C46.933 132.84 46.629 132.488 46.2344 132.232C45.8504 131.965 45.4077 131.832 44.9064 131.832C44.405 131.832 43.957 131.96 43.5624 132.216C43.1784 132.472 42.8744 132.824 42.6504 133.272C42.437 133.72 42.3304 134.227 42.3304 134.792C42.3304 135.357 42.437 135.864 42.6504 136.312C42.8744 136.76 43.1784 137.112 43.5624 137.368C43.957 137.624 44.405 137.752 44.9064 137.752ZM50.7185 137.688C50.6225 137.539 50.5745 137.395 50.5745 137.256C50.5745 137.043 50.6865 136.861 50.9105 136.712C51.0172 136.637 51.1398 136.6 51.2785 136.6C51.4705 136.6 51.6465 136.68 51.8065 136.84C52.1265 137.203 52.4678 137.475 52.8305 137.656C53.2038 137.837 53.6465 137.928 54.1585 137.928C54.5638 137.917 54.9212 137.827 55.2305 137.656C55.5398 137.475 55.6945 137.187 55.6945 136.792C55.6945 136.429 55.5345 136.152 55.2145 135.96C54.9052 135.768 54.4465 135.592 53.8385 135.432C53.2412 135.272 52.7452 135.107 52.3505 134.936C51.9558 134.755 51.6198 134.499 51.3425 134.168C51.0758 133.827 50.9425 133.384 50.9425 132.84C50.9425 132.36 51.0758 131.939 51.3425 131.576C51.6198 131.213 51.9825 130.931 52.4305 130.728C52.8892 130.525 53.3852 130.424 53.9185 130.424C54.4305 130.424 54.9372 130.52 55.4385 130.712C55.9505 130.904 56.3665 131.197 56.6865 131.592C56.8145 131.741 56.8785 131.896 56.8785 132.056C56.8785 132.227 56.7932 132.392 56.6225 132.552C56.5158 132.648 56.3825 132.696 56.2225 132.696C56.0305 132.696 55.8758 132.632 55.7585 132.504C55.5345 132.248 55.2572 132.051 54.9265 131.912C54.6065 131.773 54.2492 131.704 53.8545 131.704C53.4492 131.704 53.1025 131.789 52.8145 131.96C52.5372 132.12 52.3985 132.397 52.3985 132.792C52.4092 133.165 52.5692 133.443 52.8785 133.624C53.1985 133.805 53.6838 133.981 54.3345 134.152C54.8998 134.301 55.3692 134.461 55.7425 134.632C56.1158 134.803 56.4305 135.059 56.6865 135.4C56.9425 135.731 57.0705 136.168 57.0705 136.712C57.0705 137.213 56.9265 137.651 56.6385 138.024C56.3505 138.387 55.9718 138.669 55.5025 138.872C55.0438 139.064 54.5532 139.16 54.0305 139.16C53.3585 139.16 52.7345 139.043 52.1585 138.808C51.5932 138.573 51.1132 138.2 50.7185 137.688ZM60.2635 138.232C60.2635 138.445 60.1888 138.627 60.0395 138.776C59.9008 138.925 59.7195 139 59.4955 139C59.2822 139 59.1008 138.925 58.9515 138.776C58.8128 138.627 58.7435 138.445 58.7435 138.232V131.304C58.7435 131.091 58.8128 130.909 58.9515 130.76C59.1008 130.611 59.2822 130.536 59.4955 130.536C59.7195 130.536 59.9008 130.611 60.0395 130.76C60.1888 130.909 60.2635 131.091 60.2635 131.304V138.232ZM59.4955 129.48C59.1862 129.48 58.9622 129.427 58.8235 129.32C58.6955 129.203 58.6315 129.021 58.6315 128.776V128.52C58.6315 128.264 58.7008 128.083 58.8395 127.976C58.9888 127.869 59.2128 127.816 59.5115 127.816C59.8102 127.816 60.0235 127.875 60.1515 127.992C60.2902 128.099 60.3595 128.275 60.3595 128.52V128.776C60.3595 129.032 60.2902 129.213 60.1515 129.32C60.0128 129.427 59.7942 129.48 59.4955 129.48ZM61.9685 137.688C61.8725 137.539 61.8245 137.395 61.8245 137.256C61.8245 137.043 61.9365 136.861 62.1605 136.712C62.2672 136.637 62.3898 136.6 62.5285 136.6C62.7205 136.6 62.8965 136.68 63.0565 136.84C63.3765 137.203 63.7178 137.475 64.0805 137.656C64.4538 137.837 64.8965 137.928 65.4085 137.928C65.8138 137.917 66.1712 137.827 66.4805 137.656C66.7898 137.475 66.9445 137.187 66.9445 136.792C66.9445 136.429 66.7845 136.152 66.4645 135.96C66.1552 135.768 65.6965 135.592 65.0885 135.432C64.4912 135.272 63.9952 135.107 63.6005 134.936C63.2058 134.755 62.8698 134.499 62.5925 134.168C62.3258 133.827 62.1925 133.384 62.1925 132.84C62.1925 132.36 62.3258 131.939 62.5925 131.576C62.8698 131.213 63.2325 130.931 63.6805 130.728C64.1392 130.525 64.6352 130.424 65.1685 130.424C65.6805 130.424 66.1872 130.52 66.6885 130.712C67.2005 130.904 67.6165 131.197 67.9365 131.592C68.0645 131.741 68.1285 131.896 68.1285 132.056C68.1285 132.227 68.0432 132.392 67.8725 132.552C67.7658 132.648 67.6325 132.696 67.4725 132.696C67.2805 132.696 67.1258 132.632 67.0085 132.504C66.7845 132.248 66.5072 132.051 66.1765 131.912C65.8565 131.773 65.4992 131.704 65.1045 131.704C64.6992 131.704 64.3525 131.789 64.0645 131.96C63.7872 132.12 63.6485 132.397 63.6485 132.792C63.6592 133.165 63.8192 133.443 64.1285 133.624C64.4485 133.805 64.9338 133.981 65.5845 134.152C66.1498 134.301 66.6192 134.461 66.9925 134.632C67.3658 134.803 67.6805 135.059 67.9365 135.4C68.1925 135.731 68.3205 136.168 68.3205 136.712C68.3205 137.213 68.1765 137.651 67.8885 138.024C67.6005 138.387 67.2218 138.669 66.7525 138.872C66.2938 139.064 65.8032 139.16 65.2805 139.16C64.6085 139.16 63.9845 139.043 63.4085 138.808C62.8432 138.573 62.3632 138.2 61.9685 137.688ZM82.447 134.808C82.447 135.64 82.2603 136.387 81.887 137.048C81.5137 137.709 81.0017 138.227 80.351 138.6C79.711 138.973 79.0017 139.16 78.223 139.16C77.4443 139.16 76.7297 138.973 76.079 138.6C75.439 138.227 74.9323 137.709 74.559 137.048C74.1857 136.387 73.999 135.64 73.999 134.808C73.999 133.976 74.1857 133.224 74.559 132.552C74.9323 131.88 75.439 131.357 76.079 130.984C76.7297 130.611 77.4443 130.424 78.223 130.424C79.0017 130.424 79.711 130.611 80.351 130.984C81.0017 131.357 81.5137 131.88 81.887 132.552C82.2603 133.224 82.447 133.976 82.447 134.808ZM80.927 134.808C80.927 134.232 80.8043 133.72 80.559 133.272C80.3243 132.813 79.999 132.461 79.583 132.216C79.1777 131.96 78.7243 131.832 78.223 131.832C77.7217 131.832 77.263 131.96 76.847 132.216C76.4417 132.461 76.1163 132.813 75.871 133.272C75.6363 133.72 75.519 134.232 75.519 134.808C75.519 135.373 75.6363 135.88 75.871 136.328C76.1163 136.776 76.4417 137.128 76.847 137.384C77.263 137.629 77.7217 137.752 78.223 137.752C78.7243 137.752 79.1777 137.629 79.583 137.384C79.999 137.128 80.3243 136.776 80.559 136.328C80.8043 135.88 80.927 135.373 80.927 134.808ZM87.7981 128.536C87.4461 128.536 87.1848 128.643 87.0141 128.856C86.8541 129.069 86.7741 129.331 86.7741 129.64V130.76H88.3581C88.5715 130.76 88.7421 130.829 88.8701 130.968C89.0088 131.096 89.0781 131.261 89.0781 131.464C89.0781 131.667 89.0088 131.832 88.8701 131.96C88.7421 132.088 88.5715 132.152 88.3581 132.152H86.7741V138.232C86.7741 138.445 86.6995 138.627 86.5501 138.776C86.4115 138.925 86.2301 139 86.0061 139C85.7928 139 85.6115 138.925 85.4621 138.776C85.3235 138.627 85.2541 138.445 85.2541 138.232V132.152H84.2621C84.0595 132.152 83.8888 132.088 83.7501 131.96C83.6115 131.832 83.5421 131.667 83.5421 131.464C83.5421 131.261 83.6115 131.096 83.7501 130.968C83.8888 130.829 84.0595 130.76 84.2621 130.76H85.2541V129.64C85.2541 128.893 85.4941 128.301 85.9741 127.864C86.4541 127.416 87.1315 127.192 88.0061 127.192C88.3688 127.192 88.6888 127.261 88.9661 127.4C89.2435 127.528 89.3821 127.725 89.3821 127.992C89.3821 128.195 89.3181 128.365 89.1901 128.504C89.0728 128.632 88.9288 128.696 88.7581 128.696C88.7155 128.696 88.5981 128.675 88.4061 128.632C88.1715 128.568 87.9688 128.536 87.7981 128.536ZM97.158 132.104V136.872C97.158 137.405 97.398 137.672 97.878 137.672C97.9527 137.672 98.054 137.656 98.182 137.624C98.31 137.581 98.4113 137.56 98.486 137.56C98.6247 137.56 98.742 137.619 98.838 137.736C98.934 137.853 98.982 138.003 98.982 138.184C98.982 138.408 98.854 138.6 98.598 138.76C98.342 138.92 98.054 139 97.734 139C97.382 139 97.0567 138.963 96.758 138.888C96.47 138.813 96.2087 138.627 95.974 138.328C95.75 138.019 95.638 137.555 95.638 136.936V132.104H94.71C94.5073 132.104 94.3367 132.04 94.198 131.912C94.07 131.773 94.006 131.603 94.006 131.4C94.006 131.197 94.07 131.032 94.198 130.904C94.3367 130.776 94.5073 130.712 94.71 130.712H95.638V129.368C95.638 129.155 95.7073 128.973 95.846 128.824C95.9953 128.675 96.182 128.6 96.406 128.6C96.6193 128.6 96.7953 128.675 96.934 128.824C97.0833 128.973 97.158 129.155 97.158 129.368V130.712H98.486C98.6887 130.712 98.854 130.781 98.982 130.92C99.1207 131.048 99.19 131.213 99.19 131.416C99.19 131.619 99.1207 131.784 98.982 131.912C98.854 132.04 98.6887 132.104 98.486 132.104H97.158ZM105.14 130.472C107.017 130.472 107.956 131.635 107.956 133.96V138.232C107.956 138.445 107.881 138.627 107.732 138.776C107.593 138.925 107.412 139 107.188 139C106.975 139 106.793 138.925 106.644 138.776C106.505 138.627 106.436 138.445 106.436 138.232V133.96C106.436 132.573 105.849 131.88 104.676 131.88C104.047 131.88 103.524 132.083 103.108 132.488C102.692 132.883 102.484 133.373 102.484 133.96V138.232C102.484 138.445 102.409 138.627 102.26 138.776C102.121 138.925 101.94 139 101.716 139C101.492 139 101.311 138.931 101.172 138.792C101.033 138.643 100.964 138.456 100.964 138.232V127.928C100.964 127.715 101.033 127.533 101.172 127.384C101.321 127.235 101.503 127.16 101.716 127.16C101.94 127.16 102.121 127.235 102.26 127.384C102.409 127.533 102.484 127.715 102.484 127.928V131.976C102.751 131.56 103.124 131.208 103.604 130.92C104.084 130.621 104.596 130.472 105.14 130.472ZM111.67 138.232C111.67 138.445 111.595 138.627 111.446 138.776C111.307 138.925 111.126 139 110.902 139C110.688 139 110.507 138.925 110.358 138.776C110.219 138.627 110.15 138.445 110.15 138.232V131.304C110.15 131.091 110.219 130.909 110.358 130.76C110.507 130.611 110.688 130.536 110.902 130.536C111.126 130.536 111.307 130.611 111.446 130.76C111.595 130.909 111.67 131.091 111.67 131.304V138.232ZM110.902 129.48C110.592 129.48 110.368 129.427 110.23 129.32C110.102 129.203 110.038 129.021 110.038 128.776V128.52C110.038 128.264 110.107 128.083 110.246 127.976C110.395 127.869 110.619 127.816 110.918 127.816C111.216 127.816 111.43 127.875 111.558 127.992C111.696 128.099 111.766 128.275 111.766 128.52V128.776C111.766 129.032 111.696 129.213 111.558 129.32C111.419 129.427 111.2 129.48 110.902 129.48ZM113.375 137.688C113.279 137.539 113.231 137.395 113.231 137.256C113.231 137.043 113.343 136.861 113.567 136.712C113.673 136.637 113.796 136.6 113.935 136.6C114.127 136.6 114.303 136.68 114.463 136.84C114.783 137.203 115.124 137.475 115.487 137.656C115.86 137.837 116.303 137.928 116.815 137.928C117.22 137.917 117.577 137.827 117.887 137.656C118.196 137.475 118.351 137.187 118.351 136.792C118.351 136.429 118.191 136.152 117.871 135.96C117.561 135.768 117.103 135.592 116.495 135.432C115.897 135.272 115.401 135.107 115.007 134.936C114.612 134.755 114.276 134.499 113.999 134.168C113.732 133.827 113.599 133.384 113.599 132.84C113.599 132.36 113.732 131.939 113.999 131.576C114.276 131.213 114.639 130.931 115.087 130.728C115.545 130.525 116.041 130.424 116.575 130.424C117.087 130.424 117.593 130.52 118.095 130.712C118.607 130.904 119.023 131.197 119.343 131.592C119.471 131.741 119.535 131.896 119.535 132.056C119.535 132.227 119.449 132.392 119.279 132.552C119.172 132.648 119.039 132.696 118.879 132.696C118.687 132.696 118.532 132.632 118.415 132.504C118.191 132.248 117.913 132.051 117.583 131.912C117.263 131.773 116.905 131.704 116.511 131.704C116.105 131.704 115.759 131.789 115.471 131.96C115.193 132.12 115.055 132.397 115.055 132.792C115.065 133.165 115.225 133.443 115.535 133.624C115.855 133.805 116.34 133.981 116.991 134.152C117.556 134.301 118.025 134.461 118.399 134.632C118.772 134.803 119.087 135.059 119.343 135.4C119.599 135.731 119.727 136.168 119.727 136.712C119.727 137.213 119.583 137.651 119.295 138.024C119.007 138.387 118.628 138.669 118.159 138.872C117.7 139.064 117.209 139.16 116.687 139.16C116.015 139.16 115.391 139.043 114.815 138.808C114.249 138.573 113.769 138.2 113.375 137.688ZM130.125 130.472C130.851 130.472 131.507 130.659 132.093 131.032C132.68 131.395 133.139 131.907 133.469 132.568C133.811 133.229 133.981 133.976 133.981 134.808C133.981 135.64 133.811 136.387 133.469 137.048C133.139 137.699 132.68 138.211 132.093 138.584C131.507 138.957 130.861 139.144 130.157 139.144C129.603 139.144 129.085 139.021 128.605 138.776C128.125 138.531 127.736 138.232 127.437 137.88V141.432C127.437 141.645 127.363 141.827 127.213 141.976C127.075 142.125 126.893 142.2 126.669 142.2C126.456 142.2 126.275 142.125 126.125 141.976C125.987 141.837 125.917 141.656 125.917 141.432V131.368C125.917 131.144 125.987 130.957 126.125 130.808C126.264 130.659 126.445 130.584 126.669 130.584C126.893 130.584 127.075 130.659 127.213 130.808C127.363 130.957 127.437 131.144 127.437 131.368V131.832C127.693 131.459 128.067 131.139 128.557 130.872C129.048 130.605 129.571 130.472 130.125 130.472ZM129.949 137.736C130.44 137.736 130.883 137.608 131.277 137.352C131.672 137.096 131.976 136.749 132.189 136.312C132.413 135.864 132.525 135.363 132.525 134.808C132.525 134.253 132.413 133.757 132.189 133.32C131.976 132.872 131.672 132.52 131.277 132.264C130.883 132.008 130.44 131.88 129.949 131.88C129.448 131.88 129 132.008 128.605 132.264C128.211 132.509 127.901 132.856 127.677 133.304C127.464 133.752 127.357 134.253 127.357 134.808C127.357 135.363 127.464 135.864 127.677 136.312C127.901 136.76 128.211 137.112 128.605 137.368C129 137.613 129.448 137.736 129.949 137.736ZM142.545 130.504C142.769 130.504 142.951 130.579 143.089 130.728C143.239 130.867 143.313 131.053 143.313 131.288V138.232C143.313 138.445 143.239 138.627 143.089 138.776C142.951 138.925 142.769 139 142.545 139C142.321 139 142.14 138.931 142.001 138.792C141.863 138.643 141.793 138.456 141.793 138.232V137.816C141.516 138.189 141.137 138.509 140.657 138.776C140.177 139.032 139.66 139.16 139.105 139.16C138.38 139.16 137.719 138.973 137.121 138.6C136.535 138.227 136.071 137.709 135.729 137.048C135.399 136.376 135.233 135.624 135.233 134.792C135.233 133.96 135.399 133.213 135.729 132.552C136.071 131.88 136.535 131.357 137.121 130.984C137.708 130.611 138.353 130.424 139.057 130.424C139.623 130.424 140.145 130.541 140.625 130.776C141.116 131.011 141.505 131.309 141.793 131.672V131.288C141.793 131.064 141.863 130.877 142.001 130.728C142.14 130.579 142.321 130.504 142.545 130.504ZM139.281 137.752C139.783 137.752 140.225 137.624 140.609 137.368C141.004 137.112 141.308 136.76 141.521 136.312C141.745 135.864 141.857 135.357 141.857 134.792C141.857 134.237 141.745 133.736 141.521 133.288C141.308 132.84 141.004 132.488 140.609 132.232C140.225 131.965 139.783 131.832 139.281 131.832C138.78 131.832 138.332 131.96 137.937 132.216C137.553 132.472 137.249 132.824 137.025 133.272C136.812 133.72 136.705 134.227 136.705 134.792C136.705 135.357 136.812 135.864 137.025 136.312C137.249 136.76 137.553 137.112 137.937 137.368C138.332 137.624 138.78 137.752 139.281 137.752ZM149.75 130.424C150.027 130.424 150.267 130.499 150.47 130.648C150.672 130.787 150.774 130.963 150.774 131.176C150.774 131.432 150.704 131.629 150.566 131.768C150.438 131.896 150.278 131.96 150.086 131.96C149.99 131.96 149.846 131.928 149.654 131.864C149.43 131.789 149.254 131.752 149.126 131.752C148.795 131.752 148.47 131.869 148.15 132.104C147.84 132.328 147.584 132.643 147.382 133.048C147.19 133.443 147.094 133.885 147.094 134.376V138.232C147.094 138.445 147.019 138.627 146.87 138.776C146.731 138.925 146.55 139 146.326 139C146.102 139 145.92 138.931 145.782 138.792C145.643 138.643 145.574 138.456 145.574 138.232V131.384C145.574 131.171 145.643 130.989 145.782 130.84C145.931 130.691 146.112 130.616 146.326 130.616C146.55 130.616 146.731 130.691 146.87 130.84C147.019 130.989 147.094 131.171 147.094 131.384V132.2C147.328 131.677 147.68 131.256 148.15 130.936C148.619 130.605 149.152 130.435 149.75 130.424ZM158.795 130.504C159.019 130.504 159.201 130.579 159.339 130.728C159.489 130.867 159.563 131.053 159.563 131.288V138.232C159.563 138.445 159.489 138.627 159.339 138.776C159.201 138.925 159.019 139 158.795 139C158.571 139 158.39 138.931 158.251 138.792C158.113 138.643 158.043 138.456 158.043 138.232V137.816C157.766 138.189 157.387 138.509 156.907 138.776C156.427 139.032 155.91 139.16 155.355 139.16C154.63 139.16 153.969 138.973 153.371 138.6C152.785 138.227 152.321 137.709 151.979 137.048C151.649 136.376 151.483 135.624 151.483 134.792C151.483 133.96 151.649 133.213 151.979 132.552C152.321 131.88 152.785 131.357 153.371 130.984C153.958 130.611 154.603 130.424 155.307 130.424C155.873 130.424 156.395 130.541 156.875 130.776C157.366 131.011 157.755 131.309 158.043 131.672V131.288C158.043 131.064 158.113 130.877 158.251 130.728C158.39 130.579 158.571 130.504 158.795 130.504ZM155.531 137.752C156.033 137.752 156.475 137.624 156.859 137.368C157.254 137.112 157.558 136.76 157.771 136.312C157.995 135.864 158.107 135.357 158.107 134.792C158.107 134.237 157.995 133.736 157.771 133.288C157.558 132.84 157.254 132.488 156.859 132.232C156.475 131.965 156.033 131.832 155.531 131.832C155.03 131.832 154.582 131.96 154.187 132.216C153.803 132.472 153.499 132.824 153.275 133.272C153.062 133.72 152.955 134.227 152.955 134.792C152.955 135.357 153.062 135.864 153.275 136.312C153.499 136.76 153.803 137.112 154.187 137.368C154.582 137.624 155.03 137.752 155.531 137.752ZM168.832 130.504C169.056 130.504 169.237 130.579 169.376 130.728C169.525 130.867 169.6 131.053 169.6 131.288V138.328C169.6 139.192 169.413 139.912 169.04 140.488C168.677 141.075 168.181 141.507 167.552 141.784C166.922 142.061 166.213 142.2 165.424 142.2C164.997 142.2 164.496 142.125 163.92 141.976C163.354 141.827 162.992 141.672 162.832 141.512C162.501 141.341 162.336 141.128 162.336 140.872C162.336 140.808 162.357 140.723 162.4 140.616C162.517 140.349 162.714 140.216 162.992 140.216C163.13 140.216 163.28 140.248 163.44 140.312C164.293 140.643 164.96 140.808 165.44 140.808C166.293 140.808 166.944 140.6 167.392 140.184C167.85 139.779 168.08 139.219 168.08 138.504V137.64C167.856 138.056 167.477 138.413 166.944 138.712C166.421 139.011 165.866 139.16 165.28 139.16C164.544 139.16 163.872 138.973 163.264 138.6C162.656 138.227 162.176 137.709 161.824 137.048C161.482 136.376 161.312 135.624 161.312 134.792C161.312 133.96 161.482 133.213 161.824 132.552C162.176 131.88 162.65 131.357 163.248 130.984C163.856 130.611 164.522 130.424 165.248 130.424C165.834 130.424 166.378 130.557 166.88 130.824C167.392 131.091 167.792 131.416 168.08 131.8V131.288C168.08 131.064 168.149 130.877 168.288 130.728C168.426 130.579 168.608 130.504 168.832 130.504ZM165.456 137.752C165.978 137.752 166.442 137.629 166.848 137.384C167.253 137.128 167.568 136.776 167.792 136.328C168.026 135.869 168.144 135.357 168.144 134.792C168.144 134.227 168.026 133.72 167.792 133.272C167.568 132.824 167.253 132.472 166.848 132.216C166.442 131.96 165.978 131.832 165.456 131.832C164.944 131.832 164.485 131.96 164.08 132.216C163.674 132.472 163.354 132.829 163.12 133.288C162.896 133.736 162.784 134.237 162.784 134.792C162.784 135.347 162.896 135.853 163.12 136.312C163.354 136.76 163.674 137.112 164.08 137.368C164.485 137.624 164.944 137.752 165.456 137.752ZM176.031 130.424C176.308 130.424 176.548 130.499 176.751 130.648C176.953 130.787 177.055 130.963 177.055 131.176C177.055 131.432 176.985 131.629 176.847 131.768C176.719 131.896 176.559 131.96 176.367 131.96C176.271 131.96 176.127 131.928 175.935 131.864C175.711 131.789 175.535 131.752 175.407 131.752C175.076 131.752 174.751 131.869 174.431 132.104C174.121 132.328 173.865 132.643 173.663 133.048C173.471 133.443 173.375 133.885 173.375 134.376V138.232C173.375 138.445 173.3 138.627 173.151 138.776C173.012 138.925 172.831 139 172.607 139C172.383 139 172.201 138.931 172.063 138.792C171.924 138.643 171.855 138.456 171.855 138.232V131.384C171.855 131.171 171.924 130.989 172.063 130.84C172.212 130.691 172.393 130.616 172.607 130.616C172.831 130.616 173.012 130.691 173.151 130.84C173.3 130.989 173.375 131.171 173.375 131.384V132.2C173.609 131.677 173.961 131.256 174.431 130.936C174.9 130.605 175.433 130.435 176.031 130.424ZM185.077 130.504C185.301 130.504 185.482 130.579 185.621 130.728C185.77 130.867 185.845 131.053 185.845 131.288V138.232C185.845 138.445 185.77 138.627 185.621 138.776C185.482 138.925 185.301 139 185.077 139C184.853 139 184.671 138.931 184.533 138.792C184.394 138.643 184.325 138.456 184.325 138.232V137.816C184.047 138.189 183.669 138.509 183.189 138.776C182.709 139.032 182.191 139.16 181.637 139.16C180.911 139.16 180.25 138.973 179.653 138.6C179.066 138.227 178.602 137.709 178.261 137.048C177.93 136.376 177.765 135.624 177.765 134.792C177.765 133.96 177.93 133.213 178.261 132.552C178.602 131.88 179.066 131.357 179.653 130.984C180.239 130.611 180.885 130.424 181.589 130.424C182.154 130.424 182.677 130.541 183.157 130.776C183.647 131.011 184.037 131.309 184.325 131.672V131.288C184.325 131.064 184.394 130.877 184.533 130.728C184.671 130.579 184.853 130.504 185.077 130.504ZM181.813 137.752C182.314 137.752 182.757 137.624 183.141 137.368C183.535 137.112 183.839 136.76 184.053 136.312C184.277 135.864 184.389 135.357 184.389 134.792C184.389 134.237 184.277 133.736 184.053 133.288C183.839 132.84 183.535 132.488 183.141 132.232C182.757 131.965 182.314 131.832 181.813 131.832C181.311 131.832 180.863 131.96 180.469 132.216C180.085 132.472 179.781 132.824 179.557 133.272C179.343 133.72 179.237 134.227 179.237 134.792C179.237 135.357 179.343 135.864 179.557 136.312C179.781 136.76 180.085 137.112 180.469 137.368C180.863 137.624 181.311 137.752 181.813 137.752ZM192.313 130.472C193.038 130.472 193.694 130.659 194.281 131.032C194.867 131.395 195.326 131.907 195.657 132.568C195.998 133.229 196.169 133.976 196.169 134.808C196.169 135.64 195.998 136.387 195.657 137.048C195.326 137.699 194.867 138.211 194.281 138.584C193.694 138.957 193.049 139.144 192.345 139.144C191.79 139.144 191.273 139.021 190.793 138.776C190.313 138.531 189.923 138.232 189.625 137.88V141.432C189.625 141.645 189.55 141.827 189.401 141.976C189.262 142.125 189.081 142.2 188.857 142.2C188.643 142.2 188.462 142.125 188.313 141.976C188.174 141.837 188.105 141.656 188.105 141.432V131.368C188.105 131.144 188.174 130.957 188.313 130.808C188.451 130.659 188.633 130.584 188.857 130.584C189.081 130.584 189.262 130.659 189.401 130.808C189.55 130.957 189.625 131.144 189.625 131.368V131.832C189.881 131.459 190.254 131.139 190.745 130.872C191.235 130.605 191.758 130.472 192.313 130.472ZM192.137 137.736C192.627 137.736 193.07 137.608 193.465 137.352C193.859 137.096 194.163 136.749 194.377 136.312C194.601 135.864 194.713 135.363 194.713 134.808C194.713 134.253 194.601 133.757 194.377 133.32C194.163 132.872 193.859 132.52 193.465 132.264C193.07 132.008 192.627 131.88 192.137 131.88C191.635 131.88 191.187 132.008 190.793 132.264C190.398 132.509 190.089 132.856 189.865 133.304C189.651 133.752 189.545 134.253 189.545 134.808C189.545 135.363 189.651 135.864 189.865 136.312C190.089 136.76 190.398 137.112 190.793 137.368C191.187 137.613 191.635 137.736 192.137 137.736ZM202.109 130.472C203.986 130.472 204.925 131.635 204.925 133.96V138.232C204.925 138.445 204.85 138.627 204.701 138.776C204.562 138.925 204.381 139 204.157 139C203.944 139 203.762 138.925 203.613 138.776C203.474 138.627 203.405 138.445 203.405 138.232V133.96C203.405 132.573 202.818 131.88 201.645 131.88C201.016 131.88 200.493 132.083 200.077 132.488C199.661 132.883 199.453 133.373 199.453 133.96V138.232C199.453 138.445 199.378 138.627 199.229 138.776C199.09 138.925 198.909 139 198.685 139C198.461 139 198.28 138.931 198.141 138.792C198.002 138.643 197.933 138.456 197.933 138.232V127.928C197.933 127.715 198.002 127.533 198.141 127.384C198.29 127.235 198.472 127.16 198.685 127.16C198.909 127.16 199.09 127.235 199.229 127.384C199.378 127.533 199.453 127.715 199.453 127.928V131.976C199.72 131.56 200.093 131.208 200.573 130.92C201.053 130.621 201.565 130.472 202.109 130.472ZM207.743 138.984C207.487 138.984 207.289 138.915 207.151 138.776C207.023 138.637 206.959 138.435 206.959 138.168V137.864C206.959 137.608 207.023 137.411 207.151 137.272C207.289 137.133 207.487 137.064 207.743 137.064H207.903C208.169 137.064 208.367 137.133 208.495 137.272C208.633 137.411 208.703 137.608 208.703 137.864V138.168C208.703 138.712 208.436 138.984 207.903 138.984H207.743Z" fill="#49A0FF"/>
<defs>
<radialGradient id="paint0_radial" cx="0" cy="0" r="1" gradientUnits="userSpaceOnUse" gradientTransform="translate(272 488.5) rotate(90) scale(24.5 104)">
<stop stop-color="#B0D6FF"/>
<stop offset="1" stop-color="white"/>
</radialGradient>
<linearGradient id="paint1_linear" x1="301.24" y1="214.684" x2="240.565" y2="334.608" gradientUnits="userSpaceOnUse">
<stop stop-color="#3B98FF"/>
<stop offset="1" stop-color="#7CBAFF"/>
</linearGradient>
<linearGradient id="paint2_linear" x1="258.876" y1="397.58" x2="295.671" y2="364.827" gradientUnits="userSpaceOnUse">
<stop stop-color="#7CBAFF"/>
<stop offset="1" stop-color="#3B98FF"/>
</linearGradient>
</defs>
</svg>
