<svg width="376" height="513" viewBox="0 0 376 513" fill="none" xmlns="http://www.w3.org/2000/svg">
<ellipse cx="272" cy="488.5" rx="104" ry="24.5" fill="url(#paint0_radial)"/>
<path d="M289.74 344.899H264.749V364.203H289.74V344.899Z" fill="black"/>
<path d="M230.312 364.203C230.312 364.203 204.873 370.071 206.572 409.56C214.117 412.259 212.743 409.56 212.743 409.56C212.743 409.56 212.564 382.953 230.312 382.666C241.219 374.457 235.425 369.727 235.425 369.727L230.312 364.203Z" fill="black"/>
<path d="M257.751 400.03L267.208 487.745H274.794L292.768 397.131L257.751 400.03Z" fill="black"/>
<path d="M319.07 364.203C319.07 364.203 344.509 370.071 342.811 409.56C335.265 412.259 336.639 409.56 336.639 409.56C336.639 409.56 336.818 382.953 319.07 382.666C308.164 374.457 313.957 369.727 313.957 369.727L319.07 364.203Z" fill="black"/>
<path d="M229.646 344.937C224.826 326.595 197.606 217.333 262.815 200.372C328.023 183.41 359.486 253.644 326.124 337.575C322.399 345.365 255.392 355.386 229.646 344.937Z" fill="url(#paint1_linear)"/>
<path d="M230.312 356.485C230.312 356.485 276.224 368.443 324.973 356.485C322.269 383.762 317.26 396.797 317.26 396.797C317.26 396.797 255.435 404.074 234.094 396.797C230.409 377.392 230.312 356.485 230.312 356.485Z" fill="url(#paint2_linear)"/>
<path d="M206.49 408.6L199 420.466L209.624 413.652L216.06 419.319L212.287 408.6H206.49Z" fill="#3B98FF"/>
<path d="M342.894 408.6L350.384 420.466L339.76 413.652L333.325 419.319L337.098 408.6H342.894Z" fill="#3B98FF"/>
<path d="M276.283 308.222C299.64 308.222 318.575 289.208 318.575 265.754C318.575 242.299 299.64 223.285 276.283 223.285C252.925 223.285 233.99 242.299 233.99 265.754C233.99 289.208 252.925 308.222 276.283 308.222Z" fill="white"/>
<path d="M274.361 283.127C284.978 283.127 293.584 274.484 293.584 263.823C293.584 253.162 284.978 244.519 274.361 244.519C263.744 244.519 255.137 253.162 255.137 263.823C255.137 274.484 263.744 283.127 274.361 283.127Z" fill="#B2D7FF"/>
<path d="M272.439 275.405C277.748 275.405 282.051 271.084 282.051 265.754C282.051 260.423 277.748 256.102 272.439 256.102C267.131 256.102 262.827 260.423 262.827 265.754C262.827 271.084 267.131 275.405 272.439 275.405Z" fill="black"/>
<path d="M287.118 197.825L292.573 155.146Z" fill="#3B98FF"/>
<path d="M287.118 197.825L292.573 155.146" stroke="black" stroke-width="4"/>
<path d="M293.584 155.721C295.707 155.721 297.429 153.993 297.429 151.861C297.429 149.729 295.707 148 293.584 148C291.461 148 289.739 149.729 289.739 151.861C289.739 153.993 291.461 155.721 293.584 155.721Z" fill="#3B98FF"/>
<path d="M284.933 328.491C284.933 322.716 280.199 318.034 274.36 318.034C268.521 318.034 263.787 322.716 263.787 328.491C263.787 334.266 268.521 338.947 274.36 338.947C280.199 338.947 284.933 334.266 284.933 328.491Z" fill="white"/>
<path d="M284.314 328.491C284.314 323.059 279.858 318.656 274.361 318.656C268.864 318.656 264.407 323.059 264.407 328.491C264.407 333.922 268.864 338.325 274.361 338.325C279.858 338.325 284.314 333.922 284.314 328.491Z" stroke="black" stroke-width="4"/>
<path d="M147.312 195.598L147.312 195.598L152.3 194.436L155.608 198.291L147.312 195.598ZM147.312 195.598C137.955 197.777 128.852 198.848 119.5 198.848C58.5462 198.848 8.39131 156.418 8.39131 103.616C8.39131 50.7946 58.5459 8.36364 119.5 8.36364C180.454 8.36364 230.609 50.7946 230.609 103.616C230.609 132.737 214.889 159.916 187.756 178.224L187.755 178.225L183.873 180.839L184.069 185.49L184.07 185.507L184.07 185.525C184.127 187.818 184.364 190.471 185.786 195.673L185.789 195.684C187.589 202.412 190.365 209.141 194.067 215.771L196.112 219.435M147.312 195.598L196.112 219.435M196.112 219.435L191.978 218.716M196.112 219.435L191.978 218.716M191.978 218.716C171.642 215.183 159.307 202.611 155.61 198.293L191.978 218.716ZM190.443 185.222L190.403 184.111L191.325 183.49C219.092 164.782 237 136.249 237 103.616C237 47.3777 184.518 2 119.5 2C54.4814 2 2 47.3779 2 103.596C2 159.814 54.5015 205.192 119.5 205.192C129.65 205.192 139.34 203.996 148.776 201.783L149.96 201.506L150.751 202.428C153.531 205.669 171.632 226 202.874 226H208.326L205.214 221.557L205.213 221.555C197.601 210.663 193.814 200.975 191.932 194.032L191.932 194.029C190.544 188.878 190.487 186.784 190.453 185.54C190.45 185.427 190.447 185.322 190.443 185.222Z" fill="#71B4FF" stroke="white" stroke-width="4"/>
<path d="M69.8411 89.112C70.0544 89.112 70.2304 89.1867 70.3691 89.336C70.5184 89.4853 70.5931 89.6667 70.5931 89.88V93.48C70.5931 93.768 70.4651 93.992 70.2091 94.152C69.7184 94.472 69.1797 94.7227 68.5931 94.904C68.0064 95.0747 67.4037 95.16 66.7851 95.16C65.7184 95.16 64.7371 94.904 63.8411 94.392C62.9557 93.88 62.2571 93.1867 61.7451 92.312C61.2331 91.4267 60.9771 90.456 60.9771 89.4C60.9771 88.344 61.2331 87.3787 61.7451 86.504C62.2571 85.6187 62.9557 84.92 63.8411 84.408C64.7371 83.896 65.7184 83.64 66.7851 83.64C67.3184 83.64 67.8304 83.6987 68.3211 83.816C68.8224 83.9333 69.2704 84.1093 69.6651 84.344C69.7931 84.4187 69.8891 84.5093 69.9531 84.616C70.0171 84.7227 70.0491 84.84 70.0491 84.968C70.0491 85.1813 69.9744 85.368 69.8251 85.528C69.6864 85.6773 69.5157 85.752 69.3131 85.752C69.1531 85.752 69.0144 85.7147 68.8971 85.64C68.2037 85.32 67.4997 85.16 66.7851 85.16C66.0171 85.16 65.3131 85.3467 64.6731 85.72C64.0437 86.0933 63.5424 86.6053 63.1691 87.256C62.8064 87.9067 62.6251 88.6213 62.6251 89.4C62.6251 90.1787 62.8064 90.8933 63.1691 91.544C63.5424 92.184 64.0437 92.696 64.6731 93.08C65.3131 93.4533 66.0171 93.64 66.7851 93.64C67.1477 93.64 67.5264 93.5973 67.9211 93.512C68.3264 93.4267 68.6731 93.3147 68.9611 93.176V90.632H67.0251C66.8117 90.632 66.6304 90.5627 66.4811 90.424C66.3317 90.2747 66.2571 90.0933 66.2571 89.88C66.2571 89.656 66.3317 89.4747 66.4811 89.336C66.6304 89.1867 66.8117 89.112 67.0251 89.112H69.8411ZM76.7261 86.424C77.0034 86.424 77.2434 86.4987 77.4461 86.648C77.6487 86.7867 77.7501 86.9627 77.7501 87.176C77.7501 87.432 77.6807 87.6293 77.5421 87.768C77.4141 87.896 77.2541 87.96 77.0621 87.96C76.9661 87.96 76.8221 87.928 76.6301 87.864C76.4061 87.7893 76.2301 87.752 76.1021 87.752C75.7714 87.752 75.4461 87.8693 75.1261 88.104C74.8167 88.328 74.5607 88.6427 74.3581 89.048C74.1661 89.4427 74.0701 89.8853 74.0701 90.376V94.232C74.0701 94.4453 73.9954 94.6267 73.8461 94.776C73.7074 94.9253 73.5261 95 73.3021 95C73.0781 95 72.8967 94.9307 72.7581 94.792C72.6194 94.6427 72.5501 94.456 72.5501 94.232V87.384C72.5501 87.1707 72.6194 86.9893 72.7581 86.84C72.9074 86.6907 73.0887 86.616 73.3021 86.616C73.5261 86.616 73.7074 86.6907 73.8461 86.84C73.9954 86.9893 74.0701 87.1707 74.0701 87.384V88.2C74.3047 87.6773 74.6567 87.256 75.1261 86.936C75.5954 86.6053 76.1287 86.4347 76.7261 86.424ZM86.1601 90.488C86.1494 90.68 86.0694 90.8453 85.9201 90.984C85.7707 91.112 85.5947 91.176 85.3921 91.176H79.7601C79.8347 91.9547 80.1281 92.5787 80.6401 93.048C81.1627 93.5173 81.7974 93.752 82.5441 93.752C83.0561 93.752 83.4721 93.6773 83.7921 93.528C84.1121 93.3787 84.3947 93.1867 84.6401 92.952C84.8001 92.856 84.9547 92.808 85.1041 92.808C85.2854 92.808 85.4347 92.872 85.5521 93C85.6801 93.128 85.7441 93.2773 85.7441 93.448C85.7441 93.672 85.6374 93.8747 85.4241 94.056C85.1147 94.3653 84.7041 94.6267 84.1921 94.84C83.6801 95.0533 83.1574 95.16 82.6241 95.16C81.7601 95.16 80.9974 94.9787 80.3361 94.616C79.6854 94.2533 79.1787 93.7467 78.8161 93.096C78.4641 92.4453 78.2881 91.7093 78.2881 90.888C78.2881 89.992 78.4694 89.208 78.8321 88.536C79.2054 87.8533 79.6907 87.3307 80.2881 86.968C80.8961 86.6053 81.5467 86.424 82.2401 86.424C82.9227 86.424 83.5627 86.6 84.1601 86.952C84.7574 87.304 85.2374 87.7893 85.6001 88.408C85.9627 89.0267 86.1494 89.72 86.1601 90.488ZM82.2401 87.832C81.6427 87.832 81.1254 88.0027 80.6881 88.344C80.2507 88.6747 79.9627 89.192 79.8241 89.896H84.5441V89.768C84.4907 89.2027 84.2347 88.7387 83.7761 88.376C83.3281 88.0133 82.8161 87.832 82.2401 87.832ZM94.7876 86.504C95.0116 86.504 95.1929 86.5787 95.3316 86.728C95.4809 86.8667 95.5556 87.0533 95.5556 87.288V94.232C95.5556 94.4453 95.4809 94.6267 95.3316 94.776C95.1929 94.9253 95.0116 95 94.7876 95C94.5636 95 94.3822 94.9307 94.2436 94.792C94.1049 94.6427 94.0356 94.456 94.0356 94.232V93.816C93.7582 94.1893 93.3796 94.5093 92.8996 94.776C92.4196 95.032 91.9022 95.16 91.3476 95.16C90.6222 95.16 89.9609 94.9733 89.3636 94.6C88.7769 94.2267 88.3129 93.7093 87.9716 93.048C87.6409 92.376 87.4756 91.624 87.4756 90.792C87.4756 89.96 87.6409 89.2133 87.9716 88.552C88.3129 87.88 88.7769 87.3573 89.3636 86.984C89.9502 86.6107 90.5956 86.424 91.2996 86.424C91.8649 86.424 92.3876 86.5413 92.8676 86.776C93.3582 87.0107 93.7476 87.3093 94.0356 87.672V87.288C94.0356 87.064 94.1049 86.8773 94.2436 86.728C94.3822 86.5787 94.5636 86.504 94.7876 86.504ZM91.5236 93.752C92.0249 93.752 92.4676 93.624 92.8516 93.368C93.2462 93.112 93.5502 92.76 93.7636 92.312C93.9876 91.864 94.0996 91.3573 94.0996 90.792C94.0996 90.2373 93.9876 89.736 93.7636 89.288C93.5502 88.84 93.2462 88.488 92.8516 88.232C92.4676 87.9653 92.0249 87.832 91.5236 87.832C91.0222 87.832 90.5742 87.96 90.1796 88.216C89.7956 88.472 89.4916 88.824 89.2676 89.272C89.0542 89.72 88.9476 90.2267 88.9476 90.792C88.9476 91.3573 89.0542 91.864 89.2676 92.312C89.4916 92.76 89.7956 93.112 90.1796 93.368C90.5742 93.624 91.0222 93.752 91.5236 93.752ZM100.088 88.104V92.872C100.088 93.4053 100.328 93.672 100.808 93.672C100.882 93.672 100.984 93.656 101.112 93.624C101.24 93.5813 101.341 93.56 101.416 93.56C101.554 93.56 101.672 93.6187 101.768 93.736C101.864 93.8533 101.912 94.0027 101.912 94.184C101.912 94.408 101.784 94.6 101.528 94.76C101.272 94.92 100.984 95 100.664 95C100.312 95 99.9864 94.9627 99.6877 94.888C99.3997 94.8133 99.1384 94.6267 98.9037 94.328C98.6797 94.0187 98.5677 93.5547 98.5677 92.936V88.104H97.6397C97.437 88.104 97.2664 88.04 97.1277 87.912C96.9997 87.7733 96.9357 87.6027 96.9357 87.4C96.9357 87.1973 96.9997 87.032 97.1277 86.904C97.2664 86.776 97.437 86.712 97.6397 86.712H98.5677V85.368C98.5677 85.1547 98.637 84.9733 98.7757 84.824C98.925 84.6747 99.1117 84.6 99.3357 84.6C99.549 84.6 99.725 84.6747 99.8637 84.824C100.013 84.9733 100.088 85.1547 100.088 85.368V86.712H101.416C101.618 86.712 101.784 86.7813 101.912 86.92C102.05 87.048 102.12 87.2133 102.12 87.416C102.12 87.6187 102.05 87.784 101.912 87.912C101.784 88.04 101.618 88.104 101.416 88.104H100.088ZM104.63 91.64C104.331 91.64 104.171 91.4693 104.15 91.128L103.798 84.76C103.776 84.4827 103.84 84.2533 103.99 84.072C104.15 83.8907 104.358 83.8 104.614 83.8C104.88 83.8 105.088 83.8907 105.238 84.072C105.387 84.2533 105.451 84.4827 105.43 84.76L105.094 91.128C105.083 91.2987 105.035 91.4267 104.95 91.512C104.875 91.5973 104.768 91.64 104.63 91.64ZM104.534 95C104.278 95 104.08 94.9307 103.942 94.792C103.814 94.6427 103.75 94.44 103.75 94.184V93.88C103.75 93.624 103.814 93.4267 103.942 93.288C104.08 93.1387 104.278 93.064 104.534 93.064H104.71C104.966 93.064 105.158 93.1387 105.286 93.288C105.424 93.4267 105.494 93.624 105.494 93.88V94.184C105.494 94.44 105.424 94.6427 105.286 94.792C105.158 94.9307 104.966 95 104.71 95H104.534ZM119.954 84.52C119.954 84.68 119.906 84.84 119.81 85L116.37 89.848V94.232C116.37 94.4453 116.295 94.6267 116.146 94.776C116.007 94.9253 115.836 95 115.634 95C115.42 95 115.239 94.9253 115.09 94.776C114.94 94.6267 114.866 94.4453 114.866 94.232V89.72L111.442 85.096C111.292 84.904 111.218 84.712 111.218 84.52C111.218 84.3067 111.303 84.1253 111.474 83.976C111.644 83.8267 111.831 83.752 112.034 83.752C112.279 83.752 112.487 83.8693 112.658 84.104L115.666 88.264L118.562 84.12C118.732 83.8747 118.946 83.752 119.202 83.752C119.404 83.752 119.58 83.8267 119.73 83.976C119.879 84.1253 119.954 84.3067 119.954 84.52ZM128.642 90.808C128.642 91.64 128.456 92.3867 128.082 93.048C127.709 93.7093 127.197 94.2267 126.546 94.6C125.906 94.9733 125.197 95.16 124.418 95.16C123.64 95.16 122.925 94.9733 122.274 94.6C121.634 94.2267 121.128 93.7093 120.754 93.048C120.381 92.3867 120.194 91.64 120.194 90.808C120.194 89.976 120.381 89.224 120.754 88.552C121.128 87.88 121.634 87.3573 122.274 86.984C122.925 86.6107 123.64 86.424 124.418 86.424C125.197 86.424 125.906 86.6107 126.546 86.984C127.197 87.3573 127.709 87.88 128.082 88.552C128.456 89.224 128.642 89.976 128.642 90.808ZM127.122 90.808C127.122 90.232 127 89.72 126.754 89.272C126.52 88.8133 126.194 88.4613 125.778 88.216C125.373 87.96 124.92 87.832 124.418 87.832C123.917 87.832 123.458 87.96 123.042 88.216C122.637 88.4613 122.312 88.8133 122.066 89.272C121.832 89.72 121.714 90.232 121.714 90.808C121.714 91.3733 121.832 91.88 122.066 92.328C122.312 92.776 122.637 93.128 123.042 93.384C123.458 93.6293 123.917 93.752 124.418 93.752C124.92 93.752 125.373 93.6293 125.778 93.384C126.194 93.128 126.52 92.776 126.754 92.328C127 91.88 127.122 91.3733 127.122 90.808ZM136.649 86.616C136.873 86.616 137.055 86.6907 137.193 86.84C137.343 86.9893 137.417 87.1707 137.417 87.384V91.64C137.417 92.7493 137.108 93.6133 136.489 94.232C135.881 94.84 135.017 95.144 133.897 95.144C132.788 95.144 131.929 94.84 131.321 94.232C130.713 93.6133 130.409 92.7493 130.409 91.64V87.384C130.409 87.1707 130.479 86.9893 130.617 86.84C130.767 86.6907 130.948 86.616 131.161 86.616C131.385 86.616 131.567 86.6907 131.705 86.84C131.855 86.9893 131.929 87.1707 131.929 87.384V91.64C131.929 93.0373 132.585 93.736 133.897 93.736C134.548 93.736 135.044 93.56 135.385 93.208C135.727 92.856 135.897 92.3333 135.897 91.64V87.384C135.897 87.1707 135.967 86.9893 136.105 86.84C136.255 86.6907 136.436 86.616 136.649 86.616ZM148.304 86.472C150.182 86.472 151.12 87.6347 151.12 89.96V94.232C151.12 94.4453 151.046 94.6267 150.896 94.776C150.758 94.9253 150.576 95 150.352 95C150.139 95 149.958 94.9253 149.808 94.776C149.67 94.6267 149.6 94.4453 149.6 94.232V89.96C149.6 88.5733 149.014 87.88 147.84 87.88C147.211 87.88 146.688 88.0827 146.272 88.488C145.856 88.8827 145.648 89.3733 145.648 89.96V94.232C145.648 94.4453 145.574 94.6267 145.424 94.776C145.286 94.9253 145.104 95 144.88 95C144.656 95 144.475 94.9307 144.336 94.792C144.198 94.6427 144.128 94.456 144.128 94.232V83.928C144.128 83.7147 144.198 83.5333 144.336 83.384C144.486 83.2347 144.667 83.16 144.88 83.16C145.104 83.16 145.286 83.2347 145.424 83.384C145.574 83.5333 145.648 83.7147 145.648 83.928V87.976C145.915 87.56 146.288 87.208 146.768 86.92C147.248 86.6213 147.76 86.472 148.304 86.472ZM160.194 86.504C160.418 86.504 160.599 86.5787 160.738 86.728C160.887 86.8667 160.962 87.0533 160.962 87.288V94.232C160.962 94.4453 160.887 94.6267 160.738 94.776C160.599 94.9253 160.418 95 160.194 95C159.97 95 159.788 94.9307 159.65 94.792C159.511 94.6427 159.442 94.456 159.442 94.232V93.816C159.164 94.1893 158.786 94.5093 158.306 94.776C157.826 95.032 157.308 95.16 156.754 95.16C156.028 95.16 155.367 94.9733 154.77 94.6C154.183 94.2267 153.719 93.7093 153.378 93.048C153.047 92.376 152.882 91.624 152.882 90.792C152.882 89.96 153.047 89.2133 153.378 88.552C153.719 87.88 154.183 87.3573 154.77 86.984C155.356 86.6107 156.002 86.424 156.706 86.424C157.271 86.424 157.794 86.5413 158.274 86.776C158.764 87.0107 159.154 87.3093 159.442 87.672V87.288C159.442 87.064 159.511 86.8773 159.65 86.728C159.788 86.5787 159.97 86.504 160.194 86.504ZM156.93 93.752C157.431 93.752 157.874 93.624 158.258 93.368C158.652 93.112 158.956 92.76 159.17 92.312C159.394 91.864 159.506 91.3573 159.506 90.792C159.506 90.2373 159.394 89.736 159.17 89.288C158.956 88.84 158.652 88.488 158.258 88.232C157.874 87.9653 157.431 87.832 156.93 87.832C156.428 87.832 155.98 87.96 155.586 88.216C155.202 88.472 154.898 88.824 154.674 89.272C154.46 89.72 154.354 90.2267 154.354 90.792C154.354 91.3573 154.46 91.864 154.674 92.312C154.898 92.76 155.202 93.112 155.586 93.368C155.98 93.624 156.428 93.752 156.93 93.752ZM169.434 86.536C169.637 86.536 169.808 86.6053 169.946 86.744C170.085 86.872 170.154 87.0267 170.154 87.208C170.154 87.304 170.117 87.4373 170.042 87.608L167.002 94.52C166.938 94.6587 166.848 94.7707 166.73 94.856C166.613 94.9413 166.485 94.9893 166.346 95C166.176 95.0213 166.016 94.9893 165.866 94.904C165.728 94.8187 165.621 94.6907 165.546 94.52L162.506 87.608C162.453 87.448 162.426 87.3147 162.426 87.208C162.426 87.0373 162.496 86.8827 162.634 86.744C162.773 86.6053 162.954 86.536 163.178 86.536C163.338 86.536 163.482 86.5787 163.61 86.664C163.738 86.7387 163.84 86.856 163.914 87.016L166.33 92.632L168.746 87.016C168.896 86.696 169.125 86.536 169.434 86.536ZM179.082 90.488C179.071 90.68 178.991 90.8453 178.842 90.984C178.693 91.112 178.517 91.176 178.314 91.176H172.682C172.757 91.9547 173.05 92.5787 173.562 93.048C174.085 93.5173 174.719 93.752 175.466 93.752C175.978 93.752 176.394 93.6773 176.714 93.528C177.034 93.3787 177.317 93.1867 177.562 92.952C177.722 92.856 177.877 92.808 178.026 92.808C178.207 92.808 178.357 92.872 178.474 93C178.602 93.128 178.666 93.2773 178.666 93.448C178.666 93.672 178.559 93.8747 178.346 94.056C178.037 94.3653 177.626 94.6267 177.114 94.84C176.602 95.0533 176.079 95.16 175.546 95.16C174.682 95.16 173.919 94.9787 173.258 94.616C172.607 94.2533 172.101 93.7467 171.738 93.096C171.386 92.4453 171.21 91.7093 171.21 90.888C171.21 89.992 171.391 89.208 171.754 88.536C172.127 87.8533 172.613 87.3307 173.21 86.968C173.818 86.6053 174.469 86.424 175.162 86.424C175.845 86.424 176.485 86.6 177.082 86.952C177.679 87.304 178.159 87.7893 178.522 88.408C178.885 89.0267 179.071 89.72 179.082 90.488ZM175.162 87.832C174.565 87.832 174.047 88.0027 173.61 88.344C173.173 88.6747 172.885 89.192 172.746 89.896H177.466V89.768C177.413 89.2027 177.157 88.7387 176.698 88.376C176.25 88.0133 175.738 87.832 175.162 87.832ZM70.1278 106.424C70.9704 106.424 71.6691 106.557 72.2238 106.824C72.7891 107.091 73.0718 107.432 73.0718 107.848C73.0718 108.029 73.0131 108.195 72.8958 108.344C72.7784 108.483 72.6291 108.552 72.4478 108.552C72.3091 108.552 72.1971 108.531 72.1118 108.488C72.0371 108.445 71.9304 108.376 71.7918 108.28C71.7278 108.216 71.6264 108.141 71.4878 108.056C71.3598 107.992 71.1784 107.939 70.9438 107.896C70.7091 107.853 70.4958 107.832 70.3038 107.832C69.7491 107.832 69.2584 107.96 68.8318 108.216C68.4051 108.472 68.0744 108.829 67.8398 109.288C67.6051 109.736 67.4878 110.237 67.4878 110.792C67.4878 111.357 67.5998 111.864 67.8238 112.312C68.0584 112.76 68.3838 113.112 68.7998 113.368C69.2158 113.624 69.6904 113.752 70.2238 113.752C70.7784 113.752 71.2264 113.667 71.5678 113.496C71.6424 113.453 71.7438 113.384 71.8718 113.288C71.9784 113.203 72.0691 113.139 72.1438 113.096C72.2291 113.053 72.3304 113.032 72.4478 113.032C72.6611 113.032 72.8264 113.101 72.9438 113.24C73.0718 113.368 73.1358 113.539 73.1358 113.752C73.1358 113.976 72.9918 114.2 72.7038 114.424C72.4264 114.637 72.0478 114.813 71.5678 114.952C71.0984 115.091 70.5918 115.16 70.0477 115.16C69.2371 115.16 68.5224 114.973 67.9038 114.6C67.2851 114.216 66.8051 113.693 66.4638 113.032C66.1331 112.36 65.9678 111.613 65.9678 110.792C65.9678 109.971 66.1438 109.229 66.4958 108.568C66.8478 107.896 67.3384 107.373 67.9678 107C68.5971 106.616 69.3171 106.424 70.1278 106.424ZM82.6345 110.808C82.6345 111.64 82.4478 112.387 82.0745 113.048C81.7012 113.709 81.1892 114.227 80.5385 114.6C79.8985 114.973 79.1892 115.16 78.4105 115.16C77.6318 115.16 76.9172 114.973 76.2665 114.6C75.6265 114.227 75.1198 113.709 74.7465 113.048C74.3732 112.387 74.1865 111.64 74.1865 110.808C74.1865 109.976 74.3732 109.224 74.7465 108.552C75.1198 107.88 75.6265 107.357 76.2665 106.984C76.9172 106.611 77.6318 106.424 78.4105 106.424C79.1892 106.424 79.8985 106.611 80.5385 106.984C81.1892 107.357 81.7012 107.88 82.0745 108.552C82.4478 109.224 82.6345 109.976 82.6345 110.808ZM81.1145 110.808C81.1145 110.232 80.9918 109.72 80.7465 109.272C80.5118 108.813 80.1865 108.461 79.7705 108.216C79.3652 107.96 78.9118 107.832 78.4105 107.832C77.9092 107.832 77.4505 107.96 77.0345 108.216C76.6292 108.461 76.3038 108.813 76.0585 109.272C75.8238 109.72 75.7065 110.232 75.7065 110.808C75.7065 111.373 75.8238 111.88 76.0585 112.328C76.3038 112.776 76.6292 113.128 77.0345 113.384C77.4505 113.629 77.9092 113.752 78.4105 113.752C78.9118 113.752 79.3652 113.629 79.7705 113.384C80.1865 113.128 80.5118 112.776 80.7465 112.328C80.9918 111.88 81.1145 111.373 81.1145 110.808ZM94.0176 106.472C95.8843 106.472 96.8176 107.635 96.8176 109.96V114.232C96.8176 114.456 96.7483 114.643 96.6096 114.792C96.471 114.931 96.2896 115 96.0656 115C95.8416 115 95.655 114.925 95.5056 114.776C95.367 114.627 95.2976 114.445 95.2976 114.232V109.976C95.2976 108.579 94.711 107.88 93.5376 107.88C93.1216 107.88 92.743 107.976 92.4016 108.168C92.071 108.349 91.8096 108.6 91.6176 108.92C91.4363 109.24 91.3456 109.592 91.3456 109.976V114.232C91.3456 114.445 91.271 114.627 91.1216 114.776C90.983 114.925 90.8016 115 90.5776 115C90.3536 115 90.1723 114.931 90.0336 114.792C89.895 114.643 89.8256 114.456 89.8256 114.232V109.96C89.8256 109.331 89.6923 108.829 89.4256 108.456C89.159 108.072 88.7163 107.88 88.0976 107.88C87.4683 107.88 86.9456 108.083 86.5296 108.488C86.1243 108.883 85.9216 109.373 85.9216 109.96V114.232C85.9216 114.445 85.847 114.627 85.6976 114.776C85.559 114.925 85.3776 115 85.1536 115C84.9296 115 84.7483 114.931 84.6096 114.792C84.471 114.643 84.4016 114.456 84.4016 114.232V107.384C84.4016 107.171 84.471 106.989 84.6096 106.84C84.759 106.691 84.9403 106.616 85.1536 106.616C85.3776 106.616 85.559 106.691 85.6976 106.84C85.847 106.989 85.9216 107.171 85.9216 107.384V107.944C86.199 107.528 86.567 107.181 87.0256 106.904C87.495 106.616 88.0016 106.472 88.5456 106.472C89.8683 106.472 90.727 107.059 91.1216 108.232C91.3563 107.784 91.7456 107.379 92.2896 107.016C92.8336 106.653 93.4096 106.472 94.0176 106.472ZM103.297 106.472C104.022 106.472 104.678 106.659 105.265 107.032C105.852 107.395 106.31 107.907 106.641 108.568C106.982 109.229 107.153 109.976 107.153 110.808C107.153 111.64 106.982 112.387 106.641 113.048C106.31 113.699 105.852 114.211 105.265 114.584C104.678 114.957 104.033 115.144 103.329 115.144C102.774 115.144 102.257 115.021 101.777 114.776C101.297 114.531 100.908 114.232 100.609 113.88V117.432C100.609 117.645 100.534 117.827 100.385 117.976C100.246 118.125 100.065 118.2 99.8411 118.2C99.6278 118.2 99.4465 118.125 99.2971 117.976C99.1585 117.837 99.0891 117.656 99.0891 117.432V107.368C99.0891 107.144 99.1585 106.957 99.2971 106.808C99.4358 106.659 99.6171 106.584 99.8411 106.584C100.065 106.584 100.246 106.659 100.385 106.808C100.534 106.957 100.609 107.144 100.609 107.368V107.832C100.865 107.459 101.238 107.139 101.729 106.872C102.22 106.605 102.742 106.472 103.297 106.472ZM103.121 113.736C103.612 113.736 104.054 113.608 104.449 113.352C104.844 113.096 105.148 112.749 105.361 112.312C105.585 111.864 105.697 111.363 105.697 110.808C105.697 110.253 105.585 109.757 105.361 109.32C105.148 108.872 104.844 108.52 104.449 108.264C104.054 108.008 103.612 107.88 103.121 107.88C102.62 107.88 102.172 108.008 101.777 108.264C101.382 108.509 101.073 108.856 100.849 109.304C100.636 109.752 100.529 110.253 100.529 110.808C100.529 111.363 100.636 111.864 100.849 112.312C101.073 112.76 101.382 113.112 101.777 113.368C102.172 113.613 102.62 113.736 103.121 113.736ZM110.565 114.232C110.565 114.445 110.491 114.627 110.341 114.776C110.192 114.925 110.011 115 109.797 115C109.584 115 109.403 114.925 109.253 114.776C109.115 114.627 109.045 114.445 109.045 114.232V103.928C109.045 103.715 109.12 103.533 109.269 103.384C109.419 103.235 109.6 103.16 109.813 103.16C110.027 103.16 110.203 103.235 110.341 103.384C110.491 103.533 110.565 103.715 110.565 103.928V114.232ZM120.168 110.488C120.157 110.68 120.077 110.845 119.928 110.984C119.779 111.112 119.603 111.176 119.4 111.176H113.768C113.843 111.955 114.136 112.579 114.648 113.048C115.171 113.517 115.805 113.752 116.552 113.752C117.064 113.752 117.48 113.677 117.8 113.528C118.12 113.379 118.403 113.187 118.648 112.952C118.808 112.856 118.963 112.808 119.112 112.808C119.293 112.808 119.443 112.872 119.56 113C119.688 113.128 119.752 113.277 119.752 113.448C119.752 113.672 119.645 113.875 119.432 114.056C119.123 114.365 118.712 114.627 118.2 114.84C117.688 115.053 117.165 115.16 116.632 115.16C115.768 115.16 115.005 114.979 114.344 114.616C113.693 114.253 113.187 113.747 112.824 113.096C112.472 112.445 112.296 111.709 112.296 110.888C112.296 109.992 112.477 109.208 112.84 108.536C113.213 107.853 113.699 107.331 114.296 106.968C114.904 106.605 115.555 106.424 116.248 106.424C116.931 106.424 117.571 106.6 118.168 106.952C118.765 107.304 119.245 107.789 119.608 108.408C119.971 109.027 120.157 109.72 120.168 110.488ZM116.248 107.832C115.651 107.832 115.133 108.003 114.696 108.344C114.259 108.675 113.971 109.192 113.832 109.896H118.552V109.768C118.499 109.203 118.243 108.739 117.784 108.376C117.336 108.013 116.824 107.832 116.248 107.832ZM124.205 108.104V112.872C124.205 113.405 124.445 113.672 124.925 113.672C125 113.672 125.101 113.656 125.229 113.624C125.357 113.581 125.458 113.56 125.533 113.56C125.672 113.56 125.789 113.619 125.885 113.736C125.981 113.853 126.029 114.003 126.029 114.184C126.029 114.408 125.901 114.6 125.645 114.76C125.389 114.92 125.101 115 124.781 115C124.429 115 124.104 114.963 123.805 114.888C123.517 114.813 123.256 114.627 123.021 114.328C122.797 114.019 122.685 113.555 122.685 112.936V108.104H121.757C121.554 108.104 121.384 108.04 121.245 107.912C121.117 107.773 121.053 107.603 121.053 107.4C121.053 107.197 121.117 107.032 121.245 106.904C121.384 106.776 121.554 106.712 121.757 106.712H122.685V105.368C122.685 105.155 122.754 104.973 122.893 104.824C123.042 104.675 123.229 104.6 123.453 104.6C123.666 104.6 123.842 104.675 123.981 104.824C124.13 104.973 124.205 105.155 124.205 105.368V106.712H125.533C125.736 106.712 125.901 106.781 126.029 106.92C126.168 107.048 126.237 107.213 126.237 107.416C126.237 107.619 126.168 107.784 126.029 107.912C125.901 108.04 125.736 108.104 125.533 108.104H124.205ZM135.293 110.488C135.282 110.68 135.202 110.845 135.053 110.984C134.904 111.112 134.728 111.176 134.525 111.176H128.893C128.968 111.955 129.261 112.579 129.773 113.048C130.296 113.517 130.93 113.752 131.677 113.752C132.189 113.752 132.605 113.677 132.925 113.528C133.245 113.379 133.528 113.187 133.773 112.952C133.933 112.856 134.088 112.808 134.237 112.808C134.418 112.808 134.568 112.872 134.685 113C134.813 113.128 134.877 113.277 134.877 113.448C134.877 113.672 134.77 113.875 134.557 114.056C134.248 114.365 133.837 114.627 133.325 114.84C132.813 115.053 132.29 115.16 131.757 115.16C130.893 115.16 130.13 114.979 129.469 114.616C128.818 114.253 128.312 113.747 127.949 113.096C127.597 112.445 127.421 111.709 127.421 110.888C127.421 109.992 127.602 109.208 127.965 108.536C128.338 107.853 128.824 107.331 129.421 106.968C130.029 106.605 130.68 106.424 131.373 106.424C132.056 106.424 132.696 106.6 133.293 106.952C133.89 107.304 134.37 107.789 134.733 108.408C135.096 109.027 135.282 109.72 135.293 110.488ZM131.373 107.832C130.776 107.832 130.258 108.003 129.821 108.344C129.384 108.675 129.096 109.192 128.957 109.896H133.677V109.768C133.624 109.203 133.368 108.739 132.909 108.376C132.461 108.013 131.949 107.832 131.373 107.832ZM143.858 103.16C144.082 103.16 144.263 103.235 144.402 103.384C144.551 103.523 144.626 103.704 144.626 103.928V114.232C144.626 114.445 144.551 114.627 144.402 114.776C144.263 114.925 144.082 115 143.858 115C143.634 115 143.453 114.931 143.314 114.792C143.175 114.643 143.106 114.456 143.106 114.232V113.784C142.839 114.168 142.461 114.493 141.97 114.76C141.49 115.027 140.973 115.16 140.418 115.16C139.693 115.16 139.037 114.973 138.45 114.6C137.863 114.227 137.399 113.709 137.058 113.048C136.717 112.376 136.546 111.624 136.546 110.792C136.546 109.96 136.711 109.213 137.042 108.552C137.383 107.88 137.847 107.357 138.434 106.984C139.021 106.611 139.666 106.424 140.37 106.424C140.935 106.424 141.458 106.541 141.938 106.776C142.418 107.011 142.807 107.315 143.106 107.688V103.928C143.106 103.704 143.175 103.523 143.314 103.384C143.453 103.235 143.634 103.16 143.858 103.16ZM140.594 113.752C141.095 113.752 141.538 113.624 141.922 113.368C142.317 113.112 142.621 112.76 142.834 112.312C143.058 111.864 143.17 111.357 143.17 110.792C143.17 110.237 143.058 109.736 142.834 109.288C142.621 108.829 142.317 108.472 141.922 108.216C141.538 107.96 141.095 107.832 140.594 107.832C140.093 107.832 139.645 107.96 139.25 108.216C138.866 108.472 138.562 108.829 138.338 109.288C138.125 109.736 138.018 110.237 138.018 110.792C138.018 111.357 138.125 111.864 138.338 112.312C138.562 112.76 138.866 113.112 139.25 113.368C139.645 113.624 140.093 113.752 140.594 113.752ZM153.596 108.104V112.872C153.596 113.405 153.836 113.672 154.316 113.672C154.39 113.672 154.492 113.656 154.62 113.624C154.748 113.581 154.849 113.56 154.924 113.56C155.062 113.56 155.18 113.619 155.276 113.736C155.372 113.853 155.42 114.003 155.42 114.184C155.42 114.408 155.292 114.6 155.036 114.76C154.78 114.92 154.492 115 154.172 115C153.82 115 153.494 114.963 153.196 114.888C152.908 114.813 152.646 114.627 152.412 114.328C152.188 114.019 152.076 113.555 152.076 112.936V108.104H151.148C150.945 108.104 150.774 108.04 150.636 107.912C150.508 107.773 150.444 107.603 150.444 107.4C150.444 107.197 150.508 107.032 150.636 106.904C150.774 106.776 150.945 106.712 151.148 106.712H152.076V105.368C152.076 105.155 152.145 104.973 152.284 104.824C152.433 104.675 152.62 104.6 152.844 104.6C153.057 104.6 153.233 104.675 153.372 104.824C153.521 104.973 153.596 105.155 153.596 105.368V106.712H154.924C155.126 106.712 155.292 106.781 155.42 106.92C155.558 107.048 155.628 107.213 155.628 107.416C155.628 107.619 155.558 107.784 155.42 107.912C155.292 108.04 155.126 108.104 154.924 108.104H153.596ZM161.578 106.472C163.455 106.472 164.394 107.635 164.394 109.96V114.232C164.394 114.445 164.319 114.627 164.17 114.776C164.031 114.925 163.85 115 163.626 115C163.412 115 163.231 114.925 163.082 114.776C162.943 114.627 162.874 114.445 162.874 114.232V109.96C162.874 108.573 162.287 107.88 161.114 107.88C160.484 107.88 159.962 108.083 159.546 108.488C159.13 108.883 158.922 109.373 158.922 109.96V114.232C158.922 114.445 158.847 114.627 158.698 114.776C158.559 114.925 158.378 115 158.154 115C157.93 115 157.748 114.931 157.61 114.792C157.471 114.643 157.402 114.456 157.402 114.232V103.928C157.402 103.715 157.471 103.533 157.61 103.384C157.759 103.235 157.94 103.16 158.154 103.16C158.378 103.16 158.559 103.235 158.698 103.384C158.847 103.533 158.922 103.715 158.922 103.928V107.976C159.188 107.56 159.562 107.208 160.042 106.92C160.522 106.621 161.034 106.472 161.578 106.472ZM174.027 110.488C174.017 110.68 173.937 110.845 173.787 110.984C173.638 111.112 173.462 111.176 173.259 111.176H167.627C167.702 111.955 167.995 112.579 168.507 113.048C169.03 113.517 169.665 113.752 170.411 113.752C170.923 113.752 171.339 113.677 171.659 113.528C171.979 113.379 172.262 113.187 172.507 112.952C172.667 112.856 172.822 112.808 172.971 112.808C173.153 112.808 173.302 112.872 173.419 113C173.547 113.128 173.611 113.277 173.611 113.448C173.611 113.672 173.505 113.875 173.291 114.056C172.982 114.365 172.571 114.627 172.059 114.84C171.547 115.053 171.025 115.16 170.491 115.16C169.627 115.16 168.865 114.979 168.203 114.616C167.553 114.253 167.046 113.747 166.683 113.096C166.331 112.445 166.155 111.709 166.155 110.888C166.155 109.992 166.337 109.208 166.699 108.536C167.073 107.853 167.558 107.331 168.155 106.968C168.763 106.605 169.414 106.424 170.107 106.424C170.79 106.424 171.43 106.6 172.027 106.952C172.625 107.304 173.105 107.789 173.467 108.408C173.83 109.027 174.017 109.72 174.027 110.488ZM170.107 107.832C169.51 107.832 168.993 108.003 168.555 108.344C168.118 108.675 167.83 109.192 167.691 109.896H172.411V109.768C172.358 109.203 172.102 108.739 171.643 108.376C171.195 108.013 170.683 107.832 170.107 107.832ZM74.6001 126.584C74.8241 126.584 75.0054 126.659 75.1441 126.808C75.2934 126.947 75.3681 127.133 75.3681 127.368V137.432C75.3681 137.645 75.2934 137.827 75.1441 137.976C75.0054 138.125 74.8241 138.2 74.6001 138.2C74.3761 138.2 74.1947 138.125 74.0561 137.976C73.9174 137.837 73.8481 137.656 73.8481 137.432V133.784C73.5814 134.168 73.2027 134.493 72.7121 134.76C72.2321 135.027 71.7147 135.16 71.1601 135.16C70.4347 135.16 69.7787 134.973 69.1921 134.6C68.6054 134.227 68.1414 133.709 67.8001 133.048C67.4587 132.376 67.2881 131.624 67.2881 130.792C67.2881 129.96 67.4534 129.213 67.7841 128.552C68.1254 127.88 68.5894 127.357 69.1761 126.984C69.7627 126.611 70.4081 126.424 71.1121 126.424C71.6774 126.424 72.2001 126.541 72.6801 126.776C73.1601 127.011 73.5494 127.315 73.8481 127.688V127.368C73.8481 127.144 73.9174 126.957 74.0561 126.808C74.1947 126.659 74.3761 126.584 74.6001 126.584ZM71.3361 133.752C71.8374 133.752 72.2801 133.624 72.6641 133.368C73.0587 133.112 73.3627 132.76 73.5761 132.312C73.8001 131.864 73.9121 131.357 73.9121 130.792C73.9121 130.237 73.8001 129.736 73.5761 129.288C73.3627 128.829 73.0587 128.472 72.6641 128.216C72.2801 127.96 71.8374 127.832 71.3361 127.832C70.8347 127.832 70.3867 127.96 69.9921 128.216C69.6081 128.472 69.3041 128.829 69.0801 129.288C68.8667 129.736 68.7601 130.237 68.7601 130.792C68.7601 131.357 68.8667 131.864 69.0801 132.312C69.3041 132.76 69.6081 133.112 69.9921 133.368C70.3867 133.624 70.8347 133.752 71.3361 133.752ZM83.8682 126.616C84.0922 126.616 84.2735 126.691 84.4122 126.84C84.5615 126.989 84.6362 127.171 84.6362 127.384V131.64C84.6362 132.749 84.3269 133.613 83.7082 134.232C83.1002 134.84 82.2362 135.144 81.1162 135.144C80.0069 135.144 79.1482 134.84 78.5402 134.232C77.9322 133.613 77.6282 132.749 77.6282 131.64V127.384C77.6282 127.171 77.6975 126.989 77.8362 126.84C77.9855 126.691 78.1669 126.616 78.3802 126.616C78.6042 126.616 78.7855 126.691 78.9242 126.84C79.0735 126.989 79.1482 127.171 79.1482 127.384V131.64C79.1482 133.037 79.8042 133.736 81.1162 133.736C81.7669 133.736 82.2629 133.56 82.6042 133.208C82.9455 132.856 83.1162 132.333 83.1162 131.64V127.384C83.1162 127.171 83.1855 126.989 83.3242 126.84C83.4735 126.691 83.6549 126.616 83.8682 126.616ZM94.2694 130.488C94.2588 130.68 94.1788 130.845 94.0294 130.984C93.8801 131.112 93.7041 131.176 93.5014 131.176H87.8694C87.9441 131.955 88.2374 132.579 88.7494 133.048C89.2721 133.517 89.9068 133.752 90.6534 133.752C91.1654 133.752 91.5814 133.677 91.9014 133.528C92.2214 133.379 92.5041 133.187 92.7494 132.952C92.9094 132.856 93.0641 132.808 93.2134 132.808C93.3948 132.808 93.5441 132.872 93.6614 133C93.7894 133.128 93.8534 133.277 93.8534 133.448C93.8534 133.672 93.7468 133.875 93.5334 134.056C93.2241 134.365 92.8134 134.627 92.3014 134.84C91.7894 135.053 91.2668 135.16 90.7334 135.16C89.8694 135.16 89.1068 134.979 88.4454 134.616C87.7948 134.253 87.2881 133.747 86.9254 133.096C86.5734 132.445 86.3974 131.709 86.3974 130.888C86.3974 129.992 86.5788 129.208 86.9414 128.536C87.3148 127.853 87.8001 127.331 88.3974 126.968C89.0054 126.605 89.6561 126.424 90.3494 126.424C91.0321 126.424 91.6721 126.6 92.2694 126.952C92.8668 127.304 93.3468 127.789 93.7094 128.408C94.0721 129.027 94.2588 129.72 94.2694 130.488ZM90.3494 127.832C89.7521 127.832 89.2348 128.003 88.7974 128.344C88.3601 128.675 88.0721 129.192 87.9334 129.896H92.6534V129.768C92.6001 129.203 92.3441 128.739 91.8854 128.376C91.4374 128.013 90.9254 127.832 90.3494 127.832ZM95.5544 133.688C95.4584 133.539 95.4104 133.395 95.4104 133.256C95.4104 133.043 95.5224 132.861 95.7464 132.712C95.8531 132.637 95.9758 132.6 96.1144 132.6C96.3064 132.6 96.4824 132.68 96.6424 132.84C96.9624 133.203 97.3038 133.475 97.6664 133.656C98.0398 133.837 98.4824 133.928 98.9944 133.928C99.3998 133.917 99.7571 133.827 100.066 133.656C100.376 133.475 100.53 133.187 100.53 132.792C100.53 132.429 100.37 132.152 100.05 131.96C99.7411 131.768 99.2824 131.592 98.6744 131.432C98.0771 131.272 97.5811 131.107 97.1864 130.936C96.7918 130.755 96.4558 130.499 96.1784 130.168C95.9118 129.827 95.7784 129.384 95.7784 128.84C95.7784 128.36 95.9118 127.939 96.1784 127.576C96.4558 127.213 96.8184 126.931 97.2664 126.728C97.7251 126.525 98.2211 126.424 98.7544 126.424C99.2664 126.424 99.7731 126.52 100.274 126.712C100.786 126.904 101.202 127.197 101.522 127.592C101.65 127.741 101.714 127.896 101.714 128.056C101.714 128.227 101.629 128.392 101.458 128.552C101.352 128.648 101.218 128.696 101.058 128.696C100.866 128.696 100.712 128.632 100.594 128.504C100.37 128.248 100.093 128.051 99.7624 127.912C99.4424 127.773 99.0851 127.704 98.6904 127.704C98.2851 127.704 97.9384 127.789 97.6504 127.96C97.3731 128.12 97.2344 128.397 97.2344 128.792C97.2451 129.165 97.4051 129.443 97.7144 129.624C98.0344 129.805 98.5198 129.981 99.1704 130.152C99.7358 130.301 100.205 130.461 100.578 130.632C100.952 130.803 101.266 131.059 101.522 131.4C101.778 131.731 101.906 132.168 101.906 132.712C101.906 133.213 101.762 133.651 101.474 134.024C101.186 134.387 100.808 134.669 100.338 134.872C99.8798 135.064 99.3891 135.16 98.8664 135.16C98.1944 135.16 97.5704 135.043 96.9944 134.808C96.4291 134.573 95.9491 134.2 95.5544 133.688ZM105.931 128.104V132.872C105.931 133.405 106.171 133.672 106.651 133.672C106.726 133.672 106.827 133.656 106.955 133.624C107.083 133.581 107.185 133.56 107.259 133.56C107.398 133.56 107.515 133.619 107.611 133.736C107.707 133.853 107.755 134.003 107.755 134.184C107.755 134.408 107.627 134.6 107.371 134.76C107.115 134.92 106.827 135 106.507 135C106.155 135 105.83 134.963 105.531 134.888C105.243 134.813 104.982 134.627 104.747 134.328C104.523 134.019 104.411 133.555 104.411 132.936V128.104H103.483C103.281 128.104 103.11 128.04 102.971 127.912C102.843 127.773 102.779 127.603 102.779 127.4C102.779 127.197 102.843 127.032 102.971 126.904C103.11 126.776 103.281 126.712 103.483 126.712H104.411V125.368C104.411 125.155 104.481 124.973 104.619 124.824C104.769 124.675 104.955 124.6 105.179 124.6C105.393 124.6 105.569 124.675 105.707 124.824C105.857 124.973 105.931 125.155 105.931 125.368V126.712H107.259C107.462 126.712 107.627 126.781 107.755 126.92C107.894 127.048 107.963 127.213 107.963 127.416C107.963 127.619 107.894 127.784 107.755 127.912C107.627 128.04 107.462 128.104 107.259 128.104H105.931ZM111.178 134.232C111.178 134.445 111.103 134.627 110.954 134.776C110.815 134.925 110.634 135 110.41 135C110.196 135 110.015 134.925 109.866 134.776C109.727 134.627 109.658 134.445 109.658 134.232V127.304C109.658 127.091 109.727 126.909 109.866 126.76C110.015 126.611 110.196 126.536 110.41 126.536C110.634 126.536 110.815 126.611 110.954 126.76C111.103 126.909 111.178 127.091 111.178 127.304V134.232ZM110.41 125.48C110.1 125.48 109.876 125.427 109.738 125.32C109.61 125.203 109.546 125.021 109.546 124.776V124.52C109.546 124.264 109.615 124.083 109.754 123.976C109.903 123.869 110.127 123.816 110.426 123.816C110.724 123.816 110.938 123.875 111.066 123.992C111.204 124.099 111.274 124.275 111.274 124.52V124.776C111.274 125.032 111.204 125.213 111.066 125.32C110.927 125.427 110.708 125.48 110.41 125.48ZM121.299 130.808C121.299 131.64 121.112 132.387 120.739 133.048C120.365 133.709 119.853 134.227 119.203 134.6C118.563 134.973 117.853 135.16 117.075 135.16C116.296 135.16 115.581 134.973 114.931 134.6C114.291 134.227 113.784 133.709 113.411 133.048C113.037 132.387 112.851 131.64 112.851 130.808C112.851 129.976 113.037 129.224 113.411 128.552C113.784 127.88 114.291 127.357 114.931 126.984C115.581 126.611 116.296 126.424 117.075 126.424C117.853 126.424 118.563 126.611 119.203 126.984C119.853 127.357 120.365 127.88 120.739 128.552C121.112 129.224 121.299 129.976 121.299 130.808ZM119.779 130.808C119.779 130.232 119.656 129.72 119.411 129.272C119.176 128.813 118.851 128.461 118.435 128.216C118.029 127.96 117.576 127.832 117.075 127.832C116.573 127.832 116.115 127.96 115.699 128.216C115.293 128.461 114.968 128.813 114.723 129.272C114.488 129.72 114.371 130.232 114.371 130.808C114.371 131.373 114.488 131.88 114.723 132.328C114.968 132.776 115.293 133.128 115.699 133.384C116.115 133.629 116.573 133.752 117.075 133.752C117.576 133.752 118.029 133.629 118.435 133.384C118.851 133.128 119.176 132.776 119.411 132.328C119.656 131.88 119.779 131.373 119.779 130.808ZM127.338 126.424C129.258 126.424 130.218 127.576 130.218 129.88V134.232C130.218 134.445 130.143 134.627 129.994 134.776C129.855 134.925 129.674 135 129.45 135C129.236 135 129.055 134.925 128.906 134.776C128.767 134.627 128.698 134.445 128.698 134.232V129.896C128.698 129.267 128.554 128.765 128.266 128.392C127.978 128.019 127.508 127.832 126.858 127.832C126.431 127.832 126.042 127.928 125.69 128.12C125.348 128.301 125.076 128.552 124.874 128.872C124.682 129.181 124.586 129.523 124.586 129.896V134.232C124.586 134.445 124.511 134.627 124.362 134.776C124.223 134.925 124.042 135 123.818 135C123.594 135 123.412 134.931 123.274 134.792C123.135 134.643 123.066 134.456 123.066 134.232V127.384C123.066 127.171 123.135 126.989 123.274 126.84C123.423 126.691 123.604 126.616 123.818 126.616C124.042 126.616 124.223 126.691 124.362 126.84C124.511 126.989 124.586 127.171 124.586 127.384V127.944C124.863 127.517 125.247 127.16 125.738 126.872C126.239 126.573 126.772 126.424 127.338 126.424ZM136.76 126.424C138.68 126.424 139.64 127.576 139.64 129.88V134.232C139.64 134.445 139.565 134.627 139.416 134.776C139.277 134.925 139.096 135 138.872 135C138.658 135 138.477 134.925 138.328 134.776C138.189 134.627 138.12 134.445 138.12 134.232V129.896C138.12 129.267 137.976 128.765 137.688 128.392C137.4 128.019 136.93 127.832 136.28 127.832C135.853 127.832 135.464 127.928 135.112 128.12C134.77 128.301 134.498 128.552 134.296 128.872C134.104 129.181 134.008 129.523 134.008 129.896V134.232C134.008 134.445 133.933 134.627 133.784 134.776C133.645 134.925 133.464 135 133.24 135C133.016 135 132.834 134.931 132.696 134.792C132.557 134.643 132.488 134.456 132.488 134.232V127.384C132.488 127.171 132.557 126.989 132.696 126.84C132.845 126.691 133.026 126.616 133.24 126.616C133.464 126.616 133.645 126.691 133.784 126.84C133.933 126.989 134.008 127.171 134.008 127.384V127.944C134.285 127.517 134.669 127.16 135.16 126.872C135.661 126.573 136.194 126.424 136.76 126.424ZM148.709 126.504C148.933 126.504 149.115 126.579 149.253 126.728C149.403 126.867 149.477 127.053 149.477 127.288V134.232C149.477 134.445 149.403 134.627 149.253 134.776C149.115 134.925 148.933 135 148.709 135C148.485 135 148.304 134.931 148.165 134.792C148.027 134.643 147.957 134.456 147.957 134.232V133.816C147.68 134.189 147.301 134.509 146.821 134.776C146.341 135.032 145.824 135.16 145.269 135.16C144.544 135.16 143.883 134.973 143.285 134.6C142.699 134.227 142.235 133.709 141.893 133.048C141.563 132.376 141.397 131.624 141.397 130.792C141.397 129.96 141.563 129.213 141.893 128.552C142.235 127.88 142.699 127.357 143.285 126.984C143.872 126.611 144.517 126.424 145.221 126.424C145.787 126.424 146.309 126.541 146.789 126.776C147.28 127.011 147.669 127.309 147.957 127.672V127.288C147.957 127.064 148.027 126.877 148.165 126.728C148.304 126.579 148.485 126.504 148.709 126.504ZM145.445 133.752C145.947 133.752 146.389 133.624 146.773 133.368C147.168 133.112 147.472 132.76 147.685 132.312C147.909 131.864 148.021 131.357 148.021 130.792C148.021 130.237 147.909 129.736 147.685 129.288C147.472 128.84 147.168 128.488 146.773 128.232C146.389 127.965 145.947 127.832 145.445 127.832C144.944 127.832 144.496 127.96 144.101 128.216C143.717 128.472 143.413 128.824 143.189 129.272C142.976 129.72 142.869 130.227 142.869 130.792C142.869 131.357 142.976 131.864 143.189 132.312C143.413 132.76 143.717 133.112 144.101 133.368C144.496 133.624 144.944 133.752 145.445 133.752ZM153.178 134.232C153.178 134.445 153.103 134.627 152.954 134.776C152.815 134.925 152.634 135 152.41 135C152.196 135 152.015 134.925 151.866 134.776C151.727 134.627 151.658 134.445 151.658 134.232V127.304C151.658 127.091 151.727 126.909 151.866 126.76C152.015 126.611 152.196 126.536 152.41 126.536C152.634 126.536 152.815 126.611 152.954 126.76C153.103 126.909 153.178 127.091 153.178 127.304V134.232ZM152.41 125.48C152.1 125.48 151.876 125.427 151.738 125.32C151.61 125.203 151.546 125.021 151.546 124.776V124.52C151.546 124.264 151.615 124.083 151.754 123.976C151.903 123.869 152.127 123.816 152.426 123.816C152.724 123.816 152.938 123.875 153.066 123.992C153.204 124.099 153.274 124.275 153.274 124.52V124.776C153.274 125.032 153.204 125.213 153.066 125.32C152.927 125.427 152.708 125.48 152.41 125.48ZM159.539 126.424C159.816 126.424 160.056 126.499 160.259 126.648C160.461 126.787 160.563 126.963 160.563 127.176C160.563 127.432 160.493 127.629 160.355 127.768C160.227 127.896 160.067 127.96 159.875 127.96C159.779 127.96 159.635 127.928 159.443 127.864C159.219 127.789 159.043 127.752 158.915 127.752C158.584 127.752 158.259 127.869 157.939 128.104C157.629 128.328 157.373 128.643 157.171 129.048C156.979 129.443 156.883 129.885 156.883 130.376V134.232C156.883 134.445 156.808 134.627 156.659 134.776C156.52 134.925 156.339 135 156.115 135C155.891 135 155.709 134.931 155.571 134.792C155.432 134.643 155.363 134.456 155.363 134.232V127.384C155.363 127.171 155.432 126.989 155.571 126.84C155.72 126.691 155.901 126.616 156.115 126.616C156.339 126.616 156.52 126.691 156.659 126.84C156.808 126.989 156.883 127.171 156.883 127.384V128.2C157.117 127.677 157.469 127.256 157.939 126.936C158.408 126.605 158.941 126.435 159.539 126.424ZM168.973 130.488C168.962 130.68 168.882 130.845 168.733 130.984C168.583 131.112 168.407 131.176 168.205 131.176H162.573C162.647 131.955 162.941 132.579 163.453 133.048C163.975 133.517 164.61 133.752 165.357 133.752C165.869 133.752 166.285 133.677 166.605 133.528C166.925 133.379 167.207 133.187 167.453 132.952C167.613 132.856 167.767 132.808 167.917 132.808C168.098 132.808 168.247 132.872 168.365 133C168.493 133.128 168.557 133.277 168.557 133.448C168.557 133.672 168.45 133.875 168.237 134.056C167.927 134.365 167.517 134.627 167.005 134.84C166.493 135.053 165.97 135.16 165.437 135.16C164.573 135.16 163.81 134.979 163.149 134.616C162.498 134.253 161.991 133.747 161.629 133.096C161.277 132.445 161.101 131.709 161.101 130.888C161.101 129.992 161.282 129.208 161.645 128.536C162.018 127.853 162.503 127.331 163.101 126.968C163.709 126.605 164.359 126.424 165.053 126.424C165.735 126.424 166.375 126.6 166.973 126.952C167.57 127.304 168.05 127.789 168.413 128.408C168.775 129.027 168.962 129.72 168.973 130.488ZM165.053 127.832C164.455 127.832 163.938 128.003 163.501 128.344C163.063 128.675 162.775 129.192 162.637 129.896H167.357V129.768C167.303 129.203 167.047 128.739 166.589 128.376C166.141 128.013 165.629 127.832 165.053 127.832ZM171.474 131.64C171.175 131.64 171.015 131.469 170.994 131.128L170.642 124.76C170.62 124.483 170.684 124.253 170.834 124.072C170.994 123.891 171.202 123.8 171.458 123.8C171.724 123.8 171.932 123.891 172.082 124.072C172.231 124.253 172.295 124.483 172.274 124.76L171.938 131.128C171.927 131.299 171.879 131.427 171.794 131.512C171.719 131.597 171.612 131.64 171.474 131.64ZM171.378 135C171.122 135 170.924 134.931 170.786 134.792C170.658 134.643 170.594 134.44 170.594 134.184V133.88C170.594 133.624 170.658 133.427 170.786 133.288C170.924 133.139 171.122 133.064 171.378 133.064H171.554C171.81 133.064 172.002 133.139 172.13 133.288C172.268 133.427 172.338 133.624 172.338 133.88V134.184C172.338 134.44 172.268 134.643 172.13 134.792C172.002 134.931 171.81 135 171.554 135H171.378Z" fill="#49A0FF"/>
<defs>
<radialGradient id="paint0_radial" cx="0" cy="0" r="1" gradientUnits="userSpaceOnUse" gradientTransform="translate(272 488.5) rotate(90) scale(24.5 104)">
<stop stop-color="#B0D6FF"/>
<stop offset="1" stop-color="white"/>
</radialGradient>
<linearGradient id="paint1_linear" x1="301.24" y1="213.684" x2="240.564" y2="333.608" gradientUnits="userSpaceOnUse">
<stop stop-color="#3B98FF"/>
<stop offset="1" stop-color="#7CBAFF"/>
</linearGradient>
<linearGradient id="paint2_linear" x1="258.876" y1="396.58" x2="295.671" y2="363.827" gradientUnits="userSpaceOnUse">
<stop stop-color="#7CBAFF"/>
<stop offset="1" stop-color="#3B98FF"/>
</linearGradient>
</defs>
</svg>
