<svg width="30" height="30" viewBox="0 0 30 30" fill="none" xmlns="http://www.w3.org/2000/svg">
<path d="M11.25 3.75V5H5C3.63367 5 2.5 6.13367 2.5 7.5V12.5V17.5V22.5C2.5 23.8663 3.63367 25 5 25H25C26.3663 25 27.5 23.8663 27.5 22.5V17.5V12.5V7.5C27.5 6.13367 26.3663 5 25 5H18.75V3.75H11.25ZM5 7.5H25V12.5V17.5H5V12.5V7.5ZM15 12.5C14.6685 12.5 14.3505 12.6317 14.1161 12.8661C13.8817 13.1005 13.75 13.4185 13.75 13.75C13.75 14.0815 13.8817 14.3995 14.1161 14.6339C14.3505 14.8683 14.6685 15 15 15C15.3315 15 15.6495 14.8683 15.8839 14.6339C16.1183 14.3995 16.25 14.0815 16.25 13.75C16.25 13.4185 16.1183 13.1005 15.8839 12.8661C15.6495 12.6317 15.3315 12.5 15 12.5ZM5 20H25V22.5H5V20Z" fill="#1C92FF"/>
</svg>
