<svg width="12" height="15" viewBox="0 0 12 15" fill="none" xmlns="http://www.w3.org/2000/svg">
<g clip-path="url(#clip0)">
<path d="M6.67955 0C6.97968 1.10193 7.15396 2.23432 7.19905 3.3755C7.19905 4.8255 6.24905 5.9985 4.79905 5.9985C4.45832 5.99734 4.12125 5.92816 3.80761 5.79502C3.49397 5.66187 3.21007 5.46745 2.97256 5.22314C2.73505 4.97883 2.54871 4.68956 2.42447 4.37228C2.30023 4.05501 2.24059 3.71613 2.24905 3.3755L2.27005 3.1225C0.798578 4.87278 -0.00592385 7.08737 -0.000953053 9.374C-0.0150508 10.1216 0.120024 10.8645 0.396376 11.5593C0.672728 12.2541 1.08481 12.8869 1.60854 13.4206C2.13226 13.9543 2.75713 14.3782 3.44659 14.6676C4.13606 14.957 4.8763 15.1061 5.62405 15.1061C6.37179 15.1061 7.11203 14.957 7.8015 14.6676C8.49097 14.3782 9.11583 13.9543 9.63956 13.4206C10.1633 12.8869 10.5754 12.2541 10.8517 11.5593C11.1281 10.8645 11.2631 10.1216 11.249 9.374C11.2391 7.56885 10.8233 5.78904 10.0323 4.16638C9.24131 2.54373 8.09544 1.11978 6.67955 0ZM5.42105 12.8905C5.12727 12.8946 4.83558 12.8407 4.56267 12.7319C4.28977 12.6231 4.04101 12.4615 3.83066 12.2564C3.6203 12.0513 3.45248 11.8067 3.3368 11.5366C3.22113 11.2665 3.15987 10.9763 3.15655 10.6825C3.15655 9.5435 3.89505 8.7415 5.13255 8.4885C6.39601 8.286 7.54719 7.64329 8.38255 6.674C8.65943 7.59553 8.79926 8.55278 8.79755 9.515C8.79728 10.4103 8.44143 11.2689 7.80824 11.9019C7.17505 12.5349 6.31638 12.8905 5.42105 12.8905Z" fill="#45B3EE"/>
</g>
<defs>
<clipPath id="clip0">
<rect width="11.252" height="15" fill="white"/>
</clipPath>
</defs>
</svg>
