<svg width="208" height="364" viewBox="0 0 208 364" fill="none" xmlns="http://www.w3.org/2000/svg">
<ellipse cx="104" cy="339.5" rx="104" ry="24.5" fill="url(#paint0_radial)"/>
<path d="M121.741 196.899H96.7495V216.203H121.741V196.899Z" fill="black"/>
<path d="M62.3117 216.203C62.3117 216.203 36.8731 222.071 38.5717 261.56C46.1174 264.259 44.743 261.56 44.743 261.56C44.743 261.56 44.5637 234.953 62.312 234.666C73.2189 226.457 67.425 221.727 67.425 221.727L62.3117 216.203Z" fill="black"/>
<path d="M89.7515 252.03L99.2089 339.745H106.795L124.769 249.131L89.7515 252.03Z" fill="black"/>
<path d="M140.549 239.077C140.549 239.077 171.787 243.858 185.901 201.127C178.438 194.987 178.901 198.453 178.901 198.453C178.901 198.453 168.296 226.826 148.048 219.442C132.342 223.447 136.993 230.986 136.993 230.986L140.549 239.077Z" fill="black"/>
<path d="M61.6465 196.937C56.8264 178.595 29.6062 69.3334 94.815 52.3715C160.024 35.4096 191.487 105.644 158.124 189.575C154.4 197.365 87.3929 207.386 61.6465 196.937Z" fill="url(#paint1_linear)"/>
<path d="M62.3125 208.485C62.3125 208.485 108.224 220.443 156.973 208.485C154.269 235.762 149.26 248.797 149.26 248.797C149.26 248.797 87.4346 256.074 66.0937 248.797C62.4094 229.392 62.3125 208.485 62.3125 208.485Z" fill="url(#paint2_linear)"/>
<path d="M38.49 260.6L31 272.466L41.6239 265.652L48.0598 271.319L44.2872 260.6H38.49Z" fill="#3B98FF"/>
<path d="M185.614 202.766L198.813 192.821L184.309 195.887L179.647 186.949L179.266 200.341L185.614 202.766Z" fill="#3B98FF"/>
<path d="M108.283 160.222C131.641 160.222 150.575 141.208 150.575 117.754C150.575 94.299 131.641 75.2852 108.283 75.2852C84.9257 75.2852 65.9907 94.299 65.9907 117.754C65.9907 141.208 84.9257 160.222 108.283 160.222Z" fill="white"/>
<path d="M106.361 135.127C116.978 135.127 125.585 126.484 125.585 115.823C125.585 105.162 116.978 96.519 106.361 96.519C95.744 96.519 87.1372 105.162 87.1372 115.823C87.1372 126.484 95.744 135.127 106.361 135.127Z" fill="#B2D7FF"/>
<path d="M104.439 127.405C109.748 127.405 114.051 123.084 114.051 117.754C114.051 112.423 109.748 108.102 104.439 108.102C99.1306 108.102 94.8271 112.423 94.8271 117.754C94.8271 123.084 99.1306 127.405 104.439 127.405Z" fill="black"/>
<path d="M119.119 49.8246L124.573 7.14648L119.119 49.8246Z" fill="#3B98FF"/>
<path d="M119.119 49.8246L124.573 7.14648" stroke="black" stroke-width="4"/>
<path d="M125.584 7.72144C127.708 7.72144 129.429 5.99294 129.429 3.86072C129.429 1.7285 127.708 0 125.584 0C123.461 0 121.74 1.7285 121.74 3.86072C121.74 5.99294 123.461 7.72144 125.584 7.72144Z" fill="#3B98FF"/>
<path d="M116.933 180.491C116.933 174.716 112.199 170.034 106.36 170.034C100.521 170.034 95.7871 174.716 95.7871 180.491C95.7871 186.266 100.521 190.947 106.36 190.947C112.199 190.947 116.933 186.266 116.933 180.491Z" fill="white"/>
<path d="M116.314 180.491C116.314 175.059 111.858 170.656 106.361 170.656C100.864 170.656 96.4072 175.059 96.4072 180.491C96.4072 185.922 100.864 190.325 106.361 190.325C111.858 190.325 116.314 185.922 116.314 180.491Z" stroke="black" stroke-width="4"/>
<defs>
<radialGradient id="paint0_radial" cx="0" cy="0" r="1" gradientUnits="userSpaceOnUse" gradientTransform="translate(104 339.5) rotate(90) scale(24.5 104)">
<stop stop-color="#B0D6FF"/>
<stop offset="1" stop-color="white"/>
</radialGradient>
<linearGradient id="paint1_linear" x1="133.24" y1="65.684" x2="72.5646" y2="185.608" gradientUnits="userSpaceOnUse">
<stop stop-color="#3B98FF"/>
<stop offset="1" stop-color="#7CBAFF"/>
</linearGradient>
<linearGradient id="paint2_linear" x1="90.8757" y1="248.58" x2="127.671" y2="215.827" gradientUnits="userSpaceOnUse">
<stop stop-color="#7CBAFF"/>
<stop offset="1" stop-color="#3B98FF"/>
</linearGradient>
</defs>
</svg>
