<svg width="28" height="28" viewBox="0 0 28 28" fill="none" xmlns="http://www.w3.org/2000/svg">
<path d="M14.0002 2.3335C7.57066 2.3335 2.3335 7.57066 2.3335 14.0002C2.3335 20.4297 7.57066 25.6668 14.0002 25.6668C20.4297 25.6668 25.6668 20.4297 25.6668 14.0002C25.6668 7.57066 20.4297 2.3335 14.0002 2.3335ZM14.0002 4.66683C19.1686 4.66683 23.3335 8.83169 23.3335 14.0002C23.3335 19.1686 19.1686 23.3335 14.0002 23.3335C8.83169 23.3335 4.66683 19.1686 4.66683 14.0002C4.66683 8.83169 8.83169 4.66683 14.0002 4.66683ZM12.8335 8.16683V10.5002H15.1668V8.16683H12.8335ZM12.8335 12.8335V19.8335H15.1668V12.8335H12.8335Z" fill="#AEAEAE"/>
</svg>
