<svg width="182" height="54" viewBox="0 0 182 54" fill="none" xmlns="http://www.w3.org/2000/svg">
<rect width="182" height="54" rx="8" fill="url(#paint0_linear)"/>
<g style="mix-blend-mode:lighten">
<g clip-path="url(#clip0)">
<path d="M180.854 47.6232C180.854 48.3028 180.722 48.9757 180.465 49.6035C180.207 50.2313 179.83 50.8016 179.355 51.2819C178.88 51.7622 178.316 52.143 177.695 52.4026C177.074 52.6621 176.409 52.7954 175.737 52.7947H8.2795C6.92224 52.7961 5.62 52.2521 4.65915 51.2823C3.6983 50.3125 3.15753 48.9963 3.15576 47.6232V6.38222C3.15753 5.00848 3.69809 3.6916 4.65874 2.72072C5.6194 1.74984 6.92163 1.20434 8.2795 1.20398H175.736C176.408 1.20398 177.073 1.33793 177.694 1.59818C178.315 1.85842 178.879 2.23987 179.355 2.72073C179.83 3.2016 180.207 3.77245 180.464 4.4007C180.721 5.02894 180.853 5.70227 180.853 6.38222L180.854 47.6232Z" fill="white"/>
<path d="M180.854 47.6232C180.854 48.3028 180.722 48.9757 180.465 49.6035C180.207 50.2313 179.83 50.8016 179.355 51.2819C178.88 51.7622 178.316 52.143 177.695 52.4026C177.074 52.6621 176.409 52.7954 175.737 52.7947H8.2795C6.92224 52.7961 5.62 52.2521 4.65915 51.2823C3.6983 50.3125 3.15753 48.9963 3.15576 47.6232V6.38222C3.15753 5.00848 3.69809 3.6916 4.65874 2.72072C5.6194 1.74984 6.92163 1.20434 8.2795 1.20398H175.736C176.408 1.20398 177.073 1.33793 177.694 1.59818C178.315 1.85842 178.879 2.23987 179.355 2.72073C179.83 3.2016 180.207 3.77245 180.464 4.4007C180.721 5.02894 180.853 5.70227 180.853 6.38222L180.854 47.6232Z" fill="black"/>
<path d="M42.1782 26.7158C42.1395 22.3639 45.7004 20.2467 45.8632 20.1481C43.8465 17.1735 40.7208 16.7671 39.6223 16.7347C36.9971 16.4552 34.4506 18.3239 33.1132 18.3239C31.7492 18.3239 29.6899 16.7617 27.4703 16.8076C24.6142 16.8521 21.9422 18.5251 20.4767 21.123C17.4524 26.4201 19.708 34.2043 22.6055 38.486C24.0549 40.5843 25.7486 42.9243 27.9655 42.8419C30.1343 42.7528 30.9444 41.4444 33.5617 41.4444C36.1549 41.4444 36.9157 42.8419 39.1766 42.7893C41.5042 42.7528 42.9697 40.6829 44.3684 38.567C46.0434 36.1649 46.716 33.7965 46.7427 33.675C46.6893 33.6561 42.2236 31.9305 42.1782 26.7158ZM37.9073 13.918C39.0738 12.4422 39.8719 10.4344 39.6504 8.39682C37.962 8.47243 35.8506 9.5783 34.6347 11.0217C33.559 12.2937 32.5981 14.3785 32.8463 16.339C34.7429 16.4822 36.6901 15.3709 37.9073 13.918Z" fill="white"/>
<path d="M175.737 0.00222778H86.0415L121.174 53.9977H175.737C177.409 53.9963 179.013 53.324 180.196 52.1283C181.379 50.9326 182.045 49.311 182.048 47.6191V6.38355C182.046 4.6913 181.38 3.06923 180.196 1.873C179.013 0.676773 177.41 0.00401271 175.737 0.00222778V0.00222778Z" fill="url(#paint1_linear)"/>
<path d="M73.592 42.5408H70.561L68.9007 37.2627H63.1297L61.5481 42.5408H58.5972L64.3162 24.5716H67.8477L73.592 42.5408ZM68.4002 35.0482L66.8987 30.3561C66.7399 29.8767 66.4409 28.7479 66.0032 26.971H65.9498C65.7736 27.7352 65.492 28.864 65.1063 30.3561L63.6301 35.0482H68.4002ZM88.2705 35.9029C88.2705 38.1066 87.6793 39.8484 86.4954 41.1271C85.4357 42.2654 84.1184 42.8338 82.5475 42.8338C80.8512 42.8338 79.6313 42.2222 78.8906 40.9961V47.7947H76.0451V33.8425C76.0451 32.4584 76.0091 31.0393 75.9397 29.5837H78.4421L78.601 31.6375H78.6543C79.6033 30.0901 81.0434 29.3164 82.976 29.3164C84.4868 29.3164 85.748 29.92 86.757 31.1284C87.7647 32.3396 88.2705 33.9302 88.2705 35.9029ZM85.3717 36.0083C85.3717 34.7471 85.0914 33.7074 84.5282 32.8878C83.9129 32.0358 83.0867 31.6091 82.051 31.6091C81.349 31.6091 80.711 31.8468 80.1411 32.3153C79.5699 32.7879 79.1962 33.405 79.0214 34.1692C78.9433 34.455 78.899 34.7492 78.8892 35.0455V37.2073C78.8892 38.1484 79.1749 38.9437 79.7461 39.5946C80.3173 40.2427 81.0594 40.5681 81.9723 40.5681C83.044 40.5681 83.8782 40.1482 84.4748 39.3151C85.0727 38.4792 85.3717 37.3774 85.3717 36.0083ZM103.001 35.9029C103.001 38.1066 102.41 39.8484 101.226 41.1271C100.165 42.2654 98.849 42.8338 97.2768 42.8338C95.5804 42.8338 94.3605 42.2222 93.6198 40.9961V47.7947H90.7743V33.8425C90.7743 32.4584 90.7383 31.0393 90.6689 29.5837H93.1714L93.3302 31.6375H93.3836C94.3312 30.0901 95.7713 29.3164 97.7052 29.3164C99.2147 29.3164 100.476 29.92 101.488 31.1284C102.494 32.3396 103.001 33.9302 103.001 35.9029ZM100.101 36.0083C100.101 34.7471 99.8193 33.7074 99.2561 32.8878C98.6408 32.0358 97.8173 31.6091 96.7816 31.6091C96.0796 31.6091 95.4416 31.8468 94.8691 32.3153C94.2978 32.7879 93.9254 33.405 93.7506 34.1692C93.6639 34.5257 93.6171 34.816 93.6171 35.0455V37.2073C93.6171 38.1484 93.9041 38.9437 94.4727 39.5946C95.0439 40.2413 95.786 40.5681 96.7015 40.5681C97.7746 40.5681 98.6088 40.1482 99.204 39.3151C99.8019 38.4792 100.101 37.3774 100.101 36.0083ZM119.471 37.5003C119.471 39.0302 118.942 40.2737 117.892 41.2338C116.736 42.2816 115.122 42.8068 113.054 42.8068C111.142 42.8068 109.61 42.4342 108.454 41.6875L109.112 39.288C110.36 40.0361 111.731 40.4088 113.223 40.4088C114.296 40.4088 115.13 40.163 115.726 39.6756C116.322 39.1868 116.624 38.5333 116.624 37.7177C116.624 36.9872 116.374 36.3755 115.885 35.8773C115.392 35.3804 114.578 34.9173 113.434 34.4919C110.324 33.3186 108.768 31.6024 108.768 29.3447C108.768 27.8703 109.318 26.6631 110.415 25.7193C111.512 24.7768 112.967 24.3056 114.777 24.3056C116.393 24.3056 117.74 24.5905 118.809 25.1589L118.095 27.5057C117.088 26.9548 115.953 26.6793 114.682 26.6793C113.678 26.6793 112.891 26.9291 112.328 27.426C111.854 27.8703 111.614 28.4117 111.614 29.0544C111.614 29.7633 111.887 30.352 112.432 30.8138C112.904 31.2392 113.766 31.7023 115.013 32.1992C116.542 32.823 117.666 33.5494 118.386 34.3839C119.11 35.2184 119.471 36.2594 119.471 37.5003ZM128.903 31.7442H125.766V38.035C125.766 39.6351 126.319 40.4331 127.427 40.4331C127.935 40.4331 128.357 40.3899 128.691 40.2994L128.769 42.4855C128.209 42.6975 127.471 42.8041 126.556 42.8041C125.433 42.8041 124.554 42.4571 123.92 41.7631C123.289 41.069 122.972 39.9065 122.972 38.27V31.7387H121.103V29.5783H122.972V27.2059L125.766 26.3526V29.5783H128.903V31.7442ZM143.026 35.9556C143.026 37.9472 142.463 39.5824 141.339 40.8611C140.163 42.1776 138.599 42.8338 136.649 42.8338C134.767 42.8338 133.271 42.2033 132.155 40.9435C131.04 39.681 130.482 38.0904 130.482 36.1717C130.482 34.1638 131.058 32.5192 132.207 31.2405C133.359 29.9605 134.91 29.3204 136.86 29.3204C138.739 29.3204 140.249 29.9524 141.391 31.2135C142.483 32.4368 143.026 34.0166 143.026 35.9556ZM140.076 36.0218C140.076 34.8349 139.823 33.8168 139.314 32.9648C138.718 31.9359 137.864 31.4214 136.757 31.4214C135.617 31.4214 134.743 31.9359 134.148 32.9648C133.638 33.8168 133.384 34.8524 133.384 36.0758C133.384 37.264 133.638 38.2848 134.148 39.1341C134.763 40.163 135.621 40.6775 136.733 40.6775C137.821 40.6775 138.674 40.1522 139.29 39.1085C139.814 38.2362 140.076 37.2114 140.076 36.0218ZM152.279 32.1155C151.983 32.0614 151.683 32.0348 151.382 32.0358C150.381 32.0358 149.607 32.4166 149.063 33.1835C148.59 33.8587 148.353 34.712 148.353 35.7423V42.5408H145.507V33.6642C145.51 32.3041 145.482 30.944 145.424 29.5851H147.903L148.007 32.0642H148.086C148.387 31.2122 148.86 30.5249 149.508 30.0104C150.102 29.5609 150.824 29.3175 151.565 29.3164C151.828 29.3164 152.066 29.3353 152.277 29.369L152.279 32.1155ZM165.005 35.4493C165.012 35.8869 164.977 36.3242 164.901 36.755H156.365C156.397 38.035 156.81 39.0153 157.603 39.6904C158.322 40.2926 159.253 40.5951 160.395 40.5951C161.659 40.5951 162.812 40.3926 163.849 39.9834L164.295 41.9805C163.083 42.5152 161.652 42.7812 160.001 42.7812C158.016 42.7812 156.457 42.1898 155.322 41.0096C154.19 39.8282 153.623 38.2402 153.623 36.2513C153.623 34.2988 154.15 32.6718 155.206 31.3742C156.311 29.9888 157.805 29.2961 159.684 29.2961C161.53 29.2961 162.927 29.9888 163.876 31.3742C164.627 32.4719 165.005 33.833 165.005 35.4493ZM162.292 34.7026C162.312 33.8479 162.125 33.112 161.739 32.4895C161.247 31.6874 160.489 31.2878 159.473 31.2878C158.543 31.2878 157.785 31.678 157.208 32.4611C156.734 33.0836 156.453 33.8317 156.366 34.6999L162.292 34.7026Z" fill="white"/>
<path d="M62.3087 18.2186C61.5173 18.2186 60.8326 18.1794 60.2627 18.1133V9.4257C61.0598 9.30114 61.8652 9.23974 62.6717 9.24207C65.935 9.24207 67.4378 10.8664 67.4378 13.5143C67.4378 16.5686 65.6627 18.2186 62.3087 18.2186ZM62.7865 10.356C62.3461 10.356 61.971 10.383 61.6601 10.4478V17.052C61.8282 17.079 62.1512 17.0911 62.605 17.0911C64.7431 17.0911 65.9603 15.8597 65.9603 13.5534C65.9603 11.497 64.8592 10.356 62.7865 10.356ZM72.1211 18.2847C70.2819 18.2847 69.0901 16.8953 69.0901 15.009C69.0901 13.043 70.3073 11.6415 72.2252 11.6415C74.0376 11.6415 75.2562 12.9647 75.2562 14.9051C75.2562 16.8953 74.0003 18.2847 72.1211 18.2847ZM72.1745 12.6758C71.1641 12.6758 70.5168 13.6318 70.5168 14.9685C70.5168 16.2796 71.1775 17.2356 72.1611 17.2356C73.1448 17.2356 73.8054 16.2135 73.8054 14.9415C73.8054 13.6453 73.1581 12.6758 72.1745 12.6758ZM85.7439 11.7725L83.7753 18.1403H82.4927L81.6772 15.3749C81.4744 14.6985 81.3056 14.0122 81.1714 13.3185H81.1447C81.0419 14.0125 80.847 14.7079 80.6402 15.3749L79.7727 18.1403H78.4767L76.6242 11.7725H78.0616L78.7743 14.7997C78.9425 15.5208 79.084 16.2013 79.2014 16.844H79.2281C79.3309 16.308 79.499 15.6382 79.746 14.8132L80.6402 11.7738H81.78L82.6355 14.7484C82.8424 15.4695 83.0105 16.177 83.1413 16.8454H83.1787C83.2694 16.1905 83.4122 15.4951 83.6058 14.7484L84.3705 11.7738L85.7439 11.7725ZM92.991 18.1403H91.5923V14.4838C91.5923 13.3577 91.1652 12.7932 90.3231 12.7932C89.4943 12.7932 88.9244 13.5143 88.9244 14.3528V18.1403H87.5257V13.5926C87.5257 13.0295 87.5123 12.426 87.4736 11.7711H88.7041L88.7695 12.7541H88.8083C89.1846 12.0736 89.948 11.6415 90.8036 11.6415C92.1249 11.6415 92.9924 12.6636 92.9924 14.3271L92.991 18.1403ZM96.8482 18.1403H95.4481V8.85049H96.8482V18.1403ZM101.948 18.2847C100.11 18.2847 98.9169 16.8953 98.9169 15.009C98.9169 13.043 100.134 11.6415 102.051 11.6415C103.864 11.6415 105.082 12.9647 105.082 14.9051C105.083 16.8953 103.826 18.2847 101.948 18.2847ZM102 12.6758C100.99 12.6758 100.342 13.6318 100.342 14.9685C100.342 16.2796 101.004 17.2356 101.985 17.2356C102.97 17.2356 103.63 16.2135 103.63 14.9415C103.631 13.6453 102.985 12.6758 102 12.6758ZM110.596 18.1403L110.495 17.4071H110.458C110.031 17.9971 109.407 18.2847 108.617 18.2847C107.489 18.2847 106.689 17.4854 106.689 16.4106C106.689 14.8389 108.035 14.026 110.367 14.026V13.9086C110.367 13.0701 109.928 12.6501 109.06 12.6501C108.44 12.6501 107.895 12.8081 107.416 13.1227L107.132 12.1924C107.714 11.8251 108.44 11.6415 109.293 11.6415C110.937 11.6415 111.767 12.5191 111.767 14.2758V16.6212C111.767 17.264 111.795 17.7622 111.858 18.1416L110.596 18.1403ZM110.404 14.9685C108.851 14.9685 108.071 15.3493 108.071 16.2526C108.071 16.921 108.473 17.2478 109.031 17.2478C109.742 17.2478 110.404 16.6982 110.404 15.9515V14.9685ZM118.559 18.1403L118.494 17.1181H118.455C118.053 17.8905 117.378 18.2847 116.434 18.2847C114.917 18.2847 113.793 16.9345 113.793 15.0347C113.793 13.043 114.958 11.6401 116.549 11.6401C117.391 11.6401 117.988 11.9277 118.324 12.5056H118.352V8.85049H119.752V16.4241C119.752 17.0398 119.767 17.6164 119.804 18.1403H118.559ZM118.352 14.3933C118.352 13.5021 117.769 12.7419 116.879 12.7419C115.842 12.7419 115.208 13.6723 115.208 14.982C115.208 16.2661 115.866 17.1451 116.851 17.1451C117.73 17.1451 118.352 16.3714 118.352 15.4546V14.3933ZM128.629 18.2847C126.791 18.2847 125.599 16.8953 125.599 15.009C125.599 13.043 126.816 11.6415 128.733 11.6415C130.547 11.6415 131.764 12.9647 131.764 14.9051C131.765 16.8953 130.509 18.2847 128.629 18.2847ZM128.681 12.6758C127.672 12.6758 127.025 13.6318 127.025 14.9685C127.025 16.2796 127.685 17.2356 128.668 17.2356C129.653 17.2356 130.312 16.2135 130.312 14.9415C130.315 13.6453 129.667 12.6758 128.681 12.6758ZM139.286 18.1403H137.886V14.4838C137.886 13.3577 137.459 12.7932 136.617 12.7932C135.788 12.7932 135.219 13.5143 135.219 14.3528V18.1403H133.819V13.5926C133.819 13.0295 133.806 12.426 133.767 11.7711H134.998L135.063 12.7541H135.102C135.477 12.0736 136.242 11.6401 137.096 11.6401C138.417 11.6401 139.286 12.6623 139.286 14.3258V18.1403ZM148.697 12.8338H147.158V15.9258C147.158 16.713 147.428 17.106 147.972 17.106C148.219 17.106 148.426 17.079 148.593 17.0398L148.631 18.1146C148.36 18.2199 147.997 18.2726 147.546 18.2726C146.444 18.2726 145.785 17.6569 145.785 16.0447V12.8338H144.866V11.7725H145.785V10.6058L147.158 10.1859V11.7711H148.697V12.8338ZM156.101 18.1403H154.704V14.5108C154.704 13.3712 154.278 12.7946 153.435 12.7946C152.71 12.7946 152.035 13.2928 152.035 14.3015V18.1403H150.637V8.85049H152.035V12.6758H152.063C152.503 11.9817 153.141 11.6401 153.955 11.6401C155.287 11.6401 156.101 12.6879 156.101 14.3528V18.1403ZM163.688 15.2966H159.49C159.517 16.5024 160.306 17.1829 161.473 17.1829C162.094 17.1829 162.665 17.0776 163.17 16.8818L163.387 17.8648C162.792 18.1268 162.091 18.2577 161.276 18.2577C159.307 18.2577 158.142 16.9993 158.142 15.0482C158.142 13.0957 159.335 11.628 161.118 11.628C162.727 11.628 163.736 12.8338 163.736 14.6553C163.745 14.8702 163.729 15.0855 163.688 15.2966ZM162.405 14.288C162.405 13.305 161.915 12.611 161.021 12.611C160.218 12.611 159.582 13.3185 159.491 14.288H162.405Z" fill="white"/>
</g>
</g>
<defs>
<linearGradient id="paint0_linear" x1="91" y1="0" x2="91" y2="54" gradientUnits="userSpaceOnUse">
<stop stop-color="#3BA1FF"/>
<stop offset="1" stop-color="#0079FF"/>
</linearGradient>
<linearGradient id="paint1_linear" x1="134.043" y1="54.1411" x2="134.043" y2="-140.593" gradientUnits="userSpaceOnUse">
<stop stop-color="#1A1A1A" stop-opacity="0.1"/>
<stop offset="0.123" stop-color="#212121" stop-opacity="0.151"/>
<stop offset="0.308" stop-color="#353535" stop-opacity="0.227"/>
<stop offset="0.532" stop-color="#575757" stop-opacity="0.318"/>
<stop offset="0.783" stop-color="#858585" stop-opacity="0.421"/>
<stop offset="1" stop-color="#B3B3B3" stop-opacity="0.51"/>
</linearGradient>
<clipPath id="clip0">
<rect width="182" height="54" rx="7" fill="white"/>
</clipPath>
</defs>
</svg>
