<svg width="61" height="61" viewBox="0 0 61 61" fill="none" xmlns="http://www.w3.org/2000/svg">
<circle cx="30.5" cy="30.5" r="30.5" fill="white"/>
<path d="M48.8853 26.8278H47.375V26.75H30.5V34.25H41.0966C39.5506 38.6159 35.3966 41.75 30.5 41.75C24.2872 41.75 19.25 36.7128 19.25 30.5C19.25 24.2872 24.2872 19.25 30.5 19.25C33.3678 19.25 35.9769 20.3319 37.9634 22.0991L43.2669 16.7956C39.9181 13.6747 35.4388 11.75 30.5 11.75C20.1453 11.75 11.75 20.1453 11.75 30.5C11.75 40.8547 20.1453 49.25 30.5 49.25C40.8547 49.25 49.25 40.8547 49.25 30.5C49.25 29.2428 49.1206 28.0156 48.8853 26.8278Z" fill="#FFC107"/>
<path d="M13.9116 21.7728L20.0719 26.2906C21.7388 22.1637 25.7757 19.25 30.4997 19.25C33.3676 19.25 35.9766 20.3319 37.9632 22.0991L43.2666 16.7956C39.9179 13.6747 35.4385 11.75 30.4997 11.75C23.2979 11.75 17.0522 15.8159 13.9116 21.7728Z" fill="#FF3D00"/>
<path d="M30.4998 49.2499C35.3429 49.2499 39.7436 47.3965 43.0707 44.3824L37.2676 39.4718C35.3851 40.8977 33.0451 41.7499 30.4998 41.7499C25.6229 41.7499 21.482 38.6402 19.922 34.3005L13.8076 39.0115C16.9107 45.0837 23.2126 49.2499 30.4998 49.2499Z" fill="#4CAF50"/>
<path d="M48.8853 26.8278H47.375V26.75H30.5V34.25H41.0966C40.3541 36.3472 39.005 38.1556 37.265 39.4728C37.2659 39.4719 37.2669 39.4719 37.2678 39.4709L43.0709 44.3816C42.6603 44.7547 49.25 39.875 49.25 30.5C49.25 29.2428 49.1206 28.0156 48.8853 26.8278Z" fill="#1976D2"/>
</svg>
