<svg width="22" height="22" viewBox="0 0 22 22" fill="none" xmlns="http://www.w3.org/2000/svg">
<path d="M19.1785 5.56953C17.7127 4.09838 15.806 3.14681 13.7492 2.85984V2.74984C13.7492 2.02054 13.4595 1.32111 12.9438 0.805415C12.4281 0.289721 11.7287 0 10.9994 0C8.08214 0 5.28441 1.15885 3.22163 3.22163C1.15885 5.28441 0 8.08214 0 10.9994C0 11.7287 0.289721 12.4281 0.805415 12.9438C1.32111 13.4595 2.02054 13.7492 2.74984 13.7492H2.85984C3.07769 15.2573 3.65067 16.692 4.53159 17.9353C5.41252 19.1786 6.57618 20.1948 7.92677 20.9003C9.27735 21.6057 10.7762 21.9803 12.2999 21.9931C13.8236 22.0058 15.3285 21.6564 16.6907 20.9737C18.0529 20.291 19.2334 19.2944 20.1351 18.0661C21.0367 16.8377 21.6337 15.4128 21.8768 13.9086C22.1199 12.4044 22.0022 10.8639 21.5333 9.4141C21.0645 7.96429 20.2579 6.6466 19.1801 5.56953H19.1785ZM5.16531 5.1653C5.93064 4.39813 6.84002 3.78981 7.84124 3.37528C8.84245 2.96075 9.91572 2.74819 10.9994 2.74984V10.9994H2.74984C2.74857 9.91573 2.96133 8.84253 3.37594 7.84135C3.79054 6.84018 4.39883 5.93076 5.16585 5.1653H5.16531ZM17.2343 17.2343C16.3561 18.1122 15.2566 18.7358 14.0524 19.039C12.8483 19.3421 11.5845 19.3135 10.3953 18.956C9.20617 18.5986 8.13604 17.9258 7.29855 17.009C6.46106 16.0922 5.8875 14.9658 5.63881 13.7492H10.9994C11.7287 13.7492 12.4281 13.4595 12.9438 12.9438C13.4595 12.4281 13.7492 11.7287 13.7492 10.9994V5.63881C14.9659 5.88743 16.0925 6.46097 17.0094 7.2985C17.9262 8.13603 18.5991 9.20626 18.9565 10.3955C19.314 11.5848 19.3426 12.8487 19.0393 14.0529C18.7361 15.2571 18.1123 16.3567 17.2343 17.2349V17.2343Z" fill="#AEAEAE"/>
</svg>
