<svg width="61" height="61" viewBox="0 0 61 61" fill="none" xmlns="http://www.w3.org/2000/svg">
<circle cx="30.5" cy="30.5" r="30.5" fill="white"/>
<path d="M31 11C25.6957 11 20.6086 13.1071 16.8579 16.8579C13.1071 20.6086 11 25.6957 11 31C11 36.3043 13.1071 41.3914 16.8579 45.1421C20.6086 48.8929 25.6957 51 31 51C36.3043 51 41.3914 48.8929 45.1421 45.1421C48.8929 41.3914 51 36.3043 51 31C51 25.6957 48.8929 20.6086 45.1421 16.8579C41.3914 13.1071 36.3043 11 31 11V11Z" fill="#0288D1"/>
<path d="M21 26H25V41H21V26ZM22.988 24H22.966C21.772 24 21 23.11 21 21.999C21 20.864 21.796 20 23.011 20C24.228 20 24.977 20.864 25 21.999C25 23.11 24.228 24 22.988 24ZM42 31.5C42 28.462 39.538 26 36.5 26C34.638 26 32.995 26.928 32 28.344V26H28V41H32V33C32 31.343 33.343 30 35 30C36.657 30 38 31.343 38 33V41H42C42 41 42 31.921 42 31.5Z" fill="white"/>
</svg>
