<svg width="300" height="300" viewBox="0 0 300 300" fill="none" xmlns="http://www.w3.org/2000/svg">
<path d="M300 229.44H0V229.59H300V229.44Z" fill="#EBEBEB"/>
<path d="M41.1121 235.152H31.4761V235.302H41.1121V235.152Z" fill="#EBEBEB"/>
<path d="M134.802 233.526H102.684V233.676H134.802V233.526Z" fill="#EBEBEB"/>
<path d="M63.4619 240.726H41.7119V240.876H63.4619V240.726Z" fill="#EBEBEB"/>
<path d="M253.398 233.448H227.484V233.598H253.398V233.448Z" fill="#EBEBEB"/>
<path d="M262.542 233.448H258.744V233.598H262.542V233.448Z" fill="#EBEBEB"/>
<path d="M222.534 237.186H190.2V237.336H222.534V237.186Z" fill="#EBEBEB"/>
<path d="M142.2 202.68H26.3458C25.4382 202.678 24.5683 202.317 23.9271 201.674C23.2859 201.032 22.9258 200.162 22.9258 199.254V36.396C22.9337 35.4936 23.2973 34.6308 23.9376 33.9949C24.578 33.3591 25.4434 33.0015 26.3458 33H142.2C143.108 33 143.98 33.361 144.622 34.0035C145.265 34.646 145.626 35.5174 145.626 36.426V199.254C145.626 200.163 145.265 201.034 144.622 201.677C143.98 202.319 143.108 202.68 142.2 202.68ZM26.3458 33.12C25.478 33.1216 24.6463 33.4674 24.0332 34.0816C23.4201 34.6958 23.0758 35.5282 23.0758 36.396V199.254C23.0758 200.122 23.4201 200.954 24.0332 201.568C24.6463 202.183 25.478 202.528 26.3458 202.53H142.2C143.068 202.528 143.901 202.183 144.515 201.569C145.129 200.955 145.474 200.122 145.476 199.254V36.396C145.474 35.5276 145.129 34.6953 144.515 34.0813C143.901 33.4672 143.068 33.1216 142.2 33.12H26.3458Z" fill="#EBEBEB"/>
<path d="M271.986 202.68H156.126C155.218 202.678 154.348 202.317 153.705 201.675C153.063 201.033 152.702 200.162 152.7 199.254V36.396C152.71 35.4931 153.075 34.6302 153.716 33.9946C154.357 33.3589 155.223 33.0015 156.126 33H271.986C272.888 33.0031 273.751 33.3613 274.39 33.997C275.03 34.6327 275.392 35.4947 275.4 36.396V199.254C275.4 200.161 275.041 201.03 274.401 201.672C273.761 202.314 272.893 202.677 271.986 202.68ZM156.126 33.12C155.258 33.1216 154.425 33.4672 153.811 34.0813C153.197 34.6953 152.852 35.5276 152.85 36.396V199.254C152.852 200.122 153.197 200.955 153.811 201.569C154.425 202.183 155.258 202.528 156.126 202.53H271.986C272.855 202.528 273.687 202.183 274.301 201.569C274.915 200.955 275.261 200.122 275.262 199.254V36.396C275.261 35.5276 274.915 34.6953 274.301 34.0813C273.687 33.4672 272.855 33.1216 271.986 33.12H156.126Z" fill="#EBEBEB"/>
<path d="M237.81 179.286H233.826V229.44H237.81V179.286Z" fill="#F5F5F5"/>
<path d="M239.544 179.286H236.076V229.44H239.544V179.286Z" fill="#F0F0F0"/>
<path d="M144.882 179.286H140.898V229.44H144.882V179.286Z" fill="#F5F5F5"/>
<path d="M146.616 179.286H143.148V229.44H146.616V179.286Z" fill="#F0F0F0"/>
<path d="M252.912 179.286H248.928V229.44H252.912V179.286Z" fill="#F5F5F5"/>
<path d="M254.646 179.286H251.178V229.44H254.646V179.286Z" fill="#F0F0F0"/>
<path d="M159.984 179.286H156V229.44H159.984V179.286Z" fill="#F5F5F5"/>
<path d="M140.904 180.234H254.646V178.332H140.904V180.234Z" fill="#F0F0F0"/>
<path d="M140.898 180.234H158.25V178.332H140.898V180.234Z" fill="#E6E6E6"/>
<path d="M161.718 179.286H158.25V229.44H161.718V179.286Z" fill="#F0F0F0"/>
<path d="M197.784 141.804H187.026V178.332H197.784V141.804Z" fill="#EBEBEB"/>
<path d="M226.956 178.332H191.244L185.85 135.582H221.562L226.956 178.332Z" fill="#E0E0E0"/>
<path d="M229.056 178.332H192.168L186.774 135.582H223.662L229.056 178.332Z" fill="#F0F0F0"/>
<path d="M208.362 178.332H201.204L203.22 135.582H210.378L208.362 178.332Z" fill="#FAFAFA"/>
<path d="M216.564 178.332H209.52L211.536 135.582H218.58L216.564 178.332Z" fill="#FAFAFA"/>
<path d="M258.57 43.506H165.792V116.1H258.57V43.506Z" fill="#E6E6E6"/>
<path d="M261.354 43.506H167.094V116.1H261.354V43.506Z" fill="#F0F0F0"/>
<path d="M258.57 116.1H165.792V118.53H258.57V116.1Z" fill="#E6E6E6"/>
<path d="M262.836 116.1H168.576V118.53H262.836V116.1Z" fill="#F0F0F0"/>
<path d="M257.46 112.2V47.4L170.994 47.4V112.2H257.46Z" fill="#FAFAFA"/>
<path d="M218.31 112.2L224.55 47.406H235.35L229.11 112.2H218.31Z" fill="white"/>
<path d="M191.058 112.2L197.298 47.406H208.098L201.858 112.2H191.058Z" fill="white"/>
<path d="M172.8 90.24C172.721 90.2384 172.647 90.2061 172.592 90.15C172.537 90.0939 172.506 90.0185 172.506 89.94V49.938C172.506 49.8584 172.537 49.7821 172.594 49.7259C172.65 49.6696 172.726 49.638 172.806 49.638C172.885 49.638 172.962 49.6696 173.018 49.7259C173.074 49.7821 173.106 49.8584 173.106 49.938V89.94C173.106 89.9799 173.098 90.0194 173.082 90.0562C173.067 90.093 173.044 90.1263 173.016 90.1543C172.987 90.1822 172.954 90.2042 172.917 90.2189C172.879 90.2336 172.84 90.2408 172.8 90.24Z" fill="#F0F0F0"/>
<path d="M231.426 112.2L237.666 47.406H241.878L235.638 112.2H231.426Z" fill="white"/>
<path d="M257.46 112.206V47.406H256.968V112.206H257.46Z" fill="#E6E6E6"/>
<path opacity="0.5" d="M262.278 54.468H169.5L169.14 48.918H261.918L262.278 54.468Z" fill="#E0E0E0"/>
<path opacity="0.5" d="M262.278 63.594H169.5L169.14 58.044H261.918L262.278 63.594Z" fill="#E0E0E0"/>
<path opacity="0.5" d="M262.278 72.72H169.5L169.14 67.17H261.918L262.278 72.72Z" fill="#E0E0E0"/>
<path opacity="0.5" d="M262.278 81.846H169.5L169.14 76.296H261.918L262.278 81.846Z" fill="#E0E0E0"/>
<path opacity="0.5" d="M262.278 90.966H169.5L169.14 85.416H261.918L262.278 90.966Z" fill="#E0E0E0"/>
<path opacity="0.5" d="M262.278 100.092H169.5L169.14 94.542H261.918L262.278 100.092Z" fill="#E0E0E0"/>
<path opacity="0.5" d="M262.278 59.034H169.5L169.14 53.484H261.918L262.278 59.034Z" fill="#E0E0E0"/>
<path opacity="0.5" d="M262.278 68.154H169.5L169.14 62.604H261.918L262.278 68.154Z" fill="#E0E0E0"/>
<path opacity="0.5" d="M262.278 77.28H169.5L169.14 71.73H261.918L262.278 77.28Z" fill="#E0E0E0"/>
<path opacity="0.5" d="M262.278 86.406H169.5L169.14 80.856H261.918L262.278 86.406Z" fill="#E0E0E0"/>
<path opacity="0.5" d="M262.278 95.532H169.5L169.14 89.982H261.918L262.278 95.532Z" fill="#E0E0E0"/>
<path opacity="0.5" d="M262.278 104.658H169.5L169.14 99.102H261.918L262.278 104.658Z" fill="#E0E0E0"/>
<path d="M59.5199 79.5359H72.1139C73.7111 79.5359 75.0059 78.2412 75.0059 76.6439V71.8079C75.0059 70.2107 73.7111 68.9159 72.1139 68.9159H59.5199C57.9226 68.9159 56.6279 70.2107 56.6279 71.8079V76.6439C56.6279 78.2412 57.9226 79.5359 59.5199 79.5359Z" fill="#F5F5F5"/>
<path d="M59.5199 68.91H72.1139C73.7111 68.91 75.0059 67.6152 75.0059 66.018V61.182C75.0059 59.5848 73.7111 58.29 72.1139 58.29H59.5199C57.9226 58.29 56.6279 59.5848 56.6279 61.182V66.018C56.6279 67.6152 57.9226 68.91 59.5199 68.91Z" fill="#F5F5F5"/>
<path d="M63.636 58.29H67.998C68.5514 58.29 69 57.8414 69 57.288V55.614C69 55.0606 68.5514 54.612 67.998 54.612H63.636C63.0826 54.612 62.634 55.0606 62.634 55.614V57.288C62.634 57.8414 63.0826 58.29 63.636 58.29Z" fill="#E0E0E0"/>
<path d="M59.5199 90.15H72.1139C73.7111 90.15 75.0059 88.8552 75.0059 87.258V82.422C75.0059 80.8248 73.7111 79.53 72.1139 79.53H59.5199C57.9226 79.53 56.6279 80.8248 56.6279 82.422V87.258C56.6279 88.8552 57.9226 90.15 59.5199 90.15Z" fill="#F5F5F5"/>
<path d="M126.312 82.8C126.312 82.8 125.712 90.18 102.378 90.18C79.044 90.18 78.438 82.8 78.438 82.8H126.312Z" fill="#F0F0F0"/>
<path d="M54.744 91.65H36.252V222.588H54.744V91.65Z" fill="#F0F0F0"/>
<path d="M130.986 222.588H39.7979V229.44H130.986V222.588Z" fill="#F0F0F0"/>
<path d="M54.7441 222.582H134.538L134.538 91.644H54.7441L54.7441 222.582Z" fill="#F5F5F5"/>
<path d="M62.0101 169.074H127.266V138.174H62.0101V169.074Z" fill="#F0F0F0"/>
<path d="M62.0101 206.868H127.266V175.968H62.0101V206.868Z" fill="#F0F0F0"/>
<path d="M62.0101 218.01H127.266V213.3H62.0101V218.01Z" fill="#F0F0F0"/>
<path d="M111.222 140.622H78.0539C77.367 140.62 76.7086 140.347 76.2228 139.861C75.7371 139.375 75.4635 138.717 75.4619 138.03C75.4651 137.344 75.7394 136.687 76.225 136.203C76.7105 135.718 77.368 135.446 78.0539 135.444H111.222C111.908 135.446 112.565 135.718 113.051 136.203C113.536 136.687 113.811 137.344 113.814 138.03C113.812 138.717 113.539 139.375 113.053 139.861C112.567 140.347 111.909 140.62 111.222 140.622Z" fill="#F5F5F5"/>
<path d="M62.0101 131.286H127.266V100.386H62.0101V131.286Z" fill="#F0F0F0"/>
<path d="M111.222 102.834H78.0539C77.367 102.832 76.7086 102.559 76.2228 102.073C75.7371 101.587 75.4635 100.929 75.4619 100.242C75.4635 99.5551 75.7371 98.8967 76.2228 98.411C76.7086 97.9252 77.367 97.6516 78.0539 97.65H111.222C111.909 97.6516 112.567 97.9252 113.053 98.411C113.539 98.8967 113.812 99.5551 113.814 100.242C113.812 100.929 113.539 101.587 113.053 102.073C112.567 102.559 111.909 102.832 111.222 102.834Z" fill="#F5F5F5"/>
<path d="M111.222 178.416H78.0539C77.367 178.414 76.7086 178.141 76.2228 177.655C75.7371 177.169 75.4635 176.511 75.4619 175.824C75.4635 175.137 75.7371 174.479 76.2228 173.993C76.7086 173.507 77.367 173.234 78.0539 173.232H111.222C111.909 173.234 112.567 173.507 113.053 173.993C113.539 174.479 113.812 175.137 113.814 175.824C113.812 176.511 113.539 177.169 113.053 177.655C112.567 178.141 111.909 178.414 111.222 178.416Z" fill="#F5F5F5"/>
<path d="M136.998 90.156H54.7378V91.65H136.998V90.156Z" fill="#F0F0F0"/>
<path d="M33.6721 91.65H54.7441V90.156H33.6721V91.65Z" fill="#E6E6E6"/>
<path d="M150 256.536C214.25 256.536 266.334 253.495 266.334 249.744C266.334 245.993 214.25 242.952 150 242.952C85.7505 242.952 33.666 245.993 33.666 249.744C33.666 253.495 85.7505 256.536 150 256.536Z" fill="#F5F5F5"/>
<path d="M265.236 190.266H34.7641L30.5161 186.246H269.484L265.236 190.266Z" fill="#407BFF"/>
<path opacity="0.5" d="M265.236 190.266H34.7641L30.5161 186.246H269.484L265.236 190.266Z" fill="white"/>
<path d="M245.472 192.432H54.5279L51.0059 190.266H248.994L245.472 192.432Z" fill="#407BFF"/>
<path opacity="0.5" d="M245.472 192.432H54.5279L51.0059 190.266H248.994L245.472 192.432Z" fill="black"/>
<path d="M53.0159 249.744H50.2739L58.7759 192.432H64.8899L53.0159 249.744Z" fill="#407BFF"/>
<path opacity="0.5" d="M53.0159 249.744H50.2739L58.7759 192.432H64.8899L53.0159 249.744Z" fill="black"/>
<path d="M67.86 249.744H65.124L73.626 192.432H79.74L67.86 249.744Z" fill="#407BFF"/>
<path opacity="0.5" d="M67.86 249.744H65.124L73.626 192.432H79.74L67.86 249.744Z" fill="black"/>
<path d="M246.984 249.744H249.726L241.224 192.432H235.11L246.984 249.744Z" fill="#407BFF"/>
<path opacity="0.5" d="M246.984 249.744H249.726L241.224 192.432H235.11L246.984 249.744Z" fill="black"/>
<path d="M232.14 249.744H234.876L226.374 192.432H220.26L232.14 249.744Z" fill="#407BFF"/>
<path opacity="0.5" d="M232.14 249.744H234.876L226.374 192.432H220.26L232.14 249.744Z" fill="black"/>
<path d="M134.568 57.084L142.314 57.606C142.615 57.6245 142.904 57.7249 143.152 57.8962C143.399 58.0675 143.595 58.3033 143.718 58.578L144.534 60.378C144.711 60.7666 145.031 61.0719 145.428 61.23C146.4 61.6293 147.342 62.0964 148.248 62.628C148.61 62.8406 149.038 62.9091 149.448 62.82L151.392 62.364C151.685 62.2964 151.991 62.3092 152.277 62.4011C152.563 62.493 152.819 62.6605 153.018 62.886L158.13 68.73C158.328 68.9573 158.461 69.2343 158.514 69.5313C158.567 69.8284 158.538 70.1342 158.43 70.416L157.722 72.276C157.573 72.6765 157.584 73.1191 157.752 73.512C158.158 74.4872 158.495 75.4896 158.76 76.512C158.863 76.9261 159.123 77.2836 159.486 77.508L161.178 78.558C161.434 78.7158 161.642 78.9407 161.78 79.2083C161.917 79.4758 161.979 79.7759 161.958 80.076L161.442 87.828C161.423 88.1282 161.321 88.4172 161.149 88.6638C160.976 88.9103 160.739 89.1047 160.464 89.226L158.664 90.042C158.278 90.2225 157.974 90.5416 157.812 90.936C157.417 91.9085 156.952 92.851 156.42 93.756C156.206 94.117 156.137 94.5461 156.228 94.956L156.678 96.894C156.748 97.1868 156.736 97.4931 156.644 97.7797C156.552 98.0663 156.383 98.3223 156.156 98.52L150.312 103.632C150.086 103.83 149.81 103.963 149.514 104.016C149.218 104.069 148.913 104.04 148.632 103.932L146.766 103.224C146.371 103.068 145.931 103.068 145.536 103.224C144.56 103.628 143.558 103.965 142.536 104.232C142.123 104.337 141.766 104.597 141.54 104.958L140.49 106.65C140.331 106.906 140.105 107.114 139.836 107.251C139.568 107.389 139.267 107.45 138.966 107.43L131.22 106.914C130.92 106.894 130.631 106.793 130.384 106.622C130.137 106.451 129.94 106.216 129.816 105.942L129 104.142C128.823 103.753 128.503 103.448 128.106 103.29C127.135 102.891 126.192 102.423 125.286 101.892C124.925 101.679 124.496 101.61 124.086 101.7L122.148 102.156C121.855 102.225 121.549 102.213 121.263 102.121C120.976 102.029 120.72 101.86 120.522 101.634L115.404 95.79C115.207 95.562 115.075 95.285 115.022 94.9882C114.969 94.6915 114.998 94.386 115.104 94.104L115.812 92.244C115.962 91.8455 115.951 91.4046 115.782 91.014C115.378 90.0383 115.041 89.0359 114.774 88.014C114.672 87.5998 114.411 87.2423 114.048 87.018L112.356 85.968C112.1 85.8101 111.892 85.5852 111.755 85.3176C111.617 85.0501 111.555 84.75 111.576 84.45L112.092 76.698C112.113 76.3974 112.215 76.1082 112.387 75.861C112.56 75.6138 112.796 75.4178 113.07 75.294L114.87 74.484C115.259 74.307 115.564 73.9867 115.722 73.59C116.121 72.6164 116.589 71.6721 117.12 70.764C117.334 70.4029 117.405 69.9746 117.318 69.564L116.862 67.626C116.793 67.3331 116.805 67.027 116.897 66.7405C116.989 66.454 117.158 66.198 117.384 66L123.228 60.888C123.454 60.6892 123.73 60.5556 124.026 60.5017C124.322 60.4478 124.627 60.4755 124.908 60.582L126.774 61.29C127.169 61.4491 127.61 61.4491 128.004 61.29C128.979 60.8835 129.982 60.5466 131.004 60.282C131.415 60.1758 131.771 59.9187 132 59.562L133.05 57.87C133.209 57.6142 133.434 57.4061 133.701 57.2677C133.968 57.1293 134.268 57.0658 134.568 57.084ZM122.118 81.306C121.924 84.2059 122.594 87.0984 124.044 89.6174C125.494 92.1365 127.658 94.169 130.263 95.4578C132.868 96.7467 135.797 97.2341 138.679 96.8582C141.561 96.4824 144.267 95.2603 146.455 93.3465C148.642 91.4327 150.213 88.9131 150.968 86.1065C151.724 83.2999 151.63 80.3323 150.699 77.5791C149.767 74.8258 148.04 72.4106 145.736 70.639C143.432 68.8673 140.654 67.8188 137.754 67.626C133.867 67.3691 130.037 68.6656 127.106 71.2306C124.174 73.7956 122.38 77.4193 122.118 81.306Z" fill="#407BFF"/>
<path d="M165.27 89.8319L167.928 88.9319C168.069 88.8857 168.219 88.8781 168.364 88.9097C168.508 88.9414 168.642 89.0112 168.75 89.1119L169.188 89.5319C169.342 89.6695 169.54 89.7463 169.746 89.7479C170.111 89.7476 170.476 89.7717 170.838 89.8199C170.943 89.837 171.05 89.833 171.153 89.8083C171.256 89.7835 171.353 89.7386 171.438 89.6759L171.93 89.3219C172.052 89.2368 172.193 89.1857 172.341 89.1741C172.489 89.1625 172.637 89.1907 172.77 89.2559L175.284 90.5039C175.417 90.5689 175.529 90.6684 175.609 90.792C175.689 90.9156 175.735 91.0586 175.74 91.2059V91.8059C175.748 92.0135 175.834 92.2105 175.98 92.3579C176.239 92.6149 176.48 92.8895 176.7 93.1799C176.826 93.3434 177.008 93.4545 177.21 93.4919L177.81 93.5879C177.956 93.6123 178.092 93.676 178.204 93.7723C178.316 93.8685 178.4 93.9936 178.446 94.1339L179.346 96.7919C179.395 96.9318 179.405 97.0823 179.374 97.2273C179.343 97.3722 179.274 97.5059 179.172 97.6139L178.752 98.0519C178.614 98.2048 178.537 98.4036 178.536 98.6099C178.536 98.9751 178.512 99.3399 178.464 99.7019C178.447 99.8061 178.45 99.9127 178.474 100.016C178.497 100.119 178.541 100.216 178.602 100.302L178.956 100.794C179.044 100.913 179.097 101.054 179.109 101.201C179.122 101.348 179.094 101.496 179.028 101.628L177.78 104.148C177.715 104.28 177.616 104.393 177.492 104.473C177.369 104.553 177.226 104.598 177.078 104.604H176.478C176.272 104.61 176.076 104.696 175.932 104.844C175.671 105.098 175.397 105.338 175.11 105.564C174.947 105.69 174.836 105.871 174.798 106.074L174.702 106.674C174.678 106.82 174.614 106.956 174.518 107.068C174.422 107.18 174.297 107.264 174.156 107.31L171.498 108.21C171.358 108.258 171.207 108.267 171.062 108.235C170.917 108.203 170.784 108.132 170.676 108.03L170.232 107.616C170.082 107.474 169.881 107.396 169.674 107.4C169.311 107.4 168.948 107.376 168.588 107.328C168.484 107.31 168.377 107.313 168.274 107.337C168.171 107.36 168.074 107.404 167.988 107.466L167.496 107.82C167.376 107.907 167.234 107.96 167.086 107.973C166.938 107.986 166.79 107.958 166.656 107.892L164.142 106.644C164.009 106.579 163.896 106.478 163.816 106.353C163.735 106.229 163.691 106.084 163.686 105.936V105.336C163.677 105.13 163.591 104.936 163.446 104.79C163.189 104.532 162.948 104.257 162.726 103.968C162.666 103.885 162.59 103.815 162.502 103.761C162.415 103.708 162.318 103.672 162.216 103.656L161.616 103.56C161.471 103.534 161.335 103.469 161.222 103.373C161.109 103.277 161.024 103.153 160.974 103.014L160.074 100.35C160.028 100.21 160.02 100.061 160.052 99.9171C160.084 99.7735 160.153 99.6411 160.254 99.5339L160.674 99.0959C160.813 98.9409 160.89 98.7401 160.89 98.5319C160.89 98.1667 160.914 97.8019 160.962 97.4399C160.995 97.2288 160.944 97.0131 160.818 96.8399L160.47 96.3479C160.383 96.2289 160.33 96.0882 160.317 95.941C160.304 95.7939 160.332 95.6462 160.398 95.5139L161.646 92.9939C161.71 92.8615 161.81 92.7494 161.934 92.6699C162.058 92.5905 162.201 92.5469 162.348 92.5439H162.948C163.156 92.536 163.353 92.4503 163.5 92.3039C163.759 92.0466 164.033 91.8061 164.322 91.5839C164.486 91.4583 164.597 91.2766 164.634 91.0739L164.73 90.4739C164.753 90.3278 164.815 90.1907 164.911 90.0776C165.006 89.9644 165.13 89.8795 165.27 89.8319ZM166.86 99.5399C167.051 100.101 167.404 100.593 167.875 100.954C168.345 101.315 168.912 101.528 169.504 101.567C170.095 101.606 170.685 101.469 171.199 101.173C171.712 100.876 172.127 100.435 172.39 99.9033C172.652 99.3718 172.752 98.7744 172.675 98.1865C172.599 97.5986 172.35 97.0465 171.96 96.6C171.57 96.1534 171.056 95.8325 170.484 95.6776C169.912 95.5228 169.306 95.541 168.744 95.7299C168.37 95.8558 168.024 96.0543 167.727 96.3141C167.429 96.5738 167.186 96.8898 167.011 97.2437C166.836 97.5977 166.733 97.9828 166.707 98.3768C166.681 98.7708 166.733 99.1661 166.86 99.5399Z" fill="#407BFF"/>
<path opacity="0.5" d="M165.27 89.8319L167.928 88.9319C168.069 88.8857 168.219 88.8781 168.364 88.9097C168.508 88.9414 168.642 89.0112 168.75 89.1119L169.188 89.5319C169.342 89.6695 169.54 89.7463 169.746 89.7479C170.111 89.7476 170.476 89.7717 170.838 89.8199C170.943 89.837 171.05 89.833 171.153 89.8083C171.256 89.7835 171.353 89.7386 171.438 89.6759L171.93 89.3219C172.052 89.2368 172.193 89.1857 172.341 89.1741C172.489 89.1625 172.637 89.1907 172.77 89.2559L175.284 90.5039C175.417 90.5689 175.529 90.6684 175.609 90.792C175.689 90.9156 175.735 91.0586 175.74 91.2059V91.8059C175.748 92.0135 175.834 92.2105 175.98 92.3579C176.239 92.6149 176.48 92.8895 176.7 93.1799C176.826 93.3434 177.008 93.4545 177.21 93.4919L177.81 93.5879C177.956 93.6123 178.092 93.676 178.204 93.7723C178.316 93.8685 178.4 93.9936 178.446 94.1339L179.346 96.7919C179.395 96.9318 179.405 97.0823 179.374 97.2273C179.343 97.3722 179.274 97.5059 179.172 97.6139L178.752 98.0519C178.614 98.2048 178.537 98.4036 178.536 98.6099C178.536 98.9751 178.512 99.3399 178.464 99.7019C178.447 99.8061 178.45 99.9127 178.474 100.016C178.497 100.119 178.541 100.216 178.602 100.302L178.956 100.794C179.044 100.913 179.097 101.054 179.109 101.201C179.122 101.348 179.094 101.496 179.028 101.628L177.78 104.148C177.715 104.28 177.616 104.393 177.492 104.473C177.369 104.553 177.226 104.598 177.078 104.604H176.478C176.272 104.61 176.076 104.696 175.932 104.844C175.671 105.098 175.397 105.338 175.11 105.564C174.947 105.69 174.836 105.871 174.798 106.074L174.702 106.674C174.678 106.82 174.614 106.956 174.518 107.068C174.422 107.18 174.297 107.264 174.156 107.31L171.498 108.21C171.358 108.258 171.207 108.267 171.062 108.235C170.917 108.203 170.784 108.132 170.676 108.03L170.232 107.616C170.082 107.474 169.881 107.396 169.674 107.4C169.311 107.4 168.948 107.376 168.588 107.328C168.484 107.31 168.377 107.313 168.274 107.337C168.171 107.36 168.074 107.404 167.988 107.466L167.496 107.82C167.376 107.907 167.234 107.96 167.086 107.973C166.938 107.986 166.79 107.958 166.656 107.892L164.142 106.644C164.009 106.579 163.896 106.478 163.816 106.353C163.735 106.229 163.691 106.084 163.686 105.936V105.336C163.677 105.13 163.591 104.936 163.446 104.79C163.189 104.532 162.948 104.257 162.726 103.968C162.666 103.885 162.59 103.815 162.502 103.761C162.415 103.708 162.318 103.672 162.216 103.656L161.616 103.56C161.471 103.534 161.335 103.469 161.222 103.373C161.109 103.277 161.024 103.153 160.974 103.014L160.074 100.35C160.028 100.21 160.02 100.061 160.052 99.9171C160.084 99.7735 160.153 99.6411 160.254 99.5339L160.674 99.0959C160.813 98.9409 160.89 98.7401 160.89 98.5319C160.89 98.1667 160.914 97.8019 160.962 97.4399C160.995 97.2288 160.944 97.0131 160.818 96.8399L160.47 96.3479C160.383 96.2289 160.33 96.0882 160.317 95.941C160.304 95.7939 160.332 95.6462 160.398 95.5139L161.646 92.9939C161.71 92.8615 161.81 92.7494 161.934 92.6699C162.058 92.5905 162.201 92.5469 162.348 92.5439H162.948C163.156 92.536 163.353 92.4503 163.5 92.3039C163.759 92.0466 164.033 91.8061 164.322 91.5839C164.486 91.4583 164.597 91.2766 164.634 91.0739L164.73 90.4739C164.753 90.3278 164.815 90.1907 164.911 90.0776C165.006 89.9644 165.13 89.8795 165.27 89.8319ZM166.86 99.5399C167.051 100.101 167.404 100.593 167.875 100.954C168.345 101.315 168.912 101.528 169.504 101.567C170.095 101.606 170.685 101.469 171.199 101.173C171.712 100.876 172.127 100.435 172.39 99.9033C172.652 99.3718 172.752 98.7744 172.675 98.1865C172.599 97.5986 172.35 97.0465 171.96 96.6C171.57 96.1534 171.056 95.8325 170.484 95.6776C169.912 95.5228 169.306 95.541 168.744 95.7299C168.37 95.8558 168.024 96.0543 167.727 96.3141C167.429 96.5738 167.186 96.8898 167.011 97.2437C166.836 97.5977 166.733 97.9828 166.707 98.3768C166.681 98.7708 166.733 99.1661 166.86 99.5399Z" fill="white"/>
<path d="M149.94 118.644L153.24 112.926C153.362 112.713 153.427 112.472 153.427 112.227C153.428 111.982 153.364 111.741 153.243 111.527C153.122 111.314 152.947 111.136 152.736 111.011C152.525 110.886 152.285 110.818 152.04 110.814H145.44C145.194 110.816 144.953 110.883 144.741 111.008C144.529 111.132 144.353 111.31 144.232 111.524C144.11 111.738 144.047 111.98 144.048 112.226C144.05 112.472 144.116 112.714 144.24 112.926L147.54 118.644C147.666 118.849 147.843 119.018 148.053 119.135C148.263 119.252 148.499 119.314 148.74 119.314C148.98 119.314 149.217 119.252 149.427 119.135C149.637 119.018 149.814 118.849 149.94 118.644Z" fill="#407BFF"/>
<path d="M41.8141 183.852H122.7C122.978 183.853 123.253 183.798 123.509 183.69C123.765 183.582 123.996 183.424 124.19 183.224C124.383 183.025 124.534 182.789 124.634 182.529C124.733 182.27 124.78 181.994 124.77 181.716L122.856 123.888C122.83 123.316 122.586 122.775 122.175 122.377C121.763 121.979 121.215 121.753 120.642 121.746H39.7621C39.4837 121.744 39.2077 121.799 38.951 121.907C38.6942 122.015 38.4621 122.174 38.2685 122.374C38.075 122.574 37.9241 122.811 37.8251 123.072C37.726 123.332 37.6808 123.61 37.6921 123.888L39.6001 181.716C39.6233 182.289 39.8664 182.83 40.2788 183.228C40.6912 183.626 41.2411 183.849 41.8141 183.852Z" fill="#407BFF"/>
<path d="M42.4741 183.852H123.36C123.638 183.853 123.913 183.798 124.169 183.69C124.425 183.582 124.656 183.424 124.85 183.224C125.043 183.025 125.194 182.789 125.294 182.529C125.393 182.27 125.44 181.994 125.43 181.716L123.516 123.888C123.49 123.316 123.246 122.775 122.835 122.377C122.423 121.979 121.875 121.753 121.302 121.746H40.4221C40.1438 121.745 39.8682 121.8 39.6119 121.908C39.3556 122.017 39.1237 122.176 38.9304 122.376C38.737 122.576 38.5861 122.813 38.4867 123.073C38.3874 123.333 38.3415 123.61 38.3521 123.888L40.2661 181.716C40.2892 182.288 40.5314 182.828 40.9425 183.226C41.3536 183.624 41.9021 183.848 42.4741 183.852Z" fill="#407BFF"/>
<g opacity="0.6">
<path opacity="0.6" d="M42.4741 183.852H123.36C123.638 183.853 123.913 183.798 124.169 183.69C124.425 183.582 124.656 183.424 124.85 183.224C125.043 183.025 125.194 182.789 125.294 182.529C125.393 182.27 125.44 181.994 125.43 181.716L123.516 123.888C123.49 123.316 123.246 122.775 122.835 122.377C122.423 121.979 121.875 121.753 121.302 121.746H40.4221C40.1438 121.745 39.8682 121.8 39.6119 121.908C39.3556 122.017 39.1237 122.176 38.9304 122.376C38.737 122.576 38.5861 122.813 38.4867 123.073C38.3874 123.333 38.3415 123.61 38.3521 123.888L40.2661 181.716C40.2892 182.288 40.5314 182.828 40.9425 183.226C41.3536 183.624 41.9021 183.848 42.4741 183.852Z" fill="#263238"/>
</g>
<path d="M43.5183 183.75H141.204C141.685 183.75 142.156 183.885 142.563 184.139C142.97 184.394 143.298 184.758 143.508 185.19C143.562 185.303 143.587 185.428 143.579 185.553C143.571 185.678 143.532 185.799 143.465 185.904C143.398 186.01 143.305 186.097 143.195 186.156C143.085 186.216 142.961 186.247 142.836 186.246H41.8863C41.7606 186.248 41.6365 186.218 41.5257 186.159C41.4149 186.099 41.3211 186.013 41.2532 185.907C41.1853 185.801 41.1455 185.68 41.1377 185.554C41.1298 185.429 41.1541 185.303 41.2083 185.19C41.4197 184.758 41.7484 184.393 42.1568 184.139C42.5652 183.884 43.037 183.749 43.5183 183.75Z" fill="#407BFF"/>
<path opacity="0.6" d="M141.204 183.75H63.2522C62.7709 183.749 62.2991 183.884 61.8907 184.139C61.4823 184.393 61.1536 184.758 60.9422 185.19C60.888 185.303 60.8637 185.429 60.8716 185.554C60.8794 185.68 60.9192 185.801 60.9871 185.907C61.055 186.013 61.1488 186.099 61.2596 186.159C61.3704 186.218 61.4945 186.248 61.6202 186.246H142.836C142.961 186.247 143.085 186.216 143.195 186.156C143.305 186.097 143.398 186.01 143.465 185.904C143.532 185.799 143.571 185.678 143.579 185.553C143.586 185.428 143.562 185.303 143.508 185.19C143.298 184.758 142.97 184.394 142.563 184.139C142.155 183.885 141.685 183.75 141.204 183.75Z" fill="#263238"/>
<path opacity="0.3" d="M94.6083 185.334H114.888C115.129 185.336 115.36 185.432 115.529 185.603C115.699 185.774 115.794 186.005 115.794 186.246H93.6963C93.6963 186.004 93.7924 185.772 93.9634 185.601C94.1344 185.43 94.3664 185.334 94.6083 185.334Z" fill="white"/>
<path opacity="0.9" d="M123.498 179.622L121.698 125.982C121.687 125.759 121.592 125.549 121.431 125.394C121.271 125.239 121.057 125.151 120.834 125.148H41.0881C40.9781 125.147 40.869 125.169 40.7678 125.212C40.6666 125.255 40.5753 125.318 40.4998 125.398C40.4243 125.478 40.3662 125.573 40.3291 125.677C40.2919 125.78 40.2766 125.89 40.2841 126L42.0841 179.64C42.0918 179.863 42.1854 180.074 42.3453 180.23C42.5052 180.385 42.7191 180.473 42.9421 180.474H122.742C122.848 180.468 122.951 180.441 123.046 180.395C123.142 180.349 123.227 180.284 123.297 180.205C123.367 180.126 123.421 180.034 123.456 179.934C123.49 179.833 123.505 179.728 123.498 179.622Z" fill="white"/>
<path d="M57.7563 180.456H46.7583L59.4363 125.148H70.4343L57.7563 180.456Z" fill="white"/>
<path d="M64.7642 180.456H60.8042L73.4822 125.148H77.4422L64.7642 180.456Z" fill="white"/>
<path d="M105.222 180.456H101.262L113.94 125.148H117.894L105.222 180.456Z" fill="white"/>
<path opacity="0.4" d="M80.292 123.54C80.3068 123.702 80.3812 123.854 80.5009 123.964C80.6205 124.075 80.7769 124.138 80.94 124.14C81.0991 124.14 81.2517 124.077 81.3642 123.964C81.4768 123.852 81.54 123.699 81.54 123.54C81.5278 123.377 81.4543 123.224 81.334 123.113C81.2138 123.001 81.0558 122.94 80.892 122.94C80.7329 122.94 80.5802 123.003 80.4677 123.116C80.3552 123.228 80.292 123.381 80.292 123.54Z" fill="white"/>
<path d="M106.044 117.636C107.106 119.34 108.252 121.146 109.398 122.886C110.544 124.626 111.72 126.366 112.92 128.07C115.249 131.456 117.767 134.707 120.462 137.808C121.729 139.256 123.103 140.605 124.572 141.846L125.088 142.254C125.201 142.351 125.319 142.441 125.442 142.524C125.753 142.728 126.076 142.915 126.408 143.082C127.218 143.476 128.057 143.809 128.916 144.078C129.822 144.384 130.776 144.678 131.748 144.9C132.72 145.122 133.722 145.38 134.748 145.59C136.758 146.016 138.858 146.406 140.88 146.754V150.954C139.728 151.122 138.648 151.206 137.526 151.284C136.404 151.362 135.294 151.392 134.166 151.398C131.863 151.406 129.563 151.223 127.29 150.852C126.06 150.638 124.846 150.333 123.66 149.94C122.997 149.712 122.351 149.435 121.728 149.112C121.398 148.956 121.05 148.734 120.714 148.512L119.94 147.972C118.031 146.569 116.244 145.005 114.6 143.298C111.505 140.067 108.64 136.622 106.026 132.99C104.726 131.21 103.474 129.41 102.27 127.59C101.07 125.742 99.8704 123.93 98.7544 121.962L106.044 117.636Z" fill="#FFC3BD"/>
<path d="M95.9461 118.8C95.3461 124.068 107.904 136.656 107.904 136.656L116.4 129.564C113.91 125.351 111.155 121.301 108.15 117.438C103.32 111.456 96.6001 112.842 95.9461 118.8Z" fill="#407BFF"/>
<path opacity="0.3" d="M102.81 122.538C99.4564 118.938 97.8544 118.008 95.9224 119.442C96.1804 125.004 107.922 136.644 107.922 136.644C108.69 130.674 105.648 126.834 102.81 122.538Z" fill="black"/>
<path d="M115.71 127.134L116.604 129.726L107.1 137.526L105.222 135.576L115.71 127.134Z" fill="#407BFF"/>
<path opacity="0.3" d="M115.71 127.134L116.604 129.726L107.1 137.526L105.222 135.576L115.71 127.134Z" fill="#263238"/>
<path d="M140.43 146.67L147.03 147.804L143.4 153.6C142.536 153.738 139.092 151.872 137.568 149.556L140.43 146.67Z" fill="#FFC3BD"/>
<path d="M151.08 151.716L148.446 154.704L143.394 153.57L147.018 147.804L151.08 151.716Z" fill="#FFC3BD"/>
<path d="M102.78 113.754C102.78 113.754 109.98 130.686 104.796 162.222H74.7961C74.4301 157.62 76.5421 135.162 71.3521 113.466C74.6547 112.825 77.9959 112.402 81.354 112.2C85.6005 111.954 89.8576 111.954 94.104 112.2C97.0318 112.494 99.9324 113.013 102.78 113.754Z" fill="#407BFF"/>
<path opacity="0.3" d="M78.0542 118.8C78.6542 122.4 77.8502 130.908 74.7902 140.784C74.5558 132.313 73.5699 123.88 71.8442 115.584V115.542C73.8002 115.38 77.4602 115.476 78.0542 118.8Z" fill="black"/>
<path d="M82.116 97.842C83.064 101.946 84.126 109.464 81.354 112.2C81.354 112.2 82.554 115.596 90.174 115.596C98.574 115.596 94.104 112.2 94.104 112.2C89.49 111.108 89.49 107.712 90.174 104.526L82.116 97.842Z" fill="#FFC3BD"/>
<path d="M90.6902 115.914L92.4902 117.816C92.5448 117.872 92.581 117.944 92.5939 118.021C92.6067 118.098 92.5957 118.177 92.5623 118.248L91.6623 120.126C91.6333 120.19 91.5871 120.245 91.5288 120.284C91.4705 120.323 91.4025 120.345 91.3322 120.348L89.9702 120.414C89.9054 120.417 89.8411 120.403 89.7833 120.373C89.7255 120.344 89.6762 120.3 89.6402 120.246L88.3802 118.446C88.3296 118.378 88.3022 118.296 88.3022 118.212C88.3022 118.128 88.3296 118.045 88.3802 117.978L90.1082 115.932C90.1424 115.888 90.1858 115.852 90.2353 115.827C90.2849 115.802 90.3394 115.788 90.395 115.786C90.4506 115.784 90.5059 115.795 90.5569 115.817C90.6079 115.839 90.6535 115.872 90.6902 115.914Z" fill="white"/>
<path d="M90.3961 115.596C89.5301 116.989 89.0287 118.578 88.9381 120.216C88.9381 120.216 79.2001 116.886 79.6441 112.014C80.509 111.595 81.3413 111.111 82.1341 110.568C82.1341 110.568 82.4521 113.646 90.3961 115.596Z" fill="#263238"/>
<path d="M90.396 115.596C91.2622 116.917 91.886 118.382 92.238 119.922C92.238 119.922 96.75 116.832 95.466 112.014L92.814 111.444C92.814 111.444 93.372 114.552 90.396 115.596Z" fill="#263238"/>
<path d="M91.5001 120.144C92.1001 122.136 96.6241 136.908 96.7381 140.442C96.7411 140.472 96.7411 140.502 96.7381 140.532C96.3181 142.434 94.4341 145.77 93.6661 147.078C93.6367 147.13 93.5933 147.172 93.5409 147.2C93.4885 147.228 93.4293 147.241 93.3699 147.238C93.3105 147.234 93.2534 147.214 93.205 147.179C93.1566 147.144 93.1189 147.097 93.0961 147.042C92.5681 145.752 91.2961 142.662 90.4561 140.856C90.4407 140.822 90.4305 140.785 90.4262 140.748C90.0302 134.298 89.9221 124.266 89.7241 120.258C89.7217 120.215 89.7281 120.171 89.743 120.131C89.7579 120.09 89.7809 120.053 89.8107 120.021C89.8405 119.99 89.8763 119.965 89.9161 119.948C89.956 119.931 89.9988 119.922 90.0422 119.922H91.2001C91.2672 119.923 91.3323 119.944 91.3861 119.984C91.44 120.024 91.4799 120.08 91.5001 120.144Z" fill="white"/>
<path opacity="0.2" d="M85.4043 100.566L90.1743 104.52C90.0016 105.263 89.8952 106.02 89.8563 106.782C88.0983 106.53 85.6563 104.616 85.3863 102.786C85.2541 102.051 85.2602 101.298 85.4043 100.566Z" fill="black"/>
<path d="M93.8643 85.644C94.9983 86.49 96.9363 90.066 94.4643 91.002C91.9923 91.938 91.0863 83.568 93.8643 85.644Z" fill="#263238"/>
<path d="M80.64 92.922C81.774 98.388 82.164 101.634 85.362 104.148C86.3925 104.978 87.6305 105.51 88.9417 105.687C90.253 105.864 91.5877 105.679 92.8013 105.152C94.0149 104.624 95.0612 103.775 95.827 102.696C96.5928 101.617 97.049 100.35 97.146 99.03C97.614 93.96 95.67 85.878 89.946 84.282C88.7163 83.9051 87.4091 83.8582 86.1555 84.1457C84.9018 84.4333 83.7458 85.0452 82.8033 85.9204C81.8607 86.7955 81.1647 87.9029 80.785 89.1318C80.4053 90.3606 80.3553 91.6677 80.64 92.922Z" fill="#FFC3BD"/>
<path d="M81.3541 97.038L83.6461 95.508L83.7961 94.176C84.0066 92.2447 83.6457 90.2941 82.7581 88.566C82.7581 88.566 93.9001 88.98 95.2801 85.494C96.6601 82.008 92.7361 79.386 92.7361 79.386C92.7361 79.386 88.7941 81.648 86.1361 81.828C83.4781 82.008 75.3361 78.684 75.3361 85.566C71.7361 86.676 71.8561 92.598 81.3361 97.038" fill="#263238"/>
<path d="M75.738 85.836C75.738 85.836 74.262 84.666 75.36 81.09C74.01 81.762 73.362 85.416 75.738 85.836Z" fill="#263238"/>
<path d="M79.0262 99.264C79.9339 100.349 81.2216 101.047 82.6262 101.214C84.4862 101.412 85.0262 99.696 84.2222 98.118C83.4782 96.702 81.6182 94.89 79.9022 95.424C78.1862 95.958 77.9162 97.914 79.0262 99.264Z" fill="#FFC3BD"/>
<path d="M107.328 180.456H88.1583C86.4363 170.052 85.0503 162.222 85.0503 162.222H104.796C104.796 162.222 105.906 169.92 107.328 180.456Z" fill="#263238"/>
<path d="M75.528 180.456C75.096 170.052 74.772 162.222 74.772 162.222H94.128C94.128 162.222 94.224 170.148 94.266 180.456H75.528Z" fill="#263238"/>
<path d="M89.2379 93.54C89.3039 93.99 89.5919 94.326 89.8859 94.296C90.1799 94.266 90.3659 93.87 90.2999 93.426C90.2339 92.982 89.9459 92.64 89.6519 92.67C89.3579 92.7 89.1719 93.09 89.2379 93.54Z" fill="#263238"/>
<path d="M94.3199 93C94.3859 93.45 94.674 93.786 94.968 93.75C95.262 93.714 95.448 93.33 95.382 92.886C95.316 92.442 95.028 92.1 94.734 92.13C94.44 92.16 94.2539 92.532 94.3199 93Z" fill="#263238"/>
<path d="M92.7363 93.384C93.4727 94.6984 94.3807 95.909 95.4363 96.984C94.7523 97.812 93.3483 97.62 93.3483 97.62L92.7363 93.384Z" fill="#ED847E"/>
<path d="M91.2844 99C91.5935 99.0328 91.9053 99.0328 92.2144 99C92.2318 98.9985 92.2486 98.9935 92.2641 98.9855C92.2795 98.9774 92.2932 98.9664 92.3044 98.953C92.3156 98.9396 92.3239 98.9241 92.3291 98.9075C92.3342 98.8908 92.336 98.8733 92.3344 98.856C92.3299 98.8204 92.3117 98.788 92.2837 98.7656C92.2557 98.7432 92.2201 98.7326 92.1844 98.736C91.6192 98.8079 91.0449 98.749 90.5061 98.5638C89.9672 98.3786 89.4781 98.0721 89.0764 97.668C89.065 97.6546 89.051 97.6436 89.0353 97.6356C89.0197 97.6276 89.0026 97.6227 88.985 97.6213C88.9675 97.6199 88.9498 97.622 88.9331 97.6274C88.9163 97.6329 88.9008 97.6416 88.8874 97.653C88.874 97.6644 88.863 97.6784 88.855 97.694C88.847 97.7097 88.8421 97.7268 88.8408 97.7444C88.8394 97.7619 88.8414 97.7796 88.8469 97.7963C88.8523 97.8131 88.861 97.8286 88.8724 97.842C89.5128 98.5029 90.3681 98.9135 91.2844 99Z" fill="#263238"/>
<path d="M87.402 92.076C87.4533 92.0823 87.5053 92.0732 87.5513 92.0496C87.5973 92.0261 87.6352 91.9893 87.66 91.944C87.814 91.6539 88.0367 91.406 88.3087 91.2219C88.5806 91.0378 88.8935 90.9232 89.22 90.888C89.2906 90.8833 89.3565 90.8512 89.4036 90.7985C89.4508 90.7457 89.4753 90.6766 89.472 90.606C89.4705 90.5713 89.4621 90.5373 89.4474 90.5058C89.4327 90.4744 89.4119 90.4461 89.3863 90.4227C89.3607 90.3993 89.3307 90.3812 89.298 90.3694C89.2654 90.3576 89.2307 90.3524 89.196 90.354C88.7801 90.3953 88.3806 90.5377 88.0323 90.7688C87.6841 90.9999 87.3976 91.3127 87.198 91.68C87.1801 91.7106 87.1684 91.7444 87.1638 91.7796C87.1593 91.8148 87.1618 91.8505 87.1713 91.8846C87.1808 91.9188 87.1971 91.9507 87.2193 91.9784C87.2414 92.0061 87.2688 92.0291 87.3 92.046C87.3308 92.0648 87.366 92.0752 87.402 92.076Z" fill="#263238"/>
<path d="M96.2221 91.002C96.2858 91.0068 96.3493 90.9899 96.4021 90.954C96.4589 90.9139 96.4981 90.8536 96.5115 90.7854C96.5249 90.7172 96.5115 90.6465 96.4741 90.588C96.2461 90.2273 95.9369 89.9251 95.5713 89.7052C95.2056 89.4854 94.7936 89.3542 94.3681 89.322C94.2986 89.3219 94.2317 89.3487 94.1813 89.3968C94.131 89.4448 94.1012 89.5105 94.0981 89.58C94.0981 89.6505 94.1258 89.7183 94.1751 89.7688C94.2244 89.8193 94.2916 89.8484 94.3621 89.85C94.7009 89.8818 95.0277 89.9916 95.317 90.1706C95.6064 90.3496 95.8504 90.5931 96.0301 90.882C96.0521 90.9142 96.0805 90.9414 96.1136 90.9621C96.1466 90.9827 96.1836 90.9963 96.2221 91.002Z" fill="#263238"/>
<path d="M77.082 121.896L75.75 124.2C75.302 125 74.864 125.8 74.436 126.6C73.572 128.2 72.744 129.812 71.952 131.436C71.172 133.062 70.428 134.694 69.762 136.338C69.444 137.154 69.12 137.976 68.844 138.798L68.418 140.028L68.064 141.228L67.974 141.534L67.926 141.69C67.926 141.744 67.926 141.69 67.926 141.726C67.926 141.762 67.926 141.792 67.884 141.858C67.8595 142.093 67.8595 142.331 67.884 142.566C67.9592 143.279 68.108 143.983 68.328 144.666C68.8547 146.309 69.4963 147.913 70.248 149.466C71.766 152.724 73.614 156.012 75.432 159.222L72.114 161.814C70.698 160.392 69.426 158.946 68.178 157.422C66.93 155.898 65.778 154.314 64.644 152.622C63.4889 150.894 62.4852 149.069 61.644 147.168C61.1645 146.084 60.7947 144.954 60.54 143.796C60.3908 143.096 60.3144 142.382 60.312 141.666C60.3071 141.236 60.3393 140.806 60.408 140.382L60.456 140.07L60.498 139.878L60.576 139.488C60.9648 137.454 61.492 135.45 62.154 133.488C62.79 131.556 63.534 129.696 64.326 127.86C65.118 126.024 65.988 124.26 66.918 122.496C67.386 121.626 67.86 120.762 68.358 119.898C68.856 119.034 69.348 118.218 69.942 117.3L77.082 121.896Z" fill="#FFC3BD"/>
<path d="M71.3582 113.466C66.0782 114.24 60.6362 132.624 60.6362 132.624L72.0002 138.918C72.0002 138.918 76.6022 130.17 78.7982 123.678C81.0962 116.874 77.0162 112.638 71.3582 113.466Z" fill="#407BFF"/>
<path d="M60.8701 130.032L60.3901 132.732L72.0661 139.158L73.6201 136.932L60.8701 130.032Z" fill="#407BFF"/>
<path opacity="0.3" d="M60.8701 130.032L60.3901 132.732L72.0661 139.158L73.6201 136.932L60.8701 130.032Z" fill="#263238"/>
<path d="M73.92 157.974L79.5 157.002L76.638 163.464C76.638 163.464 71.538 163.434 71.772 160.806L73.92 157.974Z" fill="#FFC3BD"/>
<path d="M83.6702 160.248L81.0422 165.468L76.6382 163.464L79.5002 157.002L83.6702 160.248Z" fill="#FFC3BD"/>
<path d="M258.186 183.852H177.3C177.022 183.853 176.747 183.798 176.491 183.69C176.235 183.582 176.004 183.424 175.81 183.224C175.617 183.025 175.466 182.789 175.366 182.529C175.267 182.27 175.22 181.994 175.23 181.716L177.144 123.888C177.17 123.316 177.414 122.775 177.825 122.377C178.237 121.979 178.785 121.753 179.358 121.746H260.238C260.516 121.744 260.792 121.799 261.049 121.907C261.306 122.015 261.538 122.174 261.731 122.374C261.925 122.574 262.076 122.812 262.175 123.072C262.274 123.332 262.319 123.61 262.308 123.888L260.4 181.716C260.377 182.289 260.134 182.83 259.721 183.228C259.309 183.626 258.759 183.849 258.186 183.852Z" fill="#407BFF"/>
<path opacity="0.6" d="M258.186 183.852H177.3C177.022 183.853 176.747 183.798 176.491 183.69C176.235 183.582 176.004 183.424 175.81 183.224C175.617 183.025 175.466 182.789 175.366 182.529C175.267 182.27 175.22 181.994 175.23 181.716L177.144 123.888C177.17 123.316 177.414 122.775 177.825 122.377C178.237 121.979 178.785 121.753 179.358 121.746H260.238C260.516 121.744 260.792 121.799 261.049 121.907C261.306 122.015 261.538 122.174 261.731 122.374C261.925 122.574 262.076 122.812 262.175 123.072C262.274 123.332 262.319 123.61 262.308 123.888L260.4 181.716C260.377 182.289 260.134 182.83 259.721 183.228C259.309 183.626 258.759 183.849 258.186 183.852Z" fill="#263238"/>
<path d="M257.526 183.852H176.64C176.362 183.853 176.087 183.798 175.831 183.69C175.575 183.582 175.344 183.424 175.151 183.224C174.957 183.025 174.806 182.789 174.707 182.529C174.607 182.27 174.56 181.994 174.57 181.716L176.484 123.888C176.51 123.316 176.754 122.775 177.165 122.377C177.577 121.979 178.125 121.753 178.698 121.746H259.578C259.856 121.745 260.132 121.8 260.388 121.909C260.645 122.017 260.876 122.176 261.07 122.376C261.263 122.576 261.414 122.813 261.513 123.073C261.613 123.333 261.659 123.61 261.648 123.888L259.734 181.716C259.711 182.288 259.469 182.828 259.058 183.226C258.646 183.624 258.098 183.848 257.526 183.852Z" fill="#407BFF"/>
<path d="M256.482 183.75H158.796C158.316 183.75 157.845 183.885 157.437 184.139C157.03 184.394 156.702 184.758 156.492 185.19C156.438 185.303 156.414 185.428 156.421 185.553C156.429 185.678 156.468 185.799 156.535 185.904C156.603 186.01 156.695 186.097 156.805 186.156C156.915 186.216 157.039 186.247 157.164 186.246H258.114C258.24 186.248 258.364 186.218 258.475 186.159C258.585 186.099 258.679 186.013 258.747 185.907C258.815 185.801 258.855 185.68 258.863 185.554C258.87 185.429 258.846 185.303 258.792 185.19C258.581 184.758 258.252 184.393 257.843 184.139C257.435 183.884 256.963 183.749 256.482 183.75Z" fill="#407BFF"/>
<path opacity="0.6" d="M256.482 183.75H241.482C241.001 183.749 240.529 183.884 240.121 184.139C239.712 184.393 239.384 184.758 239.172 185.19C239.118 185.303 239.094 185.429 239.102 185.554C239.109 185.68 239.149 185.801 239.217 185.907C239.285 186.013 239.379 186.099 239.49 186.159C239.6 186.218 239.724 186.248 239.85 186.246H258.084C258.21 186.248 258.334 186.218 258.445 186.159C258.556 186.099 258.649 186.013 258.717 185.907C258.785 185.801 258.825 185.68 258.833 185.554C258.841 185.429 258.816 185.303 258.762 185.19C258.553 184.762 258.229 184.401 257.826 184.147C257.424 183.892 256.958 183.755 256.482 183.75Z" fill="#263238"/>
<path opacity="0.2" d="M205.392 185.334H185.112C184.871 185.336 184.641 185.432 184.471 185.603C184.301 185.774 184.206 186.005 184.206 186.246H206.304C206.304 186.004 206.208 185.772 206.037 185.601C205.866 185.43 205.634 185.334 205.392 185.334Z" fill="black"/>
<path opacity="0.9" d="M176.502 179.622L178.302 125.982C178.313 125.759 178.408 125.549 178.569 125.394C178.729 125.239 178.943 125.151 179.166 125.148H258.966C259.074 125.147 259.182 125.168 259.282 125.21C259.382 125.252 259.472 125.314 259.547 125.392C259.623 125.47 259.681 125.563 259.719 125.664C259.758 125.766 259.775 125.874 259.77 125.982L257.97 179.622C257.962 179.845 257.869 180.056 257.709 180.212C257.549 180.367 257.335 180.455 257.112 180.456H177.312C177.203 180.457 177.096 180.436 176.995 180.394C176.895 180.352 176.804 180.29 176.729 180.212C176.653 180.134 176.594 180.042 176.555 179.94C176.516 179.839 176.498 179.731 176.502 179.622Z" fill="white"/>
<path d="M233.232 180.456H222.234L234.912 125.148H245.91L233.232 180.456Z" fill="white"/>
<path d="M185.478 180.456H181.518L194.196 125.148H198.15L185.478 180.456Z" fill="white"/>
<path d="M242.25 180.456H238.29L250.968 125.148H254.928L242.25 180.456Z" fill="white"/>
<path opacity="0.4" d="M219.708 123.54C219.693 123.702 219.619 123.854 219.499 123.964C219.379 124.075 219.223 124.138 219.06 124.14C218.901 124.14 218.748 124.077 218.636 123.964C218.523 123.852 218.46 123.699 218.46 123.54C218.472 123.377 218.546 123.224 218.666 123.113C218.786 123.001 218.944 122.94 219.108 122.94C219.267 122.94 219.42 123.003 219.532 123.116C219.645 123.228 219.708 123.381 219.708 123.54Z" fill="black"/>
<path d="M213.876 97.842C212.934 101.946 211.866 109.464 214.644 112.2C214.644 112.2 213.444 115.596 205.824 115.596C197.424 115.596 201.894 112.2 201.894 112.2C206.508 111.108 206.508 107.712 205.818 104.526L213.876 97.842Z" fill="#B55B52"/>
<path d="M226.086 117.336C226.686 118.254 227.178 119.058 227.67 119.934C228.162 120.81 228.648 121.662 229.116 122.532C230.04 124.284 230.916 126.066 231.708 127.896C232.5 129.726 233.244 131.592 233.874 133.524C234.538 135.486 235.067 137.49 235.458 139.524L235.536 139.914L235.572 140.106L235.626 140.418C235.689 140.843 235.721 141.272 235.722 141.702C235.714 142.418 235.637 143.131 235.494 143.832C235.237 144.99 234.866 146.12 234.384 147.204C233.545 149.106 232.541 150.931 231.384 152.658C230.268 154.332 229.092 155.916 227.844 157.458C226.606 158.987 225.293 160.453 223.908 161.85L220.596 159.258C222.396 156.048 224.262 152.76 225.78 149.502C226.53 147.949 227.169 146.345 227.694 144.702C227.914 144.019 228.063 143.315 228.138 142.602C228.165 142.367 228.165 142.129 228.138 141.894C228.138 141.828 228.138 141.768 228.09 141.762V141.726L228.048 141.57L227.958 141.264L227.598 140.064L227.178 138.834C226.896 138.012 226.578 137.19 226.254 136.374C225.588 134.73 224.844 133.098 224.07 131.472C223.296 129.846 222.444 128.238 221.586 126.636C221.162 125.836 220.724 125.036 220.272 124.236L218.94 121.938L226.086 117.336Z" fill="#B65B52"/>
<path d="M224.64 113.466C229.92 114.24 235.356 132.624 235.356 132.624L223.998 138.918C223.998 138.918 219.39 130.2 217.2 123.678C214.896 116.874 219 112.638 224.64 113.466Z" fill="#263238"/>
<path opacity="0.3" d="M221.202 123.54L220.344 131.4C221.202 133.29 222.042 135 222.696 136.35C222.942 133.2 222.936 128.076 221.202 123.54Z" fill="black"/>
<path d="M235.122 130.032L235.608 132.732L223.932 139.158L222.378 136.932L235.122 130.032Z" fill="#407BFF"/>
<path opacity="0.3" d="M235.122 130.032L235.608 132.732L223.932 139.158L222.378 136.932L235.122 130.032Z" fill="#263238"/>
<path d="M222.078 157.974L216.492 157.002L219.36 163.464C219.36 163.464 224.454 163.434 224.22 160.806L222.078 157.974Z" fill="#B55B52"/>
<path d="M212.328 160.248L214.95 165.468L219.36 163.464L216.492 157.002L212.328 160.248Z" fill="#B55B52"/>
<path d="M193.2 113.754C193.2 113.754 186 130.686 191.19 162.222H221.19C221.556 157.62 219.438 135.162 224.634 113.466C221.335 112.826 217.998 112.403 214.644 112.2C210.397 111.954 206.14 111.954 201.894 112.2C198.96 112.493 196.053 113.012 193.2 113.754Z" fill="#263238"/>
<path opacity="0.3" d="M189.99 128.238C189.554 132.033 189.332 135.849 189.324 139.668C193.404 137.01 194.856 130.914 195.432 126.498L189.99 128.238Z" fill="black"/>
<path d="M197.268 121.968C196.122 123.936 194.964 125.748 193.752 127.596C192.54 129.444 191.298 131.238 189.996 132.996C187.381 136.629 184.514 140.073 181.416 143.304C179.773 145.01 177.989 146.573 176.082 147.978L175.302 148.518C174.966 148.722 174.618 148.944 174.294 149.118C173.669 149.44 173.021 149.717 172.356 149.946C171.17 150.339 169.957 150.644 168.726 150.858C166.453 151.229 164.153 151.412 161.85 151.404C160.728 151.404 159.606 151.404 158.496 151.29C157.386 151.176 156.288 151.128 155.136 150.96V146.76C157.158 146.412 159.258 146.022 161.262 145.596C162.27 145.386 163.272 145.158 164.262 144.906C165.252 144.654 166.194 144.39 167.094 144.084C167.954 143.816 168.793 143.483 169.602 143.088C169.935 142.921 170.257 142.734 170.568 142.53C170.718 142.44 170.808 142.344 170.928 142.26L171.444 141.852C172.911 140.608 174.285 139.259 175.554 137.814C178.246 134.71 180.764 131.459 183.096 128.076C184.296 126.372 185.454 124.632 186.618 122.892C187.782 121.152 188.904 119.346 189.972 117.642L197.268 121.968Z" fill="#B65B52"/>
<path d="M200.046 118.8C200.646 124.068 188.898 136.848 188.898 136.848L179.604 129.576C182.091 125.362 184.844 121.312 187.848 117.45C192.672 111.456 199.38 112.842 200.046 118.8Z" fill="#263238"/>
<path d="M180.288 127.134L179.394 129.726L188.892 137.526L190.776 135.576L180.288 127.134Z" fill="#407BFF"/>
<path opacity="0.3" d="M180.288 127.134L179.394 129.726L188.892 137.526L190.776 135.576L180.288 127.134Z" fill="#263238"/>
<path d="M155.136 146.778L148.446 146.874L151.14 153.138C151.968 153.408 155.664 152.094 157.524 150.042L155.136 146.778Z" fill="#B55B52"/>
<path d="M143.832 150.12L147.486 154.704L151.14 153.132L148.446 146.874L143.832 150.12Z" fill="#B55B52"/>
<path d="M200.01 93.0001C199.944 93.4501 199.656 93.7861 199.362 93.7501C199.068 93.7141 198.882 93.3301 198.942 92.8861C199.002 92.4421 199.302 92.1001 199.596 92.1301C199.89 92.1601 200.076 92.5321 200.01 93.0001Z" fill="#263238"/>
<path d="M200.136 93.384C199.399 94.6995 198.489 95.9103 197.43 96.984C198.12 97.812 199.524 97.62 199.524 97.62L200.136 93.384Z" fill="#A02724"/>
<path d="M199.374 96.696C198.372 96.696 197.466 95.25 197.304 93.402C197.151 92.3747 197.401 91.328 198 90.48C198.103 90.356 198.231 90.2554 198.376 90.185C198.521 90.1146 198.679 90.0761 198.84 90.072C199.842 90.072 200.748 91.512 200.91 93.36C201.07 94.3878 200.824 95.4373 200.226 96.288C200.122 96.4109 199.994 96.5107 199.849 96.581C199.705 96.6512 199.547 96.6904 199.386 96.696H199.374ZM198.834 90.372C198.718 90.3785 198.605 90.4091 198.502 90.4618C198.399 90.5145 198.308 90.5881 198.234 90.678C197.698 91.4689 197.484 92.4345 197.634 93.378C197.778 95.016 198.588 96.378 199.434 96.378C199.55 96.3704 199.664 96.3388 199.767 96.2851C199.87 96.2314 199.961 96.1568 200.034 96.066C200.573 95.2787 200.788 94.3138 200.634 93.372C200.46 91.752 199.65 90.372 198.834 90.372Z" fill="#263238"/>
<path d="M201.6 91.002C201.662 91.007 201.724 90.99 201.774 90.954C201.803 90.9352 201.829 90.9107 201.848 90.8821C201.868 90.8535 201.882 90.8212 201.889 90.7872C201.896 90.7532 201.897 90.7181 201.891 90.6839C201.884 90.6497 201.871 90.6171 201.852 90.588C201.624 90.2274 201.315 89.9251 200.949 89.7053C200.584 89.4855 200.172 89.3542 199.746 89.322C199.677 89.322 199.61 89.3488 199.559 89.3968C199.509 89.4449 199.479 89.5105 199.476 89.58C199.476 89.6506 199.504 89.7184 199.553 89.7689C199.602 89.8193 199.67 89.8485 199.74 89.85C200.079 89.8819 200.406 89.9916 200.695 90.1706C200.984 90.3497 201.228 90.5931 201.408 90.882C201.43 90.9142 201.458 90.9415 201.492 90.9621C201.525 90.9828 201.562 90.9964 201.6 91.002Z" fill="#263238"/>
<path d="M215.358 92.922C214.218 98.388 213.834 101.634 210.63 104.148C209.6 104.976 208.362 105.507 207.052 105.683C205.741 105.859 204.408 105.673 203.195 105.147C201.983 104.62 200.937 103.771 200.172 102.693C199.406 101.615 198.95 100.349 198.852 99.03C198.384 93.96 200.322 85.878 206.052 84.282C207.282 83.9071 208.588 83.8615 209.841 84.1498C211.094 84.4381 212.249 85.0501 213.191 85.9248C214.133 86.7994 214.829 87.906 215.209 89.1339C215.59 90.3618 215.641 91.668 215.358 92.922Z" fill="#B55B52"/>
<path d="M222.81 180.456C223.091 174.334 222.557 168.203 221.22 162.222H201.864C203.367 168.183 204.111 174.309 204.078 180.456H222.81Z" fill="#407BFF"/>
<path opacity="0.3" d="M222.81 180.456C223.091 174.334 222.557 168.203 221.22 162.222H201.864C203.367 168.183 204.111 174.309 204.078 180.456H222.81Z" fill="white"/>
<path d="M203.502 94.566C202.434 94.032 201.102 88.698 201.468 86.802C201.834 84.906 206.136 82.866 210.366 83.634C214.596 84.402 216.414 85.884 217.236 89.736C218.082 93.732 214.998 100.386 213.474 100.902C212.571 101.222 211.61 101.346 210.655 101.265C209.7 101.184 208.773 100.901 207.936 100.434C206.574 99.6 205.866 93.468 203.502 94.566Z" fill="#263238"/>
<path d="M202.38 88.716C200.316 88.836 198.348 85.548 200.244 82.614C200.789 81.7778 201.563 81.1162 202.474 80.7086C203.385 80.3011 204.394 80.1647 205.38 80.316C205.38 80.316 204.516 82.002 207.396 81.648C210.276 81.294 215.64 82.098 217.512 84.114C219.828 86.598 218.43 91.482 214.944 90.282C211.458 89.082 202.38 88.716 202.38 88.716Z" fill="#263238"/>
<path d="M201.828 88.8C201.396 88.7794 200.974 88.6671 200.589 88.4706C200.204 88.274 199.866 87.9977 199.596 87.66C199.057 87.0153 198.707 86.2336 198.587 85.4019C198.466 84.5703 198.578 83.7214 198.912 82.95C198.919 82.9315 198.931 82.9146 198.945 82.9004C198.959 82.8861 198.975 82.8748 198.994 82.867C199.012 82.8592 199.032 82.8551 199.052 82.8549C199.072 82.8548 199.091 82.8585 199.11 82.866C199.129 82.8735 199.145 82.8845 199.16 82.8985C199.174 82.9126 199.185 82.9292 199.193 82.9476C199.201 82.966 199.205 82.9857 199.205 83.0057C199.205 83.0257 199.201 83.0455 199.194 83.064C198.877 83.7827 198.768 84.5757 198.88 85.3531C198.991 86.1305 199.318 86.8611 199.824 87.462C200.102 87.8342 200.476 88.1228 200.907 88.2964C201.338 88.4699 201.808 88.5217 202.266 88.446C202.304 88.4384 202.344 88.4452 202.377 88.4652C202.41 88.4852 202.435 88.5168 202.446 88.554C202.455 88.5929 202.449 88.634 202.429 88.6686C202.409 88.7032 202.376 88.7288 202.338 88.74C202.171 88.7806 202 88.8008 201.828 88.8Z" fill="#263238"/>
<path d="M206.892 93.876C206.979 95.2934 206.522 96.6906 205.614 97.782C204.414 99.204 202.812 98.346 202.326 96.636C201.888 95.094 201.99 92.502 203.604 91.704C205.218 90.906 206.766 92.142 206.892 93.876Z" fill="#B55B52"/>
<path d="M188.67 180.456H210.18C211.221 174.437 211.477 168.307 210.942 162.222H191.202C191.202 162.222 190.092 169.92 188.67 180.456Z" fill="#407BFF"/>
<path opacity="0.3" d="M188.67 180.456H210.18C211.221 174.437 211.477 168.307 210.942 162.222H191.202C191.202 162.222 190.092 169.92 188.67 180.456Z" fill="white"/>
</svg>
