<svg width="300" height="300" viewBox="0 0 300 300" fill="none" xmlns="http://www.w3.org/2000/svg">
<path d="M300 229.44H0V229.59H300V229.44Z" fill="#EBEBEB"/>
<path d="M51.3481 235.152H31.4761V235.302H51.3481V235.152Z" fill="#EBEBEB"/>
<path d="M135.936 233.526H102.684V233.676H135.936V233.526Z" fill="#EBEBEB"/>
<path d="M66.1141 238.716H54.6001V238.866H66.1141V238.716Z" fill="#EBEBEB"/>
<path d="M257.19 235.08H231.276V235.23H257.19V235.08Z" fill="#EBEBEB"/>
<path d="M266.334 235.08H262.536V235.23H266.334V235.08Z" fill="#EBEBEB"/>
<path d="M194.43 237.186H166.326V237.336H194.43V237.186Z" fill="#EBEBEB"/>
<path d="M142.2 202.68H26.3458C25.4382 202.678 24.5683 202.317 23.9271 201.674C23.2859 201.032 22.9258 200.162 22.9258 199.254V36.396C22.9337 35.4936 23.2973 34.6308 23.9376 33.9949C24.578 33.3591 25.4434 33.0015 26.3458 33H142.2C143.108 33 143.98 33.361 144.622 34.0035C145.265 34.646 145.626 35.5174 145.626 36.426V199.254C145.626 200.163 145.265 201.034 144.622 201.677C143.98 202.319 143.108 202.68 142.2 202.68ZM26.3458 33.12C25.478 33.1216 24.6463 33.4674 24.0332 34.0816C23.4201 34.6958 23.0758 35.5282 23.0758 36.396V199.254C23.0758 200.122 23.4201 200.954 24.0332 201.568C24.6463 202.183 25.478 202.528 26.3458 202.53H142.2C143.068 202.528 143.901 202.183 144.515 201.569C145.129 200.955 145.474 200.122 145.476 199.254V36.396C145.474 35.5276 145.129 34.6953 144.515 34.0813C143.901 33.4672 143.068 33.1216 142.2 33.12H26.3458Z" fill="#EBEBEB"/>
<path d="M271.986 202.68H156.126C155.218 202.678 154.348 202.317 153.705 201.675C153.063 201.033 152.702 200.162 152.7 199.254V36.396C152.71 35.4931 153.075 34.6302 153.716 33.9946C154.357 33.3589 155.223 33.0015 156.126 33H271.986C272.888 33.0031 273.751 33.3613 274.39 33.997C275.03 34.6327 275.392 35.4947 275.4 36.396V199.254C275.4 200.161 275.041 201.03 274.401 201.672C273.761 202.314 272.893 202.677 271.986 202.68ZM156.126 33.12C155.258 33.1216 154.425 33.4672 153.811 34.0813C153.197 34.6953 152.852 35.5276 152.85 36.396V199.254C152.852 200.122 153.197 200.955 153.811 201.569C154.425 202.183 155.258 202.528 156.126 202.53H271.986C272.855 202.528 273.687 202.183 274.301 201.569C274.915 200.955 275.261 200.122 275.262 199.254V36.396C275.261 35.5276 274.915 34.6953 274.301 34.0813C273.687 33.4672 272.855 33.1216 271.986 33.12H156.126Z" fill="#EBEBEB"/>
<path d="M178.704 44.634H62.8682V127.788H178.704V44.634Z" fill="#FAFAFA"/>
<path d="M172.11 127.794L142.65 44.634H120.54L150 127.794H172.11Z" fill="white"/>
<path d="M112.656 127.794L83.1958 44.634H75.1318L104.592 127.794H112.656Z" fill="white"/>
<path d="M57.348 41.778H184.23C184.298 41.778 184.364 41.7914 184.427 41.8174C184.489 41.8434 184.545 41.8815 184.593 41.9295C184.64 41.9775 184.678 42.0344 184.703 42.097C184.728 42.1595 184.741 42.2265 184.74 42.294C184.74 42.4292 184.686 42.559 184.591 42.6546C184.495 42.7503 184.365 42.804 184.23 42.804H57.348C57.2122 42.804 57.0819 42.7505 56.9853 42.655C56.8887 42.5595 56.8336 42.4298 56.832 42.294C56.832 42.1571 56.8864 42.0259 56.9832 41.9291C57.0799 41.8324 57.2112 41.778 57.348 41.778Z" fill="#E0E0E0"/>
<path d="M121.476 44.46H120.102V127.974H121.476V44.46Z" fill="#F0F0F0"/>
<path d="M120.096 44.46H119.412V127.974H120.096V44.46Z" fill="#E0E0E0"/>
<path d="M62.0698 85.524V86.898L179.508 86.898V85.524H62.0698Z" fill="#F0F0F0"/>
<path d="M62.0698 127.2V43.8H179.502V127.2V128.574H62.0698V127.2ZM178.134 127.2V45.21H63.4438V127.2H178.134Z" fill="#F0F0F0"/>
<path d="M62.0639 43.836H61.3799V128.592H62.0639V43.836Z" fill="#E0E0E0"/>
<path opacity="0.5" d="M79.0982 40.518V138.174H54.3062L58.8542 40.518H79.0982Z" fill="#EBEBEB"/>
<path opacity="0.5" d="M161.79 40.518V138.174H186.582L182.034 40.518H161.79Z" fill="#EBEBEB"/>
<path d="M46.6079 149.874H37.1519V226.572H46.6079V149.874Z" fill="#F0F0F0"/>
<path d="M143.148 226.572H38.9702V229.44H143.148V226.572Z" fill="#F0F0F0"/>
<path d="M46.6138 226.572H144.966V149.874H46.6138L46.6138 226.572Z" fill="#F5F5F5"/>
<path d="M45.6299 147.372H35.9639V149.874H45.6299V147.372Z" fill="#F0F0F0"/>
<path d="M45.6239 149.874H146.148V147.372H45.6239V149.874Z" fill="#FAFAFA"/>
<path d="M141.564 193.038H50.0098V155.124H141.564V193.038ZM50.6458 192.402H140.928V155.76H50.6458V192.402Z" fill="#E0E0E0"/>
<path d="M141.564 221.316H50.0098V196.83H141.564V221.316ZM50.6458 220.68H140.928V197.466H50.6458V220.68Z" fill="#E0E0E0"/>
<path d="M128.388 155.442H63.1862C62.7223 155.442 62.3462 155.818 62.3462 156.282V156.636C62.3462 157.1 62.7223 157.476 63.1862 157.476H128.388C128.852 157.476 129.228 157.1 129.228 156.636V156.282C129.228 155.818 128.852 155.442 128.388 155.442Z" fill="#E0E0E0"/>
<path d="M128.388 197.148H63.1862C62.7223 197.148 62.3462 197.524 62.3462 197.988V198.342C62.3462 198.806 62.7223 199.182 63.1862 199.182H128.388C128.852 199.182 129.228 198.806 129.228 198.342V197.988C129.228 197.524 128.852 197.148 128.388 197.148Z" fill="#E0E0E0"/>
<path d="M208.716 225.756H263.724V57.924H208.716L208.716 225.756Z" fill="#F0F0F0"/>
<path d="M208.716 57.93H206.97V225.762H208.716V57.93Z" fill="#E0E0E0"/>
<path d="M217.644 219.354H254.802L254.802 64.326H217.644L217.644 219.354Z" fill="#FAFAFA"/>
<path d="M150 256.536C214.25 256.536 266.334 253.495 266.334 249.744C266.334 245.993 214.25 242.952 150 242.952C85.7505 242.952 33.666 245.993 33.666 249.744C33.666 253.495 85.7505 256.536 150 256.536Z" fill="#F5F5F5"/>
<path d="M86.0162 244.518L90.7142 242.736L87.8342 231.384L83.1362 233.166L86.0162 244.518Z" fill="#B55B52"/>
<path d="M50.7178 244.614H55.7398L56.4958 232.974H51.4678L50.7178 244.614Z" fill="#B55B52"/>
<path d="M56.2442 244.032H50.1182C50.0198 244.03 49.9241 244.064 49.8482 244.127C49.7723 244.189 49.7213 244.277 49.7042 244.374L48.9362 248.838C48.9207 248.949 48.9293 249.063 48.9615 249.171C48.9936 249.278 49.0485 249.378 49.1224 249.463C49.1964 249.547 49.2876 249.615 49.3901 249.662C49.4925 249.708 49.6037 249.732 49.7162 249.732C51.6842 249.696 53.1182 249.582 55.6022 249.582C57.1262 249.582 61.7402 249.744 63.8522 249.744C65.9642 249.744 66.1322 247.656 65.2562 247.464C61.3442 246.618 58.3682 245.454 57.0722 244.338C56.841 244.141 56.5477 244.033 56.2442 244.032Z" fill="#263238"/>
<path d="M90.474 242.208L85.3441 244.152C85.2505 244.188 85.1717 244.254 85.1205 244.34C85.0693 244.426 85.0487 244.527 85.0621 244.626L85.722 249.15C85.7336 249.262 85.7708 249.369 85.8309 249.464C85.8909 249.558 85.972 249.638 86.0679 249.696C86.1638 249.754 86.2719 249.789 86.3836 249.799C86.4954 249.808 86.6078 249.791 86.7121 249.75C88.5481 249.018 90.114 248.088 92.454 247.248C95.1274 246.379 97.6984 245.222 100.122 243.798C101.862 242.694 101.13 240.594 100.308 240.924C96.576 242.424 95.658 242.916 91.74 242.16C91.3218 242.058 90.8834 242.075 90.474 242.208Z" fill="#263238"/>
<path d="M77.2198 91.494C78.7978 94.29 80.4659 97.17 82.1459 99.954C83.8259 102.738 85.5479 105.522 87.3779 108.114C87.8159 108.768 88.3079 109.398 88.7519 110.004C88.8502 110.18 88.9828 110.335 89.1419 110.46C89.4228 110.604 89.7423 110.654 90.0539 110.604C90.6273 110.545 91.1903 110.41 91.7279 110.202C93.0892 109.668 94.3888 108.988 95.6039 108.174C96.2519 107.748 96.9119 107.31 97.5539 106.842C98.1959 106.374 98.8439 105.87 99.4319 105.42L102.246 107.928C101.733 108.67 101.182 109.385 100.596 110.07C100.029 110.762 99.4285 111.424 98.7959 112.056C98.1467 112.71 97.4595 113.325 96.7379 113.898C95.9859 114.513 95.183 115.063 94.3379 115.542C93.384 116.095 92.3583 116.513 91.2899 116.784C89.9616 117.127 88.5681 117.127 87.2398 116.784C85.8043 116.384 84.5173 115.573 83.5378 114.45C82.9378 113.754 82.3379 113.1 81.7979 112.41C79.6251 109.714 77.604 106.9 75.7438 103.98C73.8838 101.088 72.1439 98.19 70.5479 95.106L77.2198 91.494Z" fill="#B65B52"/>
<path d="M68.3038 91.728C66.9538 96.336 76.4878 108.9 76.4878 108.9L86.0878 102.714C84.2771 98.7181 82.0423 94.9283 79.4218 91.41C75.5038 86.4 69.7918 86.67 68.3038 91.728Z" fill="#407BFF"/>
<path opacity="0.2" d="M68.3038 91.728C66.9538 96.336 76.4878 108.9 76.4878 108.9L86.0878 102.714C84.2771 98.7181 82.0423 94.9283 79.4218 91.41C75.5038 86.4 69.7918 86.67 68.3038 91.728Z" fill="black"/>
<path opacity="0.2" d="M74.166 97.134C76.146 97.98 79.056 102.744 80.574 106.278L76.488 108.9C74.2102 105.855 72.1607 102.647 70.356 99.3C71.646 97.866 73.122 96.69 74.166 97.134Z" fill="black"/>
<path d="M98.8379 106.986L100.602 102.048L105.6 104.448C105.6 104.448 104.562 108.846 100.902 108.84L98.8379 106.986Z" fill="#B55B52"/>
<path d="M105.048 98.802L107.166 101.136L105.6 104.436L100.602 102.048L105.048 98.802Z" fill="#B55B52"/>
<path opacity="0.2" d="M87.8342 231.39L89.3162 237.24L84.6182 239.022L83.1362 233.172L87.8342 231.39Z" fill="black"/>
<path opacity="0.2" d="M51.4681 232.98H56.4961L56.1061 238.974H51.0781L51.4681 232.98Z" fill="black"/>
<path d="M45.9121 89.688C51.3121 108.774 50.4361 129.024 50.7721 133.14L77.6281 132.132C82.1941 103.68 74.0281 87.846 74.0281 87.846C74.0281 87.846 72.3061 87.516 69.9601 87.276C69.2281 87.198 68.4361 87.132 67.6081 87.09C67.1521 87.06 66.6901 87.048 66.2221 87.036C62.4089 87.1006 58.6026 87.385 54.8221 87.888C54.1081 87.978 53.3821 88.08 52.6741 88.2C51.9661 88.32 51.3841 88.428 50.7781 88.548C48.0001 89.094 45.9121 89.688 45.9121 89.688Z" fill="#407BFF"/>
<path opacity="0.2" d="M45.9121 89.688C51.3121 108.774 50.4361 129.024 50.7721 133.14L77.6281 132.132C82.1941 103.68 74.0281 87.846 74.0281 87.846C74.0281 87.846 72.3061 87.516 69.9601 87.276C69.2281 87.198 68.4361 87.132 67.6081 87.09C67.1521 87.06 66.6901 87.048 66.2221 87.036C62.4089 87.1006 58.6026 87.385 54.8221 87.888C54.1081 87.978 53.3821 88.08 52.6741 88.2C51.9661 88.32 51.3841 88.428 50.7781 88.548C48.0001 89.094 45.9121 89.688 45.9121 89.688Z" fill="black"/>
<path opacity="0.2" d="M51.6302 97.878C52.1102 99.72 51.5582 108.15 49.6322 110.226C49.3682 107.526 49.0322 104.712 48.5522 101.826L51.6302 97.878Z" fill="black"/>
<path d="M54.9719 75C55.9619 78.6 57.1799 85.272 54.7979 87.906C56.9399 89.742 59.7119 91.836 64.0739 91.662C68.4359 91.488 67.4579 88.554 66.1919 87.06C62.0279 86.388 61.9079 83.352 62.4119 80.46L54.9719 75Z" fill="#B55B52"/>
<path d="M64.1879 91.02L64.9799 91.554L62.0879 92.4L62.8319 91.056L64.1879 91.02Z" fill="#407BFF"/>
<path d="M65.28 90.738L64.98 91.554L67.884 92.4L67.686 90.846L65.28 90.738Z" fill="#407BFF"/>
<path d="M53.0642 87.6L54.2042 87.03C54.3865 86.9387 54.5905 86.8993 54.7937 86.9162C54.9969 86.9332 55.1915 87.0057 55.3562 87.126C57.9933 89.0389 61.0086 90.3665 64.2002 91.02C61.9082 92.112 62.4722 95.052 62.4722 95.052C62.4722 95.052 55.1822 92.652 52.8722 88.296C52.8068 88.1779 52.7903 88.039 52.8262 87.9088C52.8621 87.7787 52.9475 87.6679 53.0642 87.6Z" fill="white"/>
<path d="M67.4643 86.85L65.7903 86.598C65.7471 86.5911 65.7027 86.5971 65.6629 86.6152C65.6231 86.6334 65.5895 86.663 65.5665 86.7001C65.5434 86.7373 65.5318 86.7805 65.5332 86.8243C65.5346 86.868 65.5489 86.9104 65.5743 86.946C66.1743 87.78 67.1343 89.61 65.2803 90.738C67.5723 91.83 68.2803 94.512 68.2803 94.512C68.2803 94.512 71.2803 91.29 67.7883 87.036C67.7049 86.9386 67.5904 86.873 67.4643 86.85Z" fill="white"/>
<path opacity="0.2" d="M58.0021 77.196L62.4001 80.4C62.2729 81.0767 62.2066 81.7635 62.2021 82.452C60.6241 82.344 58.3501 80.79 58.0621 79.164C57.9254 78.5168 57.9051 77.8504 58.0021 77.196Z" fill="black"/>
<path d="M67.7221 67.566C67.5181 69.312 65.8441 70.812 64.7641 71.166L63.4141 63.6C66.4441 61.458 68.0041 65.118 67.7221 67.566Z" fill="#263238"/>
<path d="M53.4541 69.66C54.3301 74.568 54.5881 77.49 57.3781 79.74C61.5781 83.124 67.4161 80.154 68.0281 75.084C68.5801 70.518 67.0561 63.258 61.9921 61.848C60.8766 61.5324 59.699 61.507 58.5709 61.7742C57.4428 62.0415 56.4018 62.5925 55.5465 63.3751C54.6912 64.1577 54.05 65.1458 53.6838 66.2457C53.3176 67.3457 53.2385 68.5209 53.4541 69.66Z" fill="#B55B52"/>
<path d="M54.39 72.972C56.664 74.172 57.66 71.466 57.684 70.362C57.684 68.61 56.952 66.684 56.046 65.982C60.438 65.982 69.126 65.766 66.93 61.584C64.734 57.402 60.33 57.876 57.048 60.168C55.302 61.368 49.65 60.324 51.048 63.582C48.102 65.148 50.658 70.986 54.39 72.972Z" fill="#263238"/>
<path d="M51.5278 63.312C50.7448 63.3081 49.9843 63.049 49.3618 62.574C49.4638 63.0126 49.7069 63.4056 50.0537 63.6928C50.4005 63.98 50.8319 64.1455 51.2818 64.164L51.5278 63.312Z" fill="#263238"/>
<path d="M51.6001 73.698C52.1631 74.8274 53.1482 75.6896 54.3421 76.098C55.9261 76.608 56.2861 75.156 55.9021 73.632C55.5541 72.252 54.8101 70.386 53.1961 70.536C51.5821 70.686 50.9281 72.318 51.6001 73.698Z" fill="#B55B52"/>
<path d="M83.478 185.25C81.438 170.052 77.628 132.132 77.628 132.132L60 132.798C60 132.798 68.328 170.688 71.34 186.054C74.352 201.42 82.74 238.5 82.74 238.5L90.696 235.5C90.696 235.5 85.608 201.054 83.478 185.25Z" fill="#263238"/>
<path opacity="0.2" d="M66.5999 143.01C65.1483 143.357 63.8007 144.046 62.6699 145.02C64.3379 152.682 66.5159 162.768 68.3879 171.654C69.6359 163.956 69.6719 149.43 66.5999 143.01Z" fill="black"/>
<path d="M68.1059 132.492C68.1059 132.492 64.3559 173.628 62.6399 188.244C60.7619 204.258 58.4399 237.816 58.4399 237.816H49.1999C49.1999 237.816 48.8219 208.134 50.0159 192.462C51.3779 174.612 50.7659 133.14 50.7659 133.14L68.1059 132.492Z" fill="#263238"/>
<path d="M59.6402 238.014H48.8042L48.5762 234.774L60.6722 234.564L59.6402 238.014Z" fill="#407BFF"/>
<path d="M91.7342 235.296L82.2542 238.89L81.0962 235.824L91.6322 231.648L91.7342 235.296Z" fill="#407BFF"/>
<path d="M61.1159 70.2C61.1579 70.608 61.4099 70.908 61.6739 70.878C61.9379 70.848 62.1119 70.494 62.0639 70.092C62.0159 69.69 61.7699 69.39 61.5059 69.42C61.2419 69.45 61.0679 69.774 61.1159 70.2Z" fill="#263238"/>
<path d="M65.6642 69.654C65.7122 70.056 65.9642 70.356 66.2222 70.326C66.4802 70.296 66.6662 69.948 66.6182 69.546C66.5702 69.144 66.3182 68.838 66.0542 68.868C65.7902 68.898 65.6162 69.252 65.6642 69.654Z" fill="#263238"/>
<path d="M64.2422 70.02C64.8627 71.1952 65.642 72.2794 66.5582 73.242C66.3086 73.474 66.0108 73.6481 65.6862 73.7518C65.3616 73.8556 65.0181 73.8863 64.6802 73.842L64.2422 70.02Z" fill="#A02724"/>
<path d="M63.1081 75.096C62.6525 75.0949 62.2019 75.0007 61.784 74.8191C61.3661 74.6375 60.9897 74.3724 60.6781 74.04C60.6664 74.028 60.6574 74.0138 60.6516 73.9981C60.6458 73.9825 60.6433 73.9658 60.6443 73.9491C60.6453 73.9324 60.6497 73.9161 60.6574 73.9013C60.665 73.8864 60.6757 73.8733 60.6887 73.8629C60.7017 73.8524 60.7168 73.8447 60.7329 73.8404C60.749 73.8361 60.7659 73.8351 60.7824 73.8377C60.7989 73.8402 60.8147 73.8462 60.8288 73.8552C60.8428 73.8642 60.8549 73.8761 60.8641 73.89C61.2149 74.2518 61.6458 74.5261 62.1221 74.6908C62.5984 74.8554 63.1067 74.9059 63.6061 74.838C63.6215 74.8355 63.6373 74.8361 63.6525 74.84C63.6677 74.8438 63.6819 74.8507 63.6943 74.8603C63.7067 74.8699 63.7169 74.8819 63.7245 74.8956C63.732 74.9093 63.7366 74.9244 63.7381 74.94C63.7415 74.9709 63.7328 75.002 63.7138 75.0266C63.6947 75.0513 63.6669 75.0675 63.6361 75.072C63.461 75.0946 63.2844 75.1026 63.1081 75.096Z" fill="#263238"/>
<path d="M59.5438 68.868C59.5047 68.8797 59.463 68.8797 59.4238 68.868C59.3968 68.8525 59.3731 68.8318 59.3542 68.807C59.3352 68.7822 59.3215 68.7539 59.3136 68.7237C59.3058 68.6935 59.3041 68.6621 59.3086 68.6312C59.3131 68.6003 59.3237 68.5707 59.3398 68.544C59.5227 68.2152 59.7814 67.9347 60.0945 67.726C60.4076 67.5173 60.766 67.3863 61.1398 67.344C61.1714 67.3424 61.2029 67.347 61.2326 67.3576C61.2624 67.3682 61.2897 67.3845 61.3131 67.4057C61.3366 67.4269 61.3556 67.4525 61.3691 67.481C61.3826 67.5096 61.3903 67.5405 61.3918 67.572C61.3935 67.6032 61.3888 67.6345 61.3781 67.6639C61.3675 67.6932 61.351 67.7202 61.3298 67.7431C61.3085 67.7661 61.2829 67.7845 61.2544 67.7974C61.2259 67.8102 61.1951 67.8172 61.1638 67.818C60.8667 67.8556 60.5826 67.9627 60.3345 68.1305C60.0864 68.2983 59.8813 68.5222 59.7358 68.784C59.7136 68.8131 59.6843 68.8362 59.6507 68.8508C59.6171 68.8655 59.5803 68.8714 59.5438 68.868Z" fill="#263238"/>
<path d="M67.4458 67.866C67.406 67.8644 67.3672 67.8532 67.3328 67.8334C67.2983 67.8135 67.2691 67.7856 67.2478 67.752C67.0954 67.4945 66.8834 67.2774 66.6297 67.1187C66.376 66.96 66.088 66.8644 65.7898 66.84C65.7262 66.84 65.6651 66.8147 65.6201 66.7697C65.5751 66.7247 65.5498 66.6637 65.5498 66.6C65.5498 66.5364 65.5751 66.4753 65.6201 66.4303C65.6651 66.3853 65.7262 66.36 65.7898 66.36C66.1668 66.3905 66.5313 66.5097 66.8535 66.7078C67.1757 66.9059 67.4465 67.1773 67.6438 67.5C67.6604 67.526 67.6718 67.555 67.6772 67.5854C67.6825 67.6157 67.6819 67.6469 67.6752 67.677C67.6685 67.7071 67.6559 67.7356 67.6382 67.7608C67.6204 67.7861 67.5979 67.8075 67.5718 67.824C67.5349 67.8502 67.491 67.8648 67.4458 67.866Z" fill="#263238"/>
<path d="M57.948 244.908C57.5007 244.897 57.0561 244.836 56.622 244.728C56.5993 244.722 56.5786 244.71 56.5626 244.693C56.5467 244.676 56.536 244.655 56.532 244.632C56.526 244.609 56.5274 244.586 56.536 244.564C56.5447 244.542 56.5601 244.524 56.58 244.512C56.754 244.398 58.326 243.402 58.896 243.684C58.9589 243.716 59.0124 243.764 59.0513 243.823C59.0902 243.882 59.1132 243.95 59.118 244.02C59.1392 244.135 59.1305 244.253 59.0927 244.363C59.0548 244.474 58.9891 244.572 58.902 244.65C58.6239 244.845 58.2864 244.936 57.948 244.908ZM56.964 244.56C57.822 244.728 58.476 244.698 58.764 244.47C58.8219 244.416 58.8653 244.348 58.8905 244.272C58.9156 244.197 58.9216 244.116 58.908 244.038C58.908 243.942 58.854 243.912 58.824 243.9C58.506 243.75 57.6 244.2 56.964 244.56Z" fill="#407BFF"/>
<path d="M56.6519 244.728C56.6302 244.733 56.6076 244.733 56.5859 244.728C56.5678 244.716 56.5529 244.7 56.5425 244.681C56.532 244.663 56.5263 244.642 56.5259 244.62C56.5259 244.56 56.5799 243.108 57.1259 242.634C57.1918 242.572 57.2708 242.526 57.357 242.499C57.4433 242.472 57.5345 242.465 57.6239 242.478C57.715 242.479 57.8032 242.51 57.8748 242.567C57.9464 242.623 57.9974 242.702 58.0199 242.79C58.1519 243.348 57.2039 244.452 56.6939 244.734C56.6796 244.736 56.6651 244.734 56.6519 244.728ZM57.5639 242.694C57.4664 242.695 57.3726 242.731 57.2999 242.796C56.9679 243.255 56.7875 243.807 56.7839 244.374C57.2819 243.978 57.8759 243.174 57.7979 242.814C57.7979 242.784 57.7979 242.718 57.6179 242.694H57.5639Z" fill="#407BFF"/>
<path d="M91.2 242.682C91.1775 242.683 91.1553 242.677 91.136 242.665C91.1168 242.654 91.1015 242.636 91.0921 242.616C91.0791 242.596 91.0723 242.573 91.0723 242.55C91.0723 242.527 91.0791 242.504 91.0921 242.484C91.2661 242.292 92.7901 240.618 93.4921 240.72C93.5572 240.727 93.6192 240.752 93.6719 240.791C93.7246 240.83 93.766 240.882 93.7921 240.942C93.8395 241.035 93.8642 241.138 93.8642 241.242C93.8642 241.346 93.8395 241.449 93.7921 241.542C93.4501 242.19 92.034 242.52 91.218 242.652L91.2 242.682ZM93.414 240.954C93.012 240.954 92.136 241.74 91.524 242.382C92.628 242.16 93.384 241.818 93.576 241.452C93.6087 241.389 93.6257 241.319 93.6257 241.248C93.6257 241.177 93.6087 241.107 93.576 241.044C93.5667 241.02 93.5513 240.999 93.5312 240.984C93.5112 240.968 93.4873 240.958 93.462 240.954H93.414Z" fill="#407BFF"/>
<path d="M91.2001 242.682H91.1641C91.144 242.677 91.1257 242.666 91.111 242.651C91.0962 242.636 91.0856 242.618 91.0801 242.598C91.0801 242.544 90.7141 241.23 91.1221 240.51C91.1797 240.407 91.2579 240.316 91.3518 240.244C91.4456 240.172 91.5533 240.119 91.6681 240.09C91.9861 240 92.1301 240.126 92.2021 240.24C92.4901 240.738 91.7521 242.184 91.2781 242.64C91.2694 242.653 91.2578 242.663 91.2442 242.671C91.2307 242.678 91.2155 242.682 91.2001 242.682ZM91.8541 240.282H91.7281C91.6434 240.302 91.5641 240.341 91.4957 240.394C91.4274 240.448 91.3715 240.516 91.3321 240.594C91.1335 241.135 91.1083 241.724 91.2601 242.28C91.7041 241.68 92.1661 240.624 91.9921 240.324C91.9681 240.336 91.9381 240.288 91.8361 240.294L91.8541 240.282Z" fill="#407BFF"/>
<path d="M51.432 96.792C49.926 99.894 48.39 103.098 46.902 106.254C46.164 107.844 45.42 109.428 44.724 111.018L43.68 113.418L43.2 114.6L43.08 114.9L42.99 115.122C42.93 115.26 42.888 115.41 42.834 115.548C42.4617 116.73 42.3957 117.987 42.642 119.202C42.936 120.612 43.4698 121.962 44.22 123.192C45.0459 124.569 46.0023 125.863 47.076 127.056C47.622 127.656 48.198 128.292 48.798 128.856C49.098 129.144 49.398 129.456 49.716 129.714C50.034 129.972 50.352 130.314 50.616 130.524L48.6 133.734C47.733 133.293 46.8934 132.8 46.086 132.258C45.288 131.736 44.508 131.184 43.752 130.584C42.195 129.35 40.7856 127.941 39.552 126.384C38.2082 124.712 37.1813 122.809 36.522 120.768C35.82 118.517 35.7187 116.122 36.228 113.82C36.306 113.538 36.366 113.22 36.456 112.968L36.69 112.224L37.11 110.898C37.41 110.028 37.71 109.152 38.022 108.294C38.652 106.572 39.312 104.868 40.026 103.188C41.4 99.84 42.942 96.6 44.658 93.318L51.432 96.792Z" fill="#B65B52"/>
<path d="M45.9118 89.688C41.3278 91.122 36.8218 106.668 36.8218 106.668L47.3998 111.312C47.3998 111.312 50.8318 103.8 52.7998 97.914C54.9778 91.5 51.4618 87.948 45.9118 89.688Z" fill="#407BFF"/>
<path opacity="0.2" d="M45.9118 89.688C41.3278 91.122 36.8218 106.668 36.8218 106.668L47.3998 111.312C47.3998 111.312 50.8318 103.8 52.7998 97.914C54.9778 91.5 51.4618 87.948 45.9118 89.688Z" fill="black"/>
<path d="M49.4761 129.552L53.8621 132.156L49.5961 136.404C49.5961 136.404 45.8941 133.554 46.9981 131.322L49.4761 129.552Z" fill="#B55B52"/>
<path d="M56.7962 136.314L52.3922 139.398L49.5962 136.404L53.8622 132.156L56.7962 136.314Z" fill="#B55B52"/>
<path d="M269.019 128.424L268.81 131.315L269.408 131.358L269.618 128.468L269.019 128.424Z" fill="#407BFF"/>
<path d="M269.81 117.48L269.203 125.864L269.802 125.907L270.408 117.523L269.81 117.48Z" fill="#407BFF"/>
<path d="M253.392 211.8H106.434C105.385 211.812 104.344 211.605 103.38 211.191C102.415 210.777 101.548 210.166 100.834 209.397C100.119 208.628 99.5739 207.718 99.2324 206.725C98.8908 205.733 98.7606 204.68 98.8502 203.634L106.65 95.154C106.844 92.9575 107.842 90.91 109.453 89.4049C111.065 87.8998 113.176 87.0433 115.38 87H262.338C263.387 86.9869 264.428 87.1937 265.392 87.6069C266.357 88.0201 267.224 88.6307 267.939 89.3993C268.653 90.1679 269.199 91.0776 269.54 92.0697C269.882 93.0618 270.012 94.1145 269.922 95.16L262.122 203.64C261.93 205.838 260.932 207.887 259.321 209.393C257.709 210.899 255.598 211.757 253.392 211.8Z" fill="#407BFF"/>
<path d="M219.21 249.744H171.504L163.002 190.8H210.708L219.21 249.744Z" fill="#407BFF"/>
<path d="M211.632 246.228H160.032L159.006 249.744H210.612L211.632 246.228Z" fill="#407BFF"/>
<path d="M213.222 219.174L166.728 216.636L163.002 190.8H209.13L213.222 219.174Z" fill="#263238"/>
<path d="M251.736 211.8H104.772C103.721 211.812 102.679 211.603 101.714 211.187C100.749 210.772 99.8812 210.158 99.1677 209.386C98.4542 208.614 97.9104 207.702 97.5715 206.707C97.2326 205.712 97.106 204.657 97.2001 203.61L105 95.1301C105.199 92.9399 106.198 90.8998 107.806 89.4C109.415 87.9001 111.519 87.0457 113.718 87.0001H260.682C261.731 86.9878 262.77 87.1952 263.734 87.6088C264.698 88.0224 265.565 88.6331 266.278 89.4016C266.992 90.1701 267.537 91.0795 267.878 92.0712C268.22 93.0629 268.35 94.1151 268.26 95.1601L260.46 203.64C260.269 205.837 259.273 207.886 257.662 209.392C256.052 210.899 253.941 211.756 251.736 211.8Z" fill="#263238"/>
<path d="M267.88 96.1773L263.419 158.406L263.994 158.447L268.455 96.2185L267.88 96.1773Z" fill="white"/>
<path d="M263.053 163.824L261.508 185.374L262.083 185.416L263.628 163.865L263.053 163.824Z" fill="white"/>
<path d="M251.4 209.748H105.372C104.555 209.757 103.745 209.595 102.995 209.272C102.244 208.949 101.57 208.473 101.014 207.874C100.459 207.275 100.035 206.567 99.7695 205.794C99.5043 205.021 99.4036 204.202 99.4739 203.388L107.22 95.352C107.369 93.6386 108.148 92.0413 109.405 90.868C110.663 89.6947 112.31 89.0285 114.03 88.998H260.082C260.898 88.9892 261.707 89.1511 262.457 89.4735C263.207 89.7958 263.882 90.2714 264.437 90.8697C264.992 91.468 265.417 92.1759 265.682 92.9478C265.948 93.7197 266.049 94.5386 265.98 95.352L258.234 203.4C258.083 205.116 257.3 206.716 256.038 207.888C254.775 209.061 253.123 209.723 251.4 209.748Z" fill="white"/>
<path opacity="0.2" d="M251.4 209.748H105.372C104.555 209.757 103.745 209.595 102.995 209.272C102.244 208.949 101.57 208.473 101.014 207.874C100.459 207.275 100.035 206.567 99.7695 205.794C99.5043 205.021 99.4036 204.202 99.4739 203.388L107.22 95.352C107.369 93.6386 108.148 92.0413 109.405 90.868C110.663 89.6947 112.31 89.0285 114.03 88.998H260.082C260.898 88.9892 261.707 89.1511 262.457 89.4735C263.207 89.7958 263.882 90.2714 264.437 90.8697C264.992 91.468 265.417 92.1759 265.682 92.9478C265.948 93.7197 266.049 94.5386 265.98 95.352L258.234 203.4C258.083 205.116 257.3 206.716 256.038 207.888C254.775 209.061 253.123 209.723 251.4 209.748Z" fill="#407BFF"/>
<path opacity="0.5" d="M142.836 204.96H108.732C108.337 204.965 107.946 204.887 107.583 204.731C107.22 204.576 106.894 204.346 106.625 204.056C106.357 203.767 106.152 203.424 106.024 203.051C105.896 202.677 105.847 202.281 105.882 201.888L113.406 96.888C113.477 96.059 113.853 95.2859 114.462 94.7183C115.07 94.1508 115.868 93.8293 116.7 93.816H150.804C151.199 93.8102 151.591 93.8875 151.954 94.0428C152.317 94.1982 152.644 94.4281 152.912 94.7178C153.181 95.0074 153.386 95.3503 153.514 95.7241C153.641 96.098 153.689 96.4945 153.654 96.888L146.13 201.888C146.057 202.717 145.681 203.489 145.072 204.056C144.464 204.623 143.667 204.945 142.836 204.96Z" fill="white"/>
<path opacity="0.4" d="M141.516 108.6H123.864C123.509 108.604 123.157 108.533 122.83 108.393C122.504 108.253 122.21 108.046 121.968 107.785C121.727 107.525 121.542 107.217 121.426 106.881C121.31 106.545 121.266 106.188 121.296 105.834L121.488 103.128C121.553 102.382 121.892 101.687 122.44 101.176C122.987 100.666 123.704 100.375 124.452 100.362H142.11C142.466 100.358 142.818 100.429 143.144 100.569C143.471 100.709 143.764 100.916 144.006 101.177C144.248 101.437 144.433 101.745 144.548 102.081C144.664 102.417 144.708 102.774 144.678 103.128L144.48 105.834C144.422 106.582 144.085 107.281 143.536 107.793C142.988 108.305 142.267 108.593 141.516 108.6Z" fill="#407BFF"/>
<path d="M130.29 151.08H103.344C102.726 151.088 102.113 150.967 101.545 150.724C100.976 150.481 100.464 150.122 100.042 149.671C99.6205 149.219 99.2976 148.684 99.0944 148.1C98.8912 147.516 98.8121 146.896 98.8623 146.28L100.8 119.304C100.92 118.007 101.514 116.8 102.468 115.915C103.423 115.029 104.67 114.527 105.972 114.504H132.924C133.542 114.497 134.154 114.619 134.722 114.862C135.29 115.105 135.801 115.464 136.222 115.916C136.643 116.367 136.966 116.902 137.169 117.486C137.372 118.069 137.45 118.688 137.4 119.304L135.468 146.256C135.356 147.558 134.764 148.773 133.807 149.664C132.851 150.555 131.597 151.06 130.29 151.08Z" fill="#407BFF"/>
<path d="M134.154 129C133.657 129.01 133.18 129.204 132.817 129.544C132.454 129.884 132.229 130.346 132.186 130.842L131.904 134.754C131.884 134.99 131.913 135.227 131.991 135.45C132.068 135.674 132.191 135.878 132.352 136.051C132.513 136.224 132.708 136.362 132.926 136.454C133.143 136.547 133.378 136.593 133.614 136.59H136.35C136.474 136.589 136.592 136.541 136.682 136.457C136.772 136.372 136.827 136.257 136.836 136.134L137.316 129.456C137.321 129.397 137.314 129.338 137.295 129.283C137.275 129.227 137.245 129.176 137.205 129.133C137.164 129.09 137.116 129.056 137.062 129.033C137.007 129.01 136.949 128.999 136.89 129H134.154Z" fill="white"/>
<path d="M123.756 121.338H106.8C106.705 121.339 106.611 121.321 106.524 121.283C106.437 121.246 106.358 121.19 106.294 121.121C106.23 121.051 106.18 120.969 106.15 120.879C106.119 120.79 106.108 120.694 106.116 120.6C106.132 120.4 106.223 120.214 106.369 120.078C106.516 119.941 106.708 119.864 106.908 119.862H123.894C123.989 119.861 124.083 119.879 124.17 119.917C124.257 119.954 124.335 120.01 124.4 120.079C124.464 120.149 124.513 120.231 124.544 120.321C124.575 120.41 124.586 120.506 124.578 120.6C124.56 120.804 124.465 120.994 124.312 121.131C124.16 121.268 123.961 121.342 123.756 121.338Z" fill="white"/>
<path d="M123.492 125.088H106.5C106.405 125.089 106.311 125.07 106.224 125.033C106.137 124.996 106.059 124.94 105.994 124.871C105.93 124.801 105.881 124.719 105.85 124.629C105.819 124.54 105.808 124.444 105.816 124.35C105.834 124.151 105.925 123.967 106.071 123.831C106.218 123.696 106.409 123.62 106.608 123.618H123.6C123.695 123.616 123.789 123.634 123.876 123.671C123.963 123.707 124.041 123.762 124.106 123.831C124.17 123.9 124.22 123.982 124.25 124.071C124.281 124.161 124.293 124.256 124.284 124.35C124.268 124.549 124.177 124.736 124.031 124.872C123.884 125.009 123.692 125.086 123.492 125.088Z" fill="white"/>
<path d="M117.348 128.844H106.23C106.136 128.844 106.042 128.825 105.955 128.787C105.869 128.75 105.791 128.694 105.726 128.625C105.662 128.556 105.613 128.474 105.582 128.384C105.551 128.295 105.539 128.2 105.546 128.106C105.563 127.906 105.653 127.72 105.799 127.584C105.946 127.447 106.138 127.37 106.338 127.368H117.456C117.551 127.367 117.645 127.385 117.732 127.423C117.819 127.46 117.898 127.516 117.962 127.585C118.026 127.655 118.076 127.737 118.106 127.827C118.137 127.916 118.148 128.012 118.14 128.106C118.122 128.305 118.032 128.491 117.885 128.627C117.739 128.763 117.548 128.84 117.348 128.844Z" fill="white"/>
<path opacity="0.5" d="M123.804 146.724H107.4C106.994 146.729 106.592 146.649 106.22 146.489C105.847 146.329 105.512 146.093 105.236 145.795C104.96 145.498 104.75 145.146 104.618 144.763C104.486 144.379 104.437 143.972 104.472 143.568L105.072 134.934C105.145 134.084 105.53 133.291 106.155 132.709C106.779 132.127 107.597 131.797 108.45 131.784H124.884C125.289 131.779 125.69 131.859 126.063 132.019C126.435 132.178 126.77 132.414 127.045 132.711C127.321 133.007 127.532 133.358 127.664 133.741C127.796 134.124 127.846 134.53 127.812 134.934L127.212 143.568C127.137 144.423 126.747 145.22 126.117 145.804C125.487 146.387 124.663 146.715 123.804 146.724Z" fill="white"/>
<path opacity="0.4" d="M139.146 161.172H118.698C118.522 161.174 118.348 161.14 118.186 161.071C118.024 161.001 117.878 160.899 117.759 160.77C117.639 160.641 117.547 160.489 117.49 160.322C117.433 160.156 117.411 159.979 117.426 159.804C117.459 159.435 117.627 159.09 117.898 158.838C118.17 158.585 118.525 158.442 118.896 158.436H139.344C139.519 158.435 139.693 158.47 139.854 158.539C140.015 158.609 140.16 158.711 140.279 158.84C140.399 158.969 140.49 159.121 140.547 159.287C140.603 159.453 140.625 159.629 140.61 159.804C140.579 160.173 140.412 160.517 140.141 160.77C139.871 161.023 139.516 161.166 139.146 161.172Z" fill="#407BFF"/>
<path opacity="0.8" d="M135 166.542H122.052C121.876 166.544 121.702 166.51 121.54 166.441C121.378 166.371 121.232 166.269 121.113 166.14C120.993 166.011 120.901 165.859 120.844 165.692C120.787 165.526 120.765 165.349 120.78 165.174C120.811 164.805 120.978 164.461 121.249 164.208C121.519 163.955 121.874 163.812 122.244 163.806H135.222C135.398 163.804 135.572 163.838 135.734 163.907C135.895 163.977 136.04 164.079 136.16 164.208C136.279 164.337 136.37 164.49 136.426 164.656C136.483 164.823 136.504 164.999 136.488 165.174C136.456 165.547 136.286 165.895 136.011 166.148C135.735 166.401 135.374 166.542 135 166.542Z" fill="white"/>
<path opacity="0.4" d="M138.084 175.986H117.636C117.46 175.987 117.286 175.952 117.125 175.883C116.963 175.813 116.818 175.711 116.699 175.582C116.579 175.453 116.488 175.301 116.43 175.135C116.372 174.969 116.35 174.793 116.364 174.618C116.397 174.249 116.565 173.904 116.836 173.652C117.108 173.399 117.463 173.256 117.834 173.25H138.282C138.457 173.249 138.631 173.284 138.792 173.353C138.953 173.423 139.098 173.525 139.217 173.654C139.337 173.783 139.428 173.935 139.484 174.101C139.541 174.267 139.563 174.443 139.548 174.618C139.517 174.987 139.35 175.331 139.079 175.584C138.809 175.837 138.454 175.98 138.084 175.986Z" fill="#407BFF"/>
<path opacity="0.8" d="M133.962 181.35H120.99C120.814 181.353 120.64 181.319 120.478 181.251C120.316 181.182 120.171 181.081 120.051 180.952C119.931 180.824 119.839 180.672 119.782 180.505C119.725 180.339 119.703 180.163 119.718 179.988C119.75 179.616 119.919 179.269 120.193 179.016C120.468 178.763 120.827 178.622 121.2 178.62H134.16C134.336 178.618 134.511 178.652 134.672 178.722C134.834 178.791 134.98 178.893 135.099 179.022C135.219 179.151 135.311 179.303 135.368 179.47C135.425 179.636 135.447 179.813 135.432 179.988C135.399 180.357 135.231 180.7 134.959 180.952C134.688 181.204 134.332 181.346 133.962 181.35Z" fill="white"/>
<path opacity="0.4" d="M137.022 190.8H116.574C116.398 190.801 116.224 190.766 116.063 190.697C115.901 190.627 115.756 190.525 115.637 190.396C115.517 190.267 115.426 190.115 115.368 189.949C115.31 189.783 115.288 189.607 115.302 189.432C115.333 189.062 115.501 188.717 115.773 188.464C116.045 188.211 116.401 188.069 116.772 188.064H137.22C137.396 188.062 137.57 188.096 137.731 188.165C137.893 188.235 138.038 188.337 138.158 188.466C138.277 188.595 138.368 188.748 138.424 188.914C138.481 189.081 138.502 189.257 138.486 189.432C138.455 189.801 138.288 190.145 138.017 190.398C137.747 190.651 137.392 190.794 137.022 190.8Z" fill="#407BFF"/>
<path opacity="0.8" d="M132.9 196.164H119.928C119.752 196.166 119.578 196.132 119.416 196.063C119.254 195.993 119.108 195.891 118.989 195.762C118.869 195.633 118.777 195.481 118.72 195.314C118.663 195.148 118.641 194.971 118.656 194.796C118.688 194.428 118.856 194.084 119.126 193.832C119.396 193.579 119.75 193.435 120.12 193.428H133.098C133.274 193.427 133.448 193.462 133.609 193.531C133.771 193.601 133.916 193.703 134.035 193.832C134.155 193.961 134.246 194.113 134.304 194.279C134.362 194.445 134.384 194.621 134.37 194.796C134.339 195.166 134.171 195.511 133.899 195.764C133.627 196.017 133.271 196.159 132.9 196.164Z" fill="white"/>
<path opacity="0.5" d="M253.008 174.162C253.896 172.806 255.93 173.376 255.816 174.942L253.848 202.398C253.746 203.808 252.678 204.96 251.448 204.96H152.562C151.362 204.96 150.45 203.808 150.552 202.398L151.752 186.084C151.792 185.565 151.946 185.062 152.203 184.609C152.461 184.157 152.814 183.767 153.24 183.467C153.665 183.168 154.151 182.965 154.664 182.875C155.176 182.785 155.702 182.809 156.204 182.946C161.778 184.68 166.554 183.66 170.994 181.458C180.486 176.748 188.43 166.632 199.344 166.632C199.764 166.632 200.178 166.632 200.58 166.668C216.816 167.646 221.76 187.818 234.336 187.818C238.056 187.818 241.446 186.21 244.404 183.924C247.992 181.122 250.95 177.3 253.008 174.162Z" fill="#407BFF"/>
<path opacity="0.5" d="M255.06 185.472L253.86 202.398C253.758 203.808 252.69 204.96 251.46 204.96H152.562C151.362 204.96 150.45 203.808 150.552 202.398L152.952 168.762C153.114 166.458 156.132 165.486 157.356 167.352C160.512 172.152 165.366 178.386 170.952 181.458C172.982 182.643 175.28 183.293 177.63 183.348C185.622 183.348 192.42 173.874 200.538 166.668C205.512 162.252 210.984 158.688 217.53 158.688C231.192 158.688 233.208 180.888 244.362 183.924C246.51 184.524 249 184.386 251.976 183.246C252.328 183.094 252.714 183.036 253.095 183.077C253.476 183.119 253.84 183.259 254.15 183.483C254.461 183.707 254.709 184.009 254.868 184.357C255.028 184.706 255.094 185.09 255.06 185.472Z" fill="#407BFF"/>
<g opacity="0.8">
<path opacity="0.8" d="M255.546 178.908C255.492 178.906 255.441 178.885 255.402 178.848C255.383 178.83 255.368 178.807 255.36 178.782C255.355 178.756 255.355 178.73 255.36 178.704C255.36 178.677 255.365 178.651 255.375 178.626C255.386 178.601 255.401 178.579 255.42 178.56C255.458 178.522 255.51 178.5 255.564 178.5C255.618 178.5 255.67 178.522 255.708 178.56C255.728 178.578 255.744 178.6 255.754 178.625C255.764 178.65 255.769 178.677 255.768 178.704C255.771 178.73 255.771 178.756 255.768 178.782C255.756 178.806 255.739 178.829 255.72 178.848C255.698 178.87 255.67 178.888 255.64 178.898C255.61 178.908 255.578 178.912 255.546 178.908Z" fill="white"/>
<path opacity="0.8" d="M159.384 192.966C159.33 192.966 159.278 192.944 159.24 192.906C159.202 192.868 159.18 192.816 159.18 192.762C159.182 192.709 159.204 192.659 159.242 192.622C159.28 192.585 159.331 192.564 159.384 192.564C159.438 192.564 159.49 192.585 159.529 192.624C159.567 192.662 159.588 192.714 159.588 192.768C159.588 192.823 159.567 192.875 159.529 192.914C159.491 192.954 159.439 192.976 159.384 192.978V192.966ZM157.326 192.852C157.299 192.851 157.273 192.844 157.248 192.831C157.224 192.819 157.202 192.802 157.185 192.781C157.168 192.761 157.155 192.736 157.147 192.71C157.139 192.684 157.137 192.657 157.14 192.63C157.143 192.603 157.152 192.577 157.165 192.553C157.178 192.53 157.195 192.509 157.217 192.492C157.238 192.476 157.262 192.463 157.288 192.456C157.314 192.449 157.341 192.447 157.368 192.45C157.421 192.456 157.47 192.483 157.504 192.524C157.537 192.566 157.553 192.619 157.548 192.672C157.543 192.722 157.519 192.769 157.481 192.803C157.444 192.837 157.395 192.857 157.344 192.858L157.326 192.852ZM161.208 192.672C161.205 192.645 161.207 192.618 161.214 192.592C161.222 192.566 161.234 192.542 161.251 192.52C161.267 192.499 161.288 192.481 161.312 192.468C161.335 192.455 161.361 192.447 161.388 192.444C161.415 192.441 161.442 192.443 161.468 192.45C161.494 192.457 161.519 192.47 161.54 192.486C161.561 192.503 161.579 192.524 161.592 192.547C161.605 192.571 161.613 192.597 161.616 192.624C161.62 192.651 161.618 192.678 161.61 192.704C161.603 192.73 161.591 192.754 161.574 192.776C161.557 192.797 161.536 192.815 161.513 192.828C161.489 192.841 161.463 192.849 161.436 192.852C161.409 192.855 161.382 192.853 161.356 192.846C161.33 192.839 161.306 192.826 161.285 192.81C161.263 192.793 161.246 192.772 161.233 192.748C161.22 192.725 161.211 192.699 161.208 192.672ZM155.298 192.54C155.245 192.527 155.199 192.495 155.169 192.449C155.139 192.403 155.127 192.348 155.136 192.294C155.149 192.241 155.182 192.195 155.227 192.165C155.273 192.134 155.328 192.123 155.382 192.132C155.435 192.145 155.482 192.177 155.512 192.223C155.542 192.269 155.553 192.324 155.544 192.378C155.533 192.424 155.507 192.465 155.47 192.494C155.433 192.524 155.388 192.54 155.34 192.54H155.298ZM163.212 192.336C163.205 192.31 163.203 192.282 163.207 192.255C163.211 192.228 163.22 192.202 163.234 192.178C163.248 192.155 163.266 192.134 163.289 192.118C163.311 192.102 163.336 192.09 163.362 192.084C163.415 192.073 163.469 192.082 163.515 192.11C163.561 192.138 163.594 192.182 163.608 192.234C163.621 192.287 163.613 192.343 163.585 192.391C163.557 192.438 163.511 192.472 163.458 192.486H163.41C163.363 192.49 163.316 192.477 163.278 192.45C163.239 192.422 163.212 192.382 163.2 192.336H163.212ZM228.834 192.42C228.78 192.42 228.728 192.398 228.69 192.36C228.652 192.322 228.63 192.27 228.63 192.216C228.63 192.162 228.652 192.11 228.69 192.072C228.728 192.033 228.78 192.012 228.834 192.012C228.888 192.012 228.94 192.033 228.979 192.072C229.017 192.11 229.038 192.162 229.038 192.216C229.038 192.27 229.017 192.322 228.979 192.36C228.94 192.398 228.888 192.42 228.834 192.42ZM230.664 192.132C230.661 192.106 230.663 192.079 230.67 192.053C230.678 192.027 230.69 192.003 230.707 191.983C230.724 191.962 230.745 191.945 230.768 191.932C230.792 191.92 230.818 191.912 230.844 191.91C230.871 191.906 230.899 191.907 230.925 191.914C230.952 191.921 230.976 191.933 230.998 191.95C231.019 191.967 231.037 191.988 231.05 192.012C231.062 192.036 231.07 192.063 231.072 192.09C231.077 192.145 231.061 192.199 231.026 192.242C230.991 192.285 230.941 192.312 230.886 192.318C230.833 192.321 230.779 192.304 230.738 192.269C230.697 192.235 230.67 192.186 230.664 192.132ZM226.782 192.294C226.756 192.291 226.73 192.283 226.707 192.27C226.683 192.256 226.663 192.239 226.646 192.217C226.63 192.196 226.618 192.172 226.612 192.146C226.605 192.12 226.604 192.092 226.608 192.066C226.611 192.039 226.62 192.013 226.633 191.989C226.646 191.966 226.663 191.945 226.685 191.928C226.706 191.912 226.73 191.899 226.756 191.892C226.782 191.885 226.809 191.883 226.836 191.886C226.89 191.893 226.939 191.921 226.972 191.964C227.006 192.006 227.021 192.06 227.016 192.114C227.011 192.164 226.987 192.211 226.949 192.245C226.912 192.279 226.863 192.299 226.812 192.3L226.782 192.294ZM153.306 192.048C153.28 192.041 153.256 192.029 153.234 192.013C153.213 191.996 153.195 191.976 153.182 191.952C153.168 191.929 153.16 191.903 153.156 191.876C153.153 191.849 153.155 191.822 153.162 191.796C153.179 191.744 153.215 191.7 153.263 191.673C153.311 191.646 153.367 191.639 153.42 191.652C153.472 191.669 153.516 191.705 153.542 191.753C153.567 191.801 153.573 191.857 153.558 191.91C153.546 191.953 153.52 191.99 153.484 192.016C153.448 192.042 153.405 192.056 153.36 192.054H153.306V192.048ZM232.68 191.85C232.674 191.824 232.674 191.796 232.679 191.769C232.684 191.743 232.694 191.717 232.709 191.695C232.724 191.672 232.744 191.653 232.767 191.639C232.79 191.624 232.815 191.614 232.842 191.61C232.869 191.605 232.896 191.605 232.922 191.61C232.949 191.615 232.974 191.626 232.996 191.641C233.018 191.656 233.037 191.675 233.052 191.698C233.067 191.72 233.077 191.746 233.082 191.772C233.088 191.798 233.087 191.826 233.082 191.852C233.077 191.878 233.066 191.903 233.051 191.926C233.036 191.948 233.017 191.967 232.994 191.982C232.972 191.997 232.947 192.007 232.92 192.012H232.884C232.837 192.012 232.791 191.996 232.754 191.966C232.717 191.937 232.691 191.896 232.68 191.85ZM224.766 191.922C224.739 191.917 224.714 191.907 224.691 191.891C224.669 191.876 224.65 191.856 224.636 191.833C224.622 191.81 224.612 191.784 224.609 191.757C224.606 191.729 224.608 191.702 224.616 191.676C224.629 191.624 224.662 191.578 224.708 191.55C224.754 191.522 224.81 191.513 224.862 191.526C224.915 191.539 224.96 191.572 224.988 191.618C225.016 191.664 225.025 191.719 225.012 191.772C225.002 191.816 224.976 191.856 224.94 191.884C224.904 191.913 224.86 191.928 224.814 191.928H224.766V191.922ZM165.156 191.754C165.146 191.729 165.141 191.702 165.141 191.675C165.142 191.647 165.148 191.621 165.159 191.596C165.17 191.571 165.186 191.549 165.207 191.531C165.227 191.512 165.25 191.499 165.276 191.49C165.326 191.47 165.382 191.471 165.432 191.493C165.481 191.514 165.52 191.554 165.54 191.604C165.55 191.629 165.554 191.656 165.554 191.683C165.553 191.71 165.547 191.736 165.535 191.761C165.524 191.786 165.508 191.808 165.489 191.826C165.469 191.844 165.446 191.859 165.42 191.868C165.397 191.873 165.372 191.873 165.348 191.868C165.309 191.869 165.27 191.859 165.236 191.839C165.202 191.818 165.174 191.789 165.156 191.754ZM234.666 191.4C234.658 191.374 234.655 191.346 234.658 191.318C234.661 191.291 234.67 191.264 234.683 191.24C234.696 191.216 234.715 191.195 234.737 191.178C234.758 191.161 234.784 191.149 234.81 191.142C234.836 191.135 234.864 191.133 234.89 191.136C234.917 191.139 234.943 191.148 234.966 191.161C234.99 191.175 235.01 191.193 235.027 191.214C235.043 191.235 235.055 191.26 235.062 191.286C235.07 191.312 235.072 191.339 235.068 191.366C235.065 191.393 235.056 191.419 235.043 191.442C235.03 191.466 235.012 191.486 234.99 191.503C234.969 191.519 234.944 191.531 234.918 191.538H234.864C234.821 191.539 234.778 191.526 234.743 191.501C234.707 191.477 234.68 191.441 234.666 191.4ZM222.798 191.328C222.748 191.31 222.706 191.273 222.682 191.225C222.659 191.177 222.655 191.121 222.672 191.07C222.691 191.019 222.729 190.977 222.779 190.953C222.828 190.93 222.885 190.927 222.936 190.944C222.988 190.963 223.029 191.001 223.053 191.05C223.076 191.1 223.08 191.156 223.062 191.208C223.047 191.247 223.019 191.281 222.984 191.305C222.948 191.328 222.907 191.341 222.864 191.34C222.842 191.342 222.819 191.338 222.798 191.328ZM166.998 190.944C166.986 190.92 166.978 190.894 166.976 190.867C166.974 190.84 166.977 190.813 166.986 190.787C166.994 190.762 167.007 190.738 167.025 190.717C167.043 190.697 167.064 190.68 167.088 190.668C167.138 190.645 167.194 190.642 167.246 190.66C167.297 190.678 167.34 190.715 167.364 190.764C167.377 190.788 167.384 190.813 167.386 190.84C167.388 190.866 167.385 190.893 167.377 190.918C167.368 190.943 167.355 190.966 167.337 190.986C167.32 191.006 167.298 191.023 167.274 191.034C167.243 191.043 167.21 191.043 167.178 191.034C167.147 191.032 167.117 191.023 167.09 191.007C167.063 190.992 167.04 190.97 167.022 190.944H166.998ZM236.598 190.8C236.589 190.775 236.584 190.749 236.585 190.722C236.586 190.696 236.592 190.67 236.604 190.646C236.615 190.621 236.631 190.6 236.65 190.582C236.67 190.564 236.693 190.551 236.718 190.542C236.769 190.526 236.824 190.531 236.872 190.554C236.92 190.577 236.957 190.618 236.976 190.668C236.994 190.72 236.99 190.776 236.967 190.826C236.943 190.875 236.902 190.913 236.85 190.932H236.784C236.747 190.928 236.711 190.913 236.682 190.89C236.652 190.866 236.629 190.835 236.616 190.8H236.598ZM220.884 190.548C220.86 190.537 220.838 190.521 220.82 190.502C220.801 190.482 220.787 190.459 220.777 190.434C220.768 190.409 220.763 190.382 220.764 190.356C220.765 190.329 220.771 190.302 220.782 190.278C220.806 190.23 220.847 190.192 220.897 190.173C220.947 190.154 221.003 190.155 221.052 190.176C221.078 190.187 221.1 190.203 221.119 190.223C221.138 190.243 221.153 190.266 221.162 190.292C221.172 190.318 221.176 190.345 221.175 190.373C221.173 190.4 221.166 190.427 221.154 190.452C221.138 190.487 221.111 190.517 221.078 190.538C221.046 190.56 221.007 190.571 220.968 190.572C220.945 190.57 220.922 190.562 220.902 190.548H220.884ZM238.5 190.08C238.49 190.055 238.484 190.029 238.484 190.002C238.484 189.975 238.49 189.948 238.501 189.923C238.511 189.899 238.527 189.876 238.546 189.858C238.566 189.84 238.589 189.825 238.614 189.816C238.639 189.804 238.665 189.798 238.692 189.797C238.719 189.796 238.745 189.801 238.77 189.811C238.795 189.821 238.818 189.837 238.836 189.856C238.855 189.876 238.869 189.899 238.878 189.924C238.889 189.949 238.895 189.975 238.895 190.003C238.896 190.03 238.891 190.056 238.881 190.082C238.871 190.107 238.856 190.13 238.837 190.149C238.818 190.168 238.795 190.184 238.77 190.194C238.745 190.2 238.718 190.2 238.692 190.194C238.656 190.192 238.621 190.18 238.59 190.16C238.56 190.14 238.535 190.112 238.518 190.08H238.5ZM168.78 189.96C168.751 189.913 168.742 189.856 168.754 189.802C168.766 189.748 168.8 189.702 168.846 189.672C168.869 189.658 168.895 189.648 168.921 189.644C168.948 189.639 168.975 189.64 169.001 189.646C169.027 189.652 169.052 189.664 169.074 189.679C169.096 189.695 169.114 189.715 169.128 189.738C169.143 189.761 169.152 189.786 169.157 189.813C169.161 189.839 169.16 189.867 169.154 189.893C169.148 189.919 169.137 189.944 169.121 189.966C169.105 189.987 169.085 190.006 169.062 190.02C169.031 190.043 168.993 190.056 168.954 190.056C168.923 190.052 168.893 190.042 168.866 190.025C168.839 190.009 168.816 189.986 168.798 189.96H168.78ZM219.054 189.63C219.006 189.603 218.97 189.559 218.955 189.506C218.939 189.453 218.945 189.397 218.97 189.348C218.998 189.301 219.043 189.266 219.095 189.252C219.148 189.237 219.204 189.244 219.252 189.27C219.299 189.296 219.333 189.34 219.348 189.392C219.363 189.444 219.356 189.499 219.33 189.546C219.312 189.578 219.286 189.605 219.255 189.624C219.223 189.643 219.187 189.653 219.15 189.654C219.123 189.65 219.097 189.642 219.072 189.63H219.054ZM240.366 189.258C240.344 189.209 240.341 189.154 240.359 189.103C240.377 189.053 240.414 189.011 240.462 188.988C240.512 188.965 240.568 188.962 240.62 188.98C240.671 188.998 240.714 189.035 240.738 189.084C240.749 189.108 240.755 189.135 240.756 189.162C240.757 189.188 240.753 189.215 240.743 189.24C240.734 189.265 240.719 189.288 240.701 189.308C240.683 189.327 240.661 189.343 240.636 189.354H240.546C240.514 189.352 240.482 189.343 240.454 189.326C240.425 189.309 240.402 189.286 240.384 189.258H240.366ZM170.472 188.832C170.441 188.787 170.429 188.732 170.438 188.678C170.447 188.625 170.477 188.576 170.52 188.544C170.564 188.512 170.619 188.499 170.673 188.507C170.726 188.515 170.775 188.543 170.808 188.586C170.839 188.631 170.851 188.686 170.843 188.74C170.834 188.793 170.804 188.842 170.76 188.874C170.725 188.899 170.684 188.914 170.64 188.916C170.611 188.913 170.582 188.905 170.556 188.89C170.53 188.876 170.508 188.856 170.49 188.832H170.472ZM217.272 188.604C217.25 188.59 217.23 188.573 217.214 188.551C217.198 188.53 217.187 188.506 217.181 188.48C217.175 188.454 217.174 188.427 217.178 188.401C217.183 188.375 217.192 188.35 217.206 188.328C217.219 188.304 217.236 188.283 217.257 188.266C217.278 188.25 217.302 188.237 217.328 188.231C217.354 188.224 217.381 188.223 217.408 188.227C217.435 188.231 217.46 188.241 217.482 188.256C217.506 188.27 217.526 188.288 217.543 188.309C217.559 188.331 217.571 188.356 217.577 188.382C217.584 188.408 217.586 188.435 217.582 188.462C217.578 188.489 217.568 188.515 217.554 188.538C217.536 188.568 217.511 188.593 217.48 188.611C217.45 188.629 217.416 188.639 217.38 188.64C217.352 188.633 217.326 188.621 217.302 188.604H217.272ZM242.178 188.346C242.153 188.298 242.147 188.242 242.163 188.191C242.179 188.139 242.215 188.095 242.262 188.07C242.31 188.046 242.366 188.041 242.417 188.057C242.468 188.073 242.512 188.107 242.538 188.154C242.564 188.203 242.57 188.259 242.554 188.312C242.538 188.365 242.502 188.409 242.454 188.436C242.423 188.441 242.39 188.441 242.358 188.436C242.328 188.433 242.299 188.423 242.273 188.408C242.247 188.392 242.225 188.371 242.208 188.346H242.178ZM172.092 187.602C172.075 187.581 172.063 187.557 172.055 187.531C172.047 187.506 172.045 187.479 172.047 187.452C172.05 187.425 172.058 187.399 172.071 187.375C172.084 187.352 172.101 187.331 172.122 187.314C172.165 187.281 172.219 187.266 172.272 187.271C172.326 187.277 172.375 187.303 172.41 187.344C172.447 187.384 172.468 187.436 172.468 187.491C172.468 187.546 172.447 187.598 172.41 187.638C172.372 187.666 172.326 187.681 172.278 187.68C172.248 187.681 172.218 187.675 172.19 187.661C172.163 187.648 172.14 187.627 172.122 187.602H172.092ZM215.544 187.512C215.499 187.483 215.467 187.436 215.456 187.383C215.445 187.331 215.455 187.275 215.484 187.23C215.515 187.184 215.562 187.152 215.616 187.141C215.67 187.13 215.726 187.14 215.772 187.17C215.816 187.2 215.847 187.247 215.858 187.299C215.87 187.352 215.86 187.406 215.832 187.452C215.814 187.482 215.788 187.506 215.758 187.523C215.727 187.539 215.693 187.548 215.658 187.548C215.628 187.541 215.6 187.529 215.574 187.512H215.544ZM243.96 187.362C243.946 187.339 243.937 187.313 243.933 187.286C243.929 187.259 243.93 187.232 243.937 187.206C243.944 187.18 243.956 187.155 243.972 187.133C243.988 187.112 244.009 187.094 244.032 187.08C244.08 187.053 244.135 187.046 244.188 187.059C244.24 187.073 244.286 187.106 244.314 187.152C244.341 187.199 244.349 187.255 244.335 187.307C244.322 187.36 244.288 187.405 244.242 187.434C244.209 187.452 244.172 187.462 244.134 187.464C244.104 187.459 244.076 187.447 244.051 187.429C244.026 187.412 244.005 187.389 243.99 187.362H243.96ZM213.846 186.378C213.802 186.346 213.771 186.299 213.761 186.245C213.751 186.191 213.762 186.136 213.792 186.09C213.825 186.046 213.872 186.017 213.926 186.007C213.979 185.997 214.034 186.007 214.08 186.036C214.124 186.068 214.154 186.116 214.164 186.169C214.174 186.223 214.163 186.278 214.134 186.324C214.115 186.352 214.089 186.375 214.058 186.391C214.028 186.406 213.994 186.414 213.96 186.414C213.93 186.408 213.901 186.396 213.876 186.378H213.846ZM245.7 186.306C245.673 186.259 245.664 186.202 245.676 186.149C245.689 186.095 245.721 186.049 245.766 186.018C245.789 186.004 245.815 185.994 245.841 185.99C245.868 185.985 245.895 185.986 245.921 185.992C245.947 185.998 245.972 186.01 245.994 186.025C246.016 186.041 246.034 186.061 246.048 186.084C246.063 186.107 246.072 186.132 246.077 186.159C246.081 186.185 246.08 186.213 246.074 186.239C246.068 186.265 246.057 186.29 246.041 186.312C246.025 186.333 246.005 186.352 245.982 186.366C245.952 186.39 245.913 186.403 245.874 186.402C245.845 186.397 245.817 186.386 245.792 186.369C245.768 186.353 245.746 186.331 245.73 186.306H245.7ZM173.7 186.306C173.664 186.267 173.643 186.216 173.643 186.162C173.643 186.108 173.664 186.057 173.7 186.018C173.74 185.981 173.793 185.96 173.847 185.96C173.902 185.96 173.954 185.981 173.994 186.018C174.032 186.056 174.054 186.108 174.054 186.162C174.054 186.216 174.032 186.268 173.994 186.306C173.977 186.322 173.956 186.335 173.933 186.343C173.911 186.352 173.886 186.355 173.862 186.354C173.834 186.359 173.805 186.359 173.778 186.353C173.75 186.346 173.723 186.335 173.7 186.318V186.306ZM247.44 185.178C247.409 185.133 247.397 185.078 247.406 185.024C247.415 184.971 247.445 184.922 247.488 184.89C247.511 184.874 247.536 184.863 247.563 184.857C247.589 184.851 247.617 184.851 247.644 184.856C247.671 184.861 247.696 184.871 247.719 184.887C247.742 184.902 247.761 184.921 247.776 184.944C247.806 184.989 247.817 185.043 247.807 185.096C247.797 185.149 247.767 185.196 247.722 185.226C247.689 185.249 247.649 185.261 247.608 185.262C247.577 185.264 247.545 185.258 247.516 185.246C247.487 185.233 247.461 185.214 247.44 185.19V185.178ZM212.19 185.226C212.168 185.211 212.148 185.193 212.133 185.17C212.118 185.148 212.108 185.123 212.103 185.097C212.098 185.07 212.098 185.043 212.104 185.017C212.11 184.991 212.121 184.966 212.136 184.944C212.166 184.899 212.212 184.867 212.265 184.856C212.318 184.844 212.373 184.855 212.418 184.884C212.441 184.899 212.461 184.919 212.476 184.941C212.491 184.964 212.501 184.99 212.506 185.017C212.511 185.043 212.511 185.071 212.505 185.098C212.499 185.124 212.488 185.15 212.472 185.172C212.455 185.2 212.43 185.224 212.4 185.239C212.371 185.255 212.338 185.263 212.304 185.262C212.265 185.265 212.225 185.257 212.19 185.238V185.226ZM175.266 184.998C175.247 184.979 175.231 184.957 175.22 184.932C175.21 184.908 175.204 184.881 175.204 184.854C175.204 184.827 175.21 184.8 175.22 184.776C175.231 184.751 175.247 184.729 175.266 184.71C175.305 184.673 175.357 184.653 175.41 184.653C175.464 184.653 175.515 184.673 175.554 184.71C175.592 184.748 175.614 184.8 175.614 184.854C175.614 184.908 175.592 184.96 175.554 184.998C175.518 185.03 175.471 185.047 175.422 185.046C175.395 185.052 175.367 185.051 175.34 185.045C175.313 185.039 175.288 185.027 175.266 185.01V184.998ZM210.498 184.098C210.475 184.084 210.455 184.065 210.44 184.043C210.424 184.021 210.413 183.996 210.407 183.97C210.402 183.944 210.402 183.916 210.407 183.89C210.412 183.863 210.423 183.838 210.438 183.816C210.452 183.793 210.471 183.773 210.493 183.757C210.515 183.742 210.54 183.731 210.566 183.725C210.593 183.719 210.62 183.719 210.647 183.725C210.673 183.73 210.698 183.741 210.72 183.756C210.766 183.785 210.797 183.832 210.809 183.885C210.82 183.937 210.81 183.993 210.78 184.038C210.763 184.066 210.738 184.09 210.708 184.105C210.679 184.121 210.646 184.129 210.612 184.128C210.573 184.134 210.534 184.128 210.498 184.11V184.098ZM249.108 184.002C249.092 183.981 249.08 183.957 249.074 183.931C249.067 183.905 249.065 183.878 249.069 183.852C249.073 183.826 249.083 183.8 249.096 183.778C249.11 183.755 249.129 183.735 249.15 183.72C249.194 183.688 249.249 183.675 249.303 183.683C249.356 183.691 249.405 183.719 249.438 183.762C249.469 183.807 249.482 183.862 249.473 183.916C249.464 183.969 249.434 184.018 249.39 184.05C249.355 184.074 249.313 184.086 249.27 184.086C249.239 184.088 249.208 184.083 249.18 184.071C249.152 184.058 249.127 184.039 249.108 184.014V184.002ZM176.832 183.696C176.794 183.658 176.773 183.606 176.773 183.552C176.773 183.498 176.794 183.446 176.832 183.408C176.875 183.375 176.929 183.36 176.982 183.365C177.036 183.371 177.085 183.397 177.12 183.438C177.137 183.459 177.15 183.483 177.158 183.509C177.166 183.534 177.168 183.561 177.165 183.588C177.162 183.615 177.154 183.641 177.142 183.665C177.129 183.688 177.111 183.709 177.09 183.726C177.073 183.742 177.052 183.755 177.029 183.763C177.007 183.772 176.982 183.775 176.958 183.774C176.91 183.768 176.865 183.745 176.832 183.708V183.696ZM208.8 183C208.777 182.986 208.757 182.967 208.742 182.946C208.726 182.924 208.715 182.899 208.709 182.873C208.702 182.847 208.702 182.819 208.706 182.793C208.71 182.766 208.72 182.741 208.734 182.718C208.748 182.695 208.767 182.675 208.789 182.659C208.811 182.644 208.835 182.632 208.862 182.626C208.888 182.62 208.915 182.619 208.942 182.624C208.968 182.628 208.993 182.638 209.016 182.652C209.039 182.666 209.059 182.685 209.075 182.706C209.091 182.728 209.102 182.753 209.108 182.779C209.114 182.805 209.115 182.833 209.111 182.859C209.106 182.886 209.097 182.911 209.082 182.934C209.064 182.964 209.039 182.989 209.008 183.007C208.978 183.025 208.944 183.035 208.908 183.036C208.869 183.036 208.831 183.023 208.8 183ZM250.752 182.784C250.736 182.763 250.723 182.738 250.716 182.712C250.709 182.686 250.707 182.659 250.71 182.632C250.714 182.606 250.722 182.58 250.736 182.556C250.749 182.533 250.767 182.512 250.788 182.496C250.81 182.479 250.834 182.467 250.86 182.46C250.886 182.452 250.913 182.45 250.94 182.454C250.967 182.457 250.992 182.466 251.016 182.479C251.039 182.493 251.06 182.511 251.076 182.532C251.107 182.576 251.121 182.63 251.114 182.683C251.107 182.736 251.081 182.785 251.04 182.82C251.006 182.848 250.964 182.863 250.92 182.862C250.887 182.867 250.853 182.863 250.822 182.851C250.791 182.84 250.763 182.821 250.74 182.796L250.752 182.784ZM178.44 182.436C178.409 182.392 178.395 182.337 178.403 182.284C178.411 182.23 178.439 182.181 178.482 182.148C178.526 182.116 178.581 182.103 178.635 182.111C178.688 182.119 178.737 182.147 178.77 182.19C178.802 182.234 178.815 182.289 178.807 182.342C178.799 182.396 178.771 182.445 178.728 182.478C178.693 182.503 178.652 182.518 178.608 182.52C178.575 182.523 178.541 182.519 178.509 182.506C178.478 182.493 178.45 182.474 178.428 182.448L178.44 182.436ZM207.054 181.962C207.031 181.948 207.01 181.93 206.994 181.909C206.978 181.887 206.966 181.862 206.959 181.836C206.952 181.81 206.951 181.783 206.955 181.756C206.959 181.729 206.968 181.703 206.982 181.68C206.995 181.657 207.013 181.636 207.034 181.62C207.055 181.604 207.079 181.592 207.105 181.585C207.131 181.579 207.158 181.577 207.184 181.581C207.21 181.585 207.236 181.594 207.258 181.608C207.282 181.621 207.303 181.638 207.32 181.659C207.337 181.679 207.349 181.703 207.356 181.729C207.364 181.755 207.366 181.782 207.362 181.809C207.359 181.835 207.35 181.861 207.336 181.884C207.318 181.916 207.292 181.943 207.261 181.962C207.229 181.981 207.193 181.991 207.156 181.992C207.117 181.995 207.078 181.989 207.042 181.974L207.054 181.962ZM252.342 181.512C252.325 181.491 252.313 181.467 252.305 181.441C252.297 181.416 252.295 181.389 252.297 181.362C252.3 181.335 252.308 181.309 252.321 181.285C252.334 181.262 252.351 181.241 252.372 181.224C252.393 181.207 252.417 181.194 252.443 181.187C252.469 181.179 252.496 181.176 252.523 181.179C252.549 181.182 252.575 181.19 252.599 181.203C252.623 181.216 252.643 181.233 252.66 181.254C252.697 181.293 252.717 181.344 252.717 181.398C252.717 181.452 252.697 181.503 252.66 181.542C252.622 181.571 252.576 181.588 252.528 181.59C252.492 181.598 252.455 181.596 252.42 181.584C252.385 181.573 252.354 181.552 252.33 181.524L252.342 181.512ZM180.096 181.248C180.081 181.226 180.069 181.2 180.064 181.174C180.058 181.147 180.057 181.119 180.062 181.093C180.067 181.066 180.078 181.04 180.093 181.017C180.108 180.995 180.128 180.975 180.15 180.96C180.197 180.93 180.253 180.92 180.307 180.931C180.36 180.942 180.408 180.974 180.438 181.02C180.468 181.065 180.478 181.121 180.467 181.173C180.455 181.226 180.424 181.273 180.378 181.302C180.345 181.325 180.305 181.338 180.264 181.338C180.23 181.341 180.196 181.335 180.165 181.321C180.133 181.308 180.106 181.287 180.084 181.26L180.096 181.248ZM205.296 180.996C205.249 180.971 205.213 180.927 205.197 180.875C205.181 180.824 205.187 180.768 205.212 180.72C205.224 180.696 205.241 180.674 205.262 180.657C205.282 180.639 205.306 180.626 205.332 180.617C205.357 180.609 205.384 180.606 205.411 180.608C205.438 180.61 205.464 180.618 205.488 180.63C205.535 180.658 205.571 180.702 205.587 180.754C205.604 180.806 205.601 180.862 205.578 180.912C205.559 180.944 205.532 180.971 205.499 180.99C205.467 181.009 205.43 181.019 205.392 181.02C205.348 181.032 205.301 181.028 205.26 181.008L205.296 180.996ZM253.896 180.198C253.858 180.16 253.837 180.108 253.837 180.054C253.837 180 253.858 179.948 253.896 179.91C253.935 179.873 253.987 179.853 254.04 179.853C254.094 179.853 254.145 179.873 254.184 179.91C254.221 179.949 254.241 180 254.241 180.054C254.241 180.108 254.221 180.159 254.184 180.198C254.167 180.215 254.146 180.229 254.124 180.238C254.101 180.247 254.077 180.252 254.052 180.252C254.024 180.257 253.995 180.256 253.967 180.248C253.939 180.241 253.913 180.228 253.89 180.21L253.896 180.198ZM181.8 180.174C181.787 180.15 181.778 180.124 181.774 180.097C181.771 180.07 181.772 180.043 181.78 180.017C181.787 179.99 181.799 179.966 181.816 179.944C181.833 179.923 181.854 179.905 181.878 179.892C181.925 179.866 181.981 179.86 182.032 179.874C182.084 179.889 182.128 179.923 182.154 179.97C182.168 179.994 182.177 180.02 182.181 180.047C182.184 180.074 182.182 180.101 182.175 180.127C182.168 180.154 182.155 180.178 182.138 180.2C182.121 180.221 182.1 180.239 182.076 180.252C182.043 180.26 182.008 180.26 181.974 180.252C181.941 180.254 181.908 180.248 181.878 180.235C181.847 180.221 181.821 180.2 181.8 180.174ZM203.43 180.138C203.406 180.127 203.384 180.111 203.366 180.092C203.347 180.072 203.333 180.049 203.323 180.024C203.314 179.999 203.309 179.972 203.31 179.946C203.311 179.919 203.317 179.892 203.328 179.868C203.339 179.844 203.355 179.822 203.375 179.803C203.394 179.785 203.417 179.771 203.442 179.761C203.467 179.752 203.494 179.747 203.521 179.748C203.548 179.749 203.574 179.755 203.598 179.766C203.623 179.776 203.646 179.792 203.665 179.811C203.684 179.831 203.698 179.854 203.708 179.879C203.717 179.904 203.722 179.931 203.72 179.958C203.719 179.985 203.712 180.012 203.7 180.036C203.684 180.072 203.658 180.102 203.625 180.123C203.592 180.145 203.554 180.156 203.514 180.156C203.487 180.155 203.461 180.149 203.436 180.138H203.43ZM201.564 179.4C201.539 179.391 201.515 179.378 201.495 179.359C201.474 179.341 201.458 179.319 201.447 179.294C201.436 179.269 201.43 179.243 201.429 179.215C201.429 179.188 201.434 179.161 201.444 179.136C201.464 179.086 201.503 179.045 201.552 179.023C201.601 179.001 201.657 178.998 201.708 179.016C201.758 179.036 201.799 179.075 201.821 179.124C201.844 179.173 201.846 179.229 201.828 179.28C201.814 179.319 201.788 179.354 201.754 179.377C201.719 179.401 201.678 179.413 201.636 179.412C201.612 179.414 201.587 179.41 201.564 179.4ZM183.6 179.232C183.58 179.182 183.579 179.127 183.598 179.077C183.617 179.026 183.654 178.985 183.702 178.962C183.727 178.95 183.754 178.943 183.781 178.942C183.809 178.94 183.836 178.945 183.862 178.954C183.888 178.964 183.911 178.978 183.931 178.997C183.951 179.016 183.967 179.039 183.978 179.064C183.989 179.089 183.995 179.115 183.995 179.143C183.996 179.17 183.991 179.196 183.981 179.222C183.971 179.247 183.956 179.27 183.937 179.289C183.918 179.308 183.895 179.324 183.87 179.334C183.843 179.34 183.814 179.34 183.786 179.334C183.749 179.336 183.712 179.327 183.679 179.309C183.646 179.291 183.619 179.264 183.6 179.232ZM199.638 178.746C199.586 178.729 199.543 178.693 199.517 178.645C199.491 178.597 199.485 178.541 199.5 178.488C199.517 178.436 199.553 178.392 199.601 178.367C199.649 178.341 199.706 178.335 199.758 178.35C199.81 178.367 199.854 178.403 199.88 178.451C199.905 178.499 199.911 178.555 199.896 178.608C199.883 178.65 199.856 178.686 199.82 178.712C199.785 178.738 199.742 178.752 199.698 178.752H199.638V178.746ZM185.484 178.464C185.476 178.438 185.473 178.411 185.475 178.385C185.477 178.358 185.484 178.331 185.497 178.307C185.509 178.283 185.526 178.262 185.546 178.245C185.567 178.227 185.591 178.214 185.616 178.206C185.642 178.198 185.669 178.194 185.696 178.196C185.723 178.199 185.749 178.206 185.773 178.218C185.797 178.23 185.818 178.247 185.836 178.268C185.853 178.289 185.866 178.312 185.874 178.338C185.883 178.364 185.886 178.391 185.884 178.417C185.882 178.444 185.874 178.471 185.862 178.495C185.85 178.518 185.833 178.54 185.812 178.557C185.792 178.575 185.768 178.588 185.742 178.596H185.676C185.636 178.595 185.596 178.582 185.563 178.558C185.53 178.535 185.505 178.502 185.49 178.464H185.484ZM197.682 178.248C197.63 178.236 197.584 178.205 197.555 178.16C197.526 178.115 197.516 178.06 197.526 178.008C197.531 177.981 197.542 177.955 197.557 177.933C197.572 177.91 197.592 177.891 197.615 177.876C197.638 177.861 197.664 177.852 197.691 177.848C197.718 177.843 197.746 177.845 197.772 177.852C197.799 177.857 197.824 177.867 197.846 177.882C197.868 177.897 197.887 177.916 197.902 177.939C197.916 177.961 197.926 177.986 197.931 178.013C197.935 178.039 197.934 178.066 197.928 178.092C197.919 178.139 197.893 178.18 197.856 178.21C197.818 178.239 197.772 178.255 197.724 178.254H197.682V178.248ZM187.434 177.906C187.428 177.879 187.428 177.851 187.432 177.824C187.437 177.797 187.448 177.771 187.463 177.748C187.478 177.725 187.498 177.706 187.521 177.691C187.543 177.675 187.569 177.665 187.596 177.66C187.649 177.649 187.703 177.66 187.748 177.689C187.793 177.718 187.825 177.764 187.836 177.816C187.842 177.842 187.843 177.87 187.839 177.897C187.834 177.923 187.824 177.949 187.81 177.972C187.795 177.995 187.776 178.014 187.754 178.03C187.732 178.045 187.707 178.056 187.68 178.062H187.638C187.593 178.061 187.549 178.045 187.513 178.017C187.478 177.989 187.452 177.95 187.44 177.906H187.434ZM195.696 177.906C195.643 177.897 195.595 177.868 195.562 177.824C195.53 177.78 195.515 177.726 195.522 177.672C195.525 177.645 195.534 177.62 195.547 177.596C195.56 177.573 195.578 177.552 195.599 177.536C195.62 177.52 195.645 177.508 195.671 177.502C195.697 177.495 195.724 177.494 195.75 177.498C195.804 177.507 195.852 177.536 195.885 177.58C195.917 177.624 195.931 177.678 195.924 177.732C195.916 177.78 195.891 177.824 195.854 177.856C195.816 177.888 195.769 177.905 195.72 177.906H195.69H195.696ZM189.438 177.564C189.433 177.511 189.449 177.458 189.483 177.416C189.517 177.375 189.565 177.348 189.618 177.342C189.645 177.338 189.673 177.339 189.699 177.346C189.726 177.353 189.75 177.365 189.772 177.382C189.793 177.399 189.811 177.42 189.824 177.444C189.836 177.468 189.844 177.495 189.846 177.522C189.851 177.577 189.835 177.631 189.8 177.674C189.765 177.717 189.715 177.744 189.66 177.75C189.607 177.752 189.554 177.733 189.514 177.697C189.474 177.661 189.449 177.612 189.444 177.558L189.438 177.564ZM193.686 177.696C193.659 177.695 193.633 177.689 193.608 177.678C193.583 177.666 193.562 177.65 193.544 177.63C193.526 177.609 193.512 177.586 193.503 177.56C193.495 177.534 193.492 177.507 193.494 177.48C193.496 177.453 193.503 177.427 193.514 177.403C193.526 177.379 193.542 177.357 193.562 177.339C193.583 177.321 193.606 177.308 193.631 177.299C193.657 177.29 193.684 177.286 193.71 177.288C193.765 177.293 193.816 177.318 193.852 177.36C193.887 177.401 193.906 177.455 193.902 177.51C193.899 177.562 193.876 177.611 193.838 177.647C193.801 177.682 193.75 177.702 193.698 177.702L193.686 177.696ZM191.466 177.432C191.465 177.405 191.47 177.378 191.48 177.353C191.49 177.328 191.505 177.305 191.524 177.286C191.543 177.267 191.566 177.252 191.591 177.242C191.616 177.232 191.643 177.227 191.67 177.228C191.724 177.228 191.776 177.249 191.815 177.288C191.853 177.326 191.874 177.378 191.874 177.432C191.874 177.486 191.853 177.538 191.815 177.576C191.776 177.615 191.724 177.636 191.67 177.636C191.644 177.635 191.617 177.629 191.593 177.618C191.568 177.607 191.546 177.592 191.528 177.572C191.509 177.553 191.495 177.53 191.486 177.505C191.476 177.479 191.472 177.453 191.472 177.426L191.466 177.432Z" fill="white"/>
<path opacity="0.8" d="M151.35 191.4C151.325 191.406 151.298 191.406 151.272 191.4C151.247 191.39 151.224 191.373 151.206 191.352C151.186 191.335 151.171 191.312 151.164 191.286C151.158 191.26 151.158 191.234 151.164 191.208C151.166 191.154 151.187 191.103 151.224 191.064C151.242 191.045 151.265 191.03 151.29 191.022C151.315 191.01 151.341 191.004 151.368 191.004C151.395 191.004 151.422 191.01 151.446 191.022C151.472 191.029 151.495 191.043 151.512 191.064C151.531 191.083 151.547 191.105 151.557 191.13C151.567 191.155 151.573 191.181 151.572 191.208C151.579 191.234 151.579 191.26 151.572 191.286C151.563 191.312 151.547 191.335 151.524 191.352C151.507 191.373 151.484 191.39 151.458 191.4C151.423 191.412 151.385 191.412 151.35 191.4Z" fill="white"/>
</g>
<path d="M184.248 129.966L182.85 128.454C180.325 130.842 176.989 132.184 173.514 132.21C170.757 132.253 168.072 131.325 165.93 129.587C163.789 127.849 162.328 125.413 161.802 122.706L159.702 123.258L157.782 123.762C158.328 126.596 159.656 129.222 161.616 131.34C167.706 137.904 178.5 137.904 185.532 131.34L184.248 129.966Z" fill="white"/>
<path d="M187.242 107.43L185.4 109.14L184.134 110.34C185.252 111.553 186.106 112.984 186.643 114.543C187.18 116.103 187.388 117.756 187.254 119.4C186.982 122.869 185.409 126.107 182.85 128.466L183.948 129.666L185.532 131.37C188.907 128.254 190.981 123.979 191.34 119.4C191.519 117.23 191.247 115.047 190.542 112.987C189.837 110.927 188.713 109.035 187.242 107.43Z" fill="#263238"/>
<path d="M187.242 107.43C181.152 100.872 170.358 100.872 163.332 107.43C161.108 109.465 159.435 112.03 158.468 114.885C157.501 117.741 157.271 120.794 157.8 123.762L160.2 123.162L161.844 122.73C161.634 121.637 161.57 120.522 161.652 119.412C161.943 115.951 163.511 112.722 166.05 110.352C168.59 107.983 171.919 106.642 175.392 106.59C177.038 106.572 178.671 106.897 180.185 107.543C181.699 108.19 183.062 109.144 184.188 110.346L185.808 108.828L187.242 107.43Z" fill="#407BFF"/>
<path d="M204.48 129.966L206.094 128.454C204.98 127.241 204.129 125.81 203.595 124.252C203.061 122.694 202.856 121.042 202.992 119.4C203.238 116.516 204.368 113.779 206.228 111.561C208.088 109.344 210.587 107.754 213.384 107.01L212.976 104.946L212.61 103.062C209.657 103.849 206.945 105.354 204.714 107.442C197.682 114 196.914 124.794 202.998 131.358L204.48 129.966Z" fill="white"/>
<path d="M226.914 131.346L225.324 129.63L224.232 128.43C221.709 130.821 218.372 132.165 214.896 132.192C213.249 132.21 211.616 131.886 210.1 131.239C208.585 130.592 207.221 129.638 206.094 128.436L204.828 129.636L202.998 131.346C204.486 132.927 206.286 134.182 208.283 135.034C210.28 135.886 212.431 136.316 214.602 136.296C219.183 136.257 223.581 134.489 226.914 131.346Z" fill="#263238"/>
<path d="M226.914 131.346C233.94 124.782 234.714 113.988 228.63 107.43C226.608 105.315 224.049 103.79 221.227 103.018C218.405 102.247 215.426 102.258 212.61 103.05L213.066 105.384L213.384 106.998C214.477 106.711 215.602 106.566 216.732 106.566C218.382 106.542 220.019 106.865 221.537 107.513C223.054 108.162 224.418 109.123 225.541 110.333C226.663 111.543 227.519 112.976 228.052 114.538C228.585 116.1 228.784 117.756 228.636 119.4C228.362 122.867 226.789 126.103 224.232 128.46L225.636 129.978L226.914 131.346Z" fill="#407BFF"/>
<path opacity="0.3" d="M255.252 103.986C255.417 103.986 255.58 104.019 255.731 104.085C255.883 104.15 256.019 104.246 256.132 104.367C256.244 104.487 256.331 104.63 256.386 104.785C256.441 104.94 256.463 105.106 256.452 105.27L255.708 115.62C255.673 115.986 255.505 116.326 255.237 116.577C254.968 116.828 254.617 116.972 254.25 116.982H243.894C243.728 116.982 243.565 116.949 243.413 116.883C243.261 116.817 243.125 116.72 243.012 116.599C242.899 116.478 242.813 116.335 242.758 116.179C242.703 116.023 242.682 115.857 242.694 115.692L243.432 105.342C243.467 104.977 243.635 104.637 243.904 104.387C244.172 104.137 244.523 103.995 244.89 103.986H255.24H255.252ZM255.24 103.452H244.902C244.401 103.462 243.921 103.657 243.554 103.999C243.187 104.341 242.96 104.807 242.916 105.306L242.178 115.656C242.158 115.893 242.188 116.131 242.265 116.356C242.342 116.581 242.465 116.787 242.627 116.962C242.788 117.136 242.984 117.275 243.203 117.369C243.421 117.464 243.656 117.512 243.894 117.51H254.244C254.746 117.501 255.226 117.307 255.593 116.965C255.96 116.622 256.187 116.156 256.23 115.656L256.974 105.306C256.994 105.069 256.964 104.83 256.887 104.604C256.809 104.379 256.685 104.173 256.523 103.998C256.361 103.824 256.164 103.685 255.945 103.591C255.726 103.497 255.49 103.45 255.252 103.452H255.24Z" fill="#407BFF"/>
<path opacity="0.3" d="M253.974 121.8C254.139 121.8 254.302 121.833 254.454 121.899C254.605 121.964 254.741 122.06 254.854 122.181C254.966 122.301 255.053 122.444 255.108 122.599C255.163 122.754 255.186 122.919 255.174 123.084L254.436 133.434C254.4 133.799 254.232 134.139 253.964 134.39C253.695 134.64 253.345 134.785 252.978 134.796H242.622C242.457 134.796 242.293 134.763 242.141 134.697C241.989 134.631 241.853 134.534 241.74 134.413C241.627 134.292 241.541 134.149 241.486 133.993C241.432 133.837 241.41 133.671 241.422 133.506L242.166 123.156C242.201 122.791 242.369 122.451 242.638 122.201C242.906 121.951 243.257 121.809 243.624 121.8H253.968H253.974ZM253.968 121.266H243.63C243.128 121.275 242.648 121.469 242.281 121.811C241.914 122.154 241.687 122.62 241.644 123.12L240.9 133.47C240.88 133.707 240.91 133.946 240.987 134.172C241.065 134.397 241.189 134.603 241.351 134.778C241.513 134.952 241.71 135.091 241.929 135.185C242.148 135.279 242.384 135.327 242.622 135.324H252.972C253.473 135.314 253.954 135.119 254.32 134.777C254.687 134.435 254.914 133.969 254.958 133.47L255.696 123.12C255.716 122.883 255.686 122.644 255.609 122.418C255.531 122.193 255.407 121.987 255.245 121.812C255.083 121.638 254.886 121.499 254.667 121.405C254.448 121.311 254.212 121.263 253.974 121.266H253.968Z" fill="#407BFF"/>
<path d="M238.8 179.058C238.939 179.054 239.077 179.08 239.206 179.134C239.334 179.188 239.449 179.268 239.544 179.37C239.638 179.473 239.71 179.594 239.754 179.727C239.799 179.859 239.815 179.999 239.802 180.138C239.776 180.45 239.635 180.74 239.406 180.954C239.178 181.168 238.879 181.29 238.566 181.296C238.427 181.3 238.288 181.274 238.159 181.221C238.03 181.167 237.915 181.086 237.82 180.984C237.725 180.881 237.653 180.76 237.609 180.627C237.565 180.495 237.55 180.355 237.564 180.216C237.589 179.904 237.73 179.612 237.959 179.398C238.187 179.184 238.487 179.063 238.8 179.058ZM238.8 178.53C238.355 178.537 237.928 178.709 237.602 179.013C237.276 179.317 237.075 179.73 237.036 180.174C237.017 180.385 237.042 180.598 237.11 180.799C237.179 181 237.289 181.185 237.433 181.34C237.577 181.496 237.753 181.619 237.948 181.703C238.143 181.786 238.354 181.827 238.566 181.824C239.012 181.817 239.44 181.644 239.766 181.339C240.092 181.034 240.293 180.619 240.33 180.174C240.349 179.963 240.323 179.751 240.254 179.55C240.185 179.35 240.075 179.167 239.931 179.012C239.787 178.857 239.611 178.734 239.417 178.651C239.222 178.568 239.012 178.527 238.8 178.53Z" fill="#407BFF"/>
<path d="M238.956 178.536L238.692 178.518L238.734 177.99L238.992 178.008L238.956 178.536Z" fill="#407BFF"/>
<path d="M239.07 176.928H238.806L238.884 175.848H239.148L239.07 176.928ZM239.226 174.756H238.962L239.04 173.676H239.304L239.226 174.756ZM239.382 172.59H239.118L239.196 171.504H239.46L239.382 172.59ZM239.538 170.424H239.274L239.352 169.338H239.616L239.538 170.424ZM239.694 168.258H239.43L239.508 167.172H239.772L239.694 168.258ZM239.85 166.092H239.586L239.664 165.006H239.928L239.85 166.092ZM240.006 163.92H239.742L239.82 162.84H240.084L240.006 163.92ZM240.162 161.754H239.898L239.976 160.668H240.24L240.162 161.754ZM240.318 159.588H240.054L240.132 158.502H240.396L240.318 159.588ZM240.468 157.422H240.204L240.282 156.336H240.546L240.468 157.422ZM240.624 155.256H240.36L240.438 154.17H240.702L240.624 155.256Z" fill="#407BFF"/>
<path d="M240.547 152.541L240.51 153.067L240.773 153.086L240.811 152.559L240.547 152.541Z" fill="#407BFF"/>
<path d="M251.868 152.838H156.864C156.604 152.84 156.346 152.788 156.108 152.685C155.869 152.582 155.654 152.429 155.478 152.238C155.3 152.047 155.164 151.82 155.078 151.573C154.993 151.327 154.959 151.065 154.98 150.804L155.454 144.264C155.499 143.729 155.741 143.23 156.134 142.864C156.527 142.498 157.041 142.291 157.578 142.284H252.6C252.86 142.282 253.117 142.335 253.355 142.438C253.593 142.541 253.807 142.692 253.984 142.882C254.16 143.072 254.296 143.297 254.381 143.542C254.466 143.787 254.499 144.047 254.478 144.306L254.01 150.846C253.967 151.386 253.723 151.89 253.326 152.258C252.93 152.627 252.41 152.834 251.868 152.838ZM157.578 142.86C157.185 142.866 156.808 143.018 156.521 143.286C156.234 143.555 156.057 143.92 156.024 144.312L155.556 150.852C155.541 151.034 155.563 151.216 155.622 151.389C155.681 151.561 155.775 151.72 155.898 151.854C156.022 151.985 156.172 152.089 156.338 152.16C156.505 152.23 156.684 152.265 156.864 152.262H251.868C252.262 152.257 252.639 152.106 252.927 151.837C253.214 151.569 253.391 151.202 253.422 150.81L253.896 144.27C253.91 144.091 253.887 143.911 253.829 143.741C253.77 143.571 253.677 143.415 253.555 143.283C253.434 143.151 253.286 143.045 253.122 142.972C252.957 142.899 252.78 142.861 252.6 142.86H157.578Z" fill="#407BFF"/>
<path opacity="0.8" fill-rule="evenodd" clip-rule="evenodd" d="M249.828 146.508H159.768C159.653 146.509 159.54 146.486 159.434 146.441C159.329 146.396 159.234 146.329 159.156 146.245C159.078 146.16 159.018 146.061 158.981 145.952C158.944 145.844 158.93 145.728 158.94 145.614C158.962 145.375 159.072 145.152 159.248 144.988C159.424 144.824 159.654 144.731 159.894 144.726H249.96C250.074 144.725 250.187 144.747 250.292 144.792C250.397 144.837 250.491 144.904 250.568 144.988C250.646 145.071 250.705 145.17 250.742 145.278C250.778 145.386 250.792 145.5 250.782 145.614C250.763 145.855 250.654 146.08 250.478 146.245C250.302 146.411 250.07 146.504 249.828 146.508Z" fill="white"/>
<path opacity="0.8" fill-rule="evenodd" clip-rule="evenodd" d="M234.822 150.258H159.498C159.384 150.259 159.271 150.237 159.166 150.192C159.062 150.147 158.967 150.08 158.89 149.996C158.813 149.913 158.754 149.814 158.717 149.706C158.68 149.598 158.666 149.484 158.676 149.37C158.695 149.129 158.804 148.904 158.98 148.739C159.157 148.573 159.388 148.48 159.63 148.476H234.948C235.068 148.471 235.187 148.492 235.298 148.537C235.408 148.583 235.508 148.652 235.589 148.74C235.67 148.828 235.731 148.933 235.767 149.047C235.804 149.161 235.815 149.281 235.8 149.4C235.771 149.638 235.655 149.857 235.474 150.015C235.294 150.173 235.062 150.26 234.822 150.258Z" fill="white"/>
</svg>
