<svg width="21" height="18" viewBox="0 0 21 18" fill="none" xmlns="http://www.w3.org/2000/svg">
<path d="M2 0C0.897 0 0 0.897 0 2V12C0 13.103 0.897 14 2 14H15C16.103 14 17 13.103 17 12V2C17 0.897 16.103 0 15 0H2ZM20 4C19.448 4 19 4.448 19 5V16H5C4.448 16 4 16.448 4 17C4 17.552 4.448 18 5 18H19C20.105 18 21 17.105 21 16V5C21 4.448 20.552 4 20 4ZM11.1289 6.35352C11.3062 6.35527 11.4826 6.4372 11.5996 6.5957L14.8828 11.0469C15.1718 11.4359 14.8923 12 14.4062 12H2.59375C2.09975 12 1.82391 11.4193 2.12891 11.0312L4.44336 8.08789C4.67636 7.79189 5.12328 7.78617 5.36328 8.07617L7.04688 10.1055C7.28988 10.3975 7.74166 10.3889 7.97266 10.0879L10.6523 6.58594C10.7723 6.42944 10.9517 6.35177 11.1289 6.35352Z" fill="#AEAEAE"/>
</svg>
