<svg width="376" height="513" viewBox="0 0 376 513" fill="none" xmlns="http://www.w3.org/2000/svg">
<ellipse cx="272" cy="488.5" rx="104" ry="24.5" fill="url(#paint0_radial)"/>
<path d="M289.74 345.899H264.749V365.203H289.74V345.899Z" fill="black"/>
<path d="M230.312 365.203C230.312 365.203 204.873 371.071 206.572 410.56C214.117 413.259 212.743 410.56 212.743 410.56C212.743 410.56 212.564 383.953 230.312 383.666C241.219 375.457 235.425 370.727 235.425 370.727L230.312 365.203Z" fill="black"/>
<path d="M257.751 401.03L267.208 488.745H274.794L292.768 398.131L257.751 401.03Z" fill="black"/>
<path d="M319.07 365.203C319.07 365.203 344.509 371.071 342.811 410.56C335.265 413.259 336.639 410.56 336.639 410.56C336.639 410.56 336.818 383.953 319.07 383.666C308.164 375.457 313.957 370.727 313.957 370.727L319.07 365.203Z" fill="black"/>
<path d="M229.646 345.937C224.826 327.595 197.606 218.333 262.815 201.372C328.023 184.41 359.486 254.644 326.124 338.575C322.399 346.365 255.392 356.386 229.646 345.937Z" fill="url(#paint1_linear)"/>
<path d="M230.312 357.485C230.312 357.485 276.224 369.443 324.973 357.485C322.269 384.762 317.26 397.797 317.26 397.797C317.26 397.797 255.435 405.074 234.094 397.797C230.409 378.392 230.312 357.485 230.312 357.485Z" fill="url(#paint2_linear)"/>
<path d="M206.49 409.6L199 421.466L209.624 414.652L216.06 420.319L212.287 409.6H206.49Z" fill="#3B98FF"/>
<path d="M342.894 409.6L350.384 421.466L339.76 414.652L333.325 420.319L337.098 409.6H342.894Z" fill="#3B98FF"/>
<path d="M276.283 309.222C299.64 309.222 318.575 290.208 318.575 266.754C318.575 243.299 299.64 224.285 276.283 224.285C252.925 224.285 233.99 243.299 233.99 266.754C233.99 290.208 252.925 309.222 276.283 309.222Z" fill="white"/>
<path d="M274.361 284.127C284.978 284.127 293.584 275.484 293.584 264.823C293.584 254.162 284.978 245.519 274.361 245.519C263.744 245.519 255.137 254.162 255.137 264.823C255.137 275.484 263.744 284.127 274.361 284.127Z" fill="#B2D7FF"/>
<path d="M272.439 276.405C277.748 276.405 282.051 272.084 282.051 266.754C282.051 261.423 277.748 257.102 272.439 257.102C267.131 257.102 262.827 261.423 262.827 266.754C262.827 272.084 267.131 276.405 272.439 276.405Z" fill="black"/>
<path d="M287.118 198.825L292.573 156.146L287.118 198.825Z" fill="#3B98FF"/>
<path d="M287.118 198.825L292.573 156.146" stroke="black" stroke-width="4"/>
<path d="M293.584 156.721C295.707 156.721 297.429 154.993 297.429 152.861C297.429 150.729 295.707 149 293.584 149C291.461 149 289.739 150.729 289.739 152.861C289.739 154.993 291.461 156.721 293.584 156.721Z" fill="#3B98FF"/>
<path d="M284.933 329.491C284.933 323.716 280.199 319.034 274.36 319.034C268.521 319.034 263.787 323.716 263.787 329.491C263.787 335.266 268.521 339.947 274.36 339.947C280.199 339.947 284.933 335.266 284.933 329.491Z" fill="white"/>
<path d="M284.314 329.491C284.314 324.059 279.858 319.656 274.361 319.656C268.864 319.656 264.407 324.059 264.407 329.491C264.407 334.922 268.864 339.325 274.361 339.325C279.858 339.325 284.314 334.922 284.314 329.491Z" stroke="black" stroke-width="4"/>
<path d="M147.312 195.598L147.312 195.598L152.301 194.436L155.608 198.291L147.312 195.598ZM147.312 195.598C137.955 197.777 128.852 198.848 119.5 198.848C58.5462 198.848 8.39131 156.418 8.39131 103.616C8.39131 50.7946 58.5459 8.36364 119.5 8.36364C180.454 8.36364 230.609 50.7946 230.609 103.616C230.609 132.737 214.889 159.916 187.756 178.224L187.755 178.225L183.873 180.839L184.069 185.489L184.07 185.507L184.07 185.525C184.127 187.818 184.364 190.471 185.786 195.673L185.789 195.684C187.589 202.412 190.365 209.141 194.067 215.771L196.112 219.435M147.312 195.598L196.112 219.435M196.112 219.435L191.978 218.716M196.112 219.435L191.978 218.716M191.978 218.716C171.642 215.183 159.307 202.611 155.61 198.293L191.978 218.716ZM190.443 185.222L190.403 184.111L191.325 183.49C219.092 164.782 237 136.249 237 103.616C237 47.3777 184.518 2 119.5 2C54.4814 2 2 47.3779 2 103.596C2 159.814 54.5015 205.192 119.5 205.192C129.65 205.192 139.34 203.996 148.776 201.783L149.96 201.506L150.751 202.428C153.531 205.669 171.632 226 202.874 226H208.326L205.214 221.557L205.213 221.555C197.601 210.663 193.814 200.975 191.932 194.032L191.932 194.029C190.544 188.878 190.487 186.784 190.453 185.54C190.45 185.427 190.447 185.322 190.443 185.222Z" fill="#71B4FF" stroke="white" stroke-width="4"/>
<path d="M42.8042 88.456C43.0602 88.5947 43.1882 88.808 43.1882 89.096C43.1882 89.288 43.1242 89.464 42.9962 89.624C42.8682 89.7947 42.6922 89.88 42.4682 89.88C42.3189 89.88 42.1749 89.8427 42.0362 89.768C41.3749 89.3947 40.6602 89.208 39.8922 89.208C39.0922 89.208 38.3829 89.384 37.7642 89.736C37.1562 90.088 36.6815 90.584 36.3402 91.224C35.9989 91.8533 35.8282 92.5787 35.8282 93.4C35.8282 94.2853 36.0042 95.048 36.3562 95.688C36.7082 96.328 37.1935 96.8187 37.8122 97.16C38.4309 97.4907 39.1242 97.656 39.8922 97.656C40.6815 97.656 41.3962 97.464 42.0362 97.08C42.1642 97.016 42.3029 96.984 42.4522 96.984C42.6869 96.984 42.8735 97.0747 43.0122 97.256C43.1402 97.416 43.2042 97.5867 43.2042 97.768C43.2042 97.896 43.1669 98.0187 43.0922 98.136C43.0282 98.2427 42.9375 98.328 42.8202 98.392C42.4042 98.6267 41.9349 98.8133 41.4122 98.952C40.9002 99.0907 40.3935 99.16 39.8922 99.16C38.8575 99.16 37.9029 98.9307 37.0282 98.472C36.1642 98.0133 35.4709 97.3467 34.9482 96.472C34.4362 95.5973 34.1802 94.5733 34.1802 93.4C34.1802 92.3227 34.4255 91.352 34.9162 90.488C35.4175 89.6133 36.1002 88.9307 36.9642 88.44C37.8389 87.9387 38.8149 87.688 39.8922 87.688C40.9269 87.688 41.8975 87.944 42.8042 88.456ZM49.0073 90.472C50.8846 90.472 51.8233 91.6347 51.8233 93.96V98.232C51.8233 98.4453 51.7486 98.6267 51.5993 98.776C51.4606 98.9253 51.2793 99 51.0553 99C50.842 99 50.6606 98.9253 50.5113 98.776C50.3726 98.6267 50.3033 98.4453 50.3033 98.232V93.96C50.3033 92.5733 49.7166 91.88 48.5433 91.88C47.914 91.88 47.3913 92.0827 46.9753 92.488C46.5593 92.8827 46.3513 93.3733 46.3513 93.96V98.232C46.3513 98.4453 46.2766 98.6267 46.1273 98.776C45.9886 98.9253 45.8073 99 45.5833 99C45.3593 99 45.178 98.9307 45.0393 98.792C44.9006 98.6427 44.8313 98.456 44.8313 98.232V87.928C44.8313 87.7147 44.9006 87.5333 45.0393 87.384C45.1886 87.2347 45.37 87.16 45.5833 87.16C45.8073 87.16 45.9886 87.2347 46.1273 87.384C46.2766 87.5333 46.3513 87.7147 46.3513 87.928V91.976C46.618 91.56 46.9913 91.208 47.4713 90.92C47.9513 90.6213 48.4633 90.472 49.0073 90.472ZM62.0329 94.808C62.0329 95.64 61.8463 96.3867 61.4729 97.048C61.0996 97.7093 60.5876 98.2267 59.9369 98.6C59.2969 98.9733 58.5876 99.16 57.8089 99.16C57.0303 99.16 56.3156 98.9733 55.6649 98.6C55.0249 98.2267 54.5183 97.7093 54.1449 97.048C53.7716 96.3867 53.5849 95.64 53.5849 94.808C53.5849 93.976 53.7716 93.224 54.1449 92.552C54.5183 91.88 55.0249 91.3573 55.6649 90.984C56.3156 90.6107 57.0303 90.424 57.8089 90.424C58.5876 90.424 59.2969 90.6107 59.9369 90.984C60.5876 91.3573 61.0996 91.88 61.4729 92.552C61.8463 93.224 62.0329 93.976 62.0329 94.808ZM60.5129 94.808C60.5129 94.232 60.3903 93.72 60.1449 93.272C59.9103 92.8133 59.5849 92.4613 59.1689 92.216C58.7636 91.96 58.3103 91.832 57.8089 91.832C57.3076 91.832 56.8489 91.96 56.4329 92.216C56.0276 92.4613 55.7023 92.8133 55.4569 93.272C55.2223 93.72 55.1049 94.232 55.1049 94.808C55.1049 95.3733 55.2223 95.88 55.4569 96.328C55.7023 96.776 56.0276 97.128 56.4329 97.384C56.8489 97.6293 57.3076 97.752 57.8089 97.752C58.3103 97.752 58.7636 97.6293 59.1689 97.384C59.5849 97.128 59.9103 96.776 60.1449 96.328C60.3903 95.88 60.5129 95.3733 60.5129 94.808ZM71.7361 94.808C71.7361 95.64 71.5494 96.3867 71.1761 97.048C70.8027 97.7093 70.2907 98.2267 69.6401 98.6C69.0001 98.9733 68.2907 99.16 67.5121 99.16C66.7334 99.16 66.0187 98.9733 65.3681 98.6C64.7281 98.2267 64.2214 97.7093 63.8481 97.048C63.4747 96.3867 63.2881 95.64 63.2881 94.808C63.2881 93.976 63.4747 93.224 63.8481 92.552C64.2214 91.88 64.7281 91.3573 65.3681 90.984C66.0187 90.6107 66.7334 90.424 67.5121 90.424C68.2907 90.424 69.0001 90.6107 69.6401 90.984C70.2907 91.3573 70.8027 91.88 71.1761 92.552C71.5494 93.224 71.7361 93.976 71.7361 94.808ZM70.2161 94.808C70.2161 94.232 70.0934 93.72 69.8481 93.272C69.6134 92.8133 69.2881 92.4613 68.8721 92.216C68.4667 91.96 68.0134 91.832 67.5121 91.832C67.0107 91.832 66.5521 91.96 66.1361 92.216C65.7307 92.4613 65.4054 92.8133 65.1601 93.272C64.9254 93.72 64.8081 94.232 64.8081 94.808C64.8081 95.3733 64.9254 95.88 65.1601 96.328C65.4054 96.776 65.7307 97.128 66.1361 97.384C66.5521 97.6293 67.0107 97.752 67.5121 97.752C68.0134 97.752 68.4667 97.6293 68.8721 97.384C69.2881 97.128 69.6134 96.776 69.8481 96.328C70.0934 95.88 70.2161 95.3733 70.2161 94.808ZM73.0232 97.688C72.9272 97.5387 72.8792 97.3947 72.8792 97.256C72.8792 97.0427 72.9912 96.8613 73.2152 96.712C73.3219 96.6373 73.4445 96.6 73.5832 96.6C73.7752 96.6 73.9512 96.68 74.1112 96.84C74.4312 97.2027 74.7725 97.4747 75.1352 97.656C75.5085 97.8373 75.9512 97.928 76.4632 97.928C76.8685 97.9173 77.2259 97.8267 77.5352 97.656C77.8445 97.4747 77.9992 97.1867 77.9992 96.792C77.9992 96.4293 77.8392 96.152 77.5192 95.96C77.2099 95.768 76.7512 95.592 76.1432 95.432C75.5459 95.272 75.0499 95.1067 74.6552 94.936C74.2605 94.7547 73.9245 94.4987 73.6472 94.168C73.3805 93.8267 73.2472 93.384 73.2472 92.84C73.2472 92.36 73.3805 91.9387 73.6472 91.576C73.9245 91.2133 74.2872 90.9307 74.7352 90.728C75.1939 90.5253 75.6899 90.424 76.2232 90.424C76.7352 90.424 77.2419 90.52 77.7432 90.712C78.2552 90.904 78.6712 91.1973 78.9912 91.592C79.1192 91.7413 79.1832 91.896 79.1832 92.056C79.1832 92.2267 79.0979 92.392 78.9272 92.552C78.8205 92.648 78.6872 92.696 78.5272 92.696C78.3352 92.696 78.1805 92.632 78.0632 92.504C77.8392 92.248 77.5619 92.0507 77.2312 91.912C76.9112 91.7733 76.5539 91.704 76.1592 91.704C75.7539 91.704 75.4072 91.7893 75.1192 91.96C74.8419 92.12 74.7032 92.3973 74.7032 92.792C74.7139 93.1653 74.8739 93.4427 75.1832 93.624C75.5032 93.8053 75.9885 93.9813 76.6392 94.152C77.2045 94.3013 77.6739 94.4613 78.0472 94.632C78.4205 94.8027 78.7352 95.0587 78.9912 95.4C79.2472 95.7307 79.3752 96.168 79.3752 96.712C79.3752 97.2133 79.2312 97.6507 78.9432 98.024C78.6552 98.3867 78.2765 98.6693 77.8072 98.872C77.3485 99.064 76.8579 99.16 76.3352 99.16C75.6632 99.16 75.0392 99.0427 74.4632 98.808C73.8979 98.5733 73.4179 98.2 73.0232 97.688ZM88.4882 94.488C88.4775 94.68 88.3975 94.8453 88.2482 94.984C88.0989 95.112 87.9229 95.176 87.7202 95.176H82.0882C82.1629 95.9547 82.4562 96.5787 82.9682 97.048C83.4909 97.5173 84.1255 97.752 84.8722 97.752C85.3842 97.752 85.8002 97.6773 86.1202 97.528C86.4402 97.3787 86.7229 97.1867 86.9682 96.952C87.1282 96.856 87.2829 96.808 87.4322 96.808C87.6135 96.808 87.7629 96.872 87.8802 97C88.0082 97.128 88.0722 97.2773 88.0722 97.448C88.0722 97.672 87.9655 97.8747 87.7522 98.056C87.4429 98.3653 87.0322 98.6267 86.5202 98.84C86.0082 99.0533 85.4855 99.16 84.9522 99.16C84.0882 99.16 83.3255 98.9787 82.6642 98.616C82.0135 98.2533 81.5069 97.7467 81.1442 97.096C80.7922 96.4453 80.6162 95.7093 80.6162 94.888C80.6162 93.992 80.7975 93.208 81.1602 92.536C81.5335 91.8533 82.0189 91.3307 82.6162 90.968C83.2242 90.6053 83.8749 90.424 84.5682 90.424C85.2509 90.424 85.8909 90.6 86.4882 90.952C87.0855 91.304 87.5655 91.7893 87.9282 92.408C88.2909 93.0267 88.4775 93.72 88.4882 94.488ZM84.5682 91.832C83.9709 91.832 83.4535 92.0027 83.0162 92.344C82.5789 92.6747 82.2909 93.192 82.1522 93.896H86.8722V93.768C86.8189 93.2027 86.5629 92.7387 86.1042 92.376C85.6562 92.0133 85.1442 91.832 84.5682 91.832ZM96.9627 92.104V96.872C96.9627 97.4053 97.2027 97.672 97.6827 97.672C97.7574 97.672 97.8587 97.656 97.9867 97.624C98.1147 97.5813 98.216 97.56 98.2907 97.56C98.4294 97.56 98.5467 97.6187 98.6427 97.736C98.7387 97.8533 98.7867 98.0027 98.7867 98.184C98.7867 98.408 98.6587 98.6 98.4027 98.76C98.1467 98.92 97.8587 99 97.5387 99C97.1867 99 96.8614 98.9627 96.5627 98.888C96.2747 98.8133 96.0134 98.6267 95.7787 98.328C95.5547 98.0187 95.4427 97.5547 95.4427 96.936V92.104H94.5147C94.312 92.104 94.1414 92.04 94.0027 91.912C93.8747 91.7733 93.8107 91.6027 93.8107 91.4C93.8107 91.1973 93.8747 91.032 94.0027 90.904C94.1414 90.776 94.312 90.712 94.5147 90.712H95.4427V89.368C95.4427 89.1547 95.512 88.9733 95.6507 88.824C95.8 88.6747 95.9867 88.6 96.2107 88.6C96.424 88.6 96.6 88.6747 96.7387 88.824C96.888 88.9733 96.9627 89.1547 96.9627 89.368V90.712H98.2907C98.4934 90.712 98.6587 90.7813 98.7867 90.92C98.9254 91.048 98.9947 91.2133 98.9947 91.416C98.9947 91.6187 98.9254 91.784 98.7867 91.912C98.6587 92.04 98.4934 92.104 98.2907 92.104H96.9627ZM104.945 90.472C106.822 90.472 107.761 91.6347 107.761 93.96V98.232C107.761 98.4453 107.686 98.6267 107.537 98.776C107.398 98.9253 107.217 99 106.993 99C106.779 99 106.598 98.9253 106.449 98.776C106.31 98.6267 106.241 98.4453 106.241 98.232V93.96C106.241 92.5733 105.654 91.88 104.481 91.88C103.851 91.88 103.329 92.0827 102.913 92.488C102.497 92.8827 102.289 93.3733 102.289 93.96V98.232C102.289 98.4453 102.214 98.6267 102.065 98.776C101.926 98.9253 101.745 99 101.521 99C101.297 99 101.115 98.9307 100.977 98.792C100.838 98.6427 100.769 98.456 100.769 98.232V87.928C100.769 87.7147 100.838 87.5333 100.977 87.384C101.126 87.2347 101.307 87.16 101.521 87.16C101.745 87.16 101.926 87.2347 102.065 87.384C102.214 87.5333 102.289 87.7147 102.289 87.928V91.976C102.555 91.56 102.929 91.208 103.409 90.92C103.889 90.6213 104.401 90.472 104.945 90.472ZM117.394 94.488C117.384 94.68 117.304 94.8453 117.154 94.984C117.005 95.112 116.829 95.176 116.626 95.176H110.994C111.069 95.9547 111.362 96.5787 111.874 97.048C112.397 97.5173 113.032 97.752 113.778 97.752C114.29 97.752 114.706 97.6773 115.026 97.528C115.346 97.3787 115.629 97.1867 115.874 96.952C116.034 96.856 116.189 96.808 116.338 96.808C116.52 96.808 116.669 96.872 116.786 97C116.914 97.128 116.978 97.2773 116.978 97.448C116.978 97.672 116.872 97.8747 116.658 98.056C116.349 98.3653 115.938 98.6267 115.426 98.84C114.914 99.0533 114.392 99.16 113.858 99.16C112.994 99.16 112.232 98.9787 111.57 98.616C110.92 98.2533 110.413 97.7467 110.05 97.096C109.698 96.4453 109.522 95.7093 109.522 94.888C109.522 93.992 109.704 93.208 110.066 92.536C110.44 91.8533 110.925 91.3307 111.522 90.968C112.13 90.6053 112.781 90.424 113.474 90.424C114.157 90.424 114.797 90.6 115.394 90.952C115.992 91.304 116.472 91.7893 116.834 92.408C117.197 93.0267 117.384 93.72 117.394 94.488ZM113.474 91.832C112.877 91.832 112.36 92.0027 111.922 92.344C111.485 92.6747 111.197 93.192 111.058 93.896H115.778V93.768C115.725 93.2027 115.469 92.7387 115.01 92.376C114.562 92.0133 114.05 91.832 113.474 91.832ZM131.533 94.808C131.533 95.64 131.346 96.3867 130.973 97.048C130.6 97.7093 130.088 98.2267 129.437 98.6C128.797 98.9733 128.088 99.16 127.309 99.16C126.53 99.16 125.816 98.9733 125.165 98.6C124.525 98.2267 124.018 97.7093 123.645 97.048C123.272 96.3867 123.085 95.64 123.085 94.808C123.085 93.976 123.272 93.224 123.645 92.552C124.018 91.88 124.525 91.3573 125.165 90.984C125.816 90.6107 126.53 90.424 127.309 90.424C128.088 90.424 128.797 90.6107 129.437 90.984C130.088 91.3573 130.6 91.88 130.973 92.552C131.346 93.224 131.533 93.976 131.533 94.808ZM130.013 94.808C130.013 94.232 129.89 93.72 129.645 93.272C129.41 92.8133 129.085 92.4613 128.669 92.216C128.264 91.96 127.81 91.832 127.309 91.832C126.808 91.832 126.349 91.96 125.933 92.216C125.528 92.4613 125.202 92.8133 124.957 93.272C124.722 93.72 124.605 94.232 124.605 94.808C124.605 95.3733 124.722 95.88 124.957 96.328C125.202 96.776 125.528 97.128 125.933 97.384C126.349 97.6293 126.808 97.752 127.309 97.752C127.81 97.752 128.264 97.6293 128.669 97.384C129.085 97.128 129.41 96.776 129.645 96.328C129.89 95.88 130.013 95.3733 130.013 94.808ZM137.508 90.472C138.233 90.472 138.889 90.6587 139.476 91.032C140.063 91.3947 140.521 91.9067 140.852 92.568C141.193 93.2293 141.364 93.976 141.364 94.808C141.364 95.64 141.193 96.3867 140.852 97.048C140.521 97.6987 140.063 98.2107 139.476 98.584C138.889 98.9573 138.244 99.144 137.54 99.144C136.985 99.144 136.468 99.0213 135.988 98.776C135.508 98.5307 135.119 98.232 134.82 97.88V101.432C134.82 101.645 134.745 101.827 134.596 101.976C134.457 102.125 134.276 102.2 134.052 102.2C133.839 102.2 133.657 102.125 133.508 101.976C133.369 101.837 133.3 101.656 133.3 101.432V91.368C133.3 91.144 133.369 90.9573 133.508 90.808C133.647 90.6587 133.828 90.584 134.052 90.584C134.276 90.584 134.457 90.6587 134.596 90.808C134.745 90.9573 134.82 91.144 134.82 91.368V91.832C135.076 91.4587 135.449 91.1387 135.94 90.872C136.431 90.6053 136.953 90.472 137.508 90.472ZM137.332 97.736C137.823 97.736 138.265 97.608 138.66 97.352C139.055 97.096 139.359 96.7493 139.572 96.312C139.796 95.864 139.908 95.3627 139.908 94.808C139.908 94.2533 139.796 93.7573 139.572 93.32C139.359 92.872 139.055 92.52 138.66 92.264C138.265 92.008 137.823 91.88 137.332 91.88C136.831 91.88 136.383 92.008 135.988 92.264C135.593 92.5093 135.284 92.856 135.06 93.304C134.847 93.752 134.74 94.2533 134.74 94.808C134.74 95.3627 134.847 95.864 135.06 96.312C135.284 96.76 135.593 97.112 135.988 97.368C136.383 97.6133 136.831 97.736 137.332 97.736ZM145.4 92.104V96.872C145.4 97.4053 145.64 97.672 146.12 97.672C146.195 97.672 146.296 97.656 146.424 97.624C146.552 97.5813 146.654 97.56 146.728 97.56C146.867 97.56 146.984 97.6187 147.08 97.736C147.176 97.8533 147.224 98.0027 147.224 98.184C147.224 98.408 147.096 98.6 146.84 98.76C146.584 98.92 146.296 99 145.976 99C145.624 99 145.299 98.9627 145 98.888C144.712 98.8133 144.451 98.6267 144.216 98.328C143.992 98.0187 143.88 97.5547 143.88 96.936V92.104H142.952C142.75 92.104 142.579 92.04 142.44 91.912C142.312 91.7733 142.248 91.6027 142.248 91.4C142.248 91.1973 142.312 91.032 142.44 90.904C142.579 90.776 142.75 90.712 142.952 90.712H143.88V89.368C143.88 89.1547 143.95 88.9733 144.088 88.824C144.238 88.6747 144.424 88.6 144.648 88.6C144.862 88.6 145.038 88.6747 145.176 88.824C145.326 88.9733 145.4 89.1547 145.4 89.368V90.712H146.728C146.931 90.712 147.096 90.7813 147.224 90.92C147.363 91.048 147.432 91.2133 147.432 91.416C147.432 91.6187 147.363 91.784 147.224 91.912C147.096 92.04 146.931 92.104 146.728 92.104H145.4ZM150.646 98.232C150.646 98.4453 150.572 98.6267 150.422 98.776C150.284 98.9253 150.102 99 149.878 99C149.665 99 149.484 98.9253 149.334 98.776C149.196 98.6267 149.126 98.4453 149.126 98.232V91.304C149.126 91.0907 149.196 90.9093 149.334 90.76C149.484 90.6107 149.665 90.536 149.878 90.536C150.102 90.536 150.284 90.6107 150.422 90.76C150.572 90.9093 150.646 91.0907 150.646 91.304V98.232ZM149.878 89.48C149.569 89.48 149.345 89.4267 149.206 89.32C149.078 89.2027 149.014 89.0213 149.014 88.776V88.52C149.014 88.264 149.084 88.0827 149.222 87.976C149.372 87.8693 149.596 87.816 149.894 87.816C150.193 87.816 150.406 87.8747 150.534 87.992C150.673 88.0987 150.742 88.2747 150.742 88.52V88.776C150.742 89.032 150.673 89.2133 150.534 89.32C150.396 89.4267 150.177 89.48 149.878 89.48ZM160.767 94.808C160.767 95.64 160.581 96.3867 160.207 97.048C159.834 97.7093 159.322 98.2267 158.671 98.6C158.031 98.9733 157.322 99.16 156.543 99.16C155.765 99.16 155.05 98.9733 154.399 98.6C153.759 98.2267 153.253 97.7093 152.879 97.048C152.506 96.3867 152.319 95.64 152.319 94.808C152.319 93.976 152.506 93.224 152.879 92.552C153.253 91.88 153.759 91.3573 154.399 90.984C155.05 90.6107 155.765 90.424 156.543 90.424C157.322 90.424 158.031 90.6107 158.671 90.984C159.322 91.3573 159.834 91.88 160.207 92.552C160.581 93.224 160.767 93.976 160.767 94.808ZM159.247 94.808C159.247 94.232 159.125 93.72 158.879 93.272C158.645 92.8133 158.319 92.4613 157.903 92.216C157.498 91.96 157.045 91.832 156.543 91.832C156.042 91.832 155.583 91.96 155.167 92.216C154.762 92.4613 154.437 92.8133 154.191 93.272C153.957 93.72 153.839 94.232 153.839 94.808C153.839 95.3733 153.957 95.88 154.191 96.328C154.437 96.776 154.762 97.128 155.167 97.384C155.583 97.6293 156.042 97.752 156.543 97.752C157.045 97.752 157.498 97.6293 157.903 97.384C158.319 97.128 158.645 96.776 158.879 96.328C159.125 95.88 159.247 95.3733 159.247 94.808ZM166.806 90.424C168.726 90.424 169.686 91.576 169.686 93.88V98.232C169.686 98.4453 169.612 98.6267 169.462 98.776C169.324 98.9253 169.142 99 168.918 99C168.705 99 168.524 98.9253 168.374 98.776C168.236 98.6267 168.166 98.4453 168.166 98.232V93.896C168.166 93.2667 168.022 92.7653 167.734 92.392C167.446 92.0187 166.977 91.832 166.326 91.832C165.9 91.832 165.51 91.928 165.158 92.12C164.817 92.3013 164.545 92.552 164.342 92.872C164.15 93.1813 164.054 93.5227 164.054 93.896V98.232C164.054 98.4453 163.98 98.6267 163.83 98.776C163.692 98.9253 163.51 99 163.286 99C163.062 99 162.881 98.9307 162.742 98.792C162.604 98.6427 162.534 98.456 162.534 98.232V91.384C162.534 91.1707 162.604 90.9893 162.742 90.84C162.892 90.6907 163.073 90.616 163.286 90.616C163.51 90.616 163.692 90.6907 163.83 90.84C163.98 90.9893 164.054 91.1707 164.054 91.384V91.944C164.332 91.5173 164.716 91.16 165.206 90.872C165.708 90.5733 166.241 90.424 166.806 90.424ZM178.666 92.104V96.872C178.666 97.4053 178.906 97.672 179.386 97.672C179.46 97.672 179.562 97.656 179.69 97.624C179.818 97.5813 179.919 97.56 179.994 97.56C180.132 97.56 180.25 97.6187 180.346 97.736C180.442 97.8533 180.49 98.0027 180.49 98.184C180.49 98.408 180.362 98.6 180.106 98.76C179.85 98.92 179.562 99 179.242 99C178.89 99 178.564 98.9627 178.266 98.888C177.978 98.8133 177.716 98.6267 177.482 98.328C177.258 98.0187 177.146 97.5547 177.146 96.936V92.104H176.218C176.015 92.104 175.844 92.04 175.706 91.912C175.578 91.7733 175.514 91.6027 175.514 91.4C175.514 91.1973 175.578 91.032 175.706 90.904C175.844 90.776 176.015 90.712 176.218 90.712H177.146V89.368C177.146 89.1547 177.215 88.9733 177.354 88.824C177.503 88.6747 177.69 88.6 177.914 88.6C178.127 88.6 178.303 88.6747 178.442 88.824C178.591 88.9733 178.666 89.1547 178.666 89.368V90.712H179.994C180.196 90.712 180.362 90.7813 180.49 90.92C180.628 91.048 180.698 91.2133 180.698 91.416C180.698 91.6187 180.628 91.784 180.49 91.912C180.362 92.04 180.196 92.104 179.994 92.104H178.666ZM186.648 90.472C188.525 90.472 189.464 91.6347 189.464 93.96V98.232C189.464 98.4453 189.389 98.6267 189.24 98.776C189.101 98.9253 188.92 99 188.696 99C188.483 99 188.301 98.9253 188.152 98.776C188.013 98.6267 187.944 98.4453 187.944 98.232V93.96C187.944 92.5733 187.357 91.88 186.184 91.88C185.555 91.88 185.032 92.0827 184.616 92.488C184.2 92.8827 183.992 93.3733 183.992 93.96V98.232C183.992 98.4453 183.917 98.6267 183.768 98.776C183.629 98.9253 183.448 99 183.224 99C183 99 182.819 98.9307 182.68 98.792C182.541 98.6427 182.472 98.456 182.472 98.232V87.928C182.472 87.7147 182.541 87.5333 182.68 87.384C182.829 87.2347 183.011 87.16 183.224 87.16C183.448 87.16 183.629 87.2347 183.768 87.384C183.917 87.5333 183.992 87.7147 183.992 87.928V91.976C184.259 91.56 184.632 91.208 185.112 90.92C185.592 90.6213 186.104 90.472 186.648 90.472ZM198.538 90.504C198.762 90.504 198.943 90.5787 199.082 90.728C199.231 90.8667 199.306 91.0533 199.306 91.288V98.232C199.306 98.4453 199.231 98.6267 199.082 98.776C198.943 98.9253 198.762 99 198.538 99C198.314 99 198.132 98.9307 197.994 98.792C197.855 98.6427 197.786 98.456 197.786 98.232V97.816C197.508 98.1893 197.13 98.5093 196.65 98.776C196.17 99.032 195.652 99.16 195.098 99.16C194.372 99.16 193.711 98.9733 193.114 98.6C192.527 98.2267 192.063 97.7093 191.722 97.048C191.391 96.376 191.226 95.624 191.226 94.792C191.226 93.96 191.391 93.2133 191.722 92.552C192.063 91.88 192.527 91.3573 193.114 90.984C193.7 90.6107 194.346 90.424 195.05 90.424C195.615 90.424 196.138 90.5413 196.618 90.776C197.108 91.0107 197.498 91.3093 197.786 91.672V91.288C197.786 91.064 197.855 90.8773 197.994 90.728C198.132 90.5787 198.314 90.504 198.538 90.504ZM195.274 97.752C195.775 97.752 196.218 97.624 196.602 97.368C196.996 97.112 197.3 96.76 197.514 96.312C197.738 95.864 197.85 95.3573 197.85 94.792C197.85 94.2373 197.738 93.736 197.514 93.288C197.3 92.84 196.996 92.488 196.602 92.232C196.218 91.9653 195.775 91.832 195.274 91.832C194.772 91.832 194.324 91.96 193.93 92.216C193.546 92.472 193.242 92.824 193.018 93.272C192.804 93.72 192.698 94.2267 192.698 94.792C192.698 95.3573 192.804 95.864 193.018 96.312C193.242 96.76 193.546 97.112 193.93 97.368C194.324 97.624 194.772 97.752 195.274 97.752ZM203.838 92.104V96.872C203.838 97.4053 204.078 97.672 204.558 97.672C204.632 97.672 204.734 97.656 204.862 97.624C204.99 97.5813 205.091 97.56 205.166 97.56C205.304 97.56 205.422 97.6187 205.518 97.736C205.614 97.8533 205.662 98.0027 205.662 98.184C205.662 98.408 205.534 98.6 205.278 98.76C205.022 98.92 204.734 99 204.414 99C204.062 99 203.736 98.9627 203.438 98.888C203.15 98.8133 202.888 98.6267 202.654 98.328C202.43 98.0187 202.318 97.5547 202.318 96.936V92.104H201.39C201.187 92.104 201.016 92.04 200.878 91.912C200.75 91.7733 200.686 91.6027 200.686 91.4C200.686 91.1973 200.75 91.032 200.878 90.904C201.016 90.776 201.187 90.712 201.39 90.712H202.318V89.368C202.318 89.1547 202.387 88.9733 202.526 88.824C202.675 88.6747 202.862 88.6 203.086 88.6C203.299 88.6 203.475 88.6747 203.614 88.824C203.763 88.9733 203.838 89.1547 203.838 89.368V90.712H205.166C205.368 90.712 205.534 90.7813 205.662 90.92C205.8 91.048 205.87 91.2133 205.87 91.416C205.87 91.6187 205.8 91.784 205.662 91.912C205.534 92.04 205.368 92.104 205.166 92.104H203.838ZM53.5088 110.536C53.7328 110.536 53.9141 110.611 54.0528 110.76C54.2021 110.909 54.2768 111.091 54.2768 111.304V118.216C54.2768 119.549 53.9088 120.547 53.1728 121.208C52.4368 121.869 51.4661 122.2 50.2608 122.2C49.8661 122.2 49.4768 122.163 49.0928 122.088C48.7088 122.013 48.3941 121.912 48.1488 121.784C47.7541 121.603 47.5568 121.357 47.5568 121.048C47.5568 120.995 47.5675 120.925 47.5888 120.84C47.6528 120.659 47.7435 120.52 47.8608 120.424C47.9781 120.328 48.1115 120.28 48.2608 120.28C48.3461 120.28 48.4261 120.296 48.5008 120.328C48.8315 120.477 49.1248 120.595 49.3808 120.68C49.6368 120.765 49.9355 120.808 50.2768 120.808C51.9301 120.808 52.7568 119.96 52.7568 118.264V117.944C52.4688 118.328 52.0955 118.627 51.6368 118.84C51.1888 119.053 50.6715 119.16 50.0848 119.16C49.1995 119.16 48.5061 118.877 48.0048 118.312C47.5141 117.747 47.2688 117.005 47.2688 116.088V111.304C47.2688 111.08 47.3381 110.899 47.4768 110.76C47.6155 110.611 47.7968 110.536 48.0208 110.536C48.2448 110.536 48.4261 110.611 48.5648 110.76C48.7141 110.909 48.7888 111.091 48.7888 111.304V115.688C48.7888 116.392 48.9435 116.915 49.2528 117.256C49.5621 117.587 50.0315 117.752 50.6608 117.752C51.2688 117.752 51.7701 117.56 52.1648 117.176C52.5595 116.792 52.7568 116.296 52.7568 115.688V111.304C52.7568 111.08 52.8261 110.899 52.9648 110.76C53.1035 110.611 53.2848 110.536 53.5088 110.536ZM64.3923 114.808C64.3923 115.64 64.2056 116.387 63.8323 117.048C63.459 117.709 62.947 118.227 62.2963 118.6C61.6563 118.973 60.947 119.16 60.1683 119.16C59.3896 119.16 58.675 118.973 58.0243 118.6C57.3843 118.227 56.8776 117.709 56.5043 117.048C56.131 116.387 55.9443 115.64 55.9443 114.808C55.9443 113.976 56.131 113.224 56.5043 112.552C56.8776 111.88 57.3843 111.357 58.0243 110.984C58.675 110.611 59.3896 110.424 60.1683 110.424C60.947 110.424 61.6563 110.611 62.2963 110.984C62.947 111.357 63.459 111.88 63.8323 112.552C64.2056 113.224 64.3923 113.976 64.3923 114.808ZM62.8723 114.808C62.8723 114.232 62.7496 113.72 62.5043 113.272C62.2696 112.813 61.9443 112.461 61.5283 112.216C61.123 111.96 60.6696 111.832 60.1683 111.832C59.667 111.832 59.2083 111.96 58.7923 112.216C58.387 112.461 58.0616 112.813 57.8163 113.272C57.5816 113.72 57.4643 114.232 57.4643 114.808C57.4643 115.373 57.5816 115.88 57.8163 116.328C58.0616 116.776 58.387 117.128 58.7923 117.384C59.2083 117.629 59.667 117.752 60.1683 117.752C60.6696 117.752 61.123 117.629 61.5283 117.384C61.9443 117.128 62.2696 116.776 62.5043 116.328C62.7496 115.88 62.8723 115.373 62.8723 114.808ZM72.3994 110.616C72.6234 110.616 72.8048 110.691 72.9434 110.84C73.0928 110.989 73.1674 111.171 73.1674 111.384V115.64C73.1674 116.749 72.8581 117.613 72.2394 118.232C71.6314 118.84 70.7674 119.144 69.6474 119.144C68.5381 119.144 67.6794 118.84 67.0714 118.232C66.4634 117.613 66.1594 116.749 66.1594 115.64V111.384C66.1594 111.171 66.2288 110.989 66.3674 110.84C66.5168 110.691 66.6981 110.616 66.9114 110.616C67.1354 110.616 67.3168 110.691 67.4554 110.84C67.6048 110.989 67.6794 111.171 67.6794 111.384V115.64C67.6794 117.037 68.3354 117.736 69.6474 117.736C70.2981 117.736 70.7941 117.56 71.1354 117.208C71.4768 116.856 71.6474 116.333 71.6474 115.64V111.384C71.6474 111.171 71.7168 110.989 71.8554 110.84C72.0048 110.691 72.1861 110.616 72.3994 110.616ZM82.1502 112.104V116.872C82.1502 117.405 82.3902 117.672 82.8702 117.672C82.9449 117.672 83.0462 117.656 83.1742 117.624C83.3022 117.581 83.4035 117.56 83.4782 117.56C83.6169 117.56 83.7342 117.619 83.8302 117.736C83.9262 117.853 83.9742 118.003 83.9742 118.184C83.9742 118.408 83.8462 118.6 83.5902 118.76C83.3342 118.92 83.0462 119 82.7262 119C82.3742 119 82.0489 118.963 81.7502 118.888C81.4622 118.813 81.2009 118.627 80.9662 118.328C80.7422 118.019 80.6302 117.555 80.6302 116.936V112.104H79.7022C79.4995 112.104 79.3289 112.04 79.1902 111.912C79.0622 111.773 78.9982 111.603 78.9982 111.4C78.9982 111.197 79.0622 111.032 79.1902 110.904C79.3289 110.776 79.4995 110.712 79.7022 110.712H80.6302V109.368C80.6302 109.155 80.6995 108.973 80.8382 108.824C80.9875 108.675 81.1742 108.6 81.3982 108.6C81.6115 108.6 81.7875 108.675 81.9262 108.824C82.0755 108.973 82.1502 109.155 82.1502 109.368V110.712H83.4782C83.6809 110.712 83.8462 110.781 83.9742 110.92C84.1129 111.048 84.1822 111.213 84.1822 111.416C84.1822 111.619 84.1129 111.784 83.9742 111.912C83.8462 112.04 83.6809 112.104 83.4782 112.104H82.1502ZM90.1323 110.472C92.0096 110.472 92.9483 111.635 92.9483 113.96V118.232C92.9483 118.445 92.8736 118.627 92.7243 118.776C92.5856 118.925 92.4043 119 92.1803 119C91.967 119 91.7856 118.925 91.6363 118.776C91.4976 118.627 91.4283 118.445 91.4283 118.232V113.96C91.4283 112.573 90.8416 111.88 89.6683 111.88C89.039 111.88 88.5163 112.083 88.1003 112.488C87.6843 112.883 87.4763 113.373 87.4763 113.96V118.232C87.4763 118.445 87.4016 118.627 87.2523 118.776C87.1136 118.925 86.9323 119 86.7083 119C86.4843 119 86.303 118.931 86.1643 118.792C86.0256 118.643 85.9563 118.456 85.9563 118.232V107.928C85.9563 107.715 86.0256 107.533 86.1643 107.384C86.3136 107.235 86.495 107.16 86.7083 107.16C86.9323 107.16 87.1136 107.235 87.2523 107.384C87.4016 107.533 87.4763 107.715 87.4763 107.928V111.976C87.743 111.56 88.1163 111.208 88.5963 110.92C89.0763 110.621 89.5883 110.472 90.1323 110.472ZM96.6619 118.232C96.6619 118.445 96.5873 118.627 96.4379 118.776C96.2993 118.925 96.1179 119 95.8939 119C95.6806 119 95.4993 118.925 95.3499 118.776C95.2113 118.627 95.1419 118.445 95.1419 118.232V111.304C95.1419 111.091 95.2113 110.909 95.3499 110.76C95.4993 110.611 95.6806 110.536 95.8939 110.536C96.1179 110.536 96.2993 110.611 96.4379 110.76C96.5873 110.909 96.6619 111.091 96.6619 111.304V118.232ZM95.8939 109.48C95.5846 109.48 95.3606 109.427 95.2219 109.32C95.0939 109.203 95.0299 109.021 95.0299 108.776V108.52C95.0299 108.264 95.0993 108.083 95.2379 107.976C95.3873 107.869 95.6113 107.816 95.9099 107.816C96.2086 107.816 96.4219 107.875 96.5499 107.992C96.6886 108.099 96.7579 108.275 96.7579 108.52V108.776C96.7579 109.032 96.6886 109.213 96.5499 109.32C96.4113 109.427 96.1926 109.48 95.8939 109.48ZM103.119 110.424C105.039 110.424 105.999 111.576 105.999 113.88V118.232C105.999 118.445 105.924 118.627 105.775 118.776C105.636 118.925 105.455 119 105.231 119C105.018 119 104.836 118.925 104.687 118.776C104.548 118.627 104.479 118.445 104.479 118.232V113.896C104.479 113.267 104.335 112.765 104.047 112.392C103.759 112.019 103.29 111.832 102.639 111.832C102.212 111.832 101.823 111.928 101.471 112.12C101.13 112.301 100.858 112.552 100.655 112.872C100.463 113.181 100.367 113.523 100.367 113.896V118.232C100.367 118.445 100.292 118.627 100.143 118.776C100.004 118.925 99.8229 119 99.5989 119C99.3749 119 99.1936 118.931 99.0549 118.792C98.9163 118.643 98.8469 118.456 98.8469 118.232V111.384C98.8469 111.171 98.9163 110.989 99.0549 110.84C99.2043 110.691 99.3856 110.616 99.5989 110.616C99.8229 110.616 100.004 110.691 100.143 110.84C100.292 110.989 100.367 111.171 100.367 111.384V111.944C100.644 111.517 101.028 111.16 101.519 110.872C102.02 110.573 102.554 110.424 103.119 110.424ZM115.117 117.672C115.277 117.843 115.357 118.029 115.357 118.232C115.357 118.445 115.271 118.627 115.101 118.776C114.941 118.915 114.77 118.984 114.589 118.984C114.354 118.984 114.167 118.899 114.029 118.728L110.877 115.384L109.917 116.248V118.232C109.917 118.445 109.842 118.627 109.693 118.776C109.554 118.925 109.378 119 109.165 119C108.941 119 108.754 118.925 108.605 118.776C108.466 118.627 108.397 118.445 108.397 118.232V107.928C108.397 107.715 108.466 107.533 108.605 107.384C108.754 107.235 108.941 107.16 109.165 107.16C109.378 107.16 109.554 107.235 109.693 107.384C109.842 107.533 109.917 107.715 109.917 107.928V114.424L113.837 110.824C114.018 110.664 114.205 110.584 114.397 110.584C114.578 110.584 114.743 110.664 114.893 110.824C115.042 110.973 115.117 111.133 115.117 111.304C115.117 111.517 115.015 111.709 114.813 111.88L112.045 114.344L115.117 117.672ZM123.021 118.232C123.021 118.445 122.947 118.627 122.797 118.776C122.659 118.925 122.477 119 122.253 119C122.04 119 121.859 118.925 121.709 118.776C121.571 118.627 121.501 118.445 121.501 118.232V111.304C121.501 111.091 121.571 110.909 121.709 110.76C121.859 110.611 122.04 110.536 122.253 110.536C122.477 110.536 122.659 110.611 122.797 110.76C122.947 110.909 123.021 111.091 123.021 111.304V118.232ZM122.253 109.48C121.944 109.48 121.72 109.427 121.581 109.32C121.453 109.203 121.389 109.021 121.389 108.776V108.52C121.389 108.264 121.459 108.083 121.597 107.976C121.747 107.869 121.971 107.816 122.269 107.816C122.568 107.816 122.781 107.875 122.909 107.992C123.048 108.099 123.117 108.275 123.117 108.52V108.776C123.117 109.032 123.048 109.213 122.909 109.32C122.771 109.427 122.552 109.48 122.253 109.48ZM124.726 117.688C124.63 117.539 124.582 117.395 124.582 117.256C124.582 117.043 124.694 116.861 124.918 116.712C125.025 116.637 125.148 116.6 125.286 116.6C125.478 116.6 125.654 116.68 125.814 116.84C126.134 117.203 126.476 117.475 126.838 117.656C127.212 117.837 127.654 117.928 128.166 117.928C128.572 117.917 128.929 117.827 129.238 117.656C129.548 117.475 129.702 117.187 129.702 116.792C129.702 116.429 129.542 116.152 129.222 115.96C128.913 115.768 128.454 115.592 127.846 115.432C127.249 115.272 126.753 115.107 126.358 114.936C125.964 114.755 125.628 114.499 125.35 114.168C125.084 113.827 124.95 113.384 124.95 112.84C124.95 112.36 125.084 111.939 125.35 111.576C125.628 111.213 125.99 110.931 126.438 110.728C126.897 110.525 127.393 110.424 127.926 110.424C128.438 110.424 128.945 110.52 129.446 110.712C129.958 110.904 130.374 111.197 130.694 111.592C130.822 111.741 130.886 111.896 130.886 112.056C130.886 112.227 130.801 112.392 130.63 112.552C130.524 112.648 130.39 112.696 130.23 112.696C130.038 112.696 129.884 112.632 129.766 112.504C129.542 112.248 129.265 112.051 128.934 111.912C128.614 111.773 128.257 111.704 127.862 111.704C127.457 111.704 127.11 111.789 126.822 111.96C126.545 112.12 126.406 112.397 126.406 112.792C126.417 113.165 126.577 113.443 126.886 113.624C127.206 113.805 127.692 113.981 128.342 114.152C128.908 114.301 129.377 114.461 129.75 114.632C130.124 114.803 130.438 115.059 130.694 115.4C130.95 115.731 131.078 116.168 131.078 116.712C131.078 117.213 130.934 117.651 130.646 118.024C130.358 118.387 129.98 118.669 129.51 118.872C129.052 119.064 128.561 119.16 128.038 119.16C127.366 119.16 126.742 119.043 126.166 118.808C125.601 118.573 125.121 118.2 124.726 117.688ZM140.917 110.424C141.759 110.424 142.458 110.557 143.013 110.824C143.578 111.091 143.861 111.432 143.861 111.848C143.861 112.029 143.802 112.195 143.685 112.344C143.567 112.483 143.418 112.552 143.237 112.552C143.098 112.552 142.986 112.531 142.901 112.488C142.826 112.445 142.719 112.376 142.581 112.28C142.517 112.216 142.415 112.141 142.277 112.056C142.149 111.992 141.967 111.939 141.733 111.896C141.498 111.853 141.285 111.832 141.093 111.832C140.538 111.832 140.047 111.96 139.621 112.216C139.194 112.472 138.863 112.829 138.629 113.288C138.394 113.736 138.277 114.237 138.277 114.792C138.277 115.357 138.389 115.864 138.613 116.312C138.847 116.76 139.173 117.112 139.589 117.368C140.005 117.624 140.479 117.752 141.013 117.752C141.567 117.752 142.015 117.667 142.357 117.496C142.431 117.453 142.533 117.384 142.661 117.288C142.767 117.203 142.858 117.139 142.933 117.096C143.018 117.053 143.119 117.032 143.237 117.032C143.45 117.032 143.615 117.101 143.733 117.24C143.861 117.368 143.925 117.539 143.925 117.752C143.925 117.976 143.781 118.2 143.493 118.424C143.215 118.637 142.837 118.813 142.357 118.952C141.887 119.091 141.381 119.16 140.837 119.16C140.026 119.16 139.311 118.973 138.693 118.6C138.074 118.216 137.594 117.693 137.253 117.032C136.922 116.36 136.757 115.613 136.757 114.792C136.757 113.971 136.933 113.229 137.285 112.568C137.637 111.896 138.127 111.373 138.757 111C139.386 110.616 140.106 110.424 140.917 110.424ZM153.424 114.808C153.424 115.64 153.237 116.387 152.864 117.048C152.49 117.709 151.978 118.227 151.328 118.6C150.688 118.973 149.978 119.16 149.2 119.16C148.421 119.16 147.706 118.973 147.056 118.6C146.416 118.227 145.909 117.709 145.536 117.048C145.162 116.387 144.976 115.64 144.976 114.808C144.976 113.976 145.162 113.224 145.536 112.552C145.909 111.88 146.416 111.357 147.056 110.984C147.706 110.611 148.421 110.424 149.2 110.424C149.978 110.424 150.688 110.611 151.328 110.984C151.978 111.357 152.49 111.88 152.864 112.552C153.237 113.224 153.424 113.976 153.424 114.808ZM151.904 114.808C151.904 114.232 151.781 113.72 151.536 113.272C151.301 112.813 150.976 112.461 150.56 112.216C150.154 111.96 149.701 111.832 149.2 111.832C148.698 111.832 148.24 111.96 147.824 112.216C147.418 112.461 147.093 112.813 146.848 113.272C146.613 113.72 146.496 114.232 146.496 114.808C146.496 115.373 146.613 115.88 146.848 116.328C147.093 116.776 147.418 117.128 147.824 117.384C148.24 117.629 148.698 117.752 149.2 117.752C149.701 117.752 150.154 117.629 150.56 117.384C150.976 117.128 151.301 116.776 151.536 116.328C151.781 115.88 151.904 115.373 151.904 114.808ZM159.367 110.424C159.644 110.424 159.884 110.499 160.087 110.648C160.289 110.787 160.391 110.963 160.391 111.176C160.391 111.432 160.321 111.629 160.183 111.768C160.055 111.896 159.895 111.96 159.703 111.96C159.607 111.96 159.463 111.928 159.271 111.864C159.047 111.789 158.871 111.752 158.743 111.752C158.412 111.752 158.087 111.869 157.767 112.104C157.457 112.328 157.201 112.643 156.999 113.048C156.807 113.443 156.711 113.885 156.711 114.376V118.232C156.711 118.445 156.636 118.627 156.487 118.776C156.348 118.925 156.167 119 155.943 119C155.719 119 155.537 118.931 155.399 118.792C155.26 118.643 155.191 118.456 155.191 118.232V111.384C155.191 111.171 155.26 110.989 155.399 110.84C155.548 110.691 155.729 110.616 155.943 110.616C156.167 110.616 156.348 110.691 156.487 110.84C156.636 110.989 156.711 111.171 156.711 111.384V112.2C156.945 111.677 157.297 111.256 157.767 110.936C158.236 110.605 158.769 110.435 159.367 110.424ZM165.976 110.424C166.253 110.424 166.493 110.499 166.696 110.648C166.899 110.787 167 110.963 167 111.176C167 111.432 166.931 111.629 166.792 111.768C166.664 111.896 166.504 111.96 166.312 111.96C166.216 111.96 166.072 111.928 165.88 111.864C165.656 111.789 165.48 111.752 165.352 111.752C165.021 111.752 164.696 111.869 164.376 112.104C164.067 112.328 163.811 112.643 163.608 113.048C163.416 113.443 163.32 113.885 163.32 114.376V118.232C163.32 118.445 163.245 118.627 163.096 118.776C162.957 118.925 162.776 119 162.552 119C162.328 119 162.147 118.931 162.008 118.792C161.869 118.643 161.8 118.456 161.8 118.232V111.384C161.8 111.171 161.869 110.989 162.008 110.84C162.157 110.691 162.339 110.616 162.552 110.616C162.776 110.616 162.957 110.691 163.096 110.84C163.245 110.989 163.32 111.171 163.32 111.384V112.2C163.555 111.677 163.907 111.256 164.376 110.936C164.845 110.605 165.379 110.435 165.976 110.424ZM175.41 114.488C175.399 114.68 175.319 114.845 175.17 114.984C175.021 115.112 174.845 115.176 174.642 115.176H169.01C169.085 115.955 169.378 116.579 169.89 117.048C170.413 117.517 171.047 117.752 171.794 117.752C172.306 117.752 172.722 117.677 173.042 117.528C173.362 117.379 173.645 117.187 173.89 116.952C174.05 116.856 174.205 116.808 174.354 116.808C174.535 116.808 174.685 116.872 174.802 117C174.93 117.128 174.994 117.277 174.994 117.448C174.994 117.672 174.887 117.875 174.674 118.056C174.365 118.365 173.954 118.627 173.442 118.84C172.93 119.053 172.407 119.16 171.874 119.16C171.01 119.16 170.247 118.979 169.586 118.616C168.935 118.253 168.429 117.747 168.066 117.096C167.714 116.445 167.538 115.709 167.538 114.888C167.538 113.992 167.719 113.208 168.082 112.536C168.455 111.853 168.941 111.331 169.538 110.968C170.146 110.605 170.797 110.424 171.49 110.424C172.173 110.424 172.813 110.6 173.41 110.952C174.007 111.304 174.487 111.789 174.85 112.408C175.213 113.027 175.399 113.72 175.41 114.488ZM171.49 111.832C170.893 111.832 170.375 112.003 169.938 112.344C169.501 112.675 169.213 113.192 169.074 113.896H173.794V113.768C173.741 113.203 173.485 112.739 173.026 112.376C172.578 112.013 172.066 111.832 171.49 111.832ZM180.823 110.424C181.666 110.424 182.364 110.557 182.919 110.824C183.484 111.091 183.767 111.432 183.767 111.848C183.767 112.029 183.708 112.195 183.591 112.344C183.474 112.483 183.324 112.552 183.143 112.552C183.004 112.552 182.892 112.531 182.807 112.488C182.732 112.445 182.626 112.376 182.487 112.28C182.423 112.216 182.322 112.141 182.183 112.056C182.055 111.992 181.874 111.939 181.639 111.896C181.404 111.853 181.191 111.832 180.999 111.832C180.444 111.832 179.954 111.96 179.527 112.216C179.1 112.472 178.77 112.829 178.535 113.288C178.3 113.736 178.183 114.237 178.183 114.792C178.183 115.357 178.295 115.864 178.519 116.312C178.754 116.76 179.079 117.112 179.495 117.368C179.911 117.624 180.386 117.752 180.919 117.752C181.474 117.752 181.922 117.667 182.263 117.496C182.338 117.453 182.439 117.384 182.567 117.288C182.674 117.203 182.764 117.139 182.839 117.096C182.924 117.053 183.026 117.032 183.143 117.032C183.356 117.032 183.522 117.101 183.639 117.24C183.767 117.368 183.831 117.539 183.831 117.752C183.831 117.976 183.687 118.2 183.399 118.424C183.122 118.637 182.743 118.813 182.263 118.952C181.794 119.091 181.287 119.16 180.743 119.16C179.932 119.16 179.218 118.973 178.599 118.6C177.98 118.216 177.5 117.693 177.159 117.032C176.828 116.36 176.663 115.613 176.663 114.792C176.663 113.971 176.839 113.229 177.191 112.568C177.543 111.896 178.034 111.373 178.663 111C179.292 110.616 180.012 110.424 180.823 110.424ZM187.666 112.104V116.872C187.666 117.405 187.906 117.672 188.386 117.672C188.46 117.672 188.562 117.656 188.69 117.624C188.818 117.581 188.919 117.56 188.994 117.56C189.132 117.56 189.25 117.619 189.346 117.736C189.442 117.853 189.49 118.003 189.49 118.184C189.49 118.408 189.362 118.6 189.106 118.76C188.85 118.92 188.562 119 188.242 119C187.89 119 187.564 118.963 187.266 118.888C186.978 118.813 186.716 118.627 186.482 118.328C186.258 118.019 186.146 117.555 186.146 116.936V112.104H185.218C185.015 112.104 184.844 112.04 184.706 111.912C184.578 111.773 184.514 111.603 184.514 111.4C184.514 111.197 184.578 111.032 184.706 110.904C184.844 110.776 185.015 110.712 185.218 110.712H186.146V109.368C186.146 109.155 186.215 108.973 186.354 108.824C186.503 108.675 186.69 108.6 186.914 108.6C187.127 108.6 187.303 108.675 187.442 108.824C187.591 108.973 187.666 109.155 187.666 109.368V110.712H188.994C189.196 110.712 189.362 110.781 189.49 110.92C189.628 111.048 189.698 111.213 189.698 111.416C189.698 111.619 189.628 111.784 189.49 111.912C189.362 112.04 189.196 112.104 188.994 112.104H187.666ZM192.016 118.984C191.76 118.984 191.563 118.915 191.424 118.776C191.296 118.637 191.232 118.435 191.232 118.168V117.864C191.232 117.608 191.296 117.411 191.424 117.272C191.563 117.133 191.76 117.064 192.016 117.064H192.176C192.443 117.064 192.64 117.133 192.768 117.272C192.907 117.411 192.976 117.608 192.976 117.864V118.168C192.976 118.712 192.709 118.984 192.176 118.984H192.016Z" fill="#49A0FF"/>
<defs>
<radialGradient id="paint0_radial" cx="0" cy="0" r="1" gradientUnits="userSpaceOnUse" gradientTransform="translate(272 488.5) rotate(90) scale(24.5 104)">
<stop stop-color="#B0D6FF"/>
<stop offset="1" stop-color="white"/>
</radialGradient>
<linearGradient id="paint1_linear" x1="301.24" y1="214.684" x2="240.564" y2="334.608" gradientUnits="userSpaceOnUse">
<stop stop-color="#3B98FF"/>
<stop offset="1" stop-color="#7CBAFF"/>
</linearGradient>
<linearGradient id="paint2_linear" x1="258.876" y1="397.58" x2="295.671" y2="364.827" gradientUnits="userSpaceOnUse">
<stop stop-color="#7CBAFF"/>
<stop offset="1" stop-color="#3B98FF"/>
</linearGradient>
</defs>
</svg>
