<svg width="20" height="20" viewBox="0 0 20 20" fill="none" xmlns="http://www.w3.org/2000/svg">
<path d="M7.49984 1.6665C4.28805 1.6665 1.6665 4.28805 1.6665 7.49984C1.6665 10.7116 4.28805 13.3332 7.49984 13.3332C8.9565 13.3332 10.2873 12.7899 11.3117 11.9009L11.6665 12.2557V13.3332L16.6665 18.3332L18.3332 16.6665L13.3332 11.6665H12.2557L11.9009 11.3117C12.7899 10.2873 13.3332 8.9565 13.3332 7.49984C13.3332 4.28805 10.7116 1.6665 7.49984 1.6665ZM7.49984 3.33317C9.81089 3.33317 11.6665 5.18878 11.6665 7.49984C11.6665 9.81089 9.81089 11.6665 7.49984 11.6665C5.18878 11.6665 3.33317 9.81089 3.33317 7.49984C3.33317 5.18878 5.18878 3.33317 7.49984 3.33317Z" fill="#AEAEAE"/>
</svg>
