<svg width="28" height="28" viewBox="0 0 28 28" fill="none" xmlns="http://www.w3.org/2000/svg">
<path d="M11.9292 1.8667C11.5008 1.8667 11.1268 2.15866 11.0232 2.57399L10.8828 3.13727C10.7718 3.58247 10.4129 3.9065 9.96956 4.02503C9.9649 4.02597 9.95876 4.02774 9.95316 4.02868C9.50982 4.14814 9.03824 4.04736 8.71904 3.71696L8.31435 3.29951C8.01662 2.99151 7.54739 2.92536 7.17685 3.13909L6.82321 3.34326C6.45268 3.55699 6.27447 3.99807 6.393 4.40967L6.54977 4.96201C6.67577 5.40348 6.52822 5.86314 6.20342 6.18701C6.19782 6.19354 6.19261 6.19782 6.18701 6.20342C5.86314 6.52822 5.40254 6.67577 4.96201 6.54977L4.40967 6.393C3.99807 6.27447 3.55793 6.45268 3.34326 6.82321L3.13909 7.17685C2.92536 7.54739 2.99151 8.01662 3.29951 8.31435L3.71696 8.71904C4.04736 9.03824 4.14814 9.51165 4.02868 9.95498C4.02774 9.95965 4.02597 9.96396 4.02503 9.96956C3.9065 10.4129 3.58247 10.7708 3.13727 10.8828L2.57399 11.025C2.15866 11.1277 1.8667 11.5008 1.8667 11.9292V12.3375C1.8667 12.7659 2.15866 13.1399 2.57399 13.2435L3.13727 13.3839C3.58247 13.495 3.9065 13.8538 4.02503 14.2972C4.02597 14.3018 4.02774 14.308 4.02868 14.3136C4.14814 14.7569 4.04736 15.2285 3.71696 15.5477L3.29951 15.9524C2.99151 16.2501 2.92536 16.7184 3.13909 17.0899L3.34326 17.4453C3.55699 17.8159 3.99807 17.9941 4.40967 17.8756L4.96201 17.717C5.40348 17.591 5.86314 17.7403 6.18701 18.0651L6.20159 18.0797C6.52639 18.4036 6.67577 18.8642 6.54977 19.3047L6.39118 19.8571C6.27358 20.2687 6.45085 20.7097 6.82139 20.9235L7.17685 21.1276C7.54739 21.3414 8.01662 21.2752 8.31435 20.9672L8.71722 20.5498C9.03642 20.2194 9.50982 20.1186 9.95316 20.2381C9.95782 20.239 9.96214 20.2408 9.96774 20.2417C10.0732 20.2697 10.1715 20.3116 10.2649 20.362V17.4071C8.09197 16.6376 6.53337 14.5697 6.53337 12.1334C6.53337 9.0403 9.0403 6.53337 12.1334 6.53337C15.2264 6.53337 17.7334 9.0403 17.7334 12.1334H22.4V11.9292C22.4 11.5008 22.1081 11.1268 21.6927 11.0232L21.1295 10.8828C20.6843 10.7718 20.3602 10.4129 20.2417 9.96956C20.2408 9.9649 20.239 9.95876 20.2381 9.95316C20.1186 9.50982 20.2194 9.03824 20.5498 8.71904L20.9672 8.31435C21.2752 8.01662 21.3414 7.54739 21.1276 7.17685L20.9235 6.82139C20.7097 6.45085 20.2687 6.27264 19.8571 6.39118L19.3047 6.54977C18.8633 6.67577 18.4036 6.52639 18.0797 6.20159L18.0651 6.18701C17.7403 5.86314 17.591 5.40254 17.717 4.96201L17.8756 4.40967C17.9932 3.99807 17.8159 3.55699 17.4453 3.34326L17.0899 3.13909C16.7193 2.92536 16.2501 2.99151 15.9524 3.29951L15.5477 3.71696C15.2285 4.04736 14.7569 4.14814 14.3136 4.02868C14.3089 4.02774 14.3028 4.02597 14.2972 4.02503C13.8538 3.9065 13.4959 3.58247 13.3839 3.13727L13.2435 2.57399C13.1399 2.15866 12.7659 1.8667 12.3375 1.8667H11.9292ZM12.1334 9.33336C10.5868 9.33336 9.33336 10.5868 9.33336 12.1334C9.33336 13.0919 9.81654 13.9362 10.5511 14.4412C11.1111 13.0869 12.4432 12.1334 14 12.1334H14.9334C14.9334 10.5868 13.6799 9.33336 12.1334 9.33336ZM14 14C12.9798 14 12.1334 14.8465 12.1334 15.8667V24.2667C12.1334 24.5142 12.2317 24.7516 12.4068 24.9266C12.5818 25.1017 12.8192 25.2 13.0667 25.2H24.2667C24.5142 25.2 24.7516 25.1017 24.9266 24.9266C25.1017 24.7516 25.2 24.5142 25.2 24.2667V15.8667C25.2 14.8465 24.3536 14 23.3334 14H14ZM14 16.8H23.3334V23.3334H14V16.8ZM18.6485 17.7242C18.406 17.7315 18.1758 17.8328 18.0068 18.0068L16.8 19.2136L16.5266 18.9401C16.4406 18.8506 16.3376 18.779 16.2236 18.7298C16.1096 18.6805 15.9869 18.6545 15.8628 18.6532C15.7386 18.652 15.6154 18.6755 15.5005 18.7224C15.3855 18.7694 15.281 18.8388 15.1932 18.9266C15.1054 19.0144 15.036 19.1188 14.9891 19.2338C14.9421 19.3487 14.9186 19.4719 14.9199 19.5961C14.9211 19.7203 14.9472 19.8429 14.9964 19.9569C15.0457 20.0709 15.1172 20.1739 15.2068 20.2599L16.1401 21.1933C16.3152 21.3682 16.5525 21.4665 16.8 21.4665C17.0475 21.4665 17.2849 21.3682 17.4599 21.1933L19.3266 19.3266C19.4615 19.1955 19.5536 19.0267 19.5909 18.8424C19.6282 18.658 19.6089 18.4667 19.5356 18.2935C19.4623 18.1203 19.3384 17.9732 19.1801 17.8717C19.0218 17.7701 18.8365 17.7187 18.6485 17.7242Z" fill="#AEAEAE"/>
</svg>
