<svg width="14" height="20" viewBox="0 0 14 20" fill="none" xmlns="http://www.w3.org/2000/svg">
<path d="M11.2542 5.19363C11.118 4.96856 10.8486 4.8616 10.5953 4.93225C10.342 5.00289 10.1667 5.23376 10.1667 5.49667C10.1667 6.21185 9.58484 6.79351 8.86981 6.79351C8.15479 6.79351 7.57297 6.21185 7.57297 5.49667V0.585933C7.57297 0.348964 7.43015 0.135341 7.21118 0.0447042C6.99222 -0.0460856 6.7403 0.00396317 6.57275 0.171657C6.50684 0.237423 4.94449 1.80908 3.36154 4.1835C2.42801 5.58364 1.68307 6.9725 1.14749 8.31146C0.469086 10.0078 0.125 11.6316 0.125 13.1381C0.125 16.9217 3.20331 20 6.98703 20C10.7706 20 13.8489 16.9217 13.8489 13.1381C13.8491 10.7161 12.976 8.04321 11.2542 5.19363Z" fill="#FF9F00"/>
<path d="M11.2539 5.19382C11.1178 4.96875 10.8484 4.86179 10.5951 4.93243C10.3418 5.00308 10.1664 5.23395 10.1664 5.49686C10.1664 6.21204 9.58462 6.7937 8.8696 6.7937C8.15457 6.7937 7.57275 6.21204 7.57275 5.49686V0.586121C7.57275 0.349152 7.42993 0.135529 7.21097 0.0448913C7.13849 0.014679 7.06235 0.000488281 6.98682 0.000488281V20.0002C10.7705 20.0002 13.8488 16.9219 13.8488 13.1382C13.8488 10.7163 12.9757 8.0434 11.2539 5.19382Z" fill="#FF641A"/>
<path d="M10.3112 9.88965H7.80063C7.47699 9.88965 7.21469 10.1519 7.21469 10.4756C7.21454 10.7992 7.47699 11.0615 7.80048 11.0615H8.89651L6.39316 13.5649L5.03238 12.2041C4.80365 11.9752 4.43271 11.9752 4.20383 12.2041L2.87234 13.5353C2.64346 13.7642 2.64346 14.1351 2.87234 14.364C3.10107 14.5929 3.47202 14.5929 3.7009 14.364L4.6181 13.4471L5.97888 14.8079C6.08875 14.9177 6.23782 14.9794 6.39316 14.9794C6.54849 14.9794 6.69757 14.9177 6.80743 14.8079L9.72507 11.8902V12.986C9.72507 13.3096 9.98737 13.5719 10.311 13.5719C10.6346 13.5719 10.8969 13.3096 10.8969 12.986V10.4756C10.8969 10.1521 10.6346 9.88965 10.3112 9.88965Z" fill="#E7F0EF"/>
<path d="M10.3108 9.88965H7.80026C7.47662 9.88965 7.21432 10.1519 7.21432 10.4756C7.21417 10.7992 7.47662 11.0615 7.80011 11.0615H8.89615L6.98682 12.9709V14.6281L9.72485 11.8902V12.986C9.72485 13.3096 9.98715 13.5719 10.3108 13.5719C10.6343 13.5719 10.8967 13.3096 10.8967 12.986V10.4756C10.8966 10.1521 10.6343 9.88965 10.3108 9.88965Z" fill="#C5E1E6"/>
</svg>
