<svg width="37" height="370" viewBox="0 0 37 370" fill="none" xmlns="http://www.w3.org/2000/svg">
<path d="M2.324 336.648C2.324 336.293 2.42533 336.002 2.628 335.774C2.83066 335.546 3.10933 335.432 3.464 335.432L3.958 335.508L28.278 343.906C28.506 343.982 28.6833 344.121 28.81 344.324C28.9367 344.501 29 344.704 29 344.932C29 345.515 28.7593 345.895 28.278 346.072L12.052 352.646L28.278 359.22C28.7593 359.448 29 359.828 29 360.36C29 360.588 28.9367 360.803 28.81 361.006C28.6833 361.183 28.506 361.297 28.278 361.348L3.958 369.746C3.806 369.822 3.654 369.86 3.502 369.86C3.14733 369.86 2.86866 369.733 2.666 369.48C2.438 369.201 2.324 368.91 2.324 368.606C2.324 368.353 2.38733 368.125 2.514 367.922C2.64067 367.719 2.818 367.58 3.046 367.504L24.782 360.056L8.86 353.672C8.35333 353.444 8.11267 353.089 8.138 352.608C8.11267 352.355 8.176 352.139 8.328 351.962C8.45466 351.759 8.632 351.607 8.86 351.506L24.782 345.16L3.046 337.788C2.56466 337.585 2.324 337.205 2.324 336.648ZM18.17 315.437C18.474 315.437 18.74 315.551 18.968 315.779C19.1707 316.007 19.272 316.273 19.272 316.577L19.272 330.941C20.792 330.941 22.16 330.637 23.376 330.029C24.5667 329.396 25.5167 328.509 26.226 327.369C26.91 326.204 27.252 324.836 27.252 323.265C27.252 322.049 26.9987 320.96 26.492 319.997C25.9853 319.035 25.3393 318.262 24.554 317.679C24.326 317.401 24.212 317.135 24.212 316.881C24.212 316.628 24.3133 316.4 24.516 316.197C24.7187 315.995 24.9467 315.893 25.2 315.893C25.4787 315.893 25.7447 316.02 25.998 316.273C26.986 317.084 27.7967 318.11 28.43 319.351C29.0633 320.567 29.38 321.859 29.38 323.227C29.38 325.178 28.962 326.901 28.126 328.395C27.29 329.89 26.1247 331.055 24.63 331.891C23.11 332.727 21.362 333.145 19.386 333.145C17.3087 333.145 15.4973 332.74 13.952 331.929C12.3813 331.093 11.1907 329.991 10.38 328.623C9.544 327.255 9.126 325.799 9.126 324.253C9.126 322.733 9.48066 321.315 10.19 319.997C10.8993 318.655 11.938 317.565 13.306 316.729C14.674 315.893 16.2953 315.463 18.17 315.437ZM11.33 324.253C11.33 325.723 11.8367 327.091 12.85 328.357C13.8633 329.599 15.32 330.397 17.22 330.751L17.22 317.793L16.916 317.793C15.776 317.92 14.788 318.3 13.952 318.933C13.0907 319.567 12.4447 320.365 12.014 321.327C11.558 322.265 11.33 323.24 11.33 324.253ZM0.879996 284.578C0.879996 284.248 0.993996 283.982 1.222 283.78C1.42466 283.552 1.69066 283.438 2.01999 283.438L27.86 283.438C28.1893 283.438 28.468 283.552 28.696 283.78C28.8987 283.982 29 284.248 29 284.578C29 284.907 28.8987 285.186 28.696 285.414C28.468 285.616 28.1893 285.718 27.86 285.718L25.2 285.718C26.3653 286.351 27.3533 287.301 28.164 288.568C28.9747 289.809 29.38 291.19 29.38 292.71C29.38 294.382 28.9493 295.902 28.088 297.27C27.2013 298.612 25.9853 299.676 24.44 300.462C22.8947 301.247 21.1593 301.64 19.234 301.64C17.334 301.64 15.6113 301.247 14.066 300.462C12.5207 299.676 11.3173 298.612 10.456 297.27C9.56933 295.902 9.126 294.394 9.126 292.748C9.126 291.253 9.506 289.872 10.266 288.606C11.0007 287.339 11.9633 286.376 13.154 285.718L2.01999 285.718C1.69066 285.718 1.42466 285.616 1.222 285.414C0.993996 285.186 0.879996 284.907 0.879996 284.578ZM27.252 292.482C27.252 291.164 26.91 289.986 26.226 288.948C25.542 287.884 24.592 287.06 23.376 286.478C22.1347 285.87 20.754 285.566 19.234 285.566C17.7393 285.566 16.384 285.87 15.168 286.478C13.952 287.06 13.002 287.884 12.318 288.948C11.6087 289.986 11.254 291.164 11.254 292.482C11.254 293.799 11.6087 294.99 12.318 296.054C13.002 297.092 13.952 297.916 15.168 298.524C16.384 299.106 17.7393 299.398 19.234 299.398C20.754 299.398 22.122 299.106 23.338 298.524C24.554 297.916 25.5167 297.092 26.226 296.054C26.91 294.99 27.252 293.799 27.252 292.482ZM19.272 259.552C21.172 259.552 22.8947 259.97 24.44 260.806C25.9853 261.642 27.2013 262.795 28.088 264.264C28.9493 265.734 29.38 267.368 29.38 269.166C29.38 270.965 28.9493 272.599 28.088 274.068C27.2013 275.538 25.9853 276.69 24.44 277.526C22.8947 278.362 21.172 278.78 19.272 278.78C17.372 278.78 15.6493 278.362 14.104 277.526C12.5587 276.69 11.3427 275.538 10.456 274.068C9.56933 272.599 9.126 270.965 9.126 269.166C9.126 267.368 9.56933 265.734 10.456 264.264C11.3427 262.795 12.5587 261.642 14.104 260.806C15.6493 259.97 17.372 259.552 19.272 259.552ZM19.272 261.832C17.752 261.832 16.384 262.149 15.168 262.782C13.952 263.416 13.002 264.302 12.318 265.442C11.6087 266.557 11.254 267.798 11.254 269.166C11.254 270.534 11.6087 271.776 12.318 272.89C13.002 274.005 13.952 274.892 15.168 275.55C16.384 276.184 17.752 276.5 19.272 276.5C20.7667 276.5 22.122 276.184 23.338 275.55C24.554 274.892 25.5167 274.005 26.226 272.89C26.91 271.776 27.252 270.534 27.252 269.166C27.252 267.798 26.91 266.557 26.226 265.442C25.542 264.302 24.592 263.416 23.376 262.782C22.16 262.149 20.792 261.832 19.272 261.832ZM18.17 228.082C18.474 228.082 18.74 228.196 18.968 228.424C19.1707 228.652 19.272 228.918 19.272 229.222L19.272 243.586C20.792 243.586 22.16 243.282 23.376 242.674C24.5667 242.041 25.5167 241.154 26.226 240.014C26.91 238.849 27.252 237.481 27.252 235.91C27.252 234.694 26.9987 233.605 26.492 232.642C25.9853 231.679 25.3393 230.907 24.554 230.324C24.326 230.045 24.212 229.779 24.212 229.526C24.212 229.273 24.3133 229.045 24.516 228.842C24.7187 228.639 24.9467 228.538 25.2 228.538C25.4787 228.538 25.7447 228.665 25.998 228.918C26.986 229.729 27.7967 230.755 28.43 231.996C29.0633 233.212 29.38 234.504 29.38 235.872C29.38 237.823 28.962 239.545 28.126 241.04C27.29 242.535 26.1247 243.7 24.63 244.536C23.11 245.372 21.362 245.79 19.386 245.79C17.3087 245.79 15.4973 245.385 13.952 244.574C12.3813 243.738 11.1907 242.636 10.38 241.268C9.54399 239.9 9.12599 238.443 9.12599 236.898C9.12599 235.378 9.48066 233.959 10.19 232.642C10.8993 231.299 11.938 230.21 13.306 229.374C14.674 228.538 16.2953 228.107 18.17 228.082ZM11.33 236.898C11.33 238.367 11.8367 239.735 12.85 241.002C13.8633 242.243 15.32 243.041 17.22 243.396L17.22 230.438L16.916 230.438C15.776 230.565 14.788 230.945 13.952 231.578C13.0907 232.211 12.4447 233.009 12.014 233.972C11.558 234.909 11.33 235.885 11.33 236.898ZM9.20199 208.9C9.20199 208.647 9.29066 208.406 9.46799 208.178C9.64533 207.95 9.87333 207.836 10.152 207.836C10.38 207.836 10.5953 207.887 10.798 207.988L28.278 215.436C28.4807 215.538 28.658 215.69 28.81 215.892C28.9367 216.07 29 216.26 29 216.462C29.0253 216.716 28.9747 216.944 28.848 217.146C28.7213 217.349 28.5313 217.501 28.278 217.602L10.798 225.088C10.7473 225.088 10.6713 225.114 10.57 225.164C10.4687 225.19 10.3673 225.202 10.266 225.202C9.96199 225.202 9.70866 225.101 9.50599 224.898C9.27799 224.696 9.16399 224.404 9.16399 224.024C9.16399 223.796 9.23999 223.594 9.39199 223.416C9.51866 223.214 9.69599 223.062 9.92399 222.96L25.314 216.5L9.92399 210.002C9.69599 209.901 9.51866 209.762 9.39199 209.584C9.23999 209.382 9.17666 209.154 9.20199 208.9ZM18.17 187.225C18.474 187.225 18.74 187.339 18.968 187.567C19.1707 187.795 19.272 188.061 19.272 188.365L19.272 202.729C20.792 202.729 22.16 202.425 23.376 201.817C24.5667 201.183 25.5167 200.297 26.226 199.157C26.91 197.991 27.252 196.623 27.252 195.053C27.252 193.837 26.9987 192.747 26.492 191.785C25.9853 190.822 25.3393 190.049 24.554 189.467C24.326 189.188 24.212 188.922 24.212 188.669C24.212 188.415 24.3133 188.187 24.516 187.985C24.7187 187.782 24.9467 187.681 25.2 187.681C25.4787 187.681 25.7447 187.807 25.998 188.061C26.986 188.871 27.7967 189.897 28.43 191.139C29.0633 192.355 29.38 193.647 29.38 195.015C29.38 196.965 28.962 198.688 28.126 200.183C27.29 201.677 26.1247 202.843 24.63 203.679C23.11 204.515 21.362 204.933 19.386 204.933C17.3087 204.933 15.4973 204.527 13.952 203.717C12.3813 202.881 11.1907 201.779 10.38 200.411C9.54399 199.043 9.12599 197.586 9.12599 196.041C9.12599 194.521 9.48066 193.102 10.19 191.785C10.8993 190.442 11.938 189.353 13.306 188.517C14.674 187.681 16.2953 187.25 18.17 187.225ZM11.33 196.041C11.33 197.51 11.8367 198.878 12.85 200.145C13.8633 201.386 15.32 202.184 17.22 202.539L17.22 189.581L16.916 189.581C15.776 189.707 14.788 190.087 13.952 190.721C13.0907 191.354 12.4447 192.152 12.014 193.115C11.558 194.052 11.33 195.027 11.33 196.041ZM9.12599 173.443C9.12599 172.937 9.22732 172.481 9.42999 172.075C9.63266 171.67 9.93666 171.467 10.342 171.467C10.6967 171.467 10.988 171.569 11.216 171.771C11.4187 171.974 11.52 172.215 11.52 172.493C11.52 172.62 11.4567 172.873 11.33 173.253C11.2033 173.608 11.14 173.95 11.14 174.279C11.14 175.217 11.5073 176.154 12.242 177.091C12.9513 178.003 13.876 178.763 15.016 179.371C16.156 179.954 17.3087 180.245 18.474 180.245L27.86 180.245C28.1893 180.245 28.468 180.359 28.696 180.587C28.8987 180.79 29 181.056 29 181.385C29 181.715 28.8987 181.993 28.696 182.221C28.468 182.424 28.1893 182.525 27.86 182.525L10.836 182.525C10.5067 182.525 10.2407 182.424 10.038 182.221C9.80999 181.993 9.69599 181.715 9.69599 181.385C9.69599 181.056 9.80999 180.79 10.038 180.587C10.2407 180.359 10.5067 180.245 10.836 180.245L14.18 180.245C12.736 179.663 11.5453 178.789 10.608 177.623C9.64532 176.433 9.15132 175.039 9.12599 173.443ZM9.23999 153.426C9.23999 153.097 9.35399 152.831 9.58199 152.628C9.78466 152.4 10.0507 152.286 10.38 152.286L27.138 152.286C29.1393 152.286 30.8493 152.679 32.268 153.464C33.6867 154.25 34.7633 155.339 35.498 156.732C36.2327 158.126 36.6 159.696 36.6 161.444C36.6 162.508 36.486 163.509 36.258 164.446C36.03 165.358 35.726 166.118 35.346 166.726C35.0167 167.258 34.6493 167.524 34.244 167.524C34.1933 167.524 34.0667 167.499 33.864 167.448C33.6107 167.372 33.4207 167.246 33.294 167.068C33.1673 166.891 33.104 166.701 33.104 166.498C33.104 166.346 33.142 166.194 33.218 166.042C34.1047 164.421 34.548 162.876 34.548 161.406C34.548 159.304 33.8893 157.644 32.572 156.428C31.2547 155.187 29.456 154.566 27.176 154.566L25.846 154.566C26.91 155.2 27.7713 156.112 28.43 157.302C29.0633 158.493 29.38 159.785 29.38 161.178C29.38 163.382 28.7213 165.054 27.404 166.194C26.0867 167.334 24.3007 167.904 22.046 167.904L10.38 167.904C10.0507 167.904 9.78466 167.803 9.58199 167.6C9.35399 167.372 9.23999 167.094 9.23999 166.764C9.23999 166.435 9.35399 166.169 9.58199 165.966C9.78466 165.738 10.0507 165.624 10.38 165.624L21.704 165.624C23.528 165.624 24.9087 165.232 25.846 164.446C26.7833 163.636 27.252 162.382 27.252 160.684C27.252 159.646 26.9987 158.658 26.492 157.72C25.96 156.758 25.276 155.998 24.44 155.44C23.5787 154.858 22.6667 154.566 21.704 154.566L10.38 154.566C10.0507 154.566 9.78466 154.465 9.58199 154.262C9.35399 154.034 9.23999 153.756 9.23999 153.426ZM11.786 142.507L24.516 142.507C25.4787 142.507 26.1373 142.329 26.492 141.975C26.8213 141.62 26.986 141.151 26.986 140.569C26.986 140.417 26.9607 140.227 26.91 139.999C26.834 139.771 26.796 139.593 26.796 139.467C26.796 139.239 26.8973 139.049 27.1 138.897C27.2773 138.719 27.4927 138.631 27.746 138.631C28.1007 138.631 28.4047 138.833 28.658 139.239C28.886 139.644 29 140.125 29 140.683C29 141.367 28.9367 141.975 28.81 142.507C28.6833 143.039 28.3033 143.558 27.67 144.065C27.0367 144.546 26.0233 144.787 24.63 144.787L11.786 144.787L11.786 147.561C11.786 147.865 11.6847 148.131 11.482 148.359C11.2793 148.561 11.026 148.663 10.722 148.663C10.418 148.663 10.1647 148.561 9.96199 148.359C9.75932 148.131 9.65799 147.865 9.65799 147.561L9.65799 144.787L5.43999 144.787C5.11066 144.787 4.84466 144.685 4.64199 144.483C4.41399 144.255 4.29999 143.976 4.29999 143.647C4.29999 143.317 4.41399 143.051 4.64199 142.849C4.84466 142.621 5.11066 142.507 5.43999 142.507L9.65799 142.507L9.65799 138.707C9.65799 138.428 9.77199 138.187 9.99999 137.985C10.228 137.757 10.4813 137.643 10.76 137.643C11.064 137.643 11.3173 137.744 11.52 137.947C11.6973 138.149 11.786 138.403 11.786 138.707L11.786 142.507ZM9.42999 124.576C9.42999 122.296 10.152 120.598 11.596 119.484C13.0147 118.369 14.8513 117.812 17.106 117.812L27.86 117.812C28.1893 117.812 28.468 117.926 28.696 118.154C28.8987 118.356 29 118.622 29 118.952C29 119.281 28.8987 119.56 28.696 119.788C28.468 119.99 28.1893 120.092 27.86 120.092L17.106 120.092C15.4593 120.092 14.1293 120.484 13.116 121.27C12.0773 122.055 11.558 123.284 11.558 124.956C11.558 126.02 11.8113 127.033 12.318 127.996C12.8247 128.933 13.5087 129.693 14.37 130.276C15.206 130.858 16.118 131.15 17.106 131.15L27.86 131.15C28.1893 131.15 28.468 131.264 28.696 131.492C28.8987 131.694 29 131.96 29 132.29C29 132.619 28.8987 132.898 28.696 133.126C28.468 133.328 28.1893 133.43 27.86 133.43L2.01999 133.43C1.69065 133.43 1.42465 133.328 1.22199 133.126C0.993989 132.898 0.879989 132.619 0.879989 132.29C0.879989 131.96 0.993989 131.694 1.22199 131.492C1.42465 131.264 1.69065 131.15 2.01999 131.15L13.154 131.15C12.0647 130.466 11.178 129.516 10.494 128.3C9.78465 127.084 9.42999 125.842 9.42999 124.576ZM27.86 109.628C28.1893 109.628 28.468 109.742 28.696 109.97C28.8987 110.173 29 110.439 29 110.768C29 111.097 28.8987 111.376 28.696 111.604C28.468 111.807 28.1893 111.908 27.86 111.908L10.38 111.908C10.0507 111.908 9.78465 111.807 9.58199 111.604C9.35399 111.376 9.23999 111.097 9.23999 110.768C9.23999 110.439 9.35399 110.173 9.58199 109.97C9.78465 109.742 10.0507 109.628 10.38 109.628L27.86 109.628ZM6.69399 110.768C6.69399 111.275 6.57999 111.667 6.35199 111.946C6.09865 112.225 5.74399 112.364 5.28799 112.364L4.90799 112.364C4.45199 112.364 4.10999 112.225 3.88199 111.946C3.62866 111.642 3.50199 111.237 3.50199 110.73C3.50199 109.717 3.97066 109.21 4.90799 109.21L5.28799 109.21C5.74399 109.21 6.09865 109.349 6.35199 109.628C6.57999 109.881 6.69399 110.261 6.69399 110.768ZM9.12599 94.547C9.12599 92.191 9.82265 90.4684 11.216 89.379C12.584 88.2644 14.408 87.707 16.688 87.707L27.86 87.707C28.1893 87.707 28.468 87.821 28.696 88.049C28.8987 88.277 29 88.543 29 88.847C29 89.1764 28.8987 89.455 28.696 89.683C28.468 89.8857 28.1893 89.987 27.86 89.987L16.802 89.987C15.1553 89.987 13.8253 90.405 12.812 91.241C11.7733 92.0517 11.254 93.3184 11.254 95.041C11.254 96.1304 11.5073 97.169 12.014 98.157C12.5207 99.1197 13.2047 99.905 14.066 100.513C14.902 101.121 15.814 101.425 16.802 101.425L27.86 101.425C28.1893 101.425 28.468 101.539 28.696 101.767C28.8987 101.97 29 102.236 29 102.565C29 102.894 28.8987 103.173 28.696 103.401C28.468 103.604 28.1893 103.705 27.86 103.705L10.836 103.705C10.5067 103.705 10.2407 103.604 10.038 103.401C9.80999 103.173 9.69599 102.894 9.69599 102.565C9.69599 102.236 9.80999 101.97 10.038 101.767C10.2407 101.539 10.5067 101.425 10.836 101.425L12.926 101.425C11.8367 100.741 10.9373 99.7657 10.228 98.499C9.49332 97.207 9.12599 95.8897 9.12599 94.547ZM9.58199 65.3203C9.58199 64.9909 9.69599 64.7249 9.92399 64.5223C10.1267 64.2943 10.4053 64.1803 10.76 64.1803L27.214 64.1803C29.19 64.1803 30.8747 64.5983 32.268 65.4343C33.6867 66.2449 34.7633 67.3723 35.498 68.8163C36.2327 70.2349 36.6 71.8689 36.6 73.7183C36.6 74.6049 36.486 75.5423 36.258 76.5303C36.03 77.4929 35.7387 78.3289 35.384 79.0383C35.0293 79.7223 34.662 80.1149 34.282 80.2163C34.1047 80.3936 33.902 80.4823 33.674 80.4823C33.4207 80.4823 33.218 80.3683 33.066 80.1403C32.99 80.0389 32.952 79.9123 32.952 79.7603C32.952 79.6083 33.0407 79.3169 33.218 78.8863L33.56 78.0883C34.168 76.5176 34.472 75.0483 34.472 73.6803C34.472 71.4256 33.826 69.6649 32.534 68.3983C31.2673 67.1063 29.5447 66.4603 27.366 66.4603L25.01 66.4603C26.378 67.0936 27.4547 68.0943 28.24 69.4623C29 70.8303 29.38 72.2616 29.38 73.7563C29.38 75.5043 28.9493 77.0876 28.088 78.5063C27.2013 79.8996 25.9853 81.0016 24.44 81.8123C22.8947 82.6229 21.1593 83.0283 19.234 83.0283C17.334 83.0283 15.6113 82.6229 14.066 81.8123C12.5207 81.0016 11.3173 79.8996 10.456 78.5063C9.56932 77.0876 9.12599 75.5169 9.12599 73.7943C9.12599 72.1983 9.53132 70.7416 10.342 69.4243C11.1273 68.0816 12.0773 67.0936 13.192 66.4603L10.76 66.4603C10.4307 66.4603 10.152 66.3589 9.92399 66.1563C9.69599 65.9283 9.58199 65.6496 9.58199 65.3203ZM27.252 73.5663C27.252 72.1729 26.9227 70.9316 26.264 69.8423C25.58 68.7276 24.63 67.8663 23.414 67.2583C22.1727 66.6249 20.7793 66.3083 19.234 66.3083C17.6887 66.3083 16.308 66.6249 15.092 67.2583C13.876 67.8663 12.9387 68.7276 12.28 69.8423C11.596 70.9316 11.254 72.1729 11.254 73.5663C11.254 74.9343 11.6087 76.1756 12.318 77.2903C13.002 78.3796 13.952 79.2409 15.168 79.8743C16.384 80.4823 17.7393 80.7863 19.234 80.7863C20.754 80.7863 22.122 80.4823 23.338 79.8743C24.554 79.2409 25.5167 78.3796 26.226 77.2903C26.91 76.1756 27.252 74.9343 27.252 73.5663ZM9.12599 38.5472C9.12599 36.8752 9.55665 35.3552 10.418 33.9872C11.2793 32.6192 12.4827 31.5552 14.028 30.7952C15.548 30.0099 17.2707 29.6172 19.196 29.6172C21.096 29.6172 22.8313 30.0099 24.402 30.7952C25.9473 31.5552 27.1633 32.6192 28.05 33.9872C28.9367 35.3299 29.38 36.8372 29.38 38.5092C29.38 39.9532 29.0253 41.2959 28.316 42.5372C27.5813 43.7532 26.6187 44.7412 25.428 45.5012L27.936 45.5012C28.2653 45.5012 28.544 45.6152 28.772 45.8432C29 46.0459 29.114 46.3119 29.114 46.6412C29.114 46.9705 29 47.2492 28.772 47.4772C28.544 47.6799 28.2653 47.7812 27.936 47.7812L2.05798 47.7812C1.72865 47.7812 1.46265 47.6799 1.25999 47.4772C1.03199 47.2492 0.917985 46.9705 0.917985 46.6412C0.917985 46.3119 1.03198 46.0459 1.25999 45.8432C1.46265 45.6152 1.72865 45.5012 2.05798 45.5012L13.268 45.5012C12.0267 44.8172 11.026 43.8545 10.266 42.6132C9.50599 41.3719 9.12599 40.0165 9.12599 38.5472ZM27.252 38.7372C27.252 37.4199 26.8973 36.2419 26.188 35.2032C25.4787 34.1392 24.516 33.3159 23.3 32.7332C22.0587 32.1252 20.6907 31.8212 19.196 31.8212C17.676 31.8212 16.3207 32.1252 15.13 32.7332C13.914 33.3159 12.964 34.1392 12.28 35.2032C11.596 36.2419 11.254 37.4199 11.254 38.7372C11.254 40.0799 11.596 41.2832 12.28 42.3472C12.9387 43.4112 13.876 44.2345 15.092 44.8172C16.308 45.3999 17.676 45.6912 19.196 45.6912C20.716 45.6912 22.0967 45.3999 23.338 44.8172C24.554 44.2092 25.5167 43.3859 26.226 42.3472C26.91 41.2832 27.252 40.0799 27.252 38.7372ZM9.23998 10.4438C9.23998 10.1145 9.35398 9.84849 9.58198 9.64583C9.78465 9.41783 10.0507 9.30383 10.38 9.30383L27.138 9.30383C29.1393 9.30383 30.8493 9.69649 32.268 10.4818C33.6867 11.2672 34.7633 12.3565 35.498 13.7498C36.2327 15.1432 36.6 16.7138 36.6 18.4618C36.6 19.5258 36.486 20.5265 36.258 21.4638C36.03 22.3758 35.726 23.1358 35.346 23.7438C35.0167 24.2758 34.6493 24.5418 34.244 24.5418C34.1933 24.5418 34.0667 24.5165 33.864 24.4658C33.6107 24.3898 33.4207 24.2632 33.294 24.0858C33.1673 23.9085 33.104 23.7185 33.104 23.5158C33.104 23.3638 33.142 23.2118 33.218 23.0598C34.1047 21.4385 34.548 19.8932 34.548 18.4238C34.548 16.3212 33.8893 14.6618 32.572 13.4458C31.2547 12.2045 29.456 11.5838 27.176 11.5838L25.846 11.5838C26.91 12.2172 27.7713 13.1292 28.43 14.3198C29.0633 15.5105 29.38 16.8025 29.38 18.1958C29.38 20.3998 28.7213 22.0718 27.404 23.2118C26.0867 24.3518 24.3007 24.9218 22.046 24.9218L10.38 24.9218C10.0507 24.9218 9.78465 24.8205 9.58198 24.6178C9.35398 24.3898 9.23998 24.1112 9.23998 23.7818C9.23998 23.4525 9.35398 23.1865 9.58198 22.9838C9.78465 22.7558 10.0507 22.6418 10.38 22.6418L21.704 22.6418C23.528 22.6418 24.9087 22.2492 25.846 21.4638C26.7833 20.6532 27.252 19.3992 27.252 17.7018C27.252 16.6632 26.9987 15.6752 26.492 14.7378C25.96 13.7752 25.276 13.0152 24.44 12.4578C23.5787 11.8752 22.6667 11.5838 21.704 11.5838L10.38 11.5838C10.0507 11.5838 9.78465 11.4825 9.58198 11.2798C9.35398 11.0518 9.23998 10.7732 9.23998 10.4438ZM28.886 0.39817C29.5953 0.39817 30.3047 0.58817 31.014 0.96817C31.7487 1.32284 32.344 1.77884 32.8 2.33617C33.2813 2.8935 33.522 3.43817 33.522 3.97017C33.522 4.24884 33.446 4.4895 33.294 4.69217C33.1673 4.8695 32.9647 4.95817 32.686 4.95817C32.4327 4.95817 32.2553 4.89484 32.154 4.76817C32.0527 4.6415 31.964 4.4515 31.888 4.19817C31.812 3.9195 31.736 3.71684 31.66 3.59017C31.4827 3.2355 31.2167 2.9695 30.862 2.79217C30.5327 2.5895 30.1653 2.48817 29.76 2.48817C29.4813 2.48817 29.2533 2.56417 29.076 2.71617C28.8987 2.86817 28.81 3.07084 28.81 3.32417C28.81 3.7295 28.924 4.0715 29.152 4.35017C28.8987 4.65417 28.5947 4.80617 28.24 4.80617C27.784 4.80617 27.3913 4.57817 27.062 4.12217C26.7073 3.66617 26.53 3.17217 26.53 2.64017C26.53 1.9815 26.7453 1.4495 27.176 1.04417C27.5813 0.613503 28.1513 0.39817 28.886 0.39817Z" fill="black"/>
</svg>
