<svg width="37" height="349" viewBox="0 0 37 349" fill="none" xmlns="http://www.w3.org/2000/svg">
<path d="M2.324 315.648C2.324 315.293 2.42533 315.002 2.628 314.774C2.83066 314.546 3.10933 314.432 3.464 314.432L3.958 314.508L28.278 322.906C28.506 322.982 28.6833 323.121 28.81 323.324C28.9367 323.501 29 323.704 29 323.932C29 324.515 28.7593 324.895 28.278 325.072L12.052 331.646L28.278 338.22C28.7593 338.448 29 338.828 29 339.36C29 339.588 28.9367 339.803 28.81 340.006C28.6833 340.183 28.506 340.297 28.278 340.348L3.958 348.746C3.806 348.822 3.654 348.86 3.502 348.86C3.14733 348.86 2.86866 348.733 2.666 348.48C2.438 348.201 2.324 347.91 2.324 347.606C2.324 347.353 2.38733 347.125 2.514 346.922C2.64067 346.719 2.818 346.58 3.046 346.504L24.782 339.056L8.86 332.672C8.35333 332.444 8.11267 332.089 8.138 331.608C8.11267 331.355 8.176 331.139 8.328 330.962C8.45466 330.759 8.632 330.607 8.86 330.506L24.782 324.16L3.046 316.788C2.56466 316.585 2.324 316.205 2.324 315.648ZM18.17 294.437C18.474 294.437 18.74 294.551 18.968 294.779C19.1707 295.007 19.272 295.273 19.272 295.577L19.272 309.941C20.792 309.941 22.16 309.637 23.376 309.029C24.5667 308.396 25.5167 307.509 26.226 306.369C26.91 305.204 27.252 303.836 27.252 302.265C27.252 301.049 26.9987 299.96 26.492 298.997C25.9853 298.035 25.3393 297.262 24.554 296.679C24.326 296.401 24.212 296.135 24.212 295.881C24.212 295.628 24.3133 295.4 24.516 295.197C24.7187 294.995 24.9467 294.893 25.2 294.893C25.4787 294.893 25.7447 295.02 25.998 295.273C26.986 296.084 27.7967 297.11 28.43 298.351C29.0633 299.567 29.38 300.859 29.38 302.227C29.38 304.178 28.962 305.901 28.126 307.395C27.29 308.89 26.1247 310.055 24.63 310.891C23.11 311.727 21.362 312.145 19.386 312.145C17.3087 312.145 15.4973 311.74 13.952 310.929C12.3813 310.093 11.1907 308.991 10.38 307.623C9.544 306.255 9.126 304.799 9.126 303.253C9.126 301.733 9.48066 300.315 10.19 298.997C10.8993 297.655 11.938 296.565 13.306 295.729C14.674 294.893 16.2953 294.463 18.17 294.437ZM11.33 303.253C11.33 304.723 11.8367 306.091 12.85 307.357C13.8633 308.599 15.32 309.397 17.22 309.751L17.22 296.793L16.916 296.793C15.776 296.92 14.788 297.3 13.952 297.933C13.0907 298.567 12.4447 299.365 12.014 300.327C11.558 301.265 11.33 302.24 11.33 303.253ZM9.58199 263.578C9.58199 263.248 9.69599 262.982 9.92399 262.78C10.152 262.552 10.4307 262.438 10.76 262.438L27.86 262.438C28.1893 262.438 28.468 262.552 28.696 262.78C28.8987 262.982 29 263.248 29 263.578C29 263.907 28.8987 264.186 28.696 264.414C28.468 264.616 28.1893 264.718 27.86 264.718L25.314 264.718C26.454 265.351 27.4167 266.301 28.202 267.568C28.9873 268.834 29.38 270.215 29.38 271.71C29.38 273.407 28.9367 274.94 28.05 276.308C27.1633 277.65 25.9473 278.714 24.402 279.5C22.8567 280.26 21.1213 280.64 19.196 280.64C17.2707 280.64 15.548 280.247 14.028 279.462C12.4827 278.676 11.2793 277.612 10.418 276.27C9.55666 274.902 9.126 273.394 9.126 271.748C9.126 270.228 9.49333 268.834 10.228 267.568C10.9627 266.301 11.9253 265.351 13.116 264.718L10.76 264.718C10.4307 264.718 10.152 264.616 9.92399 264.414C9.69599 264.186 9.58199 263.907 9.58199 263.578ZM27.252 271.482C27.252 270.164 26.91 268.986 26.226 267.948C25.5167 266.884 24.554 266.06 23.338 265.478C22.0967 264.87 20.716 264.566 19.196 264.566C17.7267 264.566 16.384 264.87 15.168 265.478C13.952 266.06 13.002 266.884 12.318 267.948C11.6087 268.986 11.254 270.164 11.254 271.482C11.254 272.799 11.596 273.99 12.28 275.054C12.964 276.092 13.914 276.916 15.13 277.524C16.3207 278.106 17.676 278.398 19.196 278.398C20.716 278.398 22.0967 278.106 23.338 277.524C24.554 276.941 25.5167 276.13 26.226 275.092C26.91 274.028 27.252 272.824 27.252 271.482ZM9.126 247.406C9.126 246.9 9.22733 246.444 9.42999 246.038C9.63266 245.633 9.93666 245.43 10.342 245.43C10.6967 245.43 10.988 245.532 11.216 245.734C11.4187 245.937 11.52 246.178 11.52 246.456C11.52 246.583 11.4567 246.836 11.33 247.216C11.2033 247.571 11.14 247.913 11.14 248.242C11.14 249.18 11.5073 250.117 12.242 251.054C12.9513 251.966 13.876 252.726 15.016 253.334C16.156 253.917 17.3087 254.208 18.474 254.208L27.86 254.208C28.1893 254.208 28.468 254.322 28.696 254.55C28.8987 254.753 29 255.019 29 255.348C29 255.678 28.8987 255.956 28.696 256.184C28.468 256.387 28.1893 256.488 27.86 256.488L10.836 256.488C10.5067 256.488 10.2407 256.387 10.038 256.184C9.81 255.956 9.696 255.678 9.696 255.348C9.696 255.019 9.81 254.753 10.038 254.55C10.2407 254.322 10.5067 254.208 10.836 254.208L14.18 254.208C12.736 253.626 11.5453 252.752 10.608 251.586C9.64533 250.396 9.15133 249.002 9.126 247.406ZM18.17 226.305C18.474 226.305 18.74 226.419 18.968 226.647C19.1707 226.875 19.272 227.141 19.272 227.445L19.272 241.809C20.792 241.809 22.16 241.505 23.376 240.897C24.5667 240.263 25.5167 239.377 26.226 238.237C26.91 237.071 27.252 235.703 27.252 234.133C27.252 232.917 26.9987 231.827 26.492 230.865C25.9853 229.902 25.3393 229.129 24.554 228.547C24.326 228.268 24.212 228.002 24.212 227.749C24.212 227.495 24.3133 227.267 24.516 227.065C24.7187 226.862 24.9467 226.761 25.2 226.761C25.4787 226.761 25.7447 226.887 25.998 227.141C26.986 227.951 27.7967 228.977 28.43 230.219C29.0633 231.435 29.38 232.727 29.38 234.095C29.38 236.045 28.962 237.768 28.126 239.263C27.29 240.757 26.1247 241.923 24.63 242.759C23.11 243.595 21.362 244.013 19.386 244.013C17.3087 244.013 15.4973 243.607 13.952 242.797C12.3813 241.961 11.1907 240.859 10.38 239.491C9.54399 238.123 9.12599 236.666 9.12599 235.121C9.12599 233.601 9.48066 232.182 10.19 230.865C10.8993 229.522 11.938 228.433 13.306 227.597C14.674 226.761 16.2953 226.33 18.17 226.305ZM11.33 235.121C11.33 236.59 11.8367 237.958 12.85 239.225C13.8633 240.466 15.32 241.264 17.22 241.619L17.22 228.661L16.916 228.661C15.776 228.787 14.788 229.167 13.952 229.801C13.0907 230.434 12.4447 231.232 12.014 232.195C11.558 233.132 11.33 234.107 11.33 235.121ZM9.42999 201.981C9.42999 200.309 9.86066 198.789 10.722 197.421C11.558 196.053 12.736 194.989 14.256 194.229C15.7507 193.443 17.4353 193.051 19.31 193.051C21.21 193.051 22.92 193.443 24.44 194.229C25.9347 194.989 27.1127 196.053 27.974 197.421C28.8353 198.763 29.266 200.271 29.266 201.943C29.266 203.412 28.924 204.767 28.24 206.009C27.5307 207.225 26.5933 208.2 25.428 208.935L35.46 208.935C35.7893 208.935 36.0553 209.049 36.258 209.277C36.486 209.479 36.6 209.745 36.6 210.075C36.6 210.404 36.486 210.683 36.258 210.911C36.0553 211.113 35.7893 211.215 35.46 211.215L10.684 211.215C10.3547 211.215 10.076 211.113 9.84799 210.911C9.61999 210.683 9.50599 210.404 9.50599 210.075C9.50599 209.745 9.61999 209.479 9.84799 209.277C10.076 209.049 10.3547 208.935 10.684 208.935L13.268 208.935C12.0773 208.276 11.14 207.326 10.456 206.085C9.77199 204.843 9.42999 203.475 9.42999 201.981ZM27.138 202.171C27.138 200.853 26.8087 199.675 26.15 198.637C25.466 197.573 24.5287 196.749 23.338 196.167C22.1473 195.559 20.8047 195.255 19.31 195.255C17.8407 195.255 16.5233 195.559 15.358 196.167C14.1673 196.749 13.2427 197.573 12.584 198.637C11.9 199.675 11.558 200.853 11.558 202.171C11.558 203.513 11.8873 204.717 12.546 205.781C13.2047 206.845 14.1293 207.668 15.32 208.251C16.4853 208.833 17.8153 209.125 19.31 209.125C20.8047 209.125 22.1473 208.833 23.338 208.251C24.5287 207.668 25.466 206.845 26.15 205.781C26.8087 204.717 27.138 203.513 27.138 202.171ZM19.272 170.419C21.172 170.419 22.8947 170.837 24.44 171.673C25.9853 172.509 27.2013 173.662 28.088 175.131C28.9493 176.601 29.38 178.235 29.38 180.033C29.38 181.832 28.9493 183.466 28.088 184.935C27.2013 186.405 25.9853 187.557 24.44 188.393C22.8947 189.229 21.172 189.647 19.272 189.647C17.372 189.647 15.6493 189.229 14.104 188.393C12.5587 187.557 11.3427 186.405 10.456 184.935C9.56933 183.466 9.12599 181.832 9.12599 180.033C9.12599 178.235 9.56933 176.601 10.456 175.131C11.3427 173.662 12.5587 172.509 14.104 171.673C15.6493 170.837 17.372 170.419 19.272 170.419ZM19.272 172.699C17.752 172.699 16.384 173.016 15.168 173.649C13.952 174.283 13.002 175.169 12.318 176.309C11.6087 177.424 11.254 178.665 11.254 180.033C11.254 181.401 11.6087 182.643 12.318 183.757C13.002 184.872 13.952 185.759 15.168 186.417C16.384 187.051 17.752 187.367 19.272 187.367C20.7667 187.367 22.122 187.051 23.338 186.417C24.554 185.759 25.5167 184.872 26.226 183.757C26.91 182.643 27.252 181.401 27.252 180.033C27.252 178.665 26.91 177.424 26.226 176.309C25.542 175.169 24.592 174.283 23.376 173.649C22.16 173.016 20.792 172.699 19.272 172.699ZM9.16399 142.69C9.16399 142.36 9.26532 142.094 9.46799 141.892C9.67066 141.664 9.94932 141.55 10.304 141.55C10.3293 141.55 10.494 141.588 10.798 141.664L28.278 147.516C28.506 147.642 28.696 147.807 28.848 148.01C28.9747 148.212 29.0253 148.428 29 148.656C29 148.884 28.9367 149.086 28.81 149.264C28.6833 149.441 28.506 149.58 28.278 149.682L16.574 154.66L28.278 159.106C28.4807 159.207 28.658 159.359 28.81 159.562C28.9367 159.739 29 159.929 29 160.132C29.0253 160.385 28.9747 160.626 28.848 160.854C28.696 161.056 28.506 161.196 28.278 161.272L10.798 167.276C10.646 167.352 10.4813 167.39 10.304 167.39C9.97466 167.39 9.70866 167.276 9.50599 167.048C9.27799 166.82 9.16399 166.541 9.16399 166.212C9.16399 165.984 9.23999 165.781 9.39199 165.604C9.51866 165.401 9.69599 165.262 9.92399 165.186L25.086 160.132L13.724 155.61C13.2427 155.432 13.002 155.078 13.002 154.546C13.002 154.039 13.2427 153.684 13.724 153.482L25.01 148.732L9.92399 143.754C9.41732 143.602 9.16399 143.247 9.16399 142.69ZM18.17 120.766C18.474 120.766 18.74 120.88 18.968 121.108C19.1707 121.336 19.272 121.602 19.272 121.906L19.272 136.27C20.792 136.27 22.16 135.966 23.376 135.358C24.5667 134.724 25.5167 133.838 26.226 132.698C26.91 131.532 27.252 130.164 27.252 128.594C27.252 127.378 26.9987 126.288 26.492 125.326C25.9853 124.363 25.3393 123.59 24.554 123.008C24.326 122.729 24.212 122.463 24.212 122.21C24.212 121.956 24.3133 121.728 24.516 121.526C24.7187 121.323 24.9467 121.222 25.2 121.222C25.4787 121.222 25.7447 121.348 25.998 121.602C26.986 122.412 27.7967 123.438 28.43 124.68C29.0633 125.896 29.38 127.188 29.38 128.556C29.38 130.506 28.962 132.229 28.126 133.724C27.29 135.218 26.1247 136.384 24.63 137.22C23.11 138.056 21.362 138.474 19.386 138.474C17.3087 138.474 15.4973 138.068 13.952 137.258C12.3813 136.422 11.1907 135.32 10.38 133.952C9.54399 132.584 9.12599 131.127 9.12599 129.582C9.12599 128.062 9.48066 126.643 10.19 125.326C10.8993 123.983 11.938 122.894 13.306 122.058C14.674 121.222 16.2953 120.791 18.17 120.766ZM11.33 129.582C11.33 131.051 11.8367 132.419 12.85 133.686C13.8633 134.927 15.32 135.725 17.22 136.08L17.22 123.122L16.916 123.122C15.776 123.248 14.788 123.628 13.952 124.262C13.0907 124.895 12.4447 125.693 12.014 126.656C11.558 127.593 11.33 128.568 11.33 129.582ZM9.12599 106.984C9.12599 106.478 9.22732 106.022 9.42999 105.616C9.63265 105.211 9.93665 105.008 10.342 105.008C10.6967 105.008 10.988 105.11 11.216 105.312C11.4187 105.515 11.52 105.756 11.52 106.034C11.52 106.161 11.4567 106.414 11.33 106.794C11.2033 107.149 11.14 107.491 11.14 107.82C11.14 108.758 11.5073 109.695 12.242 110.632C12.9513 111.544 13.876 112.304 15.016 112.912C16.156 113.495 17.3087 113.786 18.474 113.786L27.86 113.786C28.1893 113.786 28.468 113.9 28.696 114.128C28.8987 114.331 29 114.597 29 114.926C29 115.256 28.8987 115.534 28.696 115.762C28.468 115.965 28.1893 116.066 27.86 116.066L10.836 116.066C10.5067 116.066 10.2407 115.965 10.038 115.762C9.80999 115.534 9.69599 115.256 9.69599 114.926C9.69599 114.597 9.80999 114.331 10.038 114.128C10.2407 113.9 10.5067 113.786 10.836 113.786L14.18 113.786C12.736 113.204 11.5453 112.33 10.608 111.164C9.64532 109.974 9.15132 108.58 9.12599 106.984ZM18.17 85.8828C18.474 85.8828 18.74 85.9968 18.968 86.2248C19.1707 86.4528 19.272 86.7188 19.272 87.0228L19.272 101.387C20.792 101.387 22.16 101.083 23.376 100.475C24.5667 99.8414 25.5167 98.9548 26.226 97.8148C26.91 96.6494 27.252 95.2814 27.252 93.7108C27.252 92.4948 26.9987 91.4054 26.492 90.4428C25.9853 89.4801 25.3393 88.7074 24.554 88.1248C24.326 87.8461 24.212 87.5801 24.212 87.3268C24.212 87.0734 24.3133 86.8454 24.516 86.6428C24.7187 86.4401 24.9467 86.3388 25.2 86.3388C25.4787 86.3388 25.7447 86.4654 25.998 86.7188C26.986 87.5294 27.7967 88.5554 28.43 89.7968C29.0633 91.0128 29.38 92.3048 29.38 93.6728C29.38 95.6234 28.962 97.3461 28.126 98.8408C27.29 100.335 26.1247 101.501 24.63 102.337C23.11 103.173 21.362 103.591 19.386 103.591C17.3087 103.591 15.4973 103.185 13.952 102.375C12.3813 101.539 11.1907 100.437 10.38 99.0688C9.54399 97.7008 9.12599 96.2441 9.12599 94.6988C9.12599 93.1788 9.48065 91.7601 10.19 90.4428C10.8993 89.1001 11.938 88.0108 13.306 87.1748C14.674 86.3388 16.2953 85.9081 18.17 85.8828ZM11.33 94.6988C11.33 96.1681 11.8367 97.5361 12.85 98.8028C13.8633 100.044 15.32 100.842 17.22 101.197L17.22 88.2388L16.916 88.2388C15.776 88.3654 14.788 88.7454 13.952 89.3788C13.0907 90.0121 12.4447 90.8101 12.014 91.7728C11.558 92.7101 11.33 93.6854 11.33 94.6988ZM0.879987 65.4135C0.879987 65.0842 0.993987 64.8182 1.22199 64.6155C1.42465 64.3875 1.69065 64.2735 2.01999 64.2735L27.86 64.2735C28.1893 64.2735 28.468 64.3875 28.696 64.6155C28.8987 64.8182 29 65.0842 29 65.4135C29 65.7429 28.8987 66.0215 28.696 66.2495C28.468 66.4522 28.1893 66.5535 27.86 66.5535L25.2 66.5535C26.3653 67.1869 27.3533 68.1369 28.164 69.4035C28.9747 70.6449 29.38 72.0255 29.38 73.5455C29.38 75.2175 28.9493 76.7375 28.088 78.1055C27.2013 79.4482 25.9853 80.5122 24.44 81.2975C22.8947 82.0829 21.1593 82.4755 19.234 82.4755C17.334 82.4755 15.6113 82.0829 14.066 81.2975C12.5207 80.5122 11.3173 79.4482 10.456 78.1055C9.56932 76.7375 9.12599 75.2302 9.12599 73.5835C9.12599 72.0889 9.50599 70.7082 10.266 69.4415C11.0007 68.1749 11.9633 67.2122 13.154 66.5535L2.01999 66.5535C1.69065 66.5535 1.42465 66.4522 1.22199 66.2495C0.993987 66.0215 0.879987 65.7429 0.879987 65.4135ZM27.252 73.3175C27.252 72.0002 26.91 70.8222 26.226 69.7835C25.542 68.7195 24.592 67.8962 23.376 67.3135C22.1347 66.7055 20.754 66.4015 19.234 66.4015C17.7393 66.4015 16.384 66.7055 15.168 67.3135C13.952 67.8962 13.002 68.7195 12.318 69.7835C11.6087 70.8222 11.254 72.0002 11.254 73.3175C11.254 74.6349 11.6087 75.8255 12.318 76.8895C13.002 77.9282 13.952 78.7515 15.168 79.3595C16.384 79.9422 17.7393 80.2335 19.234 80.2335C20.754 80.2335 22.122 79.9422 23.338 79.3595C24.554 78.7515 25.5167 77.9282 26.226 76.8895C26.91 75.8255 27.252 74.6349 27.252 73.3175ZM9.12599 38.6995C9.12599 37.0275 9.55665 35.5075 10.418 34.1395C11.2793 32.7715 12.4827 31.7075 14.028 30.9475C15.548 30.1622 17.2707 29.7695 19.196 29.7695C21.096 29.7695 22.8313 30.1622 24.402 30.9475C25.9473 31.7075 27.1633 32.7715 28.05 34.1395C28.9367 35.4822 29.38 36.9895 29.38 38.6615C29.38 40.1055 29.0253 41.4482 28.316 42.6895C27.5813 43.9055 26.6187 44.8935 25.428 45.6535L27.936 45.6535C28.2653 45.6535 28.544 45.7675 28.772 45.9955C29 46.1982 29.114 46.4642 29.114 46.7935C29.114 47.1229 29 47.4015 28.772 47.6295C28.544 47.8322 28.2653 47.9335 27.936 47.9335L2.05798 47.9335C1.72865 47.9335 1.46265 47.8322 1.25999 47.6295C1.03199 47.4015 0.917986 47.1229 0.917986 46.7935C0.917986 46.4642 1.03199 46.1982 1.25999 45.9955C1.46265 45.7675 1.72865 45.6535 2.05798 45.6535L13.268 45.6535C12.0267 44.9695 11.026 44.0069 10.266 42.7655C9.50599 41.5242 9.12599 40.1689 9.12599 38.6995ZM27.252 38.8895C27.252 37.5722 26.8973 36.3942 26.188 35.3555C25.4787 34.2915 24.516 33.4682 23.3 32.8855C22.0587 32.2775 20.6907 31.9735 19.196 31.9735C17.676 31.9735 16.3207 32.2775 15.13 32.8855C13.914 33.4682 12.964 34.2915 12.28 35.3555C11.596 36.3942 11.254 37.5722 11.254 38.8895C11.254 40.2322 11.596 41.4355 12.28 42.4995C12.9387 43.5635 13.876 44.3869 15.092 44.9695C16.308 45.5522 17.676 45.8435 19.196 45.8435C20.716 45.8435 22.0967 45.5522 23.338 44.9695C24.554 44.3615 25.5167 43.5382 26.226 42.4995C26.91 41.4355 27.252 40.2322 27.252 38.8895ZM9.23998 10.5962C9.23998 10.2668 9.35398 10.0008 9.58198 9.79817C9.78465 9.57017 10.0507 9.45617 10.38 9.45617L27.138 9.45617C29.1393 9.45617 30.8493 9.84884 32.268 10.6342C33.6867 11.4195 34.7633 12.5088 35.498 13.9022C36.2327 15.2955 36.6 16.8662 36.6 18.6142C36.6 19.6782 36.486 20.6788 36.258 21.6162C36.03 22.5282 35.726 23.2882 35.346 23.8962C35.0167 24.4282 34.6493 24.6942 34.244 24.6942C34.1933 24.6942 34.0667 24.6688 33.864 24.6182C33.6107 24.5422 33.4207 24.4155 33.294 24.2382C33.1673 24.0608 33.104 23.8708 33.104 23.6682C33.104 23.5162 33.142 23.3642 33.218 23.2122C34.1047 21.5908 34.548 20.0455 34.548 18.5762C34.548 16.4735 33.8893 14.8142 32.572 13.5982C31.2547 12.3568 29.456 11.7362 27.176 11.7362L25.846 11.7362C26.91 12.3695 27.7713 13.2815 28.43 14.4722C29.0633 15.6628 29.38 16.9548 29.38 18.3482C29.38 20.5522 28.7213 22.2242 27.404 23.3642C26.0867 24.5042 24.3007 25.0742 22.046 25.0742L10.38 25.0742C10.0507 25.0742 9.78465 24.9728 9.58198 24.7702C9.35398 24.5422 9.23998 24.2635 9.23998 23.9342C9.23998 23.6048 9.35398 23.3388 9.58198 23.1362C9.78465 22.9082 10.0507 22.7942 10.38 22.7942L21.704 22.7942C23.528 22.7942 24.9087 22.4015 25.846 21.6162C26.7833 20.8055 27.252 19.5515 27.252 17.8542C27.252 16.8155 26.9987 15.8275 26.492 14.8902C25.96 13.9275 25.276 13.1675 24.44 12.6102C23.5787 12.0275 22.6667 11.7362 21.704 11.7362L10.38 11.7362C10.0507 11.7362 9.78465 11.6348 9.58198 11.4322C9.35398 11.2042 9.23998 10.9255 9.23998 10.5962ZM28.886 0.550514C29.5953 0.550514 30.3047 0.740514 31.014 1.12051C31.7487 1.47518 32.344 1.93118 32.8 2.48851C33.2813 3.04585 33.522 3.59051 33.522 4.12251C33.522 4.40118 33.446 4.64185 33.294 4.84451C33.1673 5.02185 32.9647 5.11051 32.686 5.11051C32.4327 5.11051 32.2553 5.04718 32.154 4.92051C32.0527 4.79385 31.964 4.60385 31.888 4.35051C31.812 4.07185 31.736 3.86918 31.66 3.74251C31.4827 3.38785 31.2167 3.12185 30.862 2.94451C30.5327 2.74185 30.1653 2.64051 29.76 2.64051C29.4813 2.64051 29.2533 2.71651 29.076 2.86851C28.8987 3.02051 28.81 3.22318 28.81 3.47651C28.81 3.88185 28.924 4.22385 29.152 4.50251C28.8987 4.80651 28.5947 4.95851 28.24 4.95851C27.784 4.95851 27.3913 4.73051 27.062 4.27451C26.7073 3.81851 26.53 3.32451 26.53 2.79251C26.53 2.13385 26.7453 1.60185 27.176 1.19651C27.5813 0.765847 28.1513 0.550514 28.886 0.550514Z" fill="black"/>
</svg>
